%TF.GenerationSoftware,KiCad,Pcbnew,(5.1.12-1-10_14)*%
%TF.CreationDate,2022-01-30T11:33:22+08:00*%
%TF.ProjectId,nrf51822_devboard,6e726635-3138-4323-925f-646576626f61,rev?*%
%TF.SameCoordinates,Original*%
%TF.FileFunction,Copper,L4,Bot*%
%TF.FilePolarity,Positive*%
%FSLAX46Y46*%
G04 Gerber Fmt 4.6, Leading zero omitted, Abs format (unit mm)*
G04 Created by KiCad (PCBNEW (5.1.12-1-10_14)) date 2022-01-30 11:33:22*
%MOMM*%
%LPD*%
G01*
G04 APERTURE LIST*
%TA.AperFunction,ComponentPad*%
%ADD10O,1.700000X1.700000*%
%TD*%
%TA.AperFunction,ComponentPad*%
%ADD11R,1.700000X1.700000*%
%TD*%
%TA.AperFunction,ComponentPad*%
%ADD12O,1.800000X1.000000*%
%TD*%
%TA.AperFunction,ComponentPad*%
%ADD13O,2.000000X1.000000*%
%TD*%
%TA.AperFunction,ComponentPad*%
%ADD14O,1.000000X1.000000*%
%TD*%
%TA.AperFunction,ComponentPad*%
%ADD15R,1.000000X1.000000*%
%TD*%
%TA.AperFunction,ViaPad*%
%ADD16C,0.450000*%
%TD*%
%TA.AperFunction,Conductor*%
%ADD17C,0.200000*%
%TD*%
%TA.AperFunction,Conductor*%
%ADD18C,0.450000*%
%TD*%
G04 APERTURE END LIST*
D10*
%TO.P,J3,20*%
%TO.N,GND*%
X136150000Y-52140000D03*
%TO.P,J3,19*%
X136150000Y-54680000D03*
%TO.P,J3,18*%
X133610000Y-52140000D03*
%TO.P,J3,17*%
X133610000Y-54680000D03*
%TO.P,J3,16*%
%TO.N,P0.17*%
X131070000Y-52140000D03*
%TO.P,J3,15*%
%TO.N,P0.18*%
X131070000Y-54680000D03*
%TO.P,J3,14*%
%TO.N,P0.19*%
X128530000Y-52140000D03*
%TO.P,J3,13*%
%TO.N,P0.20*%
X128530000Y-54680000D03*
%TO.P,J3,12*%
%TO.N,P0.21*%
X125990000Y-52140000D03*
%TO.P,J3,11*%
%TO.N,P0.22*%
X125990000Y-54680000D03*
%TO.P,J3,10*%
%TO.N,P0.23*%
X123450000Y-52140000D03*
%TO.P,J3,9*%
%TO.N,P0.24*%
X123450000Y-54680000D03*
%TO.P,J3,8*%
%TO.N,P0.25*%
X120910000Y-52140000D03*
%TO.P,J3,7*%
%TO.N,P0.26*%
X120910000Y-54680000D03*
%TO.P,J3,6*%
%TO.N,P0.27*%
X118370000Y-52140000D03*
%TO.P,J3,5*%
%TO.N,P0.28*%
X118370000Y-54680000D03*
%TO.P,J3,4*%
%TO.N,P0.29*%
X115830000Y-52140000D03*
%TO.P,J3,3*%
%TO.N,P0.30*%
X115830000Y-54680000D03*
%TO.P,J3,2*%
%TO.N,+3V3*%
X113290000Y-52140000D03*
D11*
%TO.P,J3,1*%
X113290000Y-54680000D03*
%TD*%
D10*
%TO.P,J2,20*%
%TO.N,GND*%
X136150000Y-95320000D03*
%TO.P,J2,19*%
X136150000Y-97860000D03*
%TO.P,J2,18*%
%TO.N,P0.16*%
X133610000Y-95320000D03*
%TO.P,J2,17*%
%TO.N,P0.15*%
X133610000Y-97860000D03*
%TO.P,J2,16*%
%TO.N,P0.14*%
X131070000Y-95320000D03*
%TO.P,J2,15*%
%TO.N,P0.13*%
X131070000Y-97860000D03*
%TO.P,J2,14*%
%TO.N,P0.12*%
X128530000Y-95320000D03*
%TO.P,J2,13*%
%TO.N,P0.11*%
X128530000Y-97860000D03*
%TO.P,J2,12*%
%TO.N,P0.10*%
X125990000Y-95320000D03*
%TO.P,J2,11*%
%TO.N,P0.9*%
X125990000Y-97860000D03*
%TO.P,J2,10*%
%TO.N,P0.8*%
X123450000Y-95320000D03*
%TO.P,J2,9*%
%TO.N,P0.7*%
X123450000Y-97860000D03*
%TO.P,J2,8*%
%TO.N,P0.6*%
X120910000Y-95320000D03*
%TO.P,J2,7*%
%TO.N,P0.5*%
X120910000Y-97860000D03*
%TO.P,J2,6*%
%TO.N,P0.4*%
X118370000Y-95320000D03*
%TO.P,J2,5*%
%TO.N,P0.3*%
X118370000Y-97860000D03*
%TO.P,J2,4*%
%TO.N,P0.2*%
X115830000Y-95320000D03*
%TO.P,J2,3*%
%TO.N,P0.1*%
X115830000Y-97860000D03*
%TO.P,J2,2*%
%TO.N,P0.0*%
X113290000Y-95320000D03*
D11*
%TO.P,J2,1*%
%TO.N,+3V3*%
X113290000Y-97860000D03*
%TD*%
D12*
%TO.P,J1,0*%
%TO.N,Net-(J1-Pad0)*%
X103050000Y-78875000D03*
X103050000Y-71125000D03*
D13*
X106850000Y-78725000D03*
X106850000Y-71275000D03*
%TD*%
D14*
%TO.P,CON1,9*%
%TO.N,GND*%
X108275000Y-84550000D03*
%TO.P,CON1,10*%
%TO.N,P0.4*%
X107005000Y-84550000D03*
%TO.P,CON1,7*%
%TO.N,SWCLK*%
X108275000Y-85820000D03*
%TO.P,CON1,8*%
%TO.N,P0.5*%
X107005000Y-85820000D03*
%TO.P,CON1,5*%
%TO.N,SWDIO*%
X108275000Y-87090000D03*
%TO.P,CON1,6*%
%TO.N,GND*%
X107005000Y-87090000D03*
%TO.P,CON1,3*%
%TO.N,+3V3*%
X108275000Y-88360000D03*
%TO.P,CON1,4*%
%TO.N,N/C*%
X107005000Y-88360000D03*
%TO.P,CON1,2*%
X107005000Y-89630000D03*
D15*
%TO.P,CON1,1*%
X108275000Y-89630000D03*
%TD*%
D16*
%TO.N,GND*%
X118910000Y-69700000D03*
X118960000Y-58000000D03*
X109360000Y-77350000D03*
X141400000Y-73600000D03*
X140700000Y-73600000D03*
X140000000Y-73600000D03*
X139300000Y-73600000D03*
X138600000Y-73600000D03*
X137900000Y-73600000D03*
X137200000Y-73600000D03*
X136500000Y-73600000D03*
X135800000Y-73600000D03*
X135100000Y-73600000D03*
X134400000Y-73600000D03*
X133700000Y-73600000D03*
X133000000Y-73600000D03*
X141400000Y-75500000D03*
X140700000Y-75500000D03*
X140000000Y-75500000D03*
X140000000Y-76200000D03*
X140000000Y-76900000D03*
X141400000Y-76200000D03*
X141400000Y-76900000D03*
X112760000Y-62460000D03*
%TO.N,+3V3*%
X121140000Y-81120000D03*
X116040000Y-81220000D03*
X120380000Y-72770000D03*
X128660000Y-71620000D03*
%TO.N,SWCLK*%
X127353590Y-84462710D03*
%TO.N,SWDIO*%
X126960000Y-84980000D03*
%TO.N,P0.20*%
X129570000Y-76125000D03*
%TO.N,P0.19*%
X129850137Y-76711537D03*
%TO.N,P0.18*%
X130030933Y-77335889D03*
%TO.N,P0.17*%
X130511102Y-77773998D03*
%TD*%
D17*
%TO.N,SWCLK*%
X127345879Y-84454999D02*
X127353590Y-84462710D01*
X109857289Y-84237711D02*
X108275000Y-85820000D01*
X127128591Y-84237711D02*
X109857289Y-84237711D01*
X127353590Y-84462710D02*
X127128591Y-84237711D01*
%TO.N,SWDIO*%
X110385000Y-84980000D02*
X108275000Y-87090000D01*
X126960000Y-84980000D02*
X110385000Y-84980000D01*
%TO.N,P0.5*%
X107005000Y-85820000D02*
X105920000Y-85820000D01*
X105920000Y-85820000D02*
X105330000Y-86410000D01*
X105330000Y-86410000D02*
X105330000Y-91890000D01*
X105330000Y-91890000D02*
X106820000Y-93380000D01*
X119759999Y-96144300D02*
X120910000Y-97294301D01*
X119759999Y-94767999D02*
X119759999Y-96144300D01*
X118372000Y-93380000D02*
X119759999Y-94767999D01*
X120910000Y-97294301D02*
X120910000Y-97860000D01*
X106820000Y-93380000D02*
X118372000Y-93380000D01*
%TO.N,P0.4*%
X107005000Y-84550000D02*
X105800000Y-84550000D01*
X105800000Y-84550000D02*
X104720000Y-85630000D01*
X104720000Y-85630000D02*
X104720000Y-93750000D01*
X104720000Y-93750000D02*
X110190000Y-99220000D01*
X119520001Y-96470001D02*
X118370000Y-95320000D01*
X119520001Y-98412001D02*
X119520001Y-96470001D01*
X118712002Y-99220000D02*
X119520001Y-98412001D01*
X110190000Y-99220000D02*
X118712002Y-99220000D01*
D18*
%TO.N,Net-(J1-Pad0)*%
X106700000Y-71125000D02*
X106850000Y-71275000D01*
X103050000Y-71125000D02*
X106700000Y-71125000D01*
X106700000Y-78875000D02*
X106850000Y-78725000D01*
X103050000Y-78875000D02*
X106700000Y-78875000D01*
X103050000Y-78875000D02*
X103050000Y-71125000D01*
D17*
%TO.N,P0.20*%
X129570000Y-56680000D02*
X128530000Y-55640000D01*
X129570000Y-76125000D02*
X129570000Y-56680000D01*
X128530000Y-55640000D02*
X128530000Y-54680000D01*
%TO.N,P0.19*%
X129850137Y-76621865D02*
X129822001Y-76650001D01*
X129850137Y-76711537D02*
X129850137Y-76621865D01*
X130095001Y-76466673D02*
X130095001Y-56367003D01*
X129850137Y-76711537D02*
X130095001Y-76466673D01*
X129680001Y-53290001D02*
X128530000Y-52140000D01*
X129680001Y-55952003D02*
X129680001Y-53290001D01*
X130095001Y-56367003D02*
X129680001Y-55952003D01*
%TO.N,P0.18*%
X131070000Y-76296822D02*
X131070000Y-55640000D01*
X130030933Y-77335889D02*
X131070000Y-76296822D01*
X131070000Y-55640000D02*
X131070000Y-54680000D01*
%TO.N,P0.17*%
X132220001Y-53290001D02*
X131070000Y-52140000D01*
X132220001Y-76065099D02*
X132220001Y-53290001D01*
X130511102Y-77773998D02*
X132220001Y-76065099D01*
%TD*%
M02*
