M48
; DRILL file {KiCad (5.1.12-1-10_14)} date 2022 January 30, Sunday 11:33:25
; FORMAT={-:-/ absolute / inch / decimal}
; #@! TF.CreationDate,2022-01-30T11:33:25+08:00
; #@! TF.GenerationSoftware,Kicad,Pcbnew,(5.1.12-1-10_14)
; #@! TF.FileFunction,Plated,1,4,PTH
FMAT,2
INCH
T1C0.0098
T2C0.0157
T3C0.0197
T4C0.0236
T5C0.0276
T6C0.0394
%
G90
G05
T1
X4.3055Y-3.0453
X4.5685Y-3.1976
X4.6815Y-2.7441
X4.6835Y-2.2835
X4.7394Y-2.865
X4.7693Y-3.1937
X4.9984Y-3.3457
X5.0139Y-3.3253
X5.0654Y-2.8197
X5.1012Y-2.997
X5.1122Y-3.0201
X5.1193Y-3.0447
X5.1382Y-3.062
X5.2362Y-2.8976
X5.2638Y-2.8976
X5.2913Y-2.8976
X5.3189Y-2.8976
X5.3465Y-2.8976
X5.374Y-2.8976
X5.4016Y-2.8976
X5.4291Y-2.8976
X5.4567Y-2.8976
X5.4843Y-2.8976
X5.5118Y-2.8976
X5.5118Y-2.9724
X5.5118Y-3.0
X5.5118Y-3.0276
X5.5394Y-2.8976
X5.5394Y-2.9724
X5.5669Y-2.8976
X5.5669Y-2.9724
X5.5669Y-3.0
X5.5669Y-3.0276
T2
X4.4394Y-2.4591
T3
X4.2128Y-3.3287
X4.2128Y-3.3787
X4.2128Y-3.4287
X4.2128Y-3.4787
X4.2128Y-3.5287
X4.2628Y-3.3287
X4.2628Y-3.3787
X4.2628Y-3.4287
X4.2628Y-3.4787
X4.2628Y-3.5287
T6
X4.4602Y-2.0528
X4.4602Y-2.1528
X4.4602Y-3.7528
X4.4602Y-3.8528
X4.5602Y-2.0528
X4.5602Y-2.1528
X4.5602Y-3.7528
X4.5602Y-3.8528
X4.6602Y-2.0528
X4.6602Y-2.1528
X4.6602Y-3.7528
X4.6602Y-3.8528
X4.7602Y-2.0528
X4.7602Y-2.1528
X4.7602Y-3.7528
X4.7602Y-3.8528
X4.8602Y-2.0528
X4.8602Y-2.1528
X4.8602Y-3.7528
X4.8602Y-3.8528
X4.9602Y-2.0528
X4.9602Y-2.1528
X4.9602Y-3.7528
X4.9602Y-3.8528
X5.0602Y-2.0528
X5.0602Y-2.1528
X5.0602Y-3.7528
X5.0602Y-3.8528
X5.1602Y-2.0528
X5.1602Y-2.1528
X5.1602Y-3.7528
X5.1602Y-3.8528
X5.2602Y-2.0528
X5.2602Y-2.1528
X5.2602Y-3.7528
X5.2602Y-3.8528
X5.3602Y-2.0528
X5.3602Y-2.1528
X5.3602Y-3.7528
X5.3602Y-3.8528
T4
G00X4.0689Y-2.8002
M15
G01X4.0453Y-2.8002
M16
G05
G00X4.0689Y-3.1053
M15
G01X4.0453Y-3.1053
M16
G05
T5
G00X4.2205Y-2.8061
M15
G01X4.1929Y-2.8061
M16
G05
G00X4.2205Y-3.0994
M15
G01X4.1929Y-3.0994
M16
G05
T0
M30
