%TF.GenerationSoftware,KiCad,Pcbnew,(5.1.12-1-10_14)*%
%TF.CreationDate,2022-01-30T11:33:22+08:00*%
%TF.ProjectId,nrf51822_devboard,6e726635-3138-4323-925f-646576626f61,rev?*%
%TF.SameCoordinates,Original*%
%TF.FileFunction,Legend,Bot*%
%TF.FilePolarity,Positive*%
%FSLAX46Y46*%
G04 Gerber Fmt 4.6, Leading zero omitted, Abs format (unit mm)*
G04 Created by KiCad (PCBNEW (5.1.12-1-10_14)) date 2022-01-30 11:33:22*
%MOMM*%
%LPD*%
G01*
G04 APERTURE LIST*
%ADD10C,0.450000*%
G04 APERTURE END LIST*
D10*
X147247142Y-63874285D02*
X144247142Y-63874285D01*
X147247142Y-65588571D01*
X144247142Y-65588571D01*
X147247142Y-68731428D02*
X145818571Y-67731428D01*
X147247142Y-67017142D02*
X144247142Y-67017142D01*
X144247142Y-68160000D01*
X144390000Y-68445714D01*
X144532857Y-68588571D01*
X144818571Y-68731428D01*
X145247142Y-68731428D01*
X145532857Y-68588571D01*
X145675714Y-68445714D01*
X145818571Y-68160000D01*
X145818571Y-67017142D01*
X145675714Y-71017142D02*
X145675714Y-70017142D01*
X147247142Y-70017142D02*
X144247142Y-70017142D01*
X144247142Y-71445714D01*
X144247142Y-74017142D02*
X144247142Y-72588571D01*
X145675714Y-72445714D01*
X145532857Y-72588571D01*
X145390000Y-72874285D01*
X145390000Y-73588571D01*
X145532857Y-73874285D01*
X145675714Y-74017142D01*
X145961428Y-74160000D01*
X146675714Y-74160000D01*
X146961428Y-74017142D01*
X147104285Y-73874285D01*
X147247142Y-73588571D01*
X147247142Y-72874285D01*
X147104285Y-72588571D01*
X146961428Y-72445714D01*
X147247142Y-77017142D02*
X147247142Y-75302857D01*
X147247142Y-76160000D02*
X144247142Y-76160000D01*
X144675714Y-75874285D01*
X144961428Y-75588571D01*
X145104285Y-75302857D01*
X145532857Y-78731428D02*
X145390000Y-78445714D01*
X145247142Y-78302857D01*
X144961428Y-78160000D01*
X144818571Y-78160000D01*
X144532857Y-78302857D01*
X144390000Y-78445714D01*
X144247142Y-78731428D01*
X144247142Y-79302857D01*
X144390000Y-79588571D01*
X144532857Y-79731428D01*
X144818571Y-79874285D01*
X144961428Y-79874285D01*
X145247142Y-79731428D01*
X145390000Y-79588571D01*
X145532857Y-79302857D01*
X145532857Y-78731428D01*
X145675714Y-78445714D01*
X145818571Y-78302857D01*
X146104285Y-78160000D01*
X146675714Y-78160000D01*
X146961428Y-78302857D01*
X147104285Y-78445714D01*
X147247142Y-78731428D01*
X147247142Y-79302857D01*
X147104285Y-79588571D01*
X146961428Y-79731428D01*
X146675714Y-79874285D01*
X146104285Y-79874285D01*
X145818571Y-79731428D01*
X145675714Y-79588571D01*
X145532857Y-79302857D01*
X144532857Y-81017142D02*
X144390000Y-81160000D01*
X144247142Y-81445714D01*
X144247142Y-82160000D01*
X144390000Y-82445714D01*
X144532857Y-82588571D01*
X144818571Y-82731428D01*
X145104285Y-82731428D01*
X145532857Y-82588571D01*
X147247142Y-80874285D01*
X147247142Y-82731428D01*
X144532857Y-83874285D02*
X144390000Y-84017142D01*
X144247142Y-84302857D01*
X144247142Y-85017142D01*
X144390000Y-85302857D01*
X144532857Y-85445714D01*
X144818571Y-85588571D01*
X145104285Y-85588571D01*
X145532857Y-85445714D01*
X147247142Y-83731428D01*
X147247142Y-85588571D01*
M02*
