%TF.GenerationSoftware,KiCad,Pcbnew,(5.1.12-1-10_14)*%
%TF.CreationDate,2022-01-30T11:33:22+08:00*%
%TF.ProjectId,nrf51822_devboard,6e726635-3138-4323-925f-646576626f61,rev?*%
%TF.SameCoordinates,Original*%
%TF.FileFunction,Copper,L2,Inr*%
%TF.FilePolarity,Positive*%
%FSLAX46Y46*%
G04 Gerber Fmt 4.6, Leading zero omitted, Abs format (unit mm)*
G04 Created by KiCad (PCBNEW (5.1.12-1-10_14)) date 2022-01-30 11:33:22*
%MOMM*%
%LPD*%
G01*
G04 APERTURE LIST*
%TA.AperFunction,ComponentPad*%
%ADD10O,1.700000X1.700000*%
%TD*%
%TA.AperFunction,ComponentPad*%
%ADD11R,1.700000X1.700000*%
%TD*%
%TA.AperFunction,ComponentPad*%
%ADD12O,1.800000X1.000000*%
%TD*%
%TA.AperFunction,ComponentPad*%
%ADD13O,2.000000X1.000000*%
%TD*%
%TA.AperFunction,ComponentPad*%
%ADD14O,1.000000X1.000000*%
%TD*%
%TA.AperFunction,ComponentPad*%
%ADD15R,1.000000X1.000000*%
%TD*%
%TA.AperFunction,ViaPad*%
%ADD16C,0.450000*%
%TD*%
%TA.AperFunction,Conductor*%
%ADD17C,0.254000*%
%TD*%
%TA.AperFunction,Conductor*%
%ADD18C,0.100000*%
%TD*%
G04 APERTURE END LIST*
D10*
%TO.N,GND*%
%TO.C,J3*%
X136150000Y-52140000D03*
X136150000Y-54680000D03*
X133610000Y-52140000D03*
X133610000Y-54680000D03*
%TO.N,P0.17*%
X131070000Y-52140000D03*
%TO.N,P0.18*%
X131070000Y-54680000D03*
%TO.N,P0.19*%
X128530000Y-52140000D03*
%TO.N,P0.20*%
X128530000Y-54680000D03*
%TO.N,P0.21*%
X125990000Y-52140000D03*
%TO.N,P0.22*%
X125990000Y-54680000D03*
%TO.N,P0.23*%
X123450000Y-52140000D03*
%TO.N,P0.24*%
X123450000Y-54680000D03*
%TO.N,P0.25*%
X120910000Y-52140000D03*
%TO.N,P0.26*%
X120910000Y-54680000D03*
%TO.N,P0.27*%
X118370000Y-52140000D03*
%TO.N,P0.28*%
X118370000Y-54680000D03*
%TO.N,P0.29*%
X115830000Y-52140000D03*
%TO.N,P0.30*%
X115830000Y-54680000D03*
%TO.N,+3V3*%
X113290000Y-52140000D03*
D11*
X113290000Y-54680000D03*
%TD*%
D10*
%TO.N,GND*%
%TO.C,J2*%
X136150000Y-95320000D03*
X136150000Y-97860000D03*
%TO.N,P0.16*%
X133610000Y-95320000D03*
%TO.N,P0.15*%
X133610000Y-97860000D03*
%TO.N,P0.14*%
X131070000Y-95320000D03*
%TO.N,P0.13*%
X131070000Y-97860000D03*
%TO.N,P0.12*%
X128530000Y-95320000D03*
%TO.N,P0.11*%
X128530000Y-97860000D03*
%TO.N,P0.10*%
X125990000Y-95320000D03*
%TO.N,P0.9*%
X125990000Y-97860000D03*
%TO.N,P0.8*%
X123450000Y-95320000D03*
%TO.N,P0.7*%
X123450000Y-97860000D03*
%TO.N,P0.6*%
X120910000Y-95320000D03*
%TO.N,P0.5*%
X120910000Y-97860000D03*
%TO.N,P0.4*%
X118370000Y-95320000D03*
%TO.N,P0.3*%
X118370000Y-97860000D03*
%TO.N,P0.2*%
X115830000Y-95320000D03*
%TO.N,P0.1*%
X115830000Y-97860000D03*
%TO.N,P0.0*%
X113290000Y-95320000D03*
D11*
%TO.N,+3V3*%
X113290000Y-97860000D03*
%TD*%
D12*
%TO.N,Net-(J1-Pad0)*%
%TO.C,J1*%
X103050000Y-78875000D03*
X103050000Y-71125000D03*
D13*
X106850000Y-78725000D03*
X106850000Y-71275000D03*
%TD*%
D14*
%TO.N,GND*%
%TO.C,CON1*%
X108275000Y-84550000D03*
%TO.N,P0.4*%
X107005000Y-84550000D03*
%TO.N,SWCLK*%
X108275000Y-85820000D03*
%TO.N,P0.5*%
X107005000Y-85820000D03*
%TO.N,SWDIO*%
X108275000Y-87090000D03*
%TO.N,GND*%
X107005000Y-87090000D03*
%TO.N,+3V3*%
X108275000Y-88360000D03*
%TO.N,N/C*%
X107005000Y-88360000D03*
X107005000Y-89630000D03*
D15*
X108275000Y-89630000D03*
%TD*%
D16*
%TO.N,GND*%
X118910000Y-69700000D03*
X118960000Y-58000000D03*
X109360000Y-77350000D03*
X141400000Y-73600000D03*
X140700000Y-73600000D03*
X140000000Y-73600000D03*
X139300000Y-73600000D03*
X138600000Y-73600000D03*
X137900000Y-73600000D03*
X137200000Y-73600000D03*
X136500000Y-73600000D03*
X135800000Y-73600000D03*
X135100000Y-73600000D03*
X134400000Y-73600000D03*
X133700000Y-73600000D03*
X133000000Y-73600000D03*
X141400000Y-75500000D03*
X140700000Y-75500000D03*
X140000000Y-75500000D03*
X140000000Y-76200000D03*
X140000000Y-76900000D03*
X141400000Y-76200000D03*
X141400000Y-76900000D03*
X112760000Y-62460000D03*
%TO.N,+3V3*%
X121140000Y-81120000D03*
X116040000Y-81220000D03*
X120380000Y-72770000D03*
X128660000Y-71620000D03*
%TO.N,SWCLK*%
X127353590Y-84462710D03*
%TO.N,SWDIO*%
X126960000Y-84980000D03*
%TO.N,P0.20*%
X129570000Y-76125000D03*
%TO.N,P0.19*%
X129850137Y-76711537D03*
%TO.N,P0.18*%
X130030933Y-77335889D03*
%TO.N,P0.17*%
X130511102Y-77773998D03*
%TD*%
D17*
%TO.N,GND*%
X112856842Y-50712068D02*
X112586589Y-50824010D01*
X112343368Y-50986525D01*
X112136525Y-51193368D01*
X111974010Y-51436589D01*
X111862068Y-51706842D01*
X111805000Y-51993740D01*
X111805000Y-52286260D01*
X111862068Y-52573158D01*
X111974010Y-52843411D01*
X112136525Y-53086632D01*
X112268380Y-53218487D01*
X112195820Y-53240498D01*
X112085506Y-53299463D01*
X111988815Y-53378815D01*
X111909463Y-53475506D01*
X111850498Y-53585820D01*
X111814188Y-53705518D01*
X111801928Y-53830000D01*
X111801928Y-55530000D01*
X111814188Y-55654482D01*
X111850498Y-55774180D01*
X111909463Y-55884494D01*
X111988815Y-55981185D01*
X112085506Y-56060537D01*
X112195820Y-56119502D01*
X112315518Y-56155812D01*
X112440000Y-56168072D01*
X114140000Y-56168072D01*
X114264482Y-56155812D01*
X114384180Y-56119502D01*
X114494494Y-56060537D01*
X114591185Y-55981185D01*
X114670537Y-55884494D01*
X114729502Y-55774180D01*
X114751513Y-55701620D01*
X114883368Y-55833475D01*
X115126589Y-55995990D01*
X115396842Y-56107932D01*
X115683740Y-56165000D01*
X115976260Y-56165000D01*
X116263158Y-56107932D01*
X116533411Y-55995990D01*
X116776632Y-55833475D01*
X116983475Y-55626632D01*
X117100000Y-55452240D01*
X117216525Y-55626632D01*
X117423368Y-55833475D01*
X117666589Y-55995990D01*
X117936842Y-56107932D01*
X118223740Y-56165000D01*
X118516260Y-56165000D01*
X118803158Y-56107932D01*
X119073411Y-55995990D01*
X119316632Y-55833475D01*
X119523475Y-55626632D01*
X119640000Y-55452240D01*
X119756525Y-55626632D01*
X119963368Y-55833475D01*
X120206589Y-55995990D01*
X120476842Y-56107932D01*
X120763740Y-56165000D01*
X121056260Y-56165000D01*
X121343158Y-56107932D01*
X121613411Y-55995990D01*
X121856632Y-55833475D01*
X122063475Y-55626632D01*
X122180000Y-55452240D01*
X122296525Y-55626632D01*
X122503368Y-55833475D01*
X122746589Y-55995990D01*
X123016842Y-56107932D01*
X123303740Y-56165000D01*
X123596260Y-56165000D01*
X123883158Y-56107932D01*
X124153411Y-55995990D01*
X124396632Y-55833475D01*
X124603475Y-55626632D01*
X124720000Y-55452240D01*
X124836525Y-55626632D01*
X125043368Y-55833475D01*
X125286589Y-55995990D01*
X125556842Y-56107932D01*
X125843740Y-56165000D01*
X126136260Y-56165000D01*
X126423158Y-56107932D01*
X126693411Y-55995990D01*
X126936632Y-55833475D01*
X127143475Y-55626632D01*
X127260000Y-55452240D01*
X127376525Y-55626632D01*
X127583368Y-55833475D01*
X127826589Y-55995990D01*
X128096842Y-56107932D01*
X128383740Y-56165000D01*
X128676260Y-56165000D01*
X128963158Y-56107932D01*
X129233411Y-55995990D01*
X129476632Y-55833475D01*
X129683475Y-55626632D01*
X129800000Y-55452240D01*
X129916525Y-55626632D01*
X130123368Y-55833475D01*
X130366589Y-55995990D01*
X130636842Y-56107932D01*
X130923740Y-56165000D01*
X131216260Y-56165000D01*
X131503158Y-56107932D01*
X131773411Y-55995990D01*
X132016632Y-55833475D01*
X132223475Y-55626632D01*
X132345195Y-55444466D01*
X132414822Y-55561355D01*
X132609731Y-55777588D01*
X132843080Y-55951641D01*
X133105901Y-56076825D01*
X133253110Y-56121476D01*
X133483000Y-56000155D01*
X133483000Y-54807000D01*
X133737000Y-54807000D01*
X133737000Y-56000155D01*
X133966890Y-56121476D01*
X134114099Y-56076825D01*
X134376920Y-55951641D01*
X134610269Y-55777588D01*
X134805178Y-55561355D01*
X134880000Y-55435745D01*
X134954822Y-55561355D01*
X135149731Y-55777588D01*
X135383080Y-55951641D01*
X135645901Y-56076825D01*
X135793110Y-56121476D01*
X136023000Y-56000155D01*
X136023000Y-54807000D01*
X136277000Y-54807000D01*
X136277000Y-56000155D01*
X136506890Y-56121476D01*
X136654099Y-56076825D01*
X136916920Y-55951641D01*
X137150269Y-55777588D01*
X137345178Y-55561355D01*
X137494157Y-55311252D01*
X137591481Y-55036891D01*
X137470814Y-54807000D01*
X136277000Y-54807000D01*
X136023000Y-54807000D01*
X133737000Y-54807000D01*
X133483000Y-54807000D01*
X133463000Y-54807000D01*
X133463000Y-54553000D01*
X133483000Y-54553000D01*
X133483000Y-52267000D01*
X133737000Y-52267000D01*
X133737000Y-54553000D01*
X136023000Y-54553000D01*
X136023000Y-52267000D01*
X136277000Y-52267000D01*
X136277000Y-54553000D01*
X137470814Y-54553000D01*
X137591481Y-54323109D01*
X137494157Y-54048748D01*
X137345178Y-53798645D01*
X137150269Y-53582412D01*
X136919120Y-53410000D01*
X137150269Y-53237588D01*
X137345178Y-53021355D01*
X137489022Y-52779872D01*
X144765000Y-52779872D01*
X144765000Y-53220128D01*
X144850890Y-53651925D01*
X145019369Y-54058669D01*
X145263962Y-54424729D01*
X145575271Y-54736038D01*
X145941331Y-54980631D01*
X146348075Y-55149110D01*
X146779872Y-55235000D01*
X147220128Y-55235000D01*
X147651925Y-55149110D01*
X148058669Y-54980631D01*
X148424729Y-54736038D01*
X148736038Y-54424729D01*
X148980631Y-54058669D01*
X149149110Y-53651925D01*
X149235000Y-53220128D01*
X149235000Y-52779872D01*
X149149110Y-52348075D01*
X148980631Y-51941331D01*
X148736038Y-51575271D01*
X148424729Y-51263962D01*
X148058669Y-51019369D01*
X147651925Y-50850890D01*
X147220128Y-50765000D01*
X146779872Y-50765000D01*
X146348075Y-50850890D01*
X145941331Y-51019369D01*
X145575271Y-51263962D01*
X145263962Y-51575271D01*
X145019369Y-51941331D01*
X144850890Y-52348075D01*
X144765000Y-52779872D01*
X137489022Y-52779872D01*
X137494157Y-52771252D01*
X137591481Y-52496891D01*
X137470814Y-52267000D01*
X136277000Y-52267000D01*
X136023000Y-52267000D01*
X133737000Y-52267000D01*
X133483000Y-52267000D01*
X133463000Y-52267000D01*
X133463000Y-52013000D01*
X133483000Y-52013000D01*
X133483000Y-51993000D01*
X133737000Y-51993000D01*
X133737000Y-52013000D01*
X136023000Y-52013000D01*
X136023000Y-51993000D01*
X136277000Y-51993000D01*
X136277000Y-52013000D01*
X137470814Y-52013000D01*
X137591481Y-51783109D01*
X137494157Y-51508748D01*
X137345178Y-51258645D01*
X137150269Y-51042412D01*
X136916920Y-50868359D01*
X136654099Y-50743175D01*
X136506890Y-50698524D01*
X136277002Y-50819844D01*
X136277002Y-50660000D01*
X146967721Y-50660000D01*
X147453893Y-50707670D01*
X147890498Y-50839489D01*
X148293185Y-51053600D01*
X148646612Y-51341848D01*
X148937327Y-51693261D01*
X149154242Y-52094439D01*
X149289106Y-52530113D01*
X149340000Y-53014344D01*
X149340000Y-60152146D01*
X142112047Y-60152146D01*
X142087688Y-60154504D01*
X142063840Y-60161651D01*
X142041844Y-60173314D01*
X142022546Y-60189043D01*
X142006687Y-60208235D01*
X141994878Y-60230152D01*
X141987571Y-60253952D01*
X141985048Y-60278721D01*
X141885048Y-90128721D01*
X141887536Y-90154168D01*
X141894810Y-90177978D01*
X141906589Y-90199911D01*
X141922421Y-90219125D01*
X141941698Y-90234881D01*
X141963677Y-90246574D01*
X141987516Y-90253754D01*
X142012297Y-90256146D01*
X149340001Y-90241721D01*
X149340001Y-96967711D01*
X149292330Y-97453894D01*
X149160512Y-97890497D01*
X148946399Y-98293186D01*
X148658150Y-98646613D01*
X148306739Y-98937327D01*
X147905564Y-99154240D01*
X147469886Y-99289106D01*
X146985664Y-99340000D01*
X136277002Y-99340000D01*
X136277002Y-99180156D01*
X136506890Y-99301476D01*
X136654099Y-99256825D01*
X136916920Y-99131641D01*
X137150269Y-98957588D01*
X137345178Y-98741355D01*
X137494157Y-98491252D01*
X137591481Y-98216891D01*
X137470814Y-97987000D01*
X136277000Y-97987000D01*
X136277000Y-98007000D01*
X136023000Y-98007000D01*
X136023000Y-97987000D01*
X136003000Y-97987000D01*
X136003000Y-97733000D01*
X136023000Y-97733000D01*
X136023000Y-95447000D01*
X136277000Y-95447000D01*
X136277000Y-97733000D01*
X137470814Y-97733000D01*
X137591481Y-97503109D01*
X137494157Y-97228748D01*
X137345178Y-96978645D01*
X137166008Y-96779872D01*
X144765000Y-96779872D01*
X144765000Y-97220128D01*
X144850890Y-97651925D01*
X145019369Y-98058669D01*
X145263962Y-98424729D01*
X145575271Y-98736038D01*
X145941331Y-98980631D01*
X146348075Y-99149110D01*
X146779872Y-99235000D01*
X147220128Y-99235000D01*
X147651925Y-99149110D01*
X148058669Y-98980631D01*
X148424729Y-98736038D01*
X148736038Y-98424729D01*
X148980631Y-98058669D01*
X149149110Y-97651925D01*
X149235000Y-97220128D01*
X149235000Y-96779872D01*
X149149110Y-96348075D01*
X148980631Y-95941331D01*
X148736038Y-95575271D01*
X148424729Y-95263962D01*
X148058669Y-95019369D01*
X147651925Y-94850890D01*
X147220128Y-94765000D01*
X146779872Y-94765000D01*
X146348075Y-94850890D01*
X145941331Y-95019369D01*
X145575271Y-95263962D01*
X145263962Y-95575271D01*
X145019369Y-95941331D01*
X144850890Y-96348075D01*
X144765000Y-96779872D01*
X137166008Y-96779872D01*
X137150269Y-96762412D01*
X136919120Y-96590000D01*
X137150269Y-96417588D01*
X137345178Y-96201355D01*
X137494157Y-95951252D01*
X137591481Y-95676891D01*
X137470814Y-95447000D01*
X136277000Y-95447000D01*
X136023000Y-95447000D01*
X136003000Y-95447000D01*
X136003000Y-95193000D01*
X136023000Y-95193000D01*
X136023000Y-93999845D01*
X136277000Y-93999845D01*
X136277000Y-95193000D01*
X137470814Y-95193000D01*
X137591481Y-94963109D01*
X137494157Y-94688748D01*
X137345178Y-94438645D01*
X137150269Y-94222412D01*
X136916920Y-94048359D01*
X136654099Y-93923175D01*
X136506890Y-93878524D01*
X136277000Y-93999845D01*
X136023000Y-93999845D01*
X135793110Y-93878524D01*
X135645901Y-93923175D01*
X135383080Y-94048359D01*
X135149731Y-94222412D01*
X134954822Y-94438645D01*
X134885195Y-94555534D01*
X134763475Y-94373368D01*
X134556632Y-94166525D01*
X134313411Y-94004010D01*
X134043158Y-93892068D01*
X133756260Y-93835000D01*
X133463740Y-93835000D01*
X133176842Y-93892068D01*
X132906589Y-94004010D01*
X132663368Y-94166525D01*
X132456525Y-94373368D01*
X132340000Y-94547760D01*
X132223475Y-94373368D01*
X132016632Y-94166525D01*
X131773411Y-94004010D01*
X131503158Y-93892068D01*
X131216260Y-93835000D01*
X130923740Y-93835000D01*
X130636842Y-93892068D01*
X130366589Y-94004010D01*
X130123368Y-94166525D01*
X129916525Y-94373368D01*
X129800000Y-94547760D01*
X129683475Y-94373368D01*
X129476632Y-94166525D01*
X129233411Y-94004010D01*
X128963158Y-93892068D01*
X128676260Y-93835000D01*
X128383740Y-93835000D01*
X128096842Y-93892068D01*
X127826589Y-94004010D01*
X127583368Y-94166525D01*
X127376525Y-94373368D01*
X127260000Y-94547760D01*
X127143475Y-94373368D01*
X126936632Y-94166525D01*
X126693411Y-94004010D01*
X126423158Y-93892068D01*
X126136260Y-93835000D01*
X125843740Y-93835000D01*
X125556842Y-93892068D01*
X125286589Y-94004010D01*
X125043368Y-94166525D01*
X124836525Y-94373368D01*
X124720000Y-94547760D01*
X124603475Y-94373368D01*
X124396632Y-94166525D01*
X124153411Y-94004010D01*
X123883158Y-93892068D01*
X123596260Y-93835000D01*
X123303740Y-93835000D01*
X123016842Y-93892068D01*
X122746589Y-94004010D01*
X122503368Y-94166525D01*
X122296525Y-94373368D01*
X122180000Y-94547760D01*
X122063475Y-94373368D01*
X121856632Y-94166525D01*
X121613411Y-94004010D01*
X121343158Y-93892068D01*
X121056260Y-93835000D01*
X120763740Y-93835000D01*
X120476842Y-93892068D01*
X120206589Y-94004010D01*
X119963368Y-94166525D01*
X119756525Y-94373368D01*
X119640000Y-94547760D01*
X119523475Y-94373368D01*
X119316632Y-94166525D01*
X119073411Y-94004010D01*
X118803158Y-93892068D01*
X118516260Y-93835000D01*
X118223740Y-93835000D01*
X117936842Y-93892068D01*
X117666589Y-94004010D01*
X117423368Y-94166525D01*
X117216525Y-94373368D01*
X117100000Y-94547760D01*
X116983475Y-94373368D01*
X116776632Y-94166525D01*
X116533411Y-94004010D01*
X116263158Y-93892068D01*
X115976260Y-93835000D01*
X115683740Y-93835000D01*
X115396842Y-93892068D01*
X115126589Y-94004010D01*
X114883368Y-94166525D01*
X114676525Y-94373368D01*
X114560000Y-94547760D01*
X114443475Y-94373368D01*
X114236632Y-94166525D01*
X113993411Y-94004010D01*
X113723158Y-93892068D01*
X113436260Y-93835000D01*
X113143740Y-93835000D01*
X112856842Y-93892068D01*
X112586589Y-94004010D01*
X112343368Y-94166525D01*
X112136525Y-94373368D01*
X111974010Y-94616589D01*
X111862068Y-94886842D01*
X111805000Y-95173740D01*
X111805000Y-95466260D01*
X111862068Y-95753158D01*
X111974010Y-96023411D01*
X112136525Y-96266632D01*
X112268380Y-96398487D01*
X112195820Y-96420498D01*
X112085506Y-96479463D01*
X111988815Y-96558815D01*
X111909463Y-96655506D01*
X111850498Y-96765820D01*
X111814188Y-96885518D01*
X111801928Y-97010000D01*
X111801928Y-98710000D01*
X111814188Y-98834482D01*
X111850498Y-98954180D01*
X111909463Y-99064494D01*
X111988815Y-99161185D01*
X112085506Y-99240537D01*
X112195820Y-99299502D01*
X112315518Y-99335812D01*
X112358041Y-99340000D01*
X103032279Y-99340000D01*
X102546106Y-99292330D01*
X102109503Y-99160512D01*
X101706814Y-98946399D01*
X101353387Y-98658150D01*
X101062673Y-98306739D01*
X100845760Y-97905564D01*
X100710894Y-97469886D01*
X100660000Y-96985664D01*
X100660000Y-96779872D01*
X100765000Y-96779872D01*
X100765000Y-97220128D01*
X100850890Y-97651925D01*
X101019369Y-98058669D01*
X101263962Y-98424729D01*
X101575271Y-98736038D01*
X101941331Y-98980631D01*
X102348075Y-99149110D01*
X102779872Y-99235000D01*
X103220128Y-99235000D01*
X103651925Y-99149110D01*
X104058669Y-98980631D01*
X104424729Y-98736038D01*
X104736038Y-98424729D01*
X104980631Y-98058669D01*
X105149110Y-97651925D01*
X105235000Y-97220128D01*
X105235000Y-96779872D01*
X105149110Y-96348075D01*
X104980631Y-95941331D01*
X104736038Y-95575271D01*
X104424729Y-95263962D01*
X104058669Y-95019369D01*
X103651925Y-94850890D01*
X103220128Y-94765000D01*
X102779872Y-94765000D01*
X102348075Y-94850890D01*
X101941331Y-95019369D01*
X101575271Y-95263962D01*
X101263962Y-95575271D01*
X101019369Y-95941331D01*
X100850890Y-96348075D01*
X100765000Y-96779872D01*
X100660000Y-96779872D01*
X100660000Y-84438212D01*
X105870000Y-84438212D01*
X105870000Y-84661788D01*
X105913617Y-84881067D01*
X105999176Y-85087624D01*
X106064241Y-85185000D01*
X105999176Y-85282376D01*
X105913617Y-85488933D01*
X105870000Y-85708212D01*
X105870000Y-85931788D01*
X105913617Y-86151067D01*
X105999176Y-86357624D01*
X106067353Y-86459658D01*
X106017877Y-86529794D01*
X105927554Y-86733136D01*
X105910881Y-86788126D01*
X106037046Y-86963000D01*
X106878000Y-86963000D01*
X106878000Y-86951974D01*
X106893212Y-86955000D01*
X107116788Y-86955000D01*
X107132000Y-86951974D01*
X107132000Y-86963000D01*
X107143026Y-86963000D01*
X107140000Y-86978212D01*
X107140000Y-87201788D01*
X107143026Y-87217000D01*
X107132000Y-87217000D01*
X107132000Y-87228026D01*
X107116788Y-87225000D01*
X106893212Y-87225000D01*
X106878000Y-87228026D01*
X106878000Y-87217000D01*
X106037046Y-87217000D01*
X105910881Y-87391874D01*
X105927554Y-87446864D01*
X106017877Y-87650206D01*
X106067353Y-87720342D01*
X105999176Y-87822376D01*
X105913617Y-88028933D01*
X105870000Y-88248212D01*
X105870000Y-88471788D01*
X105913617Y-88691067D01*
X105999176Y-88897624D01*
X106064241Y-88995000D01*
X105999176Y-89092376D01*
X105913617Y-89298933D01*
X105870000Y-89518212D01*
X105870000Y-89741788D01*
X105913617Y-89961067D01*
X105999176Y-90167624D01*
X106123388Y-90353520D01*
X106281480Y-90511612D01*
X106467376Y-90635824D01*
X106673933Y-90721383D01*
X106893212Y-90765000D01*
X107116788Y-90765000D01*
X107336067Y-90721383D01*
X107447774Y-90675112D01*
X107530820Y-90719502D01*
X107650518Y-90755812D01*
X107775000Y-90768072D01*
X108775000Y-90768072D01*
X108899482Y-90755812D01*
X109019180Y-90719502D01*
X109129494Y-90660537D01*
X109226185Y-90581185D01*
X109305537Y-90484494D01*
X109364502Y-90374180D01*
X109400812Y-90254482D01*
X109413072Y-90130000D01*
X109413072Y-89130000D01*
X109400812Y-89005518D01*
X109364502Y-88885820D01*
X109320112Y-88802774D01*
X109366383Y-88691067D01*
X109410000Y-88471788D01*
X109410000Y-88248212D01*
X109366383Y-88028933D01*
X109280824Y-87822376D01*
X109215759Y-87725000D01*
X109280824Y-87627624D01*
X109366383Y-87421067D01*
X109410000Y-87201788D01*
X109410000Y-86978212D01*
X109366383Y-86758933D01*
X109280824Y-86552376D01*
X109215759Y-86455000D01*
X109280824Y-86357624D01*
X109366383Y-86151067D01*
X109410000Y-85931788D01*
X109410000Y-85708212D01*
X109366383Y-85488933D01*
X109280824Y-85282376D01*
X109212647Y-85180342D01*
X109262123Y-85110206D01*
X109352446Y-84906864D01*
X109355953Y-84895297D01*
X126100000Y-84895297D01*
X126100000Y-85064703D01*
X126133049Y-85230853D01*
X126197878Y-85387363D01*
X126291995Y-85528218D01*
X126411782Y-85648005D01*
X126552637Y-85742122D01*
X126709147Y-85806951D01*
X126875297Y-85840000D01*
X127044703Y-85840000D01*
X127210853Y-85806951D01*
X127367363Y-85742122D01*
X127508218Y-85648005D01*
X127628005Y-85528218D01*
X127722122Y-85387363D01*
X127786951Y-85230853D01*
X127792317Y-85203875D01*
X127901808Y-85130715D01*
X128021595Y-85010928D01*
X128115712Y-84870073D01*
X128180541Y-84713563D01*
X128213590Y-84547413D01*
X128213590Y-84378007D01*
X128180541Y-84211857D01*
X128115712Y-84055347D01*
X128021595Y-83914492D01*
X127901808Y-83794705D01*
X127760953Y-83700588D01*
X127604443Y-83635759D01*
X127438293Y-83602710D01*
X127268887Y-83602710D01*
X127102737Y-83635759D01*
X126946227Y-83700588D01*
X126805372Y-83794705D01*
X126685585Y-83914492D01*
X126591468Y-84055347D01*
X126526639Y-84211857D01*
X126521273Y-84238835D01*
X126411782Y-84311995D01*
X126291995Y-84431782D01*
X126197878Y-84572637D01*
X126133049Y-84729147D01*
X126100000Y-84895297D01*
X109355953Y-84895297D01*
X109369119Y-84851874D01*
X109242954Y-84677000D01*
X108402000Y-84677000D01*
X108402000Y-84688026D01*
X108386788Y-84685000D01*
X108163212Y-84685000D01*
X108148000Y-84688026D01*
X108148000Y-84677000D01*
X108136974Y-84677000D01*
X108140000Y-84661788D01*
X108140000Y-84438212D01*
X108136974Y-84423000D01*
X108148000Y-84423000D01*
X108148000Y-83580871D01*
X108402000Y-83580871D01*
X108402000Y-84423000D01*
X109242954Y-84423000D01*
X109369119Y-84248126D01*
X109352446Y-84193136D01*
X109262123Y-83989794D01*
X109133865Y-83807980D01*
X108972601Y-83654682D01*
X108784529Y-83535790D01*
X108576876Y-83455874D01*
X108402000Y-83580871D01*
X108148000Y-83580871D01*
X107973124Y-83455874D01*
X107765471Y-83535790D01*
X107644512Y-83612256D01*
X107542624Y-83544176D01*
X107336067Y-83458617D01*
X107116788Y-83415000D01*
X106893212Y-83415000D01*
X106673933Y-83458617D01*
X106467376Y-83544176D01*
X106281480Y-83668388D01*
X106123388Y-83826480D01*
X105999176Y-84012376D01*
X105913617Y-84218933D01*
X105870000Y-84438212D01*
X100660000Y-84438212D01*
X100660000Y-81135297D01*
X115180000Y-81135297D01*
X115180000Y-81304703D01*
X115213049Y-81470853D01*
X115277878Y-81627363D01*
X115371995Y-81768218D01*
X115491782Y-81888005D01*
X115632637Y-81982122D01*
X115789147Y-82046951D01*
X115955297Y-82080000D01*
X116124703Y-82080000D01*
X116290853Y-82046951D01*
X116447363Y-81982122D01*
X116588218Y-81888005D01*
X116708005Y-81768218D01*
X116802122Y-81627363D01*
X116866951Y-81470853D01*
X116900000Y-81304703D01*
X116900000Y-81135297D01*
X116880109Y-81035297D01*
X120280000Y-81035297D01*
X120280000Y-81204703D01*
X120313049Y-81370853D01*
X120377878Y-81527363D01*
X120471995Y-81668218D01*
X120591782Y-81788005D01*
X120732637Y-81882122D01*
X120889147Y-81946951D01*
X121055297Y-81980000D01*
X121224703Y-81980000D01*
X121390853Y-81946951D01*
X121547363Y-81882122D01*
X121688218Y-81788005D01*
X121808005Y-81668218D01*
X121902122Y-81527363D01*
X121966951Y-81370853D01*
X122000000Y-81204703D01*
X122000000Y-81035297D01*
X121966951Y-80869147D01*
X121902122Y-80712637D01*
X121808005Y-80571782D01*
X121688218Y-80451995D01*
X121547363Y-80357878D01*
X121390853Y-80293049D01*
X121224703Y-80260000D01*
X121055297Y-80260000D01*
X120889147Y-80293049D01*
X120732637Y-80357878D01*
X120591782Y-80451995D01*
X120471995Y-80571782D01*
X120377878Y-80712637D01*
X120313049Y-80869147D01*
X120280000Y-81035297D01*
X116880109Y-81035297D01*
X116866951Y-80969147D01*
X116802122Y-80812637D01*
X116708005Y-80671782D01*
X116588218Y-80551995D01*
X116447363Y-80457878D01*
X116290853Y-80393049D01*
X116124703Y-80360000D01*
X115955297Y-80360000D01*
X115789147Y-80393049D01*
X115632637Y-80457878D01*
X115491782Y-80551995D01*
X115371995Y-80671782D01*
X115277878Y-80812637D01*
X115213049Y-80969147D01*
X115180000Y-81135297D01*
X100660000Y-81135297D01*
X100660000Y-78875000D01*
X101509509Y-78875000D01*
X101531423Y-79097499D01*
X101596324Y-79311447D01*
X101701716Y-79508623D01*
X101843551Y-79681449D01*
X102016377Y-79823284D01*
X102213553Y-79928676D01*
X102427501Y-79993577D01*
X102594248Y-80010000D01*
X103505752Y-80010000D01*
X103672499Y-79993577D01*
X103886447Y-79928676D01*
X104083623Y-79823284D01*
X104256449Y-79681449D01*
X104398284Y-79508623D01*
X104503676Y-79311447D01*
X104568577Y-79097499D01*
X104590491Y-78875000D01*
X104568577Y-78652501D01*
X104503676Y-78438553D01*
X104398284Y-78241377D01*
X104256449Y-78068551D01*
X104083623Y-77926716D01*
X103886447Y-77821324D01*
X103672499Y-77756423D01*
X103505752Y-77740000D01*
X102594248Y-77740000D01*
X102427501Y-77756423D01*
X102213553Y-77821324D01*
X102016377Y-77926716D01*
X101843551Y-78068551D01*
X101701716Y-78241377D01*
X101596324Y-78438553D01*
X101531423Y-78652501D01*
X101509509Y-78875000D01*
X100660000Y-78875000D01*
X100660000Y-77398061D01*
X104765000Y-77398061D01*
X104765000Y-77601939D01*
X104804774Y-77801898D01*
X104882795Y-77990256D01*
X104996063Y-78159774D01*
X105140226Y-78303937D01*
X105266136Y-78388067D01*
X105231423Y-78502501D01*
X105209509Y-78725000D01*
X105231423Y-78947499D01*
X105296324Y-79161447D01*
X105401716Y-79358623D01*
X105543551Y-79531449D01*
X105716377Y-79673284D01*
X105913553Y-79778676D01*
X106127501Y-79843577D01*
X106294248Y-79860000D01*
X107405752Y-79860000D01*
X107572499Y-79843577D01*
X107786447Y-79778676D01*
X107983623Y-79673284D01*
X108156449Y-79531449D01*
X108298284Y-79358623D01*
X108403676Y-79161447D01*
X108468577Y-78947499D01*
X108490491Y-78725000D01*
X108468577Y-78502501D01*
X108403676Y-78288553D01*
X108298284Y-78091377D01*
X108156449Y-77918551D01*
X107983623Y-77776716D01*
X107786447Y-77671324D01*
X107572499Y-77606423D01*
X107405752Y-77590000D01*
X106835000Y-77590000D01*
X106835000Y-77398061D01*
X106795226Y-77198102D01*
X106717205Y-77009744D01*
X106603937Y-76840226D01*
X106459774Y-76696063D01*
X106290256Y-76582795D01*
X106101898Y-76504774D01*
X105901939Y-76465000D01*
X105698061Y-76465000D01*
X105498102Y-76504774D01*
X105309744Y-76582795D01*
X105140226Y-76696063D01*
X104996063Y-76840226D01*
X104882795Y-77009744D01*
X104804774Y-77198102D01*
X104765000Y-77398061D01*
X100660000Y-77398061D01*
X100660000Y-76040297D01*
X128710000Y-76040297D01*
X128710000Y-76209703D01*
X128743049Y-76375853D01*
X128807878Y-76532363D01*
X128901995Y-76673218D01*
X128990137Y-76761360D01*
X128990137Y-76796240D01*
X129023186Y-76962390D01*
X129088015Y-77118900D01*
X129172189Y-77244874D01*
X129170933Y-77251186D01*
X129170933Y-77420592D01*
X129203982Y-77586742D01*
X129268811Y-77743252D01*
X129362928Y-77884107D01*
X129482715Y-78003894D01*
X129623570Y-78098011D01*
X129733278Y-78143454D01*
X129748980Y-78181361D01*
X129843097Y-78322216D01*
X129962884Y-78442003D01*
X130103739Y-78536120D01*
X130260249Y-78600949D01*
X130426399Y-78633998D01*
X130595805Y-78633998D01*
X130761955Y-78600949D01*
X130918465Y-78536120D01*
X131059320Y-78442003D01*
X131179107Y-78322216D01*
X131273224Y-78181361D01*
X131338053Y-78024851D01*
X131371102Y-77858701D01*
X131371102Y-77689295D01*
X131338053Y-77523145D01*
X131273224Y-77366635D01*
X131179107Y-77225780D01*
X131059320Y-77105993D01*
X130918465Y-77011876D01*
X130808757Y-76966433D01*
X130793055Y-76928526D01*
X130708881Y-76802552D01*
X130710137Y-76796240D01*
X130710137Y-76626834D01*
X130677088Y-76460684D01*
X130612259Y-76304174D01*
X130518142Y-76163319D01*
X130430000Y-76075177D01*
X130430000Y-76040297D01*
X130396951Y-75874147D01*
X130332122Y-75717637D01*
X130238005Y-75576782D01*
X130118218Y-75456995D01*
X129977363Y-75362878D01*
X129820853Y-75298049D01*
X129654703Y-75265000D01*
X129485297Y-75265000D01*
X129319147Y-75298049D01*
X129162637Y-75362878D01*
X129021782Y-75456995D01*
X128901995Y-75576782D01*
X128807878Y-75717637D01*
X128743049Y-75874147D01*
X128710000Y-76040297D01*
X100660000Y-76040297D01*
X100660000Y-72398061D01*
X104765000Y-72398061D01*
X104765000Y-72601939D01*
X104804774Y-72801898D01*
X104882795Y-72990256D01*
X104996063Y-73159774D01*
X105140226Y-73303937D01*
X105309744Y-73417205D01*
X105498102Y-73495226D01*
X105698061Y-73535000D01*
X105901939Y-73535000D01*
X106101898Y-73495226D01*
X106290256Y-73417205D01*
X106459774Y-73303937D01*
X106603937Y-73159774D01*
X106717205Y-72990256D01*
X106795226Y-72801898D01*
X106818419Y-72685297D01*
X119520000Y-72685297D01*
X119520000Y-72854703D01*
X119553049Y-73020853D01*
X119617878Y-73177363D01*
X119711995Y-73318218D01*
X119831782Y-73438005D01*
X119972637Y-73532122D01*
X120129147Y-73596951D01*
X120295297Y-73630000D01*
X120464703Y-73630000D01*
X120630853Y-73596951D01*
X120787363Y-73532122D01*
X120928218Y-73438005D01*
X121048005Y-73318218D01*
X121142122Y-73177363D01*
X121206951Y-73020853D01*
X121240000Y-72854703D01*
X121240000Y-72685297D01*
X121206951Y-72519147D01*
X121142122Y-72362637D01*
X121048005Y-72221782D01*
X120928218Y-72101995D01*
X120787363Y-72007878D01*
X120630853Y-71943049D01*
X120464703Y-71910000D01*
X120295297Y-71910000D01*
X120129147Y-71943049D01*
X119972637Y-72007878D01*
X119831782Y-72101995D01*
X119711995Y-72221782D01*
X119617878Y-72362637D01*
X119553049Y-72519147D01*
X119520000Y-72685297D01*
X106818419Y-72685297D01*
X106835000Y-72601939D01*
X106835000Y-72410000D01*
X107405752Y-72410000D01*
X107572499Y-72393577D01*
X107786447Y-72328676D01*
X107983623Y-72223284D01*
X108156449Y-72081449D01*
X108298284Y-71908623D01*
X108403676Y-71711447D01*
X108457110Y-71535297D01*
X127800000Y-71535297D01*
X127800000Y-71704703D01*
X127833049Y-71870853D01*
X127897878Y-72027363D01*
X127991995Y-72168218D01*
X128111782Y-72288005D01*
X128252637Y-72382122D01*
X128409147Y-72446951D01*
X128575297Y-72480000D01*
X128744703Y-72480000D01*
X128910853Y-72446951D01*
X129067363Y-72382122D01*
X129208218Y-72288005D01*
X129328005Y-72168218D01*
X129422122Y-72027363D01*
X129486951Y-71870853D01*
X129520000Y-71704703D01*
X129520000Y-71535297D01*
X129486951Y-71369147D01*
X129422122Y-71212637D01*
X129328005Y-71071782D01*
X129208218Y-70951995D01*
X129067363Y-70857878D01*
X128910853Y-70793049D01*
X128744703Y-70760000D01*
X128575297Y-70760000D01*
X128409147Y-70793049D01*
X128252637Y-70857878D01*
X128111782Y-70951995D01*
X127991995Y-71071782D01*
X127897878Y-71212637D01*
X127833049Y-71369147D01*
X127800000Y-71535297D01*
X108457110Y-71535297D01*
X108468577Y-71497499D01*
X108490491Y-71275000D01*
X108468577Y-71052501D01*
X108403676Y-70838553D01*
X108298284Y-70641377D01*
X108156449Y-70468551D01*
X107983623Y-70326716D01*
X107786447Y-70221324D01*
X107572499Y-70156423D01*
X107405752Y-70140000D01*
X106294248Y-70140000D01*
X106127501Y-70156423D01*
X105913553Y-70221324D01*
X105716377Y-70326716D01*
X105543551Y-70468551D01*
X105401716Y-70641377D01*
X105296324Y-70838553D01*
X105231423Y-71052501D01*
X105209509Y-71275000D01*
X105231423Y-71497499D01*
X105266136Y-71611933D01*
X105140226Y-71696063D01*
X104996063Y-71840226D01*
X104882795Y-72009744D01*
X104804774Y-72198102D01*
X104765000Y-72398061D01*
X100660000Y-72398061D01*
X100660000Y-71125000D01*
X101509509Y-71125000D01*
X101531423Y-71347499D01*
X101596324Y-71561447D01*
X101701716Y-71758623D01*
X101843551Y-71931449D01*
X102016377Y-72073284D01*
X102213553Y-72178676D01*
X102427501Y-72243577D01*
X102594248Y-72260000D01*
X103505752Y-72260000D01*
X103672499Y-72243577D01*
X103886447Y-72178676D01*
X104083623Y-72073284D01*
X104256449Y-71931449D01*
X104398284Y-71758623D01*
X104503676Y-71561447D01*
X104568577Y-71347499D01*
X104590491Y-71125000D01*
X104568577Y-70902501D01*
X104503676Y-70688553D01*
X104398284Y-70491377D01*
X104256449Y-70318551D01*
X104083623Y-70176716D01*
X103886447Y-70071324D01*
X103672499Y-70006423D01*
X103505752Y-69990000D01*
X102594248Y-69990000D01*
X102427501Y-70006423D01*
X102213553Y-70071324D01*
X102016377Y-70176716D01*
X101843551Y-70318551D01*
X101701716Y-70491377D01*
X101596324Y-70688553D01*
X101531423Y-70902501D01*
X101509509Y-71125000D01*
X100660000Y-71125000D01*
X100660000Y-53032279D01*
X100684748Y-52779872D01*
X100765000Y-52779872D01*
X100765000Y-53220128D01*
X100850890Y-53651925D01*
X101019369Y-54058669D01*
X101263962Y-54424729D01*
X101575271Y-54736038D01*
X101941331Y-54980631D01*
X102348075Y-55149110D01*
X102779872Y-55235000D01*
X103220128Y-55235000D01*
X103651925Y-55149110D01*
X104058669Y-54980631D01*
X104424729Y-54736038D01*
X104736038Y-54424729D01*
X104980631Y-54058669D01*
X105149110Y-53651925D01*
X105235000Y-53220128D01*
X105235000Y-52779872D01*
X105149110Y-52348075D01*
X104980631Y-51941331D01*
X104736038Y-51575271D01*
X104424729Y-51263962D01*
X104058669Y-51019369D01*
X103651925Y-50850890D01*
X103220128Y-50765000D01*
X102779872Y-50765000D01*
X102348075Y-50850890D01*
X101941331Y-51019369D01*
X101575271Y-51263962D01*
X101263962Y-51575271D01*
X101019369Y-51941331D01*
X100850890Y-52348075D01*
X100765000Y-52779872D01*
X100684748Y-52779872D01*
X100707670Y-52546107D01*
X100839489Y-52109502D01*
X101053600Y-51706815D01*
X101341848Y-51353388D01*
X101693261Y-51062673D01*
X102094439Y-50845758D01*
X102530113Y-50710894D01*
X103014344Y-50660000D01*
X113118603Y-50660000D01*
X112856842Y-50712068D01*
%TA.AperFunction,Conductor*%
D18*
G36*
X112856842Y-50712068D02*
G01*
X112586589Y-50824010D01*
X112343368Y-50986525D01*
X112136525Y-51193368D01*
X111974010Y-51436589D01*
X111862068Y-51706842D01*
X111805000Y-51993740D01*
X111805000Y-52286260D01*
X111862068Y-52573158D01*
X111974010Y-52843411D01*
X112136525Y-53086632D01*
X112268380Y-53218487D01*
X112195820Y-53240498D01*
X112085506Y-53299463D01*
X111988815Y-53378815D01*
X111909463Y-53475506D01*
X111850498Y-53585820D01*
X111814188Y-53705518D01*
X111801928Y-53830000D01*
X111801928Y-55530000D01*
X111814188Y-55654482D01*
X111850498Y-55774180D01*
X111909463Y-55884494D01*
X111988815Y-55981185D01*
X112085506Y-56060537D01*
X112195820Y-56119502D01*
X112315518Y-56155812D01*
X112440000Y-56168072D01*
X114140000Y-56168072D01*
X114264482Y-56155812D01*
X114384180Y-56119502D01*
X114494494Y-56060537D01*
X114591185Y-55981185D01*
X114670537Y-55884494D01*
X114729502Y-55774180D01*
X114751513Y-55701620D01*
X114883368Y-55833475D01*
X115126589Y-55995990D01*
X115396842Y-56107932D01*
X115683740Y-56165000D01*
X115976260Y-56165000D01*
X116263158Y-56107932D01*
X116533411Y-55995990D01*
X116776632Y-55833475D01*
X116983475Y-55626632D01*
X117100000Y-55452240D01*
X117216525Y-55626632D01*
X117423368Y-55833475D01*
X117666589Y-55995990D01*
X117936842Y-56107932D01*
X118223740Y-56165000D01*
X118516260Y-56165000D01*
X118803158Y-56107932D01*
X119073411Y-55995990D01*
X119316632Y-55833475D01*
X119523475Y-55626632D01*
X119640000Y-55452240D01*
X119756525Y-55626632D01*
X119963368Y-55833475D01*
X120206589Y-55995990D01*
X120476842Y-56107932D01*
X120763740Y-56165000D01*
X121056260Y-56165000D01*
X121343158Y-56107932D01*
X121613411Y-55995990D01*
X121856632Y-55833475D01*
X122063475Y-55626632D01*
X122180000Y-55452240D01*
X122296525Y-55626632D01*
X122503368Y-55833475D01*
X122746589Y-55995990D01*
X123016842Y-56107932D01*
X123303740Y-56165000D01*
X123596260Y-56165000D01*
X123883158Y-56107932D01*
X124153411Y-55995990D01*
X124396632Y-55833475D01*
X124603475Y-55626632D01*
X124720000Y-55452240D01*
X124836525Y-55626632D01*
X125043368Y-55833475D01*
X125286589Y-55995990D01*
X125556842Y-56107932D01*
X125843740Y-56165000D01*
X126136260Y-56165000D01*
X126423158Y-56107932D01*
X126693411Y-55995990D01*
X126936632Y-55833475D01*
X127143475Y-55626632D01*
X127260000Y-55452240D01*
X127376525Y-55626632D01*
X127583368Y-55833475D01*
X127826589Y-55995990D01*
X128096842Y-56107932D01*
X128383740Y-56165000D01*
X128676260Y-56165000D01*
X128963158Y-56107932D01*
X129233411Y-55995990D01*
X129476632Y-55833475D01*
X129683475Y-55626632D01*
X129800000Y-55452240D01*
X129916525Y-55626632D01*
X130123368Y-55833475D01*
X130366589Y-55995990D01*
X130636842Y-56107932D01*
X130923740Y-56165000D01*
X131216260Y-56165000D01*
X131503158Y-56107932D01*
X131773411Y-55995990D01*
X132016632Y-55833475D01*
X132223475Y-55626632D01*
X132345195Y-55444466D01*
X132414822Y-55561355D01*
X132609731Y-55777588D01*
X132843080Y-55951641D01*
X133105901Y-56076825D01*
X133253110Y-56121476D01*
X133483000Y-56000155D01*
X133483000Y-54807000D01*
X133737000Y-54807000D01*
X133737000Y-56000155D01*
X133966890Y-56121476D01*
X134114099Y-56076825D01*
X134376920Y-55951641D01*
X134610269Y-55777588D01*
X134805178Y-55561355D01*
X134880000Y-55435745D01*
X134954822Y-55561355D01*
X135149731Y-55777588D01*
X135383080Y-55951641D01*
X135645901Y-56076825D01*
X135793110Y-56121476D01*
X136023000Y-56000155D01*
X136023000Y-54807000D01*
X136277000Y-54807000D01*
X136277000Y-56000155D01*
X136506890Y-56121476D01*
X136654099Y-56076825D01*
X136916920Y-55951641D01*
X137150269Y-55777588D01*
X137345178Y-55561355D01*
X137494157Y-55311252D01*
X137591481Y-55036891D01*
X137470814Y-54807000D01*
X136277000Y-54807000D01*
X136023000Y-54807000D01*
X133737000Y-54807000D01*
X133483000Y-54807000D01*
X133463000Y-54807000D01*
X133463000Y-54553000D01*
X133483000Y-54553000D01*
X133483000Y-52267000D01*
X133737000Y-52267000D01*
X133737000Y-54553000D01*
X136023000Y-54553000D01*
X136023000Y-52267000D01*
X136277000Y-52267000D01*
X136277000Y-54553000D01*
X137470814Y-54553000D01*
X137591481Y-54323109D01*
X137494157Y-54048748D01*
X137345178Y-53798645D01*
X137150269Y-53582412D01*
X136919120Y-53410000D01*
X137150269Y-53237588D01*
X137345178Y-53021355D01*
X137489022Y-52779872D01*
X144765000Y-52779872D01*
X144765000Y-53220128D01*
X144850890Y-53651925D01*
X145019369Y-54058669D01*
X145263962Y-54424729D01*
X145575271Y-54736038D01*
X145941331Y-54980631D01*
X146348075Y-55149110D01*
X146779872Y-55235000D01*
X147220128Y-55235000D01*
X147651925Y-55149110D01*
X148058669Y-54980631D01*
X148424729Y-54736038D01*
X148736038Y-54424729D01*
X148980631Y-54058669D01*
X149149110Y-53651925D01*
X149235000Y-53220128D01*
X149235000Y-52779872D01*
X149149110Y-52348075D01*
X148980631Y-51941331D01*
X148736038Y-51575271D01*
X148424729Y-51263962D01*
X148058669Y-51019369D01*
X147651925Y-50850890D01*
X147220128Y-50765000D01*
X146779872Y-50765000D01*
X146348075Y-50850890D01*
X145941331Y-51019369D01*
X145575271Y-51263962D01*
X145263962Y-51575271D01*
X145019369Y-51941331D01*
X144850890Y-52348075D01*
X144765000Y-52779872D01*
X137489022Y-52779872D01*
X137494157Y-52771252D01*
X137591481Y-52496891D01*
X137470814Y-52267000D01*
X136277000Y-52267000D01*
X136023000Y-52267000D01*
X133737000Y-52267000D01*
X133483000Y-52267000D01*
X133463000Y-52267000D01*
X133463000Y-52013000D01*
X133483000Y-52013000D01*
X133483000Y-51993000D01*
X133737000Y-51993000D01*
X133737000Y-52013000D01*
X136023000Y-52013000D01*
X136023000Y-51993000D01*
X136277000Y-51993000D01*
X136277000Y-52013000D01*
X137470814Y-52013000D01*
X137591481Y-51783109D01*
X137494157Y-51508748D01*
X137345178Y-51258645D01*
X137150269Y-51042412D01*
X136916920Y-50868359D01*
X136654099Y-50743175D01*
X136506890Y-50698524D01*
X136277002Y-50819844D01*
X136277002Y-50660000D01*
X146967721Y-50660000D01*
X147453893Y-50707670D01*
X147890498Y-50839489D01*
X148293185Y-51053600D01*
X148646612Y-51341848D01*
X148937327Y-51693261D01*
X149154242Y-52094439D01*
X149289106Y-52530113D01*
X149340000Y-53014344D01*
X149340000Y-60152146D01*
X142112047Y-60152146D01*
X142087688Y-60154504D01*
X142063840Y-60161651D01*
X142041844Y-60173314D01*
X142022546Y-60189043D01*
X142006687Y-60208235D01*
X141994878Y-60230152D01*
X141987571Y-60253952D01*
X141985048Y-60278721D01*
X141885048Y-90128721D01*
X141887536Y-90154168D01*
X141894810Y-90177978D01*
X141906589Y-90199911D01*
X141922421Y-90219125D01*
X141941698Y-90234881D01*
X141963677Y-90246574D01*
X141987516Y-90253754D01*
X142012297Y-90256146D01*
X149340001Y-90241721D01*
X149340001Y-96967711D01*
X149292330Y-97453894D01*
X149160512Y-97890497D01*
X148946399Y-98293186D01*
X148658150Y-98646613D01*
X148306739Y-98937327D01*
X147905564Y-99154240D01*
X147469886Y-99289106D01*
X146985664Y-99340000D01*
X136277002Y-99340000D01*
X136277002Y-99180156D01*
X136506890Y-99301476D01*
X136654099Y-99256825D01*
X136916920Y-99131641D01*
X137150269Y-98957588D01*
X137345178Y-98741355D01*
X137494157Y-98491252D01*
X137591481Y-98216891D01*
X137470814Y-97987000D01*
X136277000Y-97987000D01*
X136277000Y-98007000D01*
X136023000Y-98007000D01*
X136023000Y-97987000D01*
X136003000Y-97987000D01*
X136003000Y-97733000D01*
X136023000Y-97733000D01*
X136023000Y-95447000D01*
X136277000Y-95447000D01*
X136277000Y-97733000D01*
X137470814Y-97733000D01*
X137591481Y-97503109D01*
X137494157Y-97228748D01*
X137345178Y-96978645D01*
X137166008Y-96779872D01*
X144765000Y-96779872D01*
X144765000Y-97220128D01*
X144850890Y-97651925D01*
X145019369Y-98058669D01*
X145263962Y-98424729D01*
X145575271Y-98736038D01*
X145941331Y-98980631D01*
X146348075Y-99149110D01*
X146779872Y-99235000D01*
X147220128Y-99235000D01*
X147651925Y-99149110D01*
X148058669Y-98980631D01*
X148424729Y-98736038D01*
X148736038Y-98424729D01*
X148980631Y-98058669D01*
X149149110Y-97651925D01*
X149235000Y-97220128D01*
X149235000Y-96779872D01*
X149149110Y-96348075D01*
X148980631Y-95941331D01*
X148736038Y-95575271D01*
X148424729Y-95263962D01*
X148058669Y-95019369D01*
X147651925Y-94850890D01*
X147220128Y-94765000D01*
X146779872Y-94765000D01*
X146348075Y-94850890D01*
X145941331Y-95019369D01*
X145575271Y-95263962D01*
X145263962Y-95575271D01*
X145019369Y-95941331D01*
X144850890Y-96348075D01*
X144765000Y-96779872D01*
X137166008Y-96779872D01*
X137150269Y-96762412D01*
X136919120Y-96590000D01*
X137150269Y-96417588D01*
X137345178Y-96201355D01*
X137494157Y-95951252D01*
X137591481Y-95676891D01*
X137470814Y-95447000D01*
X136277000Y-95447000D01*
X136023000Y-95447000D01*
X136003000Y-95447000D01*
X136003000Y-95193000D01*
X136023000Y-95193000D01*
X136023000Y-93999845D01*
X136277000Y-93999845D01*
X136277000Y-95193000D01*
X137470814Y-95193000D01*
X137591481Y-94963109D01*
X137494157Y-94688748D01*
X137345178Y-94438645D01*
X137150269Y-94222412D01*
X136916920Y-94048359D01*
X136654099Y-93923175D01*
X136506890Y-93878524D01*
X136277000Y-93999845D01*
X136023000Y-93999845D01*
X135793110Y-93878524D01*
X135645901Y-93923175D01*
X135383080Y-94048359D01*
X135149731Y-94222412D01*
X134954822Y-94438645D01*
X134885195Y-94555534D01*
X134763475Y-94373368D01*
X134556632Y-94166525D01*
X134313411Y-94004010D01*
X134043158Y-93892068D01*
X133756260Y-93835000D01*
X133463740Y-93835000D01*
X133176842Y-93892068D01*
X132906589Y-94004010D01*
X132663368Y-94166525D01*
X132456525Y-94373368D01*
X132340000Y-94547760D01*
X132223475Y-94373368D01*
X132016632Y-94166525D01*
X131773411Y-94004010D01*
X131503158Y-93892068D01*
X131216260Y-93835000D01*
X130923740Y-93835000D01*
X130636842Y-93892068D01*
X130366589Y-94004010D01*
X130123368Y-94166525D01*
X129916525Y-94373368D01*
X129800000Y-94547760D01*
X129683475Y-94373368D01*
X129476632Y-94166525D01*
X129233411Y-94004010D01*
X128963158Y-93892068D01*
X128676260Y-93835000D01*
X128383740Y-93835000D01*
X128096842Y-93892068D01*
X127826589Y-94004010D01*
X127583368Y-94166525D01*
X127376525Y-94373368D01*
X127260000Y-94547760D01*
X127143475Y-94373368D01*
X126936632Y-94166525D01*
X126693411Y-94004010D01*
X126423158Y-93892068D01*
X126136260Y-93835000D01*
X125843740Y-93835000D01*
X125556842Y-93892068D01*
X125286589Y-94004010D01*
X125043368Y-94166525D01*
X124836525Y-94373368D01*
X124720000Y-94547760D01*
X124603475Y-94373368D01*
X124396632Y-94166525D01*
X124153411Y-94004010D01*
X123883158Y-93892068D01*
X123596260Y-93835000D01*
X123303740Y-93835000D01*
X123016842Y-93892068D01*
X122746589Y-94004010D01*
X122503368Y-94166525D01*
X122296525Y-94373368D01*
X122180000Y-94547760D01*
X122063475Y-94373368D01*
X121856632Y-94166525D01*
X121613411Y-94004010D01*
X121343158Y-93892068D01*
X121056260Y-93835000D01*
X120763740Y-93835000D01*
X120476842Y-93892068D01*
X120206589Y-94004010D01*
X119963368Y-94166525D01*
X119756525Y-94373368D01*
X119640000Y-94547760D01*
X119523475Y-94373368D01*
X119316632Y-94166525D01*
X119073411Y-94004010D01*
X118803158Y-93892068D01*
X118516260Y-93835000D01*
X118223740Y-93835000D01*
X117936842Y-93892068D01*
X117666589Y-94004010D01*
X117423368Y-94166525D01*
X117216525Y-94373368D01*
X117100000Y-94547760D01*
X116983475Y-94373368D01*
X116776632Y-94166525D01*
X116533411Y-94004010D01*
X116263158Y-93892068D01*
X115976260Y-93835000D01*
X115683740Y-93835000D01*
X115396842Y-93892068D01*
X115126589Y-94004010D01*
X114883368Y-94166525D01*
X114676525Y-94373368D01*
X114560000Y-94547760D01*
X114443475Y-94373368D01*
X114236632Y-94166525D01*
X113993411Y-94004010D01*
X113723158Y-93892068D01*
X113436260Y-93835000D01*
X113143740Y-93835000D01*
X112856842Y-93892068D01*
X112586589Y-94004010D01*
X112343368Y-94166525D01*
X112136525Y-94373368D01*
X111974010Y-94616589D01*
X111862068Y-94886842D01*
X111805000Y-95173740D01*
X111805000Y-95466260D01*
X111862068Y-95753158D01*
X111974010Y-96023411D01*
X112136525Y-96266632D01*
X112268380Y-96398487D01*
X112195820Y-96420498D01*
X112085506Y-96479463D01*
X111988815Y-96558815D01*
X111909463Y-96655506D01*
X111850498Y-96765820D01*
X111814188Y-96885518D01*
X111801928Y-97010000D01*
X111801928Y-98710000D01*
X111814188Y-98834482D01*
X111850498Y-98954180D01*
X111909463Y-99064494D01*
X111988815Y-99161185D01*
X112085506Y-99240537D01*
X112195820Y-99299502D01*
X112315518Y-99335812D01*
X112358041Y-99340000D01*
X103032279Y-99340000D01*
X102546106Y-99292330D01*
X102109503Y-99160512D01*
X101706814Y-98946399D01*
X101353387Y-98658150D01*
X101062673Y-98306739D01*
X100845760Y-97905564D01*
X100710894Y-97469886D01*
X100660000Y-96985664D01*
X100660000Y-96779872D01*
X100765000Y-96779872D01*
X100765000Y-97220128D01*
X100850890Y-97651925D01*
X101019369Y-98058669D01*
X101263962Y-98424729D01*
X101575271Y-98736038D01*
X101941331Y-98980631D01*
X102348075Y-99149110D01*
X102779872Y-99235000D01*
X103220128Y-99235000D01*
X103651925Y-99149110D01*
X104058669Y-98980631D01*
X104424729Y-98736038D01*
X104736038Y-98424729D01*
X104980631Y-98058669D01*
X105149110Y-97651925D01*
X105235000Y-97220128D01*
X105235000Y-96779872D01*
X105149110Y-96348075D01*
X104980631Y-95941331D01*
X104736038Y-95575271D01*
X104424729Y-95263962D01*
X104058669Y-95019369D01*
X103651925Y-94850890D01*
X103220128Y-94765000D01*
X102779872Y-94765000D01*
X102348075Y-94850890D01*
X101941331Y-95019369D01*
X101575271Y-95263962D01*
X101263962Y-95575271D01*
X101019369Y-95941331D01*
X100850890Y-96348075D01*
X100765000Y-96779872D01*
X100660000Y-96779872D01*
X100660000Y-84438212D01*
X105870000Y-84438212D01*
X105870000Y-84661788D01*
X105913617Y-84881067D01*
X105999176Y-85087624D01*
X106064241Y-85185000D01*
X105999176Y-85282376D01*
X105913617Y-85488933D01*
X105870000Y-85708212D01*
X105870000Y-85931788D01*
X105913617Y-86151067D01*
X105999176Y-86357624D01*
X106067353Y-86459658D01*
X106017877Y-86529794D01*
X105927554Y-86733136D01*
X105910881Y-86788126D01*
X106037046Y-86963000D01*
X106878000Y-86963000D01*
X106878000Y-86951974D01*
X106893212Y-86955000D01*
X107116788Y-86955000D01*
X107132000Y-86951974D01*
X107132000Y-86963000D01*
X107143026Y-86963000D01*
X107140000Y-86978212D01*
X107140000Y-87201788D01*
X107143026Y-87217000D01*
X107132000Y-87217000D01*
X107132000Y-87228026D01*
X107116788Y-87225000D01*
X106893212Y-87225000D01*
X106878000Y-87228026D01*
X106878000Y-87217000D01*
X106037046Y-87217000D01*
X105910881Y-87391874D01*
X105927554Y-87446864D01*
X106017877Y-87650206D01*
X106067353Y-87720342D01*
X105999176Y-87822376D01*
X105913617Y-88028933D01*
X105870000Y-88248212D01*
X105870000Y-88471788D01*
X105913617Y-88691067D01*
X105999176Y-88897624D01*
X106064241Y-88995000D01*
X105999176Y-89092376D01*
X105913617Y-89298933D01*
X105870000Y-89518212D01*
X105870000Y-89741788D01*
X105913617Y-89961067D01*
X105999176Y-90167624D01*
X106123388Y-90353520D01*
X106281480Y-90511612D01*
X106467376Y-90635824D01*
X106673933Y-90721383D01*
X106893212Y-90765000D01*
X107116788Y-90765000D01*
X107336067Y-90721383D01*
X107447774Y-90675112D01*
X107530820Y-90719502D01*
X107650518Y-90755812D01*
X107775000Y-90768072D01*
X108775000Y-90768072D01*
X108899482Y-90755812D01*
X109019180Y-90719502D01*
X109129494Y-90660537D01*
X109226185Y-90581185D01*
X109305537Y-90484494D01*
X109364502Y-90374180D01*
X109400812Y-90254482D01*
X109413072Y-90130000D01*
X109413072Y-89130000D01*
X109400812Y-89005518D01*
X109364502Y-88885820D01*
X109320112Y-88802774D01*
X109366383Y-88691067D01*
X109410000Y-88471788D01*
X109410000Y-88248212D01*
X109366383Y-88028933D01*
X109280824Y-87822376D01*
X109215759Y-87725000D01*
X109280824Y-87627624D01*
X109366383Y-87421067D01*
X109410000Y-87201788D01*
X109410000Y-86978212D01*
X109366383Y-86758933D01*
X109280824Y-86552376D01*
X109215759Y-86455000D01*
X109280824Y-86357624D01*
X109366383Y-86151067D01*
X109410000Y-85931788D01*
X109410000Y-85708212D01*
X109366383Y-85488933D01*
X109280824Y-85282376D01*
X109212647Y-85180342D01*
X109262123Y-85110206D01*
X109352446Y-84906864D01*
X109355953Y-84895297D01*
X126100000Y-84895297D01*
X126100000Y-85064703D01*
X126133049Y-85230853D01*
X126197878Y-85387363D01*
X126291995Y-85528218D01*
X126411782Y-85648005D01*
X126552637Y-85742122D01*
X126709147Y-85806951D01*
X126875297Y-85840000D01*
X127044703Y-85840000D01*
X127210853Y-85806951D01*
X127367363Y-85742122D01*
X127508218Y-85648005D01*
X127628005Y-85528218D01*
X127722122Y-85387363D01*
X127786951Y-85230853D01*
X127792317Y-85203875D01*
X127901808Y-85130715D01*
X128021595Y-85010928D01*
X128115712Y-84870073D01*
X128180541Y-84713563D01*
X128213590Y-84547413D01*
X128213590Y-84378007D01*
X128180541Y-84211857D01*
X128115712Y-84055347D01*
X128021595Y-83914492D01*
X127901808Y-83794705D01*
X127760953Y-83700588D01*
X127604443Y-83635759D01*
X127438293Y-83602710D01*
X127268887Y-83602710D01*
X127102737Y-83635759D01*
X126946227Y-83700588D01*
X126805372Y-83794705D01*
X126685585Y-83914492D01*
X126591468Y-84055347D01*
X126526639Y-84211857D01*
X126521273Y-84238835D01*
X126411782Y-84311995D01*
X126291995Y-84431782D01*
X126197878Y-84572637D01*
X126133049Y-84729147D01*
X126100000Y-84895297D01*
X109355953Y-84895297D01*
X109369119Y-84851874D01*
X109242954Y-84677000D01*
X108402000Y-84677000D01*
X108402000Y-84688026D01*
X108386788Y-84685000D01*
X108163212Y-84685000D01*
X108148000Y-84688026D01*
X108148000Y-84677000D01*
X108136974Y-84677000D01*
X108140000Y-84661788D01*
X108140000Y-84438212D01*
X108136974Y-84423000D01*
X108148000Y-84423000D01*
X108148000Y-83580871D01*
X108402000Y-83580871D01*
X108402000Y-84423000D01*
X109242954Y-84423000D01*
X109369119Y-84248126D01*
X109352446Y-84193136D01*
X109262123Y-83989794D01*
X109133865Y-83807980D01*
X108972601Y-83654682D01*
X108784529Y-83535790D01*
X108576876Y-83455874D01*
X108402000Y-83580871D01*
X108148000Y-83580871D01*
X107973124Y-83455874D01*
X107765471Y-83535790D01*
X107644512Y-83612256D01*
X107542624Y-83544176D01*
X107336067Y-83458617D01*
X107116788Y-83415000D01*
X106893212Y-83415000D01*
X106673933Y-83458617D01*
X106467376Y-83544176D01*
X106281480Y-83668388D01*
X106123388Y-83826480D01*
X105999176Y-84012376D01*
X105913617Y-84218933D01*
X105870000Y-84438212D01*
X100660000Y-84438212D01*
X100660000Y-81135297D01*
X115180000Y-81135297D01*
X115180000Y-81304703D01*
X115213049Y-81470853D01*
X115277878Y-81627363D01*
X115371995Y-81768218D01*
X115491782Y-81888005D01*
X115632637Y-81982122D01*
X115789147Y-82046951D01*
X115955297Y-82080000D01*
X116124703Y-82080000D01*
X116290853Y-82046951D01*
X116447363Y-81982122D01*
X116588218Y-81888005D01*
X116708005Y-81768218D01*
X116802122Y-81627363D01*
X116866951Y-81470853D01*
X116900000Y-81304703D01*
X116900000Y-81135297D01*
X116880109Y-81035297D01*
X120280000Y-81035297D01*
X120280000Y-81204703D01*
X120313049Y-81370853D01*
X120377878Y-81527363D01*
X120471995Y-81668218D01*
X120591782Y-81788005D01*
X120732637Y-81882122D01*
X120889147Y-81946951D01*
X121055297Y-81980000D01*
X121224703Y-81980000D01*
X121390853Y-81946951D01*
X121547363Y-81882122D01*
X121688218Y-81788005D01*
X121808005Y-81668218D01*
X121902122Y-81527363D01*
X121966951Y-81370853D01*
X122000000Y-81204703D01*
X122000000Y-81035297D01*
X121966951Y-80869147D01*
X121902122Y-80712637D01*
X121808005Y-80571782D01*
X121688218Y-80451995D01*
X121547363Y-80357878D01*
X121390853Y-80293049D01*
X121224703Y-80260000D01*
X121055297Y-80260000D01*
X120889147Y-80293049D01*
X120732637Y-80357878D01*
X120591782Y-80451995D01*
X120471995Y-80571782D01*
X120377878Y-80712637D01*
X120313049Y-80869147D01*
X120280000Y-81035297D01*
X116880109Y-81035297D01*
X116866951Y-80969147D01*
X116802122Y-80812637D01*
X116708005Y-80671782D01*
X116588218Y-80551995D01*
X116447363Y-80457878D01*
X116290853Y-80393049D01*
X116124703Y-80360000D01*
X115955297Y-80360000D01*
X115789147Y-80393049D01*
X115632637Y-80457878D01*
X115491782Y-80551995D01*
X115371995Y-80671782D01*
X115277878Y-80812637D01*
X115213049Y-80969147D01*
X115180000Y-81135297D01*
X100660000Y-81135297D01*
X100660000Y-78875000D01*
X101509509Y-78875000D01*
X101531423Y-79097499D01*
X101596324Y-79311447D01*
X101701716Y-79508623D01*
X101843551Y-79681449D01*
X102016377Y-79823284D01*
X102213553Y-79928676D01*
X102427501Y-79993577D01*
X102594248Y-80010000D01*
X103505752Y-80010000D01*
X103672499Y-79993577D01*
X103886447Y-79928676D01*
X104083623Y-79823284D01*
X104256449Y-79681449D01*
X104398284Y-79508623D01*
X104503676Y-79311447D01*
X104568577Y-79097499D01*
X104590491Y-78875000D01*
X104568577Y-78652501D01*
X104503676Y-78438553D01*
X104398284Y-78241377D01*
X104256449Y-78068551D01*
X104083623Y-77926716D01*
X103886447Y-77821324D01*
X103672499Y-77756423D01*
X103505752Y-77740000D01*
X102594248Y-77740000D01*
X102427501Y-77756423D01*
X102213553Y-77821324D01*
X102016377Y-77926716D01*
X101843551Y-78068551D01*
X101701716Y-78241377D01*
X101596324Y-78438553D01*
X101531423Y-78652501D01*
X101509509Y-78875000D01*
X100660000Y-78875000D01*
X100660000Y-77398061D01*
X104765000Y-77398061D01*
X104765000Y-77601939D01*
X104804774Y-77801898D01*
X104882795Y-77990256D01*
X104996063Y-78159774D01*
X105140226Y-78303937D01*
X105266136Y-78388067D01*
X105231423Y-78502501D01*
X105209509Y-78725000D01*
X105231423Y-78947499D01*
X105296324Y-79161447D01*
X105401716Y-79358623D01*
X105543551Y-79531449D01*
X105716377Y-79673284D01*
X105913553Y-79778676D01*
X106127501Y-79843577D01*
X106294248Y-79860000D01*
X107405752Y-79860000D01*
X107572499Y-79843577D01*
X107786447Y-79778676D01*
X107983623Y-79673284D01*
X108156449Y-79531449D01*
X108298284Y-79358623D01*
X108403676Y-79161447D01*
X108468577Y-78947499D01*
X108490491Y-78725000D01*
X108468577Y-78502501D01*
X108403676Y-78288553D01*
X108298284Y-78091377D01*
X108156449Y-77918551D01*
X107983623Y-77776716D01*
X107786447Y-77671324D01*
X107572499Y-77606423D01*
X107405752Y-77590000D01*
X106835000Y-77590000D01*
X106835000Y-77398061D01*
X106795226Y-77198102D01*
X106717205Y-77009744D01*
X106603937Y-76840226D01*
X106459774Y-76696063D01*
X106290256Y-76582795D01*
X106101898Y-76504774D01*
X105901939Y-76465000D01*
X105698061Y-76465000D01*
X105498102Y-76504774D01*
X105309744Y-76582795D01*
X105140226Y-76696063D01*
X104996063Y-76840226D01*
X104882795Y-77009744D01*
X104804774Y-77198102D01*
X104765000Y-77398061D01*
X100660000Y-77398061D01*
X100660000Y-76040297D01*
X128710000Y-76040297D01*
X128710000Y-76209703D01*
X128743049Y-76375853D01*
X128807878Y-76532363D01*
X128901995Y-76673218D01*
X128990137Y-76761360D01*
X128990137Y-76796240D01*
X129023186Y-76962390D01*
X129088015Y-77118900D01*
X129172189Y-77244874D01*
X129170933Y-77251186D01*
X129170933Y-77420592D01*
X129203982Y-77586742D01*
X129268811Y-77743252D01*
X129362928Y-77884107D01*
X129482715Y-78003894D01*
X129623570Y-78098011D01*
X129733278Y-78143454D01*
X129748980Y-78181361D01*
X129843097Y-78322216D01*
X129962884Y-78442003D01*
X130103739Y-78536120D01*
X130260249Y-78600949D01*
X130426399Y-78633998D01*
X130595805Y-78633998D01*
X130761955Y-78600949D01*
X130918465Y-78536120D01*
X131059320Y-78442003D01*
X131179107Y-78322216D01*
X131273224Y-78181361D01*
X131338053Y-78024851D01*
X131371102Y-77858701D01*
X131371102Y-77689295D01*
X131338053Y-77523145D01*
X131273224Y-77366635D01*
X131179107Y-77225780D01*
X131059320Y-77105993D01*
X130918465Y-77011876D01*
X130808757Y-76966433D01*
X130793055Y-76928526D01*
X130708881Y-76802552D01*
X130710137Y-76796240D01*
X130710137Y-76626834D01*
X130677088Y-76460684D01*
X130612259Y-76304174D01*
X130518142Y-76163319D01*
X130430000Y-76075177D01*
X130430000Y-76040297D01*
X130396951Y-75874147D01*
X130332122Y-75717637D01*
X130238005Y-75576782D01*
X130118218Y-75456995D01*
X129977363Y-75362878D01*
X129820853Y-75298049D01*
X129654703Y-75265000D01*
X129485297Y-75265000D01*
X129319147Y-75298049D01*
X129162637Y-75362878D01*
X129021782Y-75456995D01*
X128901995Y-75576782D01*
X128807878Y-75717637D01*
X128743049Y-75874147D01*
X128710000Y-76040297D01*
X100660000Y-76040297D01*
X100660000Y-72398061D01*
X104765000Y-72398061D01*
X104765000Y-72601939D01*
X104804774Y-72801898D01*
X104882795Y-72990256D01*
X104996063Y-73159774D01*
X105140226Y-73303937D01*
X105309744Y-73417205D01*
X105498102Y-73495226D01*
X105698061Y-73535000D01*
X105901939Y-73535000D01*
X106101898Y-73495226D01*
X106290256Y-73417205D01*
X106459774Y-73303937D01*
X106603937Y-73159774D01*
X106717205Y-72990256D01*
X106795226Y-72801898D01*
X106818419Y-72685297D01*
X119520000Y-72685297D01*
X119520000Y-72854703D01*
X119553049Y-73020853D01*
X119617878Y-73177363D01*
X119711995Y-73318218D01*
X119831782Y-73438005D01*
X119972637Y-73532122D01*
X120129147Y-73596951D01*
X120295297Y-73630000D01*
X120464703Y-73630000D01*
X120630853Y-73596951D01*
X120787363Y-73532122D01*
X120928218Y-73438005D01*
X121048005Y-73318218D01*
X121142122Y-73177363D01*
X121206951Y-73020853D01*
X121240000Y-72854703D01*
X121240000Y-72685297D01*
X121206951Y-72519147D01*
X121142122Y-72362637D01*
X121048005Y-72221782D01*
X120928218Y-72101995D01*
X120787363Y-72007878D01*
X120630853Y-71943049D01*
X120464703Y-71910000D01*
X120295297Y-71910000D01*
X120129147Y-71943049D01*
X119972637Y-72007878D01*
X119831782Y-72101995D01*
X119711995Y-72221782D01*
X119617878Y-72362637D01*
X119553049Y-72519147D01*
X119520000Y-72685297D01*
X106818419Y-72685297D01*
X106835000Y-72601939D01*
X106835000Y-72410000D01*
X107405752Y-72410000D01*
X107572499Y-72393577D01*
X107786447Y-72328676D01*
X107983623Y-72223284D01*
X108156449Y-72081449D01*
X108298284Y-71908623D01*
X108403676Y-71711447D01*
X108457110Y-71535297D01*
X127800000Y-71535297D01*
X127800000Y-71704703D01*
X127833049Y-71870853D01*
X127897878Y-72027363D01*
X127991995Y-72168218D01*
X128111782Y-72288005D01*
X128252637Y-72382122D01*
X128409147Y-72446951D01*
X128575297Y-72480000D01*
X128744703Y-72480000D01*
X128910853Y-72446951D01*
X129067363Y-72382122D01*
X129208218Y-72288005D01*
X129328005Y-72168218D01*
X129422122Y-72027363D01*
X129486951Y-71870853D01*
X129520000Y-71704703D01*
X129520000Y-71535297D01*
X129486951Y-71369147D01*
X129422122Y-71212637D01*
X129328005Y-71071782D01*
X129208218Y-70951995D01*
X129067363Y-70857878D01*
X128910853Y-70793049D01*
X128744703Y-70760000D01*
X128575297Y-70760000D01*
X128409147Y-70793049D01*
X128252637Y-70857878D01*
X128111782Y-70951995D01*
X127991995Y-71071782D01*
X127897878Y-71212637D01*
X127833049Y-71369147D01*
X127800000Y-71535297D01*
X108457110Y-71535297D01*
X108468577Y-71497499D01*
X108490491Y-71275000D01*
X108468577Y-71052501D01*
X108403676Y-70838553D01*
X108298284Y-70641377D01*
X108156449Y-70468551D01*
X107983623Y-70326716D01*
X107786447Y-70221324D01*
X107572499Y-70156423D01*
X107405752Y-70140000D01*
X106294248Y-70140000D01*
X106127501Y-70156423D01*
X105913553Y-70221324D01*
X105716377Y-70326716D01*
X105543551Y-70468551D01*
X105401716Y-70641377D01*
X105296324Y-70838553D01*
X105231423Y-71052501D01*
X105209509Y-71275000D01*
X105231423Y-71497499D01*
X105266136Y-71611933D01*
X105140226Y-71696063D01*
X104996063Y-71840226D01*
X104882795Y-72009744D01*
X104804774Y-72198102D01*
X104765000Y-72398061D01*
X100660000Y-72398061D01*
X100660000Y-71125000D01*
X101509509Y-71125000D01*
X101531423Y-71347499D01*
X101596324Y-71561447D01*
X101701716Y-71758623D01*
X101843551Y-71931449D01*
X102016377Y-72073284D01*
X102213553Y-72178676D01*
X102427501Y-72243577D01*
X102594248Y-72260000D01*
X103505752Y-72260000D01*
X103672499Y-72243577D01*
X103886447Y-72178676D01*
X104083623Y-72073284D01*
X104256449Y-71931449D01*
X104398284Y-71758623D01*
X104503676Y-71561447D01*
X104568577Y-71347499D01*
X104590491Y-71125000D01*
X104568577Y-70902501D01*
X104503676Y-70688553D01*
X104398284Y-70491377D01*
X104256449Y-70318551D01*
X104083623Y-70176716D01*
X103886447Y-70071324D01*
X103672499Y-70006423D01*
X103505752Y-69990000D01*
X102594248Y-69990000D01*
X102427501Y-70006423D01*
X102213553Y-70071324D01*
X102016377Y-70176716D01*
X101843551Y-70318551D01*
X101701716Y-70491377D01*
X101596324Y-70688553D01*
X101531423Y-70902501D01*
X101509509Y-71125000D01*
X100660000Y-71125000D01*
X100660000Y-53032279D01*
X100684748Y-52779872D01*
X100765000Y-52779872D01*
X100765000Y-53220128D01*
X100850890Y-53651925D01*
X101019369Y-54058669D01*
X101263962Y-54424729D01*
X101575271Y-54736038D01*
X101941331Y-54980631D01*
X102348075Y-55149110D01*
X102779872Y-55235000D01*
X103220128Y-55235000D01*
X103651925Y-55149110D01*
X104058669Y-54980631D01*
X104424729Y-54736038D01*
X104736038Y-54424729D01*
X104980631Y-54058669D01*
X105149110Y-53651925D01*
X105235000Y-53220128D01*
X105235000Y-52779872D01*
X105149110Y-52348075D01*
X104980631Y-51941331D01*
X104736038Y-51575271D01*
X104424729Y-51263962D01*
X104058669Y-51019369D01*
X103651925Y-50850890D01*
X103220128Y-50765000D01*
X102779872Y-50765000D01*
X102348075Y-50850890D01*
X101941331Y-51019369D01*
X101575271Y-51263962D01*
X101263962Y-51575271D01*
X101019369Y-51941331D01*
X100850890Y-52348075D01*
X100765000Y-52779872D01*
X100684748Y-52779872D01*
X100707670Y-52546107D01*
X100839489Y-52109502D01*
X101053600Y-51706815D01*
X101341848Y-51353388D01*
X101693261Y-51062673D01*
X102094439Y-50845758D01*
X102530113Y-50710894D01*
X103014344Y-50660000D01*
X113118603Y-50660000D01*
X112856842Y-50712068D01*
G37*
%TD.AperFunction*%
%TD*%
M02*
