%TF.GenerationSoftware,KiCad,Pcbnew,(5.1.12-1-10_14)*%
%TF.CreationDate,2022-01-30T11:33:22+08:00*%
%TF.ProjectId,nrf51822_devboard,6e726635-3138-4323-925f-646576626f61,rev?*%
%TF.SameCoordinates,Original*%
%TF.FileFunction,Legend,Top*%
%TF.FilePolarity,Positive*%
%FSLAX46Y46*%
G04 Gerber Fmt 4.6, Leading zero omitted, Abs format (unit mm)*
G04 Created by KiCad (PCBNEW (5.1.12-1-10_14)) date 2022-01-30 11:33:22*
%MOMM*%
%LPD*%
G01*
G04 APERTURE LIST*
%ADD10C,0.250000*%
%ADD11C,0.150000*%
%ADD12C,0.254000*%
%ADD13C,0.120000*%
%ADD14C,0.152400*%
G04 APERTURE END LIST*
D10*
X139315238Y-54119523D02*
X141315238Y-54119523D01*
X139315238Y-55262380D01*
X141315238Y-55262380D01*
X139315238Y-57357619D02*
X140267619Y-56690952D01*
X139315238Y-56214761D02*
X141315238Y-56214761D01*
X141315238Y-56976666D01*
X141220000Y-57167142D01*
X141124761Y-57262380D01*
X140934285Y-57357619D01*
X140648571Y-57357619D01*
X140458095Y-57262380D01*
X140362857Y-57167142D01*
X140267619Y-56976666D01*
X140267619Y-56214761D01*
X140362857Y-58881428D02*
X140362857Y-58214761D01*
X139315238Y-58214761D02*
X141315238Y-58214761D01*
X141315238Y-59167142D01*
X141315238Y-60881428D02*
X141315238Y-59929047D01*
X140362857Y-59833809D01*
X140458095Y-59929047D01*
X140553333Y-60119523D01*
X140553333Y-60595714D01*
X140458095Y-60786190D01*
X140362857Y-60881428D01*
X140172380Y-60976666D01*
X139696190Y-60976666D01*
X139505714Y-60881428D01*
X139410476Y-60786190D01*
X139315238Y-60595714D01*
X139315238Y-60119523D01*
X139410476Y-59929047D01*
X139505714Y-59833809D01*
X139315238Y-62881428D02*
X139315238Y-61738571D01*
X139315238Y-62310000D02*
X141315238Y-62310000D01*
X141029523Y-62119523D01*
X140839047Y-61929047D01*
X140743809Y-61738571D01*
X140458095Y-64024285D02*
X140553333Y-63833809D01*
X140648571Y-63738571D01*
X140839047Y-63643333D01*
X140934285Y-63643333D01*
X141124761Y-63738571D01*
X141220000Y-63833809D01*
X141315238Y-64024285D01*
X141315238Y-64405238D01*
X141220000Y-64595714D01*
X141124761Y-64690952D01*
X140934285Y-64786190D01*
X140839047Y-64786190D01*
X140648571Y-64690952D01*
X140553333Y-64595714D01*
X140458095Y-64405238D01*
X140458095Y-64024285D01*
X140362857Y-63833809D01*
X140267619Y-63738571D01*
X140077142Y-63643333D01*
X139696190Y-63643333D01*
X139505714Y-63738571D01*
X139410476Y-63833809D01*
X139315238Y-64024285D01*
X139315238Y-64405238D01*
X139410476Y-64595714D01*
X139505714Y-64690952D01*
X139696190Y-64786190D01*
X140077142Y-64786190D01*
X140267619Y-64690952D01*
X140362857Y-64595714D01*
X140458095Y-64405238D01*
X141124761Y-65548095D02*
X141220000Y-65643333D01*
X141315238Y-65833809D01*
X141315238Y-66310000D01*
X141220000Y-66500476D01*
X141124761Y-66595714D01*
X140934285Y-66690952D01*
X140743809Y-66690952D01*
X140458095Y-66595714D01*
X139315238Y-65452857D01*
X139315238Y-66690952D01*
X141124761Y-67452857D02*
X141220000Y-67548095D01*
X141315238Y-67738571D01*
X141315238Y-68214761D01*
X141220000Y-68405238D01*
X141124761Y-68500476D01*
X140934285Y-68595714D01*
X140743809Y-68595714D01*
X140458095Y-68500476D01*
X139315238Y-67357619D01*
X139315238Y-68595714D01*
D11*
X113047619Y-75162380D02*
X113523809Y-74829047D01*
X113047619Y-74590952D02*
X114047619Y-74590952D01*
X114047619Y-74971904D01*
X114000000Y-75067142D01*
X113952380Y-75114761D01*
X113857142Y-75162380D01*
X113714285Y-75162380D01*
X113619047Y-75114761D01*
X113571428Y-75067142D01*
X113523809Y-74971904D01*
X113523809Y-74590952D01*
X113095238Y-75543333D02*
X113047619Y-75686190D01*
X113047619Y-75924285D01*
X113095238Y-76019523D01*
X113142857Y-76067142D01*
X113238095Y-76114761D01*
X113333333Y-76114761D01*
X113428571Y-76067142D01*
X113476190Y-76019523D01*
X113523809Y-75924285D01*
X113571428Y-75733809D01*
X113619047Y-75638571D01*
X113666666Y-75590952D01*
X113761904Y-75543333D01*
X113857142Y-75543333D01*
X113952380Y-75590952D01*
X114000000Y-75638571D01*
X114047619Y-75733809D01*
X114047619Y-75971904D01*
X114000000Y-76114761D01*
X114047619Y-76400476D02*
X114047619Y-76971904D01*
X113047619Y-76686190D02*
X114047619Y-76686190D01*
X114007619Y-69450476D02*
X114007619Y-70069523D01*
X113626666Y-69736190D01*
X113626666Y-69879047D01*
X113579047Y-69974285D01*
X113531428Y-70021904D01*
X113436190Y-70069523D01*
X113198095Y-70069523D01*
X113102857Y-70021904D01*
X113055238Y-69974285D01*
X113007619Y-69879047D01*
X113007619Y-69593333D01*
X113055238Y-69498095D01*
X113102857Y-69450476D01*
X114007619Y-70688571D02*
X114007619Y-70783809D01*
X113960000Y-70879047D01*
X113912380Y-70926666D01*
X113817142Y-70974285D01*
X113626666Y-71021904D01*
X113388571Y-71021904D01*
X113198095Y-70974285D01*
X113102857Y-70926666D01*
X113055238Y-70879047D01*
X113007619Y-70783809D01*
X113007619Y-70688571D01*
X113055238Y-70593333D01*
X113102857Y-70545714D01*
X113198095Y-70498095D01*
X113388571Y-70450476D01*
X113626666Y-70450476D01*
X113817142Y-70498095D01*
X113912380Y-70545714D01*
X113960000Y-70593333D01*
X114007619Y-70688571D01*
X113657619Y-89130476D02*
X113657619Y-89225714D01*
X113610000Y-89320952D01*
X113562380Y-89368571D01*
X113467142Y-89416190D01*
X113276666Y-89463809D01*
X113038571Y-89463809D01*
X112848095Y-89416190D01*
X112752857Y-89368571D01*
X112705238Y-89320952D01*
X112657619Y-89225714D01*
X112657619Y-89130476D01*
X112705238Y-89035238D01*
X112752857Y-88987619D01*
X112848095Y-88940000D01*
X113038571Y-88892380D01*
X113276666Y-88892380D01*
X113467142Y-88940000D01*
X113562380Y-88987619D01*
X113610000Y-89035238D01*
X113657619Y-89130476D01*
X113657619Y-90559047D02*
X113657619Y-91178095D01*
X113276666Y-90844761D01*
X113276666Y-90987619D01*
X113229047Y-91082857D01*
X113181428Y-91130476D01*
X113086190Y-91178095D01*
X112848095Y-91178095D01*
X112752857Y-91130476D01*
X112705238Y-91082857D01*
X112657619Y-90987619D01*
X112657619Y-90701904D01*
X112705238Y-90606666D01*
X112752857Y-90559047D01*
X113657619Y-91463809D02*
X112657619Y-91797142D01*
X113657619Y-92130476D01*
X113657619Y-92368571D02*
X113657619Y-92987619D01*
X113276666Y-92654285D01*
X113276666Y-92797142D01*
X113229047Y-92892380D01*
X113181428Y-92940000D01*
X113086190Y-92987619D01*
X112848095Y-92987619D01*
X112752857Y-92940000D01*
X112705238Y-92892380D01*
X112657619Y-92797142D01*
X112657619Y-92511428D01*
X112705238Y-92416190D01*
X112752857Y-92368571D01*
X116342380Y-89877142D02*
X116390000Y-89924761D01*
X116437619Y-90020000D01*
X116437619Y-90258095D01*
X116390000Y-90353333D01*
X116342380Y-90400952D01*
X116247142Y-90448571D01*
X116151904Y-90448571D01*
X116009047Y-90400952D01*
X115437619Y-89829523D01*
X115437619Y-90448571D01*
X115437619Y-92162857D02*
X115437619Y-91591428D01*
X115437619Y-91877142D02*
X116437619Y-91877142D01*
X116294761Y-91781904D01*
X116199523Y-91686666D01*
X116151904Y-91591428D01*
X118384285Y-90243333D02*
X117717619Y-90243333D01*
X118765238Y-90005238D02*
X118050952Y-89767142D01*
X118050952Y-90386190D01*
X118717619Y-91433809D02*
X118717619Y-92052857D01*
X118336666Y-91719523D01*
X118336666Y-91862380D01*
X118289047Y-91957619D01*
X118241428Y-92005238D01*
X118146190Y-92052857D01*
X117908095Y-92052857D01*
X117812857Y-92005238D01*
X117765238Y-91957619D01*
X117717619Y-91862380D01*
X117717619Y-91576666D01*
X117765238Y-91481428D01*
X117812857Y-91433809D01*
X121507619Y-90323333D02*
X121507619Y-90132857D01*
X121460000Y-90037619D01*
X121412380Y-89990000D01*
X121269523Y-89894761D01*
X121079047Y-89847142D01*
X120698095Y-89847142D01*
X120602857Y-89894761D01*
X120555238Y-89942380D01*
X120507619Y-90037619D01*
X120507619Y-90228095D01*
X120555238Y-90323333D01*
X120602857Y-90370952D01*
X120698095Y-90418571D01*
X120936190Y-90418571D01*
X121031428Y-90370952D01*
X121079047Y-90323333D01*
X121126666Y-90228095D01*
X121126666Y-90037619D01*
X121079047Y-89942380D01*
X121031428Y-89894761D01*
X120936190Y-89847142D01*
X121507619Y-92085238D02*
X121507619Y-91609047D01*
X121031428Y-91561428D01*
X121079047Y-91609047D01*
X121126666Y-91704285D01*
X121126666Y-91942380D01*
X121079047Y-92037619D01*
X121031428Y-92085238D01*
X120936190Y-92132857D01*
X120698095Y-92132857D01*
X120602857Y-92085238D01*
X120555238Y-92037619D01*
X120507619Y-91942380D01*
X120507619Y-91704285D01*
X120555238Y-91609047D01*
X120602857Y-91561428D01*
X123509047Y-90017619D02*
X123556666Y-89922380D01*
X123604285Y-89874761D01*
X123699523Y-89827142D01*
X123747142Y-89827142D01*
X123842380Y-89874761D01*
X123890000Y-89922380D01*
X123937619Y-90017619D01*
X123937619Y-90208095D01*
X123890000Y-90303333D01*
X123842380Y-90350952D01*
X123747142Y-90398571D01*
X123699523Y-90398571D01*
X123604285Y-90350952D01*
X123556666Y-90303333D01*
X123509047Y-90208095D01*
X123509047Y-90017619D01*
X123461428Y-89922380D01*
X123413809Y-89874761D01*
X123318571Y-89827142D01*
X123128095Y-89827142D01*
X123032857Y-89874761D01*
X122985238Y-89922380D01*
X122937619Y-90017619D01*
X122937619Y-90208095D01*
X122985238Y-90303333D01*
X123032857Y-90350952D01*
X123128095Y-90398571D01*
X123318571Y-90398571D01*
X123413809Y-90350952D01*
X123461428Y-90303333D01*
X123509047Y-90208095D01*
X123937619Y-91493809D02*
X123937619Y-92160476D01*
X122937619Y-91731904D01*
X125457619Y-89782380D02*
X125457619Y-89210952D01*
X125457619Y-89496666D02*
X126457619Y-89496666D01*
X126314761Y-89401428D01*
X126219523Y-89306190D01*
X126171904Y-89210952D01*
X126457619Y-90401428D02*
X126457619Y-90496666D01*
X126410000Y-90591904D01*
X126362380Y-90639523D01*
X126267142Y-90687142D01*
X126076666Y-90734761D01*
X125838571Y-90734761D01*
X125648095Y-90687142D01*
X125552857Y-90639523D01*
X125505238Y-90591904D01*
X125457619Y-90496666D01*
X125457619Y-90401428D01*
X125505238Y-90306190D01*
X125552857Y-90258571D01*
X125648095Y-90210952D01*
X125838571Y-90163333D01*
X126076666Y-90163333D01*
X126267142Y-90210952D01*
X126362380Y-90258571D01*
X126410000Y-90306190D01*
X126457619Y-90401428D01*
X125457619Y-91972857D02*
X125457619Y-92163333D01*
X125505238Y-92258571D01*
X125552857Y-92306190D01*
X125695714Y-92401428D01*
X125886190Y-92449047D01*
X126267142Y-92449047D01*
X126362380Y-92401428D01*
X126410000Y-92353809D01*
X126457619Y-92258571D01*
X126457619Y-92068095D01*
X126410000Y-91972857D01*
X126362380Y-91925238D01*
X126267142Y-91877619D01*
X126029047Y-91877619D01*
X125933809Y-91925238D01*
X125886190Y-91972857D01*
X125838571Y-92068095D01*
X125838571Y-92258571D01*
X125886190Y-92353809D01*
X125933809Y-92401428D01*
X126029047Y-92449047D01*
X127947619Y-89306190D02*
X127947619Y-88734761D01*
X127947619Y-89020476D02*
X128947619Y-89020476D01*
X128804761Y-88925238D01*
X128709523Y-88830000D01*
X128661904Y-88734761D01*
X128852380Y-89687142D02*
X128900000Y-89734761D01*
X128947619Y-89830000D01*
X128947619Y-90068095D01*
X128900000Y-90163333D01*
X128852380Y-90210952D01*
X128757142Y-90258571D01*
X128661904Y-90258571D01*
X128519047Y-90210952D01*
X127947619Y-89639523D01*
X127947619Y-90258571D01*
X127947619Y-91972857D02*
X127947619Y-91401428D01*
X127947619Y-91687142D02*
X128947619Y-91687142D01*
X128804761Y-91591904D01*
X128709523Y-91496666D01*
X128661904Y-91401428D01*
X127947619Y-92925238D02*
X127947619Y-92353809D01*
X127947619Y-92639523D02*
X128947619Y-92639523D01*
X128804761Y-92544285D01*
X128709523Y-92449047D01*
X128661904Y-92353809D01*
X130417619Y-89256190D02*
X130417619Y-88684761D01*
X130417619Y-88970476D02*
X131417619Y-88970476D01*
X131274761Y-88875238D01*
X131179523Y-88780000D01*
X131131904Y-88684761D01*
X131084285Y-90113333D02*
X130417619Y-90113333D01*
X131465238Y-89875238D02*
X130750952Y-89637142D01*
X130750952Y-90256190D01*
X130417619Y-91922857D02*
X130417619Y-91351428D01*
X130417619Y-91637142D02*
X131417619Y-91637142D01*
X131274761Y-91541904D01*
X131179523Y-91446666D01*
X131131904Y-91351428D01*
X131417619Y-92256190D02*
X131417619Y-92875238D01*
X131036666Y-92541904D01*
X131036666Y-92684761D01*
X130989047Y-92780000D01*
X130941428Y-92827619D01*
X130846190Y-92875238D01*
X130608095Y-92875238D01*
X130512857Y-92827619D01*
X130465238Y-92780000D01*
X130417619Y-92684761D01*
X130417619Y-92399047D01*
X130465238Y-92303809D01*
X130512857Y-92256190D01*
X133007619Y-89176190D02*
X133007619Y-88604761D01*
X133007619Y-88890476D02*
X134007619Y-88890476D01*
X133864761Y-88795238D01*
X133769523Y-88700000D01*
X133721904Y-88604761D01*
X134007619Y-90033333D02*
X134007619Y-89842857D01*
X133960000Y-89747619D01*
X133912380Y-89700000D01*
X133769523Y-89604761D01*
X133579047Y-89557142D01*
X133198095Y-89557142D01*
X133102857Y-89604761D01*
X133055238Y-89652380D01*
X133007619Y-89747619D01*
X133007619Y-89938095D01*
X133055238Y-90033333D01*
X133102857Y-90080952D01*
X133198095Y-90128571D01*
X133436190Y-90128571D01*
X133531428Y-90080952D01*
X133579047Y-90033333D01*
X133626666Y-89938095D01*
X133626666Y-89747619D01*
X133579047Y-89652380D01*
X133531428Y-89604761D01*
X133436190Y-89557142D01*
X133007619Y-91842857D02*
X133007619Y-91271428D01*
X133007619Y-91557142D02*
X134007619Y-91557142D01*
X133864761Y-91461904D01*
X133769523Y-91366666D01*
X133721904Y-91271428D01*
X134007619Y-92747619D02*
X134007619Y-92271428D01*
X133531428Y-92223809D01*
X133579047Y-92271428D01*
X133626666Y-92366666D01*
X133626666Y-92604761D01*
X133579047Y-92700000D01*
X133531428Y-92747619D01*
X133436190Y-92795238D01*
X133198095Y-92795238D01*
X133102857Y-92747619D01*
X133055238Y-92700000D01*
X133007619Y-92604761D01*
X133007619Y-92366666D01*
X133055238Y-92271428D01*
X133102857Y-92223809D01*
X136510000Y-90548095D02*
X136557619Y-90452857D01*
X136557619Y-90310000D01*
X136510000Y-90167142D01*
X136414761Y-90071904D01*
X136319523Y-90024285D01*
X136129047Y-89976666D01*
X135986190Y-89976666D01*
X135795714Y-90024285D01*
X135700476Y-90071904D01*
X135605238Y-90167142D01*
X135557619Y-90310000D01*
X135557619Y-90405238D01*
X135605238Y-90548095D01*
X135652857Y-90595714D01*
X135986190Y-90595714D01*
X135986190Y-90405238D01*
X135557619Y-91024285D02*
X136557619Y-91024285D01*
X135557619Y-91595714D01*
X136557619Y-91595714D01*
X135557619Y-92071904D02*
X136557619Y-92071904D01*
X136557619Y-92310000D01*
X136510000Y-92452857D01*
X136414761Y-92548095D01*
X136319523Y-92595714D01*
X136129047Y-92643333D01*
X135986190Y-92643333D01*
X135795714Y-92595714D01*
X135700476Y-92548095D01*
X135605238Y-92452857D01*
X135557619Y-92310000D01*
X135557619Y-92071904D01*
X113677619Y-57201904D02*
X113677619Y-57820952D01*
X113296666Y-57487619D01*
X113296666Y-57630476D01*
X113249047Y-57725714D01*
X113201428Y-57773333D01*
X113106190Y-57820952D01*
X112868095Y-57820952D01*
X112772857Y-57773333D01*
X112725238Y-57725714D01*
X112677619Y-57630476D01*
X112677619Y-57344761D01*
X112725238Y-57249523D01*
X112772857Y-57201904D01*
X113677619Y-58106666D02*
X112677619Y-58440000D01*
X113677619Y-58773333D01*
X113677619Y-59011428D02*
X113677619Y-59630476D01*
X113296666Y-59297142D01*
X113296666Y-59440000D01*
X113249047Y-59535238D01*
X113201428Y-59582857D01*
X113106190Y-59630476D01*
X112868095Y-59630476D01*
X112772857Y-59582857D01*
X112725238Y-59535238D01*
X112677619Y-59440000D01*
X112677619Y-59154285D01*
X112725238Y-59059047D01*
X112772857Y-59011428D01*
X115862380Y-56384761D02*
X115910000Y-56432380D01*
X115957619Y-56527619D01*
X115957619Y-56765714D01*
X115910000Y-56860952D01*
X115862380Y-56908571D01*
X115767142Y-56956190D01*
X115671904Y-56956190D01*
X115529047Y-56908571D01*
X114957619Y-56337142D01*
X114957619Y-56956190D01*
X114957619Y-57432380D02*
X114957619Y-57622857D01*
X115005238Y-57718095D01*
X115052857Y-57765714D01*
X115195714Y-57860952D01*
X115386190Y-57908571D01*
X115767142Y-57908571D01*
X115862380Y-57860952D01*
X115910000Y-57813333D01*
X115957619Y-57718095D01*
X115957619Y-57527619D01*
X115910000Y-57432380D01*
X115862380Y-57384761D01*
X115767142Y-57337142D01*
X115529047Y-57337142D01*
X115433809Y-57384761D01*
X115386190Y-57432380D01*
X115338571Y-57527619D01*
X115338571Y-57718095D01*
X115386190Y-57813333D01*
X115433809Y-57860952D01*
X115529047Y-57908571D01*
X115957619Y-59003809D02*
X115957619Y-59622857D01*
X115576666Y-59289523D01*
X115576666Y-59432380D01*
X115529047Y-59527619D01*
X115481428Y-59575238D01*
X115386190Y-59622857D01*
X115148095Y-59622857D01*
X115052857Y-59575238D01*
X115005238Y-59527619D01*
X114957619Y-59432380D01*
X114957619Y-59146666D01*
X115005238Y-59051428D01*
X115052857Y-59003809D01*
X115957619Y-60241904D02*
X115957619Y-60337142D01*
X115910000Y-60432380D01*
X115862380Y-60480000D01*
X115767142Y-60527619D01*
X115576666Y-60575238D01*
X115338571Y-60575238D01*
X115148095Y-60527619D01*
X115052857Y-60480000D01*
X115005238Y-60432380D01*
X114957619Y-60337142D01*
X114957619Y-60241904D01*
X115005238Y-60146666D01*
X115052857Y-60099047D01*
X115148095Y-60051428D01*
X115338571Y-60003809D01*
X115576666Y-60003809D01*
X115767142Y-60051428D01*
X115862380Y-60099047D01*
X115910000Y-60146666D01*
X115957619Y-60241904D01*
X117812380Y-56414761D02*
X117860000Y-56462380D01*
X117907619Y-56557619D01*
X117907619Y-56795714D01*
X117860000Y-56890952D01*
X117812380Y-56938571D01*
X117717142Y-56986190D01*
X117621904Y-56986190D01*
X117479047Y-56938571D01*
X116907619Y-56367142D01*
X116907619Y-56986190D01*
X117907619Y-57319523D02*
X117907619Y-57986190D01*
X116907619Y-57557619D01*
X117812380Y-59081428D02*
X117860000Y-59129047D01*
X117907619Y-59224285D01*
X117907619Y-59462380D01*
X117860000Y-59557619D01*
X117812380Y-59605238D01*
X117717142Y-59652857D01*
X117621904Y-59652857D01*
X117479047Y-59605238D01*
X116907619Y-59033809D01*
X116907619Y-59652857D01*
X117479047Y-60224285D02*
X117526666Y-60129047D01*
X117574285Y-60081428D01*
X117669523Y-60033809D01*
X117717142Y-60033809D01*
X117812380Y-60081428D01*
X117860000Y-60129047D01*
X117907619Y-60224285D01*
X117907619Y-60414761D01*
X117860000Y-60510000D01*
X117812380Y-60557619D01*
X117717142Y-60605238D01*
X117669523Y-60605238D01*
X117574285Y-60557619D01*
X117526666Y-60510000D01*
X117479047Y-60414761D01*
X117479047Y-60224285D01*
X117431428Y-60129047D01*
X117383809Y-60081428D01*
X117288571Y-60033809D01*
X117098095Y-60033809D01*
X117002857Y-60081428D01*
X116955238Y-60129047D01*
X116907619Y-60224285D01*
X116907619Y-60414761D01*
X116955238Y-60510000D01*
X117002857Y-60557619D01*
X117098095Y-60605238D01*
X117288571Y-60605238D01*
X117383809Y-60557619D01*
X117431428Y-60510000D01*
X117479047Y-60414761D01*
X121332380Y-56534761D02*
X121380000Y-56582380D01*
X121427619Y-56677619D01*
X121427619Y-56915714D01*
X121380000Y-57010952D01*
X121332380Y-57058571D01*
X121237142Y-57106190D01*
X121141904Y-57106190D01*
X120999047Y-57058571D01*
X120427619Y-56487142D01*
X120427619Y-57106190D01*
X121427619Y-58010952D02*
X121427619Y-57534761D01*
X120951428Y-57487142D01*
X120999047Y-57534761D01*
X121046666Y-57630000D01*
X121046666Y-57868095D01*
X120999047Y-57963333D01*
X120951428Y-58010952D01*
X120856190Y-58058571D01*
X120618095Y-58058571D01*
X120522857Y-58010952D01*
X120475238Y-57963333D01*
X120427619Y-57868095D01*
X120427619Y-57630000D01*
X120475238Y-57534761D01*
X120522857Y-57487142D01*
X121332380Y-59201428D02*
X121380000Y-59249047D01*
X121427619Y-59344285D01*
X121427619Y-59582380D01*
X121380000Y-59677619D01*
X121332380Y-59725238D01*
X121237142Y-59772857D01*
X121141904Y-59772857D01*
X120999047Y-59725238D01*
X120427619Y-59153809D01*
X120427619Y-59772857D01*
X121427619Y-60630000D02*
X121427619Y-60439523D01*
X121380000Y-60344285D01*
X121332380Y-60296666D01*
X121189523Y-60201428D01*
X120999047Y-60153809D01*
X120618095Y-60153809D01*
X120522857Y-60201428D01*
X120475238Y-60249047D01*
X120427619Y-60344285D01*
X120427619Y-60534761D01*
X120475238Y-60630000D01*
X120522857Y-60677619D01*
X120618095Y-60725238D01*
X120856190Y-60725238D01*
X120951428Y-60677619D01*
X120999047Y-60630000D01*
X121046666Y-60534761D01*
X121046666Y-60344285D01*
X120999047Y-60249047D01*
X120951428Y-60201428D01*
X120856190Y-60153809D01*
X123902380Y-56774761D02*
X123950000Y-56822380D01*
X123997619Y-56917619D01*
X123997619Y-57155714D01*
X123950000Y-57250952D01*
X123902380Y-57298571D01*
X123807142Y-57346190D01*
X123711904Y-57346190D01*
X123569047Y-57298571D01*
X122997619Y-56727142D01*
X122997619Y-57346190D01*
X123997619Y-57679523D02*
X123997619Y-58298571D01*
X123616666Y-57965238D01*
X123616666Y-58108095D01*
X123569047Y-58203333D01*
X123521428Y-58250952D01*
X123426190Y-58298571D01*
X123188095Y-58298571D01*
X123092857Y-58250952D01*
X123045238Y-58203333D01*
X122997619Y-58108095D01*
X122997619Y-57822380D01*
X123045238Y-57727142D01*
X123092857Y-57679523D01*
X123902380Y-59441428D02*
X123950000Y-59489047D01*
X123997619Y-59584285D01*
X123997619Y-59822380D01*
X123950000Y-59917619D01*
X123902380Y-59965238D01*
X123807142Y-60012857D01*
X123711904Y-60012857D01*
X123569047Y-59965238D01*
X122997619Y-59393809D01*
X122997619Y-60012857D01*
X123664285Y-60870000D02*
X122997619Y-60870000D01*
X124045238Y-60631904D02*
X123330952Y-60393809D01*
X123330952Y-61012857D01*
X126252380Y-56714761D02*
X126300000Y-56762380D01*
X126347619Y-56857619D01*
X126347619Y-57095714D01*
X126300000Y-57190952D01*
X126252380Y-57238571D01*
X126157142Y-57286190D01*
X126061904Y-57286190D01*
X125919047Y-57238571D01*
X125347619Y-56667142D01*
X125347619Y-57286190D01*
X125347619Y-58238571D02*
X125347619Y-57667142D01*
X125347619Y-57952857D02*
X126347619Y-57952857D01*
X126204761Y-57857619D01*
X126109523Y-57762380D01*
X126061904Y-57667142D01*
X126252380Y-59381428D02*
X126300000Y-59429047D01*
X126347619Y-59524285D01*
X126347619Y-59762380D01*
X126300000Y-59857619D01*
X126252380Y-59905238D01*
X126157142Y-59952857D01*
X126061904Y-59952857D01*
X125919047Y-59905238D01*
X125347619Y-59333809D01*
X125347619Y-59952857D01*
X126252380Y-60333809D02*
X126300000Y-60381428D01*
X126347619Y-60476666D01*
X126347619Y-60714761D01*
X126300000Y-60810000D01*
X126252380Y-60857619D01*
X126157142Y-60905238D01*
X126061904Y-60905238D01*
X125919047Y-60857619D01*
X125347619Y-60286190D01*
X125347619Y-60905238D01*
X128087619Y-57286190D02*
X128087619Y-56714761D01*
X128087619Y-57000476D02*
X129087619Y-57000476D01*
X128944761Y-56905238D01*
X128849523Y-56810000D01*
X128801904Y-56714761D01*
X128087619Y-57762380D02*
X128087619Y-57952857D01*
X128135238Y-58048095D01*
X128182857Y-58095714D01*
X128325714Y-58190952D01*
X128516190Y-58238571D01*
X128897142Y-58238571D01*
X128992380Y-58190952D01*
X129040000Y-58143333D01*
X129087619Y-58048095D01*
X129087619Y-57857619D01*
X129040000Y-57762380D01*
X128992380Y-57714761D01*
X128897142Y-57667142D01*
X128659047Y-57667142D01*
X128563809Y-57714761D01*
X128516190Y-57762380D01*
X128468571Y-57857619D01*
X128468571Y-58048095D01*
X128516190Y-58143333D01*
X128563809Y-58190952D01*
X128659047Y-58238571D01*
X128992380Y-59381428D02*
X129040000Y-59429047D01*
X129087619Y-59524285D01*
X129087619Y-59762380D01*
X129040000Y-59857619D01*
X128992380Y-59905238D01*
X128897142Y-59952857D01*
X128801904Y-59952857D01*
X128659047Y-59905238D01*
X128087619Y-59333809D01*
X128087619Y-59952857D01*
X129087619Y-60571904D02*
X129087619Y-60667142D01*
X129040000Y-60762380D01*
X128992380Y-60810000D01*
X128897142Y-60857619D01*
X128706666Y-60905238D01*
X128468571Y-60905238D01*
X128278095Y-60857619D01*
X128182857Y-60810000D01*
X128135238Y-60762380D01*
X128087619Y-60667142D01*
X128087619Y-60571904D01*
X128135238Y-60476666D01*
X128182857Y-60429047D01*
X128278095Y-60381428D01*
X128468571Y-60333809D01*
X128706666Y-60333809D01*
X128897142Y-60381428D01*
X128992380Y-60429047D01*
X129040000Y-60476666D01*
X129087619Y-60571904D01*
X130587619Y-57266190D02*
X130587619Y-56694761D01*
X130587619Y-56980476D02*
X131587619Y-56980476D01*
X131444761Y-56885238D01*
X131349523Y-56790000D01*
X131301904Y-56694761D01*
X131587619Y-57599523D02*
X131587619Y-58266190D01*
X130587619Y-57837619D01*
X130587619Y-59932857D02*
X130587619Y-59361428D01*
X130587619Y-59647142D02*
X131587619Y-59647142D01*
X131444761Y-59551904D01*
X131349523Y-59456666D01*
X131301904Y-59361428D01*
X131159047Y-60504285D02*
X131206666Y-60409047D01*
X131254285Y-60361428D01*
X131349523Y-60313809D01*
X131397142Y-60313809D01*
X131492380Y-60361428D01*
X131540000Y-60409047D01*
X131587619Y-60504285D01*
X131587619Y-60694761D01*
X131540000Y-60790000D01*
X131492380Y-60837619D01*
X131397142Y-60885238D01*
X131349523Y-60885238D01*
X131254285Y-60837619D01*
X131206666Y-60790000D01*
X131159047Y-60694761D01*
X131159047Y-60504285D01*
X131111428Y-60409047D01*
X131063809Y-60361428D01*
X130968571Y-60313809D01*
X130778095Y-60313809D01*
X130682857Y-60361428D01*
X130635238Y-60409047D01*
X130587619Y-60504285D01*
X130587619Y-60694761D01*
X130635238Y-60790000D01*
X130682857Y-60837619D01*
X130778095Y-60885238D01*
X130968571Y-60885238D01*
X131063809Y-60837619D01*
X131111428Y-60790000D01*
X131159047Y-60694761D01*
X134080000Y-57448095D02*
X134127619Y-57352857D01*
X134127619Y-57210000D01*
X134080000Y-57067142D01*
X133984761Y-56971904D01*
X133889523Y-56924285D01*
X133699047Y-56876666D01*
X133556190Y-56876666D01*
X133365714Y-56924285D01*
X133270476Y-56971904D01*
X133175238Y-57067142D01*
X133127619Y-57210000D01*
X133127619Y-57305238D01*
X133175238Y-57448095D01*
X133222857Y-57495714D01*
X133556190Y-57495714D01*
X133556190Y-57305238D01*
X133127619Y-57924285D02*
X134127619Y-57924285D01*
X133127619Y-58495714D01*
X134127619Y-58495714D01*
X133127619Y-58971904D02*
X134127619Y-58971904D01*
X134127619Y-59210000D01*
X134080000Y-59352857D01*
X133984761Y-59448095D01*
X133889523Y-59495714D01*
X133699047Y-59543333D01*
X133556190Y-59543333D01*
X133365714Y-59495714D01*
X133270476Y-59448095D01*
X133175238Y-59352857D01*
X133127619Y-59210000D01*
X133127619Y-58971904D01*
X136730000Y-57428095D02*
X136777619Y-57332857D01*
X136777619Y-57190000D01*
X136730000Y-57047142D01*
X136634761Y-56951904D01*
X136539523Y-56904285D01*
X136349047Y-56856666D01*
X136206190Y-56856666D01*
X136015714Y-56904285D01*
X135920476Y-56951904D01*
X135825238Y-57047142D01*
X135777619Y-57190000D01*
X135777619Y-57285238D01*
X135825238Y-57428095D01*
X135872857Y-57475714D01*
X136206190Y-57475714D01*
X136206190Y-57285238D01*
X135777619Y-57904285D02*
X136777619Y-57904285D01*
X135777619Y-58475714D01*
X136777619Y-58475714D01*
X135777619Y-58951904D02*
X136777619Y-58951904D01*
X136777619Y-59190000D01*
X136730000Y-59332857D01*
X136634761Y-59428095D01*
X136539523Y-59475714D01*
X136349047Y-59523333D01*
X136206190Y-59523333D01*
X136015714Y-59475714D01*
X135920476Y-59428095D01*
X135825238Y-59332857D01*
X135777619Y-59190000D01*
X135777619Y-58951904D01*
D12*
%TO.C,SW2*%
X112149914Y-67949958D02*
X112149914Y-64050042D01*
X112149914Y-64050042D02*
X115049832Y-64050042D01*
X115049832Y-64050042D02*
X115049832Y-67949958D01*
X115049832Y-67949958D02*
X112149914Y-67949958D01*
X115059992Y-66855726D02*
X115059992Y-65155704D01*
%TO.C,SW1*%
X112149914Y-82319958D02*
X112149914Y-78420042D01*
X112149914Y-78420042D02*
X115049832Y-78420042D01*
X115049832Y-78420042D02*
X115049832Y-82319958D01*
X115049832Y-82319958D02*
X112149914Y-82319958D01*
X115059992Y-81225726D02*
X115059992Y-79525704D01*
D13*
%TO.C,R1*%
X115690000Y-82917621D02*
X115690000Y-82582379D01*
X116450000Y-82917621D02*
X116450000Y-82582379D01*
%TO.C,D1*%
X115960000Y-84355000D02*
X113500000Y-84355000D01*
X113500000Y-84355000D02*
X113500000Y-85825000D01*
X113500000Y-85825000D02*
X115960000Y-85825000D01*
%TO.C,J3*%
X111960000Y-56010000D02*
X111960000Y-54680000D01*
X113290000Y-56010000D02*
X111960000Y-56010000D01*
X111960000Y-53410000D02*
X111960000Y-50810000D01*
X114560000Y-53410000D02*
X111960000Y-53410000D01*
X114560000Y-56010000D02*
X114560000Y-53410000D01*
X111960000Y-50810000D02*
X137480000Y-50810000D01*
X114560000Y-56010000D02*
X137480000Y-56010000D01*
X137480000Y-56010000D02*
X137480000Y-50810000D01*
%TO.C,J2*%
X111960000Y-99190000D02*
X111960000Y-97860000D01*
X113290000Y-99190000D02*
X111960000Y-99190000D01*
X111960000Y-96590000D02*
X111960000Y-93990000D01*
X114560000Y-96590000D02*
X111960000Y-96590000D01*
X114560000Y-99190000D02*
X114560000Y-96590000D01*
X111960000Y-93990000D02*
X137480000Y-93990000D01*
X114560000Y-99190000D02*
X137480000Y-99190000D01*
X137480000Y-99190000D02*
X137480000Y-93990000D01*
%TO.C,Y2*%
X128600000Y-67340000D02*
X128600000Y-64040000D01*
X128600000Y-64040000D02*
X124600000Y-64040000D01*
%TO.C,Y1*%
X119460000Y-63150000D02*
X119460000Y-64250000D01*
X117560000Y-63150000D02*
X117560000Y-64250000D01*
X119410000Y-61000000D02*
X117610000Y-61000000D01*
D11*
%TO.C,J1*%
X105650000Y-70850000D02*
X104250000Y-70850000D01*
X101850000Y-70850000D02*
X101700000Y-70850000D01*
X101700000Y-70850000D02*
X101700000Y-71150000D01*
X101700000Y-71150000D02*
X101250000Y-71150000D01*
X101250000Y-78850000D02*
X101700000Y-78850000D01*
X101700000Y-78850000D02*
X101700000Y-79150000D01*
X101700000Y-79150000D02*
X101850000Y-79150000D01*
X104250000Y-79150000D02*
X105650000Y-79150000D01*
X107825000Y-73925000D02*
X107825000Y-73200000D01*
X107825000Y-73200000D02*
X107400000Y-73200000D01*
X107400000Y-73200000D02*
X107400000Y-72475000D01*
X107400000Y-76800000D02*
X107400000Y-77525000D01*
D13*
%TO.C,U2*%
X101660000Y-60680000D02*
X107670000Y-60680000D01*
X103910000Y-67500000D02*
X107670000Y-67500000D01*
X107670000Y-60680000D02*
X107670000Y-61940000D01*
X107670000Y-67500000D02*
X107670000Y-66240000D01*
%TO.C,CON1*%
X109220000Y-89540000D02*
X108450000Y-90370000D01*
X109220000Y-89530000D02*
X109260000Y-83865000D01*
X106732470Y-83865000D02*
X106090000Y-83865000D01*
X109260000Y-83865000D02*
X106710000Y-83870000D01*
X106090000Y-89005000D02*
X106090000Y-83865000D01*
X106090000Y-89600000D02*
X106090000Y-89005000D01*
X106090000Y-90400000D02*
X106090000Y-89640000D01*
X108420000Y-90400000D02*
X106090000Y-90400000D01*
X110140000Y-93415000D02*
X105140000Y-93415000D01*
X105140000Y-93415000D02*
X105140000Y-80765000D01*
X105140000Y-80765000D02*
X110140000Y-80765000D01*
X110140000Y-80765000D02*
X110140000Y-86090000D01*
X110140000Y-86090000D02*
X109640000Y-86090000D01*
X109640000Y-86090000D02*
X109640000Y-88090000D01*
X109640000Y-88090000D02*
X110140000Y-88090000D01*
X110140000Y-88090000D02*
X110140000Y-93415000D01*
%TO.C,AE1*%
X148830000Y-73940000D02*
X142120000Y-73940000D01*
X142120000Y-73940000D02*
X142120000Y-76660000D01*
X142120000Y-76660000D02*
X148830000Y-76660000D01*
%TO.C,L3*%
X134440000Y-75270200D02*
X134440000Y-75069800D01*
X133720000Y-75270200D02*
X133720000Y-75069800D01*
%TO.C,L2*%
X133349800Y-77190000D02*
X133550200Y-77190000D01*
X133349800Y-76470000D02*
X133550200Y-76470000D01*
%TO.C,L1*%
X138140200Y-74200000D02*
X137939800Y-74200000D01*
X138140200Y-74920000D02*
X137939800Y-74920000D01*
%TO.C,C14*%
X108343733Y-59640000D02*
X108636267Y-59640000D01*
X108343733Y-58620000D02*
X108636267Y-58620000D01*
%TO.C,C13*%
X121848335Y-79630000D02*
X121616665Y-79630000D01*
X121848335Y-80350000D02*
X121616665Y-80350000D01*
%TO.C,C12*%
X130710000Y-72615835D02*
X130710000Y-72384165D01*
X129990000Y-72615835D02*
X129990000Y-72384165D01*
%TO.C,C11*%
X109374165Y-69020000D02*
X109605835Y-69020000D01*
X109374165Y-68300000D02*
X109605835Y-68300000D01*
%TO.C,C10*%
X123200000Y-64355835D02*
X123200000Y-64124165D01*
X122480000Y-64355835D02*
X122480000Y-64124165D01*
%TO.C,C9*%
X135604165Y-79350000D02*
X135835835Y-79350000D01*
X135604165Y-78630000D02*
X135835835Y-78630000D01*
%TO.C,C8*%
X135574165Y-78230000D02*
X135805835Y-78230000D01*
X135574165Y-77510000D02*
X135805835Y-77510000D01*
%TO.C,C7*%
X124260000Y-65795835D02*
X124260000Y-65564165D01*
X123540000Y-65795835D02*
X123540000Y-65564165D01*
%TO.C,C6*%
X128950000Y-65564165D02*
X128950000Y-65795835D01*
X129670000Y-65564165D02*
X129670000Y-65795835D01*
%TO.C,C5*%
X135845835Y-74180000D02*
X135614165Y-74180000D01*
X135845835Y-74900000D02*
X135614165Y-74900000D01*
%TO.C,C4*%
X118220000Y-68084165D02*
X118220000Y-68315835D01*
X118940000Y-68084165D02*
X118940000Y-68315835D01*
%TO.C,C3*%
X118930000Y-59535835D02*
X118930000Y-59304165D01*
X118210000Y-59535835D02*
X118210000Y-59304165D01*
%TO.C,C2*%
X135990000Y-76064165D02*
X135990000Y-76295835D01*
X136710000Y-76064165D02*
X136710000Y-76295835D01*
%TO.C,C1*%
X138330000Y-76074165D02*
X138330000Y-76305835D01*
X139050000Y-76074165D02*
X139050000Y-76305835D01*
%TO.C,U1*%
X127560000Y-71890000D02*
X128110000Y-71890000D01*
X128110000Y-71890000D02*
X128110000Y-72440000D01*
X122440000Y-78110000D02*
X121890000Y-78110000D01*
X121890000Y-78110000D02*
X121890000Y-77560000D01*
X127560000Y-78110000D02*
X128110000Y-78110000D01*
X128110000Y-78110000D02*
X128110000Y-77560000D01*
X122440000Y-71890000D02*
X121890000Y-71890000D01*
%TO.C,SW2*%
D14*
X111232320Y-65683225D02*
X111286749Y-65519940D01*
X111286749Y-65247797D01*
X111232320Y-65138940D01*
X111177892Y-65084511D01*
X111069035Y-65030082D01*
X110960178Y-65030082D01*
X110851320Y-65084511D01*
X110796892Y-65138940D01*
X110742463Y-65247797D01*
X110688035Y-65465511D01*
X110633606Y-65574368D01*
X110579178Y-65628797D01*
X110470320Y-65683225D01*
X110361463Y-65683225D01*
X110252606Y-65628797D01*
X110198178Y-65574368D01*
X110143749Y-65465511D01*
X110143749Y-65193368D01*
X110198178Y-65030082D01*
X110143749Y-64649082D02*
X111286749Y-64376940D01*
X110470320Y-64159225D01*
X111286749Y-63941511D01*
X110143749Y-63669368D01*
X110252606Y-63288368D02*
X110198178Y-63233940D01*
X110143749Y-63125082D01*
X110143749Y-62852940D01*
X110198178Y-62744082D01*
X110252606Y-62689654D01*
X110361463Y-62635225D01*
X110470320Y-62635225D01*
X110633606Y-62689654D01*
X111286749Y-63342797D01*
X111286749Y-62635225D01*
%TO.C,SW1*%
X111232320Y-80053225D02*
X111286749Y-79889940D01*
X111286749Y-79617797D01*
X111232320Y-79508940D01*
X111177892Y-79454511D01*
X111069035Y-79400082D01*
X110960178Y-79400082D01*
X110851320Y-79454511D01*
X110796892Y-79508940D01*
X110742463Y-79617797D01*
X110688035Y-79835511D01*
X110633606Y-79944368D01*
X110579178Y-79998797D01*
X110470320Y-80053225D01*
X110361463Y-80053225D01*
X110252606Y-79998797D01*
X110198178Y-79944368D01*
X110143749Y-79835511D01*
X110143749Y-79563368D01*
X110198178Y-79400082D01*
X110143749Y-79019082D02*
X111286749Y-78746940D01*
X110470320Y-78529225D01*
X111286749Y-78311511D01*
X110143749Y-78039368D01*
X111286749Y-77005225D02*
X111286749Y-77658368D01*
X111286749Y-77331797D02*
X110143749Y-77331797D01*
X110307035Y-77440654D01*
X110415892Y-77549511D01*
X110470320Y-77658368D01*
%TO.C,H3*%
D11*
X146238095Y-49602380D02*
X146238095Y-48602380D01*
X146238095Y-49078571D02*
X146809523Y-49078571D01*
X146809523Y-49602380D02*
X146809523Y-48602380D01*
X147190476Y-48602380D02*
X147809523Y-48602380D01*
X147476190Y-48983333D01*
X147619047Y-48983333D01*
X147714285Y-49030952D01*
X147761904Y-49078571D01*
X147809523Y-49173809D01*
X147809523Y-49411904D01*
X147761904Y-49507142D01*
X147714285Y-49554761D01*
X147619047Y-49602380D01*
X147333333Y-49602380D01*
X147238095Y-49554761D01*
X147190476Y-49507142D01*
%TO.C,H4*%
X146238095Y-93602380D02*
X146238095Y-92602380D01*
X146238095Y-93078571D02*
X146809523Y-93078571D01*
X146809523Y-93602380D02*
X146809523Y-92602380D01*
X147714285Y-92935714D02*
X147714285Y-93602380D01*
X147476190Y-92554761D02*
X147238095Y-93269047D01*
X147857142Y-93269047D01*
%TO.C,H2*%
X102238095Y-93602380D02*
X102238095Y-92602380D01*
X102238095Y-93078571D02*
X102809523Y-93078571D01*
X102809523Y-93602380D02*
X102809523Y-92602380D01*
X103238095Y-92697619D02*
X103285714Y-92650000D01*
X103380952Y-92602380D01*
X103619047Y-92602380D01*
X103714285Y-92650000D01*
X103761904Y-92697619D01*
X103809523Y-92792857D01*
X103809523Y-92888095D01*
X103761904Y-93030952D01*
X103190476Y-93602380D01*
X103809523Y-93602380D01*
%TO.C,H1*%
X102238095Y-49602380D02*
X102238095Y-48602380D01*
X102238095Y-49078571D02*
X102809523Y-49078571D01*
X102809523Y-49602380D02*
X102809523Y-48602380D01*
X103809523Y-49602380D02*
X103238095Y-49602380D01*
X103523809Y-49602380D02*
X103523809Y-48602380D01*
X103428571Y-48745238D01*
X103333333Y-48840476D01*
X103238095Y-48888095D01*
%TO.C,R1*%
X118142380Y-83276666D02*
X117666190Y-83610000D01*
X118142380Y-83848095D02*
X117142380Y-83848095D01*
X117142380Y-83467142D01*
X117190000Y-83371904D01*
X117237619Y-83324285D01*
X117332857Y-83276666D01*
X117475714Y-83276666D01*
X117570952Y-83324285D01*
X117618571Y-83371904D01*
X117666190Y-83467142D01*
X117666190Y-83848095D01*
X118142380Y-82324285D02*
X118142380Y-82895714D01*
X118142380Y-82610000D02*
X117142380Y-82610000D01*
X117285238Y-82705238D01*
X117380476Y-82800476D01*
X117428095Y-82895714D01*
%TO.C,D1*%
X114421904Y-84112380D02*
X114421904Y-83112380D01*
X114660000Y-83112380D01*
X114802857Y-83160000D01*
X114898095Y-83255238D01*
X114945714Y-83350476D01*
X114993333Y-83540952D01*
X114993333Y-83683809D01*
X114945714Y-83874285D01*
X114898095Y-83969523D01*
X114802857Y-84064761D01*
X114660000Y-84112380D01*
X114421904Y-84112380D01*
X115945714Y-84112380D02*
X115374285Y-84112380D01*
X115660000Y-84112380D02*
X115660000Y-83112380D01*
X115564761Y-83255238D01*
X115469523Y-83350476D01*
X115374285Y-83398095D01*
%TO.C,J3*%
X110412380Y-53743333D02*
X111126666Y-53743333D01*
X111269523Y-53790952D01*
X111364761Y-53886190D01*
X111412380Y-54029047D01*
X111412380Y-54124285D01*
X110412380Y-53362380D02*
X110412380Y-52743333D01*
X110793333Y-53076666D01*
X110793333Y-52933809D01*
X110840952Y-52838571D01*
X110888571Y-52790952D01*
X110983809Y-52743333D01*
X111221904Y-52743333D01*
X111317142Y-52790952D01*
X111364761Y-52838571D01*
X111412380Y-52933809D01*
X111412380Y-53219523D01*
X111364761Y-53314761D01*
X111317142Y-53362380D01*
%TO.C,J2*%
X110412380Y-96923333D02*
X111126666Y-96923333D01*
X111269523Y-96970952D01*
X111364761Y-97066190D01*
X111412380Y-97209047D01*
X111412380Y-97304285D01*
X110507619Y-96494761D02*
X110460000Y-96447142D01*
X110412380Y-96351904D01*
X110412380Y-96113809D01*
X110460000Y-96018571D01*
X110507619Y-95970952D01*
X110602857Y-95923333D01*
X110698095Y-95923333D01*
X110840952Y-95970952D01*
X111412380Y-96542380D01*
X111412380Y-95923333D01*
%TO.C,Y2*%
X126123809Y-68116190D02*
X126123809Y-68592380D01*
X125790476Y-67592380D02*
X126123809Y-68116190D01*
X126457142Y-67592380D01*
X126742857Y-67687619D02*
X126790476Y-67640000D01*
X126885714Y-67592380D01*
X127123809Y-67592380D01*
X127219047Y-67640000D01*
X127266666Y-67687619D01*
X127314285Y-67782857D01*
X127314285Y-67878095D01*
X127266666Y-68020952D01*
X126695238Y-68592380D01*
X127314285Y-68592380D01*
%TO.C,Y1*%
X120436190Y-64176190D02*
X120912380Y-64176190D01*
X119912380Y-64509523D02*
X120436190Y-64176190D01*
X119912380Y-63842857D01*
X120912380Y-62985714D02*
X120912380Y-63557142D01*
X120912380Y-63271428D02*
X119912380Y-63271428D01*
X120055238Y-63366666D01*
X120150476Y-63461904D01*
X120198095Y-63557142D01*
%TO.C,J1*%
X107952380Y-75333333D02*
X108666666Y-75333333D01*
X108809523Y-75380952D01*
X108904761Y-75476190D01*
X108952380Y-75619047D01*
X108952380Y-75714285D01*
X108952380Y-74333333D02*
X108952380Y-74904761D01*
X108952380Y-74619047D02*
X107952380Y-74619047D01*
X108095238Y-74714285D01*
X108190476Y-74809523D01*
X108238095Y-74904761D01*
%TO.C,U2*%
X104998095Y-59042380D02*
X104998095Y-59851904D01*
X105045714Y-59947142D01*
X105093333Y-59994761D01*
X105188571Y-60042380D01*
X105379047Y-60042380D01*
X105474285Y-59994761D01*
X105521904Y-59947142D01*
X105569523Y-59851904D01*
X105569523Y-59042380D01*
X105998095Y-59137619D02*
X106045714Y-59090000D01*
X106140952Y-59042380D01*
X106379047Y-59042380D01*
X106474285Y-59090000D01*
X106521904Y-59137619D01*
X106569523Y-59232857D01*
X106569523Y-59328095D01*
X106521904Y-59470952D01*
X105950476Y-60042380D01*
X106569523Y-60042380D01*
%TO.C,CON1*%
X106575714Y-92687142D02*
X106528095Y-92734761D01*
X106385238Y-92782380D01*
X106290000Y-92782380D01*
X106147142Y-92734761D01*
X106051904Y-92639523D01*
X106004285Y-92544285D01*
X105956666Y-92353809D01*
X105956666Y-92210952D01*
X106004285Y-92020476D01*
X106051904Y-91925238D01*
X106147142Y-91830000D01*
X106290000Y-91782380D01*
X106385238Y-91782380D01*
X106528095Y-91830000D01*
X106575714Y-91877619D01*
X107194761Y-91782380D02*
X107385238Y-91782380D01*
X107480476Y-91830000D01*
X107575714Y-91925238D01*
X107623333Y-92115714D01*
X107623333Y-92449047D01*
X107575714Y-92639523D01*
X107480476Y-92734761D01*
X107385238Y-92782380D01*
X107194761Y-92782380D01*
X107099523Y-92734761D01*
X107004285Y-92639523D01*
X106956666Y-92449047D01*
X106956666Y-92115714D01*
X107004285Y-91925238D01*
X107099523Y-91830000D01*
X107194761Y-91782380D01*
X108051904Y-92782380D02*
X108051904Y-91782380D01*
X108623333Y-92782380D01*
X108623333Y-91782380D01*
X109623333Y-92782380D02*
X109051904Y-92782380D01*
X109337619Y-92782380D02*
X109337619Y-91782380D01*
X109242380Y-91925238D01*
X109147142Y-92020476D01*
X109051904Y-92068095D01*
%TO.C,AE1*%
X144663333Y-73416666D02*
X145139523Y-73416666D01*
X144568095Y-73702380D02*
X144901428Y-72702380D01*
X145234761Y-73702380D01*
X145568095Y-73178571D02*
X145901428Y-73178571D01*
X146044285Y-73702380D02*
X145568095Y-73702380D01*
X145568095Y-72702380D01*
X146044285Y-72702380D01*
X146996666Y-73702380D02*
X146425238Y-73702380D01*
X146710952Y-73702380D02*
X146710952Y-72702380D01*
X146615714Y-72845238D01*
X146520476Y-72940476D01*
X146425238Y-72988095D01*
%TO.C,L3*%
X133362380Y-75336666D02*
X133362380Y-75812857D01*
X132362380Y-75812857D01*
X132362380Y-75098571D02*
X132362380Y-74479523D01*
X132743333Y-74812857D01*
X132743333Y-74670000D01*
X132790952Y-74574761D01*
X132838571Y-74527142D01*
X132933809Y-74479523D01*
X133171904Y-74479523D01*
X133267142Y-74527142D01*
X133314761Y-74574761D01*
X133362380Y-74670000D01*
X133362380Y-74955714D01*
X133314761Y-75050952D01*
X133267142Y-75098571D01*
%TO.C,L2*%
X132603333Y-78192380D02*
X132127142Y-78192380D01*
X132127142Y-77192380D01*
X132889047Y-77287619D02*
X132936666Y-77240000D01*
X133031904Y-77192380D01*
X133270000Y-77192380D01*
X133365238Y-77240000D01*
X133412857Y-77287619D01*
X133460476Y-77382857D01*
X133460476Y-77478095D01*
X133412857Y-77620952D01*
X132841428Y-78192380D01*
X133460476Y-78192380D01*
%TO.C,L1*%
X137993333Y-73692380D02*
X137517142Y-73692380D01*
X137517142Y-72692380D01*
X138850476Y-73692380D02*
X138279047Y-73692380D01*
X138564761Y-73692380D02*
X138564761Y-72692380D01*
X138469523Y-72835238D01*
X138374285Y-72930476D01*
X138279047Y-72978095D01*
%TO.C,C14*%
X107847142Y-58057142D02*
X107799523Y-58104761D01*
X107656666Y-58152380D01*
X107561428Y-58152380D01*
X107418571Y-58104761D01*
X107323333Y-58009523D01*
X107275714Y-57914285D01*
X107228095Y-57723809D01*
X107228095Y-57580952D01*
X107275714Y-57390476D01*
X107323333Y-57295238D01*
X107418571Y-57200000D01*
X107561428Y-57152380D01*
X107656666Y-57152380D01*
X107799523Y-57200000D01*
X107847142Y-57247619D01*
X108799523Y-58152380D02*
X108228095Y-58152380D01*
X108513809Y-58152380D02*
X108513809Y-57152380D01*
X108418571Y-57295238D01*
X108323333Y-57390476D01*
X108228095Y-57438095D01*
X109656666Y-57485714D02*
X109656666Y-58152380D01*
X109418571Y-57104761D02*
X109180476Y-57819047D01*
X109799523Y-57819047D01*
%TO.C,C13*%
X121089642Y-81507142D02*
X121042023Y-81554761D01*
X120899166Y-81602380D01*
X120803928Y-81602380D01*
X120661071Y-81554761D01*
X120565833Y-81459523D01*
X120518214Y-81364285D01*
X120470595Y-81173809D01*
X120470595Y-81030952D01*
X120518214Y-80840476D01*
X120565833Y-80745238D01*
X120661071Y-80650000D01*
X120803928Y-80602380D01*
X120899166Y-80602380D01*
X121042023Y-80650000D01*
X121089642Y-80697619D01*
X122042023Y-81602380D02*
X121470595Y-81602380D01*
X121756309Y-81602380D02*
X121756309Y-80602380D01*
X121661071Y-80745238D01*
X121565833Y-80840476D01*
X121470595Y-80888095D01*
X122375357Y-80602380D02*
X122994404Y-80602380D01*
X122661071Y-80983333D01*
X122803928Y-80983333D01*
X122899166Y-81030952D01*
X122946785Y-81078571D01*
X122994404Y-81173809D01*
X122994404Y-81411904D01*
X122946785Y-81507142D01*
X122899166Y-81554761D01*
X122803928Y-81602380D01*
X122518214Y-81602380D01*
X122422976Y-81554761D01*
X122375357Y-81507142D01*
%TO.C,C12*%
X133157142Y-73282857D02*
X133204761Y-73330476D01*
X133252380Y-73473333D01*
X133252380Y-73568571D01*
X133204761Y-73711428D01*
X133109523Y-73806666D01*
X133014285Y-73854285D01*
X132823809Y-73901904D01*
X132680952Y-73901904D01*
X132490476Y-73854285D01*
X132395238Y-73806666D01*
X132300000Y-73711428D01*
X132252380Y-73568571D01*
X132252380Y-73473333D01*
X132300000Y-73330476D01*
X132347619Y-73282857D01*
X133252380Y-72330476D02*
X133252380Y-72901904D01*
X133252380Y-72616190D02*
X132252380Y-72616190D01*
X132395238Y-72711428D01*
X132490476Y-72806666D01*
X132538095Y-72901904D01*
X132347619Y-71949523D02*
X132300000Y-71901904D01*
X132252380Y-71806666D01*
X132252380Y-71568571D01*
X132300000Y-71473333D01*
X132347619Y-71425714D01*
X132442857Y-71378095D01*
X132538095Y-71378095D01*
X132680952Y-71425714D01*
X133252380Y-71997142D01*
X133252380Y-71378095D01*
%TO.C,C11*%
X108847142Y-67857142D02*
X108799523Y-67904761D01*
X108656666Y-67952380D01*
X108561428Y-67952380D01*
X108418571Y-67904761D01*
X108323333Y-67809523D01*
X108275714Y-67714285D01*
X108228095Y-67523809D01*
X108228095Y-67380952D01*
X108275714Y-67190476D01*
X108323333Y-67095238D01*
X108418571Y-67000000D01*
X108561428Y-66952380D01*
X108656666Y-66952380D01*
X108799523Y-67000000D01*
X108847142Y-67047619D01*
X109799523Y-67952380D02*
X109228095Y-67952380D01*
X109513809Y-67952380D02*
X109513809Y-66952380D01*
X109418571Y-67095238D01*
X109323333Y-67190476D01*
X109228095Y-67238095D01*
X110751904Y-67952380D02*
X110180476Y-67952380D01*
X110466190Y-67952380D02*
X110466190Y-66952380D01*
X110370952Y-67095238D01*
X110275714Y-67190476D01*
X110180476Y-67238095D01*
%TO.C,C10*%
X124157142Y-63557142D02*
X124109523Y-63604761D01*
X123966666Y-63652380D01*
X123871428Y-63652380D01*
X123728571Y-63604761D01*
X123633333Y-63509523D01*
X123585714Y-63414285D01*
X123538095Y-63223809D01*
X123538095Y-63080952D01*
X123585714Y-62890476D01*
X123633333Y-62795238D01*
X123728571Y-62700000D01*
X123871428Y-62652380D01*
X123966666Y-62652380D01*
X124109523Y-62700000D01*
X124157142Y-62747619D01*
X125109523Y-63652380D02*
X124538095Y-63652380D01*
X124823809Y-63652380D02*
X124823809Y-62652380D01*
X124728571Y-62795238D01*
X124633333Y-62890476D01*
X124538095Y-62938095D01*
X125728571Y-62652380D02*
X125823809Y-62652380D01*
X125919047Y-62700000D01*
X125966666Y-62747619D01*
X126014285Y-62842857D01*
X126061904Y-63033333D01*
X126061904Y-63271428D01*
X126014285Y-63461904D01*
X125966666Y-63557142D01*
X125919047Y-63604761D01*
X125823809Y-63652380D01*
X125728571Y-63652380D01*
X125633333Y-63604761D01*
X125585714Y-63557142D01*
X125538095Y-63461904D01*
X125490476Y-63271428D01*
X125490476Y-63033333D01*
X125538095Y-62842857D01*
X125585714Y-62747619D01*
X125633333Y-62700000D01*
X125728571Y-62652380D01*
%TO.C,C9*%
X137963333Y-79347142D02*
X137915714Y-79394761D01*
X137772857Y-79442380D01*
X137677619Y-79442380D01*
X137534761Y-79394761D01*
X137439523Y-79299523D01*
X137391904Y-79204285D01*
X137344285Y-79013809D01*
X137344285Y-78870952D01*
X137391904Y-78680476D01*
X137439523Y-78585238D01*
X137534761Y-78490000D01*
X137677619Y-78442380D01*
X137772857Y-78442380D01*
X137915714Y-78490000D01*
X137963333Y-78537619D01*
X138439523Y-79442380D02*
X138630000Y-79442380D01*
X138725238Y-79394761D01*
X138772857Y-79347142D01*
X138868095Y-79204285D01*
X138915714Y-79013809D01*
X138915714Y-78632857D01*
X138868095Y-78537619D01*
X138820476Y-78490000D01*
X138725238Y-78442380D01*
X138534761Y-78442380D01*
X138439523Y-78490000D01*
X138391904Y-78537619D01*
X138344285Y-78632857D01*
X138344285Y-78870952D01*
X138391904Y-78966190D01*
X138439523Y-79013809D01*
X138534761Y-79061428D01*
X138725238Y-79061428D01*
X138820476Y-79013809D01*
X138868095Y-78966190D01*
X138915714Y-78870952D01*
%TO.C,C8*%
X137633333Y-78227142D02*
X137585714Y-78274761D01*
X137442857Y-78322380D01*
X137347619Y-78322380D01*
X137204761Y-78274761D01*
X137109523Y-78179523D01*
X137061904Y-78084285D01*
X137014285Y-77893809D01*
X137014285Y-77750952D01*
X137061904Y-77560476D01*
X137109523Y-77465238D01*
X137204761Y-77370000D01*
X137347619Y-77322380D01*
X137442857Y-77322380D01*
X137585714Y-77370000D01*
X137633333Y-77417619D01*
X138204761Y-77750952D02*
X138109523Y-77703333D01*
X138061904Y-77655714D01*
X138014285Y-77560476D01*
X138014285Y-77512857D01*
X138061904Y-77417619D01*
X138109523Y-77370000D01*
X138204761Y-77322380D01*
X138395238Y-77322380D01*
X138490476Y-77370000D01*
X138538095Y-77417619D01*
X138585714Y-77512857D01*
X138585714Y-77560476D01*
X138538095Y-77655714D01*
X138490476Y-77703333D01*
X138395238Y-77750952D01*
X138204761Y-77750952D01*
X138109523Y-77798571D01*
X138061904Y-77846190D01*
X138014285Y-77941428D01*
X138014285Y-78131904D01*
X138061904Y-78227142D01*
X138109523Y-78274761D01*
X138204761Y-78322380D01*
X138395238Y-78322380D01*
X138490476Y-78274761D01*
X138538095Y-78227142D01*
X138585714Y-78131904D01*
X138585714Y-77941428D01*
X138538095Y-77846190D01*
X138490476Y-77798571D01*
X138395238Y-77750952D01*
%TO.C,C7*%
X123097142Y-65846666D02*
X123144761Y-65894285D01*
X123192380Y-66037142D01*
X123192380Y-66132380D01*
X123144761Y-66275238D01*
X123049523Y-66370476D01*
X122954285Y-66418095D01*
X122763809Y-66465714D01*
X122620952Y-66465714D01*
X122430476Y-66418095D01*
X122335238Y-66370476D01*
X122240000Y-66275238D01*
X122192380Y-66132380D01*
X122192380Y-66037142D01*
X122240000Y-65894285D01*
X122287619Y-65846666D01*
X122192380Y-65513333D02*
X122192380Y-64846666D01*
X123192380Y-65275238D01*
%TO.C,C6*%
X130827142Y-65846666D02*
X130874761Y-65894285D01*
X130922380Y-66037142D01*
X130922380Y-66132380D01*
X130874761Y-66275238D01*
X130779523Y-66370476D01*
X130684285Y-66418095D01*
X130493809Y-66465714D01*
X130350952Y-66465714D01*
X130160476Y-66418095D01*
X130065238Y-66370476D01*
X129970000Y-66275238D01*
X129922380Y-66132380D01*
X129922380Y-66037142D01*
X129970000Y-65894285D01*
X130017619Y-65846666D01*
X129922380Y-64989523D02*
X129922380Y-65180000D01*
X129970000Y-65275238D01*
X130017619Y-65322857D01*
X130160476Y-65418095D01*
X130350952Y-65465714D01*
X130731904Y-65465714D01*
X130827142Y-65418095D01*
X130874761Y-65370476D01*
X130922380Y-65275238D01*
X130922380Y-65084761D01*
X130874761Y-64989523D01*
X130827142Y-64941904D01*
X130731904Y-64894285D01*
X130493809Y-64894285D01*
X130398571Y-64941904D01*
X130350952Y-64989523D01*
X130303333Y-65084761D01*
X130303333Y-65275238D01*
X130350952Y-65370476D01*
X130398571Y-65418095D01*
X130493809Y-65465714D01*
%TO.C,C5*%
X135543333Y-73737142D02*
X135495714Y-73784761D01*
X135352857Y-73832380D01*
X135257619Y-73832380D01*
X135114761Y-73784761D01*
X135019523Y-73689523D01*
X134971904Y-73594285D01*
X134924285Y-73403809D01*
X134924285Y-73260952D01*
X134971904Y-73070476D01*
X135019523Y-72975238D01*
X135114761Y-72880000D01*
X135257619Y-72832380D01*
X135352857Y-72832380D01*
X135495714Y-72880000D01*
X135543333Y-72927619D01*
X136448095Y-72832380D02*
X135971904Y-72832380D01*
X135924285Y-73308571D01*
X135971904Y-73260952D01*
X136067142Y-73213333D01*
X136305238Y-73213333D01*
X136400476Y-73260952D01*
X136448095Y-73308571D01*
X136495714Y-73403809D01*
X136495714Y-73641904D01*
X136448095Y-73737142D01*
X136400476Y-73784761D01*
X136305238Y-73832380D01*
X136067142Y-73832380D01*
X135971904Y-73784761D01*
X135924285Y-73737142D01*
%TO.C,C4*%
X120097142Y-68366666D02*
X120144761Y-68414285D01*
X120192380Y-68557142D01*
X120192380Y-68652380D01*
X120144761Y-68795238D01*
X120049523Y-68890476D01*
X119954285Y-68938095D01*
X119763809Y-68985714D01*
X119620952Y-68985714D01*
X119430476Y-68938095D01*
X119335238Y-68890476D01*
X119240000Y-68795238D01*
X119192380Y-68652380D01*
X119192380Y-68557142D01*
X119240000Y-68414285D01*
X119287619Y-68366666D01*
X119525714Y-67509523D02*
X120192380Y-67509523D01*
X119144761Y-67747619D02*
X119859047Y-67985714D01*
X119859047Y-67366666D01*
%TO.C,C3*%
X116393333Y-62097142D02*
X116345714Y-62144761D01*
X116202857Y-62192380D01*
X116107619Y-62192380D01*
X115964761Y-62144761D01*
X115869523Y-62049523D01*
X115821904Y-61954285D01*
X115774285Y-61763809D01*
X115774285Y-61620952D01*
X115821904Y-61430476D01*
X115869523Y-61335238D01*
X115964761Y-61240000D01*
X116107619Y-61192380D01*
X116202857Y-61192380D01*
X116345714Y-61240000D01*
X116393333Y-61287619D01*
X116726666Y-61192380D02*
X117345714Y-61192380D01*
X117012380Y-61573333D01*
X117155238Y-61573333D01*
X117250476Y-61620952D01*
X117298095Y-61668571D01*
X117345714Y-61763809D01*
X117345714Y-62001904D01*
X117298095Y-62097142D01*
X117250476Y-62144761D01*
X117155238Y-62192380D01*
X116869523Y-62192380D01*
X116774285Y-62144761D01*
X116726666Y-62097142D01*
%TO.C,C2*%
X137867142Y-76346666D02*
X137914761Y-76394285D01*
X137962380Y-76537142D01*
X137962380Y-76632380D01*
X137914761Y-76775238D01*
X137819523Y-76870476D01*
X137724285Y-76918095D01*
X137533809Y-76965714D01*
X137390952Y-76965714D01*
X137200476Y-76918095D01*
X137105238Y-76870476D01*
X137010000Y-76775238D01*
X136962380Y-76632380D01*
X136962380Y-76537142D01*
X137010000Y-76394285D01*
X137057619Y-76346666D01*
X137057619Y-75965714D02*
X137010000Y-75918095D01*
X136962380Y-75822857D01*
X136962380Y-75584761D01*
X137010000Y-75489523D01*
X137057619Y-75441904D01*
X137152857Y-75394285D01*
X137248095Y-75394285D01*
X137390952Y-75441904D01*
X137962380Y-76013333D01*
X137962380Y-75394285D01*
%TO.C,C1*%
X140207142Y-76356666D02*
X140254761Y-76404285D01*
X140302380Y-76547142D01*
X140302380Y-76642380D01*
X140254761Y-76785238D01*
X140159523Y-76880476D01*
X140064285Y-76928095D01*
X139873809Y-76975714D01*
X139730952Y-76975714D01*
X139540476Y-76928095D01*
X139445238Y-76880476D01*
X139350000Y-76785238D01*
X139302380Y-76642380D01*
X139302380Y-76547142D01*
X139350000Y-76404285D01*
X139397619Y-76356666D01*
X140302380Y-75404285D02*
X140302380Y-75975714D01*
X140302380Y-75690000D02*
X139302380Y-75690000D01*
X139445238Y-75785238D01*
X139540476Y-75880476D01*
X139588095Y-75975714D01*
%TO.C,U1*%
X119602095Y-71588380D02*
X119602095Y-72397904D01*
X119649714Y-72493142D01*
X119697333Y-72540761D01*
X119792571Y-72588380D01*
X119983047Y-72588380D01*
X120078285Y-72540761D01*
X120125904Y-72493142D01*
X120173523Y-72397904D01*
X120173523Y-71588380D01*
X121173523Y-72588380D02*
X120602095Y-72588380D01*
X120887809Y-72588380D02*
X120887809Y-71588380D01*
X120792571Y-71731238D01*
X120697333Y-71826476D01*
X120602095Y-71874095D01*
%TD*%
M02*
