%TF.GenerationSoftware,KiCad,Pcbnew,(5.1.12-1-10_14)*%
%TF.CreationDate,2022-01-30T11:33:22+08:00*%
%TF.ProjectId,nrf51822_devboard,6e726635-3138-4323-925f-646576626f61,rev?*%
%TF.SameCoordinates,Original*%
%TF.FileFunction,Copper,L3,Inr*%
%TF.FilePolarity,Positive*%
%FSLAX46Y46*%
G04 Gerber Fmt 4.6, Leading zero omitted, Abs format (unit mm)*
G04 Created by KiCad (PCBNEW (5.1.12-1-10_14)) date 2022-01-30 11:33:22*
%MOMM*%
%LPD*%
G01*
G04 APERTURE LIST*
%TA.AperFunction,ComponentPad*%
%ADD10O,1.700000X1.700000*%
%TD*%
%TA.AperFunction,ComponentPad*%
%ADD11R,1.700000X1.700000*%
%TD*%
%TA.AperFunction,ComponentPad*%
%ADD12O,1.800000X1.000000*%
%TD*%
%TA.AperFunction,ComponentPad*%
%ADD13O,2.000000X1.000000*%
%TD*%
%TA.AperFunction,ComponentPad*%
%ADD14O,1.000000X1.000000*%
%TD*%
%TA.AperFunction,ComponentPad*%
%ADD15R,1.000000X1.000000*%
%TD*%
%TA.AperFunction,ViaPad*%
%ADD16C,0.450000*%
%TD*%
%TA.AperFunction,Conductor*%
%ADD17C,0.254000*%
%TD*%
%TA.AperFunction,Conductor*%
%ADD18C,0.100000*%
%TD*%
G04 APERTURE END LIST*
D10*
%TO.N,GND*%
%TO.C,J3*%
X136150000Y-52140000D03*
X136150000Y-54680000D03*
X133610000Y-52140000D03*
X133610000Y-54680000D03*
%TO.N,P0.17*%
X131070000Y-52140000D03*
%TO.N,P0.18*%
X131070000Y-54680000D03*
%TO.N,P0.19*%
X128530000Y-52140000D03*
%TO.N,P0.20*%
X128530000Y-54680000D03*
%TO.N,P0.21*%
X125990000Y-52140000D03*
%TO.N,P0.22*%
X125990000Y-54680000D03*
%TO.N,P0.23*%
X123450000Y-52140000D03*
%TO.N,P0.24*%
X123450000Y-54680000D03*
%TO.N,P0.25*%
X120910000Y-52140000D03*
%TO.N,P0.26*%
X120910000Y-54680000D03*
%TO.N,P0.27*%
X118370000Y-52140000D03*
%TO.N,P0.28*%
X118370000Y-54680000D03*
%TO.N,P0.29*%
X115830000Y-52140000D03*
%TO.N,P0.30*%
X115830000Y-54680000D03*
%TO.N,+3V3*%
X113290000Y-52140000D03*
D11*
X113290000Y-54680000D03*
%TD*%
D10*
%TO.N,GND*%
%TO.C,J2*%
X136150000Y-95320000D03*
X136150000Y-97860000D03*
%TO.N,P0.16*%
X133610000Y-95320000D03*
%TO.N,P0.15*%
X133610000Y-97860000D03*
%TO.N,P0.14*%
X131070000Y-95320000D03*
%TO.N,P0.13*%
X131070000Y-97860000D03*
%TO.N,P0.12*%
X128530000Y-95320000D03*
%TO.N,P0.11*%
X128530000Y-97860000D03*
%TO.N,P0.10*%
X125990000Y-95320000D03*
%TO.N,P0.9*%
X125990000Y-97860000D03*
%TO.N,P0.8*%
X123450000Y-95320000D03*
%TO.N,P0.7*%
X123450000Y-97860000D03*
%TO.N,P0.6*%
X120910000Y-95320000D03*
%TO.N,P0.5*%
X120910000Y-97860000D03*
%TO.N,P0.4*%
X118370000Y-95320000D03*
%TO.N,P0.3*%
X118370000Y-97860000D03*
%TO.N,P0.2*%
X115830000Y-95320000D03*
%TO.N,P0.1*%
X115830000Y-97860000D03*
%TO.N,P0.0*%
X113290000Y-95320000D03*
D11*
%TO.N,+3V3*%
X113290000Y-97860000D03*
%TD*%
D12*
%TO.N,Net-(J1-Pad0)*%
%TO.C,J1*%
X103050000Y-78875000D03*
X103050000Y-71125000D03*
D13*
X106850000Y-78725000D03*
X106850000Y-71275000D03*
%TD*%
D14*
%TO.N,GND*%
%TO.C,CON1*%
X108275000Y-84550000D03*
%TO.N,P0.4*%
X107005000Y-84550000D03*
%TO.N,SWCLK*%
X108275000Y-85820000D03*
%TO.N,P0.5*%
X107005000Y-85820000D03*
%TO.N,SWDIO*%
X108275000Y-87090000D03*
%TO.N,GND*%
X107005000Y-87090000D03*
%TO.N,+3V3*%
X108275000Y-88360000D03*
%TO.N,N/C*%
X107005000Y-88360000D03*
X107005000Y-89630000D03*
D15*
X108275000Y-89630000D03*
%TD*%
D16*
%TO.N,GND*%
X118910000Y-69700000D03*
X118960000Y-58000000D03*
X109360000Y-77350000D03*
X141400000Y-73600000D03*
X140700000Y-73600000D03*
X140000000Y-73600000D03*
X139300000Y-73600000D03*
X138600000Y-73600000D03*
X137900000Y-73600000D03*
X137200000Y-73600000D03*
X136500000Y-73600000D03*
X135800000Y-73600000D03*
X135100000Y-73600000D03*
X134400000Y-73600000D03*
X133700000Y-73600000D03*
X133000000Y-73600000D03*
X141400000Y-75500000D03*
X140700000Y-75500000D03*
X140000000Y-75500000D03*
X140000000Y-76200000D03*
X140000000Y-76900000D03*
X141400000Y-76200000D03*
X141400000Y-76900000D03*
X112760000Y-62460000D03*
%TO.N,+3V3*%
X121140000Y-81120000D03*
X116040000Y-81220000D03*
X120380000Y-72770000D03*
X128660000Y-71620000D03*
%TO.N,SWCLK*%
X127353590Y-84462710D03*
%TO.N,SWDIO*%
X126960000Y-84980000D03*
%TO.N,P0.20*%
X129570000Y-76125000D03*
%TO.N,P0.19*%
X129850137Y-76711537D03*
%TO.N,P0.18*%
X130030933Y-77335889D03*
%TO.N,P0.17*%
X130511102Y-77773998D03*
%TD*%
D17*
%TO.N,+3V3*%
X113162998Y-50819844D02*
X112933110Y-50698524D01*
X112785901Y-50743175D01*
X112523080Y-50868359D01*
X112289731Y-51042412D01*
X112094822Y-51258645D01*
X111945843Y-51508748D01*
X111848519Y-51783109D01*
X111969186Y-52013000D01*
X113163000Y-52013000D01*
X113163000Y-51993000D01*
X113417000Y-51993000D01*
X113417000Y-52013000D01*
X113437000Y-52013000D01*
X113437000Y-52267000D01*
X113417000Y-52267000D01*
X113417000Y-54553000D01*
X113437000Y-54553000D01*
X113437000Y-54807000D01*
X113417000Y-54807000D01*
X113417000Y-56006250D01*
X113575750Y-56165000D01*
X114140000Y-56168072D01*
X114264482Y-56155812D01*
X114384180Y-56119502D01*
X114494494Y-56060537D01*
X114591185Y-55981185D01*
X114670537Y-55884494D01*
X114729502Y-55774180D01*
X114751513Y-55701620D01*
X114883368Y-55833475D01*
X115126589Y-55995990D01*
X115396842Y-56107932D01*
X115683740Y-56165000D01*
X115976260Y-56165000D01*
X116263158Y-56107932D01*
X116533411Y-55995990D01*
X116776632Y-55833475D01*
X116983475Y-55626632D01*
X117100000Y-55452240D01*
X117216525Y-55626632D01*
X117423368Y-55833475D01*
X117666589Y-55995990D01*
X117936842Y-56107932D01*
X118223740Y-56165000D01*
X118516260Y-56165000D01*
X118803158Y-56107932D01*
X119073411Y-55995990D01*
X119316632Y-55833475D01*
X119523475Y-55626632D01*
X119640000Y-55452240D01*
X119756525Y-55626632D01*
X119963368Y-55833475D01*
X120206589Y-55995990D01*
X120476842Y-56107932D01*
X120763740Y-56165000D01*
X121056260Y-56165000D01*
X121343158Y-56107932D01*
X121613411Y-55995990D01*
X121856632Y-55833475D01*
X122063475Y-55626632D01*
X122180000Y-55452240D01*
X122296525Y-55626632D01*
X122503368Y-55833475D01*
X122746589Y-55995990D01*
X123016842Y-56107932D01*
X123303740Y-56165000D01*
X123596260Y-56165000D01*
X123883158Y-56107932D01*
X124153411Y-55995990D01*
X124396632Y-55833475D01*
X124603475Y-55626632D01*
X124720000Y-55452240D01*
X124836525Y-55626632D01*
X125043368Y-55833475D01*
X125286589Y-55995990D01*
X125556842Y-56107932D01*
X125843740Y-56165000D01*
X126136260Y-56165000D01*
X126423158Y-56107932D01*
X126693411Y-55995990D01*
X126936632Y-55833475D01*
X127143475Y-55626632D01*
X127260000Y-55452240D01*
X127376525Y-55626632D01*
X127583368Y-55833475D01*
X127826589Y-55995990D01*
X128096842Y-56107932D01*
X128383740Y-56165000D01*
X128676260Y-56165000D01*
X128963158Y-56107932D01*
X129233411Y-55995990D01*
X129476632Y-55833475D01*
X129683475Y-55626632D01*
X129800000Y-55452240D01*
X129916525Y-55626632D01*
X130123368Y-55833475D01*
X130366589Y-55995990D01*
X130636842Y-56107932D01*
X130923740Y-56165000D01*
X131216260Y-56165000D01*
X131503158Y-56107932D01*
X131773411Y-55995990D01*
X132016632Y-55833475D01*
X132223475Y-55626632D01*
X132340000Y-55452240D01*
X132456525Y-55626632D01*
X132663368Y-55833475D01*
X132906589Y-55995990D01*
X133176842Y-56107932D01*
X133463740Y-56165000D01*
X133756260Y-56165000D01*
X134043158Y-56107932D01*
X134313411Y-55995990D01*
X134556632Y-55833475D01*
X134763475Y-55626632D01*
X134880000Y-55452240D01*
X134996525Y-55626632D01*
X135203368Y-55833475D01*
X135446589Y-55995990D01*
X135716842Y-56107932D01*
X136003740Y-56165000D01*
X136296260Y-56165000D01*
X136583158Y-56107932D01*
X136853411Y-55995990D01*
X137096632Y-55833475D01*
X137303475Y-55626632D01*
X137465990Y-55383411D01*
X137577932Y-55113158D01*
X137635000Y-54826260D01*
X137635000Y-54533740D01*
X137577932Y-54246842D01*
X137465990Y-53976589D01*
X137303475Y-53733368D01*
X137096632Y-53526525D01*
X136922240Y-53410000D01*
X137096632Y-53293475D01*
X137303475Y-53086632D01*
X137465990Y-52843411D01*
X137492308Y-52779872D01*
X144765000Y-52779872D01*
X144765000Y-53220128D01*
X144850890Y-53651925D01*
X145019369Y-54058669D01*
X145263962Y-54424729D01*
X145575271Y-54736038D01*
X145941331Y-54980631D01*
X146348075Y-55149110D01*
X146779872Y-55235000D01*
X147220128Y-55235000D01*
X147651925Y-55149110D01*
X148058669Y-54980631D01*
X148424729Y-54736038D01*
X148736038Y-54424729D01*
X148980631Y-54058669D01*
X149149110Y-53651925D01*
X149235000Y-53220128D01*
X149235000Y-52779872D01*
X149149110Y-52348075D01*
X148980631Y-51941331D01*
X148736038Y-51575271D01*
X148424729Y-51263962D01*
X148058669Y-51019369D01*
X147651925Y-50850890D01*
X147220128Y-50765000D01*
X146779872Y-50765000D01*
X146348075Y-50850890D01*
X145941331Y-51019369D01*
X145575271Y-51263962D01*
X145263962Y-51575271D01*
X145019369Y-51941331D01*
X144850890Y-52348075D01*
X144765000Y-52779872D01*
X137492308Y-52779872D01*
X137577932Y-52573158D01*
X137635000Y-52286260D01*
X137635000Y-51993740D01*
X137577932Y-51706842D01*
X137465990Y-51436589D01*
X137303475Y-51193368D01*
X137096632Y-50986525D01*
X136853411Y-50824010D01*
X136583158Y-50712068D01*
X136321397Y-50660000D01*
X146967721Y-50660000D01*
X147453893Y-50707670D01*
X147890498Y-50839489D01*
X148293185Y-51053600D01*
X148646612Y-51341848D01*
X148937327Y-51693261D01*
X149154242Y-52094439D01*
X149289106Y-52530113D01*
X149340000Y-53014344D01*
X149340000Y-60152146D01*
X142112047Y-60152146D01*
X142087688Y-60154504D01*
X142063840Y-60161651D01*
X142041844Y-60173314D01*
X142022546Y-60189043D01*
X142006687Y-60208235D01*
X141994878Y-60230152D01*
X141987571Y-60253952D01*
X141985048Y-60278721D01*
X141942671Y-72928289D01*
X141807363Y-72837878D01*
X141650853Y-72773049D01*
X141484703Y-72740000D01*
X141315297Y-72740000D01*
X141149147Y-72773049D01*
X141050000Y-72814117D01*
X140950853Y-72773049D01*
X140784703Y-72740000D01*
X140615297Y-72740000D01*
X140449147Y-72773049D01*
X140350000Y-72814117D01*
X140250853Y-72773049D01*
X140084703Y-72740000D01*
X139915297Y-72740000D01*
X139749147Y-72773049D01*
X139650000Y-72814117D01*
X139550853Y-72773049D01*
X139384703Y-72740000D01*
X139215297Y-72740000D01*
X139049147Y-72773049D01*
X138950000Y-72814117D01*
X138850853Y-72773049D01*
X138684703Y-72740000D01*
X138515297Y-72740000D01*
X138349147Y-72773049D01*
X138250000Y-72814117D01*
X138150853Y-72773049D01*
X137984703Y-72740000D01*
X137815297Y-72740000D01*
X137649147Y-72773049D01*
X137550000Y-72814117D01*
X137450853Y-72773049D01*
X137284703Y-72740000D01*
X137115297Y-72740000D01*
X136949147Y-72773049D01*
X136850000Y-72814117D01*
X136750853Y-72773049D01*
X136584703Y-72740000D01*
X136415297Y-72740000D01*
X136249147Y-72773049D01*
X136150000Y-72814117D01*
X136050853Y-72773049D01*
X135884703Y-72740000D01*
X135715297Y-72740000D01*
X135549147Y-72773049D01*
X135450000Y-72814117D01*
X135350853Y-72773049D01*
X135184703Y-72740000D01*
X135015297Y-72740000D01*
X134849147Y-72773049D01*
X134750000Y-72814117D01*
X134650853Y-72773049D01*
X134484703Y-72740000D01*
X134315297Y-72740000D01*
X134149147Y-72773049D01*
X134050000Y-72814117D01*
X133950853Y-72773049D01*
X133784703Y-72740000D01*
X133615297Y-72740000D01*
X133449147Y-72773049D01*
X133350000Y-72814117D01*
X133250853Y-72773049D01*
X133084703Y-72740000D01*
X132915297Y-72740000D01*
X132749147Y-72773049D01*
X132592637Y-72837878D01*
X132451782Y-72931995D01*
X132331995Y-73051782D01*
X132237878Y-73192637D01*
X132173049Y-73349147D01*
X132140000Y-73515297D01*
X132140000Y-73684703D01*
X132173049Y-73850853D01*
X132237878Y-74007363D01*
X132331995Y-74148218D01*
X132451782Y-74268005D01*
X132592637Y-74362122D01*
X132749147Y-74426951D01*
X132915297Y-74460000D01*
X133084703Y-74460000D01*
X133250853Y-74426951D01*
X133350000Y-74385883D01*
X133449147Y-74426951D01*
X133615297Y-74460000D01*
X133784703Y-74460000D01*
X133950853Y-74426951D01*
X134050000Y-74385883D01*
X134149147Y-74426951D01*
X134315297Y-74460000D01*
X134484703Y-74460000D01*
X134650853Y-74426951D01*
X134750000Y-74385883D01*
X134849147Y-74426951D01*
X135015297Y-74460000D01*
X135184703Y-74460000D01*
X135350853Y-74426951D01*
X135450000Y-74385883D01*
X135549147Y-74426951D01*
X135715297Y-74460000D01*
X135884703Y-74460000D01*
X136050853Y-74426951D01*
X136150000Y-74385883D01*
X136249147Y-74426951D01*
X136415297Y-74460000D01*
X136584703Y-74460000D01*
X136750853Y-74426951D01*
X136850000Y-74385883D01*
X136949147Y-74426951D01*
X137115297Y-74460000D01*
X137284703Y-74460000D01*
X137450853Y-74426951D01*
X137550000Y-74385883D01*
X137649147Y-74426951D01*
X137815297Y-74460000D01*
X137984703Y-74460000D01*
X138150853Y-74426951D01*
X138250000Y-74385883D01*
X138349147Y-74426951D01*
X138515297Y-74460000D01*
X138684703Y-74460000D01*
X138850853Y-74426951D01*
X138950000Y-74385883D01*
X139049147Y-74426951D01*
X139215297Y-74460000D01*
X139384703Y-74460000D01*
X139550853Y-74426951D01*
X139650000Y-74385883D01*
X139749147Y-74426951D01*
X139915297Y-74460000D01*
X140084703Y-74460000D01*
X140250853Y-74426951D01*
X140350000Y-74385883D01*
X140449147Y-74426951D01*
X140615297Y-74460000D01*
X140784703Y-74460000D01*
X140950853Y-74426951D01*
X141050000Y-74385883D01*
X141149147Y-74426951D01*
X141315297Y-74460000D01*
X141484703Y-74460000D01*
X141650853Y-74426951D01*
X141807363Y-74362122D01*
X141938160Y-74274725D01*
X141936320Y-74824045D01*
X141807363Y-74737878D01*
X141650853Y-74673049D01*
X141484703Y-74640000D01*
X141315297Y-74640000D01*
X141149147Y-74673049D01*
X141050000Y-74714117D01*
X140950853Y-74673049D01*
X140784703Y-74640000D01*
X140615297Y-74640000D01*
X140449147Y-74673049D01*
X140350000Y-74714117D01*
X140250853Y-74673049D01*
X140084703Y-74640000D01*
X139915297Y-74640000D01*
X139749147Y-74673049D01*
X139592637Y-74737878D01*
X139451782Y-74831995D01*
X139331995Y-74951782D01*
X139237878Y-75092637D01*
X139173049Y-75249147D01*
X139140000Y-75415297D01*
X139140000Y-75584703D01*
X139173049Y-75750853D01*
X139214117Y-75850000D01*
X139173049Y-75949147D01*
X139140000Y-76115297D01*
X139140000Y-76284703D01*
X139173049Y-76450853D01*
X139214117Y-76550000D01*
X139173049Y-76649147D01*
X139140000Y-76815297D01*
X139140000Y-76984703D01*
X139173049Y-77150853D01*
X139237878Y-77307363D01*
X139331995Y-77448218D01*
X139451782Y-77568005D01*
X139592637Y-77662122D01*
X139749147Y-77726951D01*
X139915297Y-77760000D01*
X140084703Y-77760000D01*
X140250853Y-77726951D01*
X140407363Y-77662122D01*
X140548218Y-77568005D01*
X140668005Y-77448218D01*
X140700000Y-77400334D01*
X140731995Y-77448218D01*
X140851782Y-77568005D01*
X140992637Y-77662122D01*
X141149147Y-77726951D01*
X141315297Y-77760000D01*
X141484703Y-77760000D01*
X141650853Y-77726951D01*
X141807363Y-77662122D01*
X141927080Y-77582129D01*
X141885048Y-90128721D01*
X141887536Y-90154168D01*
X141894810Y-90177978D01*
X141906589Y-90199911D01*
X141922421Y-90219125D01*
X141941698Y-90234881D01*
X141963677Y-90246574D01*
X141987516Y-90253754D01*
X142012297Y-90256146D01*
X149340001Y-90241721D01*
X149340001Y-96967711D01*
X149292330Y-97453894D01*
X149160512Y-97890497D01*
X148946399Y-98293186D01*
X148658150Y-98646613D01*
X148306739Y-98937327D01*
X147905564Y-99154240D01*
X147469886Y-99289106D01*
X146985664Y-99340000D01*
X136321397Y-99340000D01*
X136583158Y-99287932D01*
X136853411Y-99175990D01*
X137096632Y-99013475D01*
X137303475Y-98806632D01*
X137465990Y-98563411D01*
X137577932Y-98293158D01*
X137635000Y-98006260D01*
X137635000Y-97713740D01*
X137577932Y-97426842D01*
X137465990Y-97156589D01*
X137303475Y-96913368D01*
X137169979Y-96779872D01*
X144765000Y-96779872D01*
X144765000Y-97220128D01*
X144850890Y-97651925D01*
X145019369Y-98058669D01*
X145263962Y-98424729D01*
X145575271Y-98736038D01*
X145941331Y-98980631D01*
X146348075Y-99149110D01*
X146779872Y-99235000D01*
X147220128Y-99235000D01*
X147651925Y-99149110D01*
X148058669Y-98980631D01*
X148424729Y-98736038D01*
X148736038Y-98424729D01*
X148980631Y-98058669D01*
X149149110Y-97651925D01*
X149235000Y-97220128D01*
X149235000Y-96779872D01*
X149149110Y-96348075D01*
X148980631Y-95941331D01*
X148736038Y-95575271D01*
X148424729Y-95263962D01*
X148058669Y-95019369D01*
X147651925Y-94850890D01*
X147220128Y-94765000D01*
X146779872Y-94765000D01*
X146348075Y-94850890D01*
X145941331Y-95019369D01*
X145575271Y-95263962D01*
X145263962Y-95575271D01*
X145019369Y-95941331D01*
X144850890Y-96348075D01*
X144765000Y-96779872D01*
X137169979Y-96779872D01*
X137096632Y-96706525D01*
X136922240Y-96590000D01*
X137096632Y-96473475D01*
X137303475Y-96266632D01*
X137465990Y-96023411D01*
X137577932Y-95753158D01*
X137635000Y-95466260D01*
X137635000Y-95173740D01*
X137577932Y-94886842D01*
X137465990Y-94616589D01*
X137303475Y-94373368D01*
X137096632Y-94166525D01*
X136853411Y-94004010D01*
X136583158Y-93892068D01*
X136296260Y-93835000D01*
X136003740Y-93835000D01*
X135716842Y-93892068D01*
X135446589Y-94004010D01*
X135203368Y-94166525D01*
X134996525Y-94373368D01*
X134880000Y-94547760D01*
X134763475Y-94373368D01*
X134556632Y-94166525D01*
X134313411Y-94004010D01*
X134043158Y-93892068D01*
X133756260Y-93835000D01*
X133463740Y-93835000D01*
X133176842Y-93892068D01*
X132906589Y-94004010D01*
X132663368Y-94166525D01*
X132456525Y-94373368D01*
X132340000Y-94547760D01*
X132223475Y-94373368D01*
X132016632Y-94166525D01*
X131773411Y-94004010D01*
X131503158Y-93892068D01*
X131216260Y-93835000D01*
X130923740Y-93835000D01*
X130636842Y-93892068D01*
X130366589Y-94004010D01*
X130123368Y-94166525D01*
X129916525Y-94373368D01*
X129800000Y-94547760D01*
X129683475Y-94373368D01*
X129476632Y-94166525D01*
X129233411Y-94004010D01*
X128963158Y-93892068D01*
X128676260Y-93835000D01*
X128383740Y-93835000D01*
X128096842Y-93892068D01*
X127826589Y-94004010D01*
X127583368Y-94166525D01*
X127376525Y-94373368D01*
X127260000Y-94547760D01*
X127143475Y-94373368D01*
X126936632Y-94166525D01*
X126693411Y-94004010D01*
X126423158Y-93892068D01*
X126136260Y-93835000D01*
X125843740Y-93835000D01*
X125556842Y-93892068D01*
X125286589Y-94004010D01*
X125043368Y-94166525D01*
X124836525Y-94373368D01*
X124720000Y-94547760D01*
X124603475Y-94373368D01*
X124396632Y-94166525D01*
X124153411Y-94004010D01*
X123883158Y-93892068D01*
X123596260Y-93835000D01*
X123303740Y-93835000D01*
X123016842Y-93892068D01*
X122746589Y-94004010D01*
X122503368Y-94166525D01*
X122296525Y-94373368D01*
X122180000Y-94547760D01*
X122063475Y-94373368D01*
X121856632Y-94166525D01*
X121613411Y-94004010D01*
X121343158Y-93892068D01*
X121056260Y-93835000D01*
X120763740Y-93835000D01*
X120476842Y-93892068D01*
X120206589Y-94004010D01*
X119963368Y-94166525D01*
X119756525Y-94373368D01*
X119640000Y-94547760D01*
X119523475Y-94373368D01*
X119316632Y-94166525D01*
X119073411Y-94004010D01*
X118803158Y-93892068D01*
X118516260Y-93835000D01*
X118223740Y-93835000D01*
X117936842Y-93892068D01*
X117666589Y-94004010D01*
X117423368Y-94166525D01*
X117216525Y-94373368D01*
X117100000Y-94547760D01*
X116983475Y-94373368D01*
X116776632Y-94166525D01*
X116533411Y-94004010D01*
X116263158Y-93892068D01*
X115976260Y-93835000D01*
X115683740Y-93835000D01*
X115396842Y-93892068D01*
X115126589Y-94004010D01*
X114883368Y-94166525D01*
X114676525Y-94373368D01*
X114560000Y-94547760D01*
X114443475Y-94373368D01*
X114236632Y-94166525D01*
X113993411Y-94004010D01*
X113723158Y-93892068D01*
X113436260Y-93835000D01*
X113143740Y-93835000D01*
X112856842Y-93892068D01*
X112586589Y-94004010D01*
X112343368Y-94166525D01*
X112136525Y-94373368D01*
X111974010Y-94616589D01*
X111862068Y-94886842D01*
X111805000Y-95173740D01*
X111805000Y-95466260D01*
X111862068Y-95753158D01*
X111974010Y-96023411D01*
X112136525Y-96266632D01*
X112268380Y-96398487D01*
X112195820Y-96420498D01*
X112085506Y-96479463D01*
X111988815Y-96558815D01*
X111909463Y-96655506D01*
X111850498Y-96765820D01*
X111814188Y-96885518D01*
X111801928Y-97010000D01*
X111805000Y-97574250D01*
X111963750Y-97733000D01*
X113163000Y-97733000D01*
X113163000Y-97713000D01*
X113417000Y-97713000D01*
X113417000Y-97733000D01*
X113437000Y-97733000D01*
X113437000Y-97987000D01*
X113417000Y-97987000D01*
X113417000Y-98007000D01*
X113163000Y-98007000D01*
X113163000Y-97987000D01*
X111963750Y-97987000D01*
X111805000Y-98145750D01*
X111801928Y-98710000D01*
X111814188Y-98834482D01*
X111850498Y-98954180D01*
X111909463Y-99064494D01*
X111988815Y-99161185D01*
X112085506Y-99240537D01*
X112195820Y-99299502D01*
X112315518Y-99335812D01*
X112358041Y-99340000D01*
X103032279Y-99340000D01*
X102546106Y-99292330D01*
X102109503Y-99160512D01*
X101706814Y-98946399D01*
X101353387Y-98658150D01*
X101062673Y-98306739D01*
X100845760Y-97905564D01*
X100710894Y-97469886D01*
X100660000Y-96985664D01*
X100660000Y-96779872D01*
X100765000Y-96779872D01*
X100765000Y-97220128D01*
X100850890Y-97651925D01*
X101019369Y-98058669D01*
X101263962Y-98424729D01*
X101575271Y-98736038D01*
X101941331Y-98980631D01*
X102348075Y-99149110D01*
X102779872Y-99235000D01*
X103220128Y-99235000D01*
X103651925Y-99149110D01*
X104058669Y-98980631D01*
X104424729Y-98736038D01*
X104736038Y-98424729D01*
X104980631Y-98058669D01*
X105149110Y-97651925D01*
X105235000Y-97220128D01*
X105235000Y-96779872D01*
X105149110Y-96348075D01*
X104980631Y-95941331D01*
X104736038Y-95575271D01*
X104424729Y-95263962D01*
X104058669Y-95019369D01*
X103651925Y-94850890D01*
X103220128Y-94765000D01*
X102779872Y-94765000D01*
X102348075Y-94850890D01*
X101941331Y-95019369D01*
X101575271Y-95263962D01*
X101263962Y-95575271D01*
X101019369Y-95941331D01*
X100850890Y-96348075D01*
X100765000Y-96779872D01*
X100660000Y-96779872D01*
X100660000Y-84438212D01*
X105870000Y-84438212D01*
X105870000Y-84661788D01*
X105913617Y-84881067D01*
X105999176Y-85087624D01*
X106064241Y-85185000D01*
X105999176Y-85282376D01*
X105913617Y-85488933D01*
X105870000Y-85708212D01*
X105870000Y-85931788D01*
X105913617Y-86151067D01*
X105999176Y-86357624D01*
X106064241Y-86455000D01*
X105999176Y-86552376D01*
X105913617Y-86758933D01*
X105870000Y-86978212D01*
X105870000Y-87201788D01*
X105913617Y-87421067D01*
X105999176Y-87627624D01*
X106064241Y-87725000D01*
X105999176Y-87822376D01*
X105913617Y-88028933D01*
X105870000Y-88248212D01*
X105870000Y-88471788D01*
X105913617Y-88691067D01*
X105999176Y-88897624D01*
X106064241Y-88995000D01*
X105999176Y-89092376D01*
X105913617Y-89298933D01*
X105870000Y-89518212D01*
X105870000Y-89741788D01*
X105913617Y-89961067D01*
X105999176Y-90167624D01*
X106123388Y-90353520D01*
X106281480Y-90511612D01*
X106467376Y-90635824D01*
X106673933Y-90721383D01*
X106893212Y-90765000D01*
X107116788Y-90765000D01*
X107336067Y-90721383D01*
X107447774Y-90675112D01*
X107530820Y-90719502D01*
X107650518Y-90755812D01*
X107775000Y-90768072D01*
X108775000Y-90768072D01*
X108899482Y-90755812D01*
X109019180Y-90719502D01*
X109129494Y-90660537D01*
X109226185Y-90581185D01*
X109305537Y-90484494D01*
X109364502Y-90374180D01*
X109400812Y-90254482D01*
X109413072Y-90130000D01*
X109413072Y-89130000D01*
X109400812Y-89005518D01*
X109364502Y-88885820D01*
X109316930Y-88796820D01*
X109352446Y-88716864D01*
X109369119Y-88661874D01*
X109242954Y-88487000D01*
X108402000Y-88487000D01*
X108402000Y-88491928D01*
X108148000Y-88491928D01*
X108148000Y-88487000D01*
X108136974Y-88487000D01*
X108140000Y-88471788D01*
X108140000Y-88248212D01*
X108136974Y-88233000D01*
X108148000Y-88233000D01*
X108148000Y-88221974D01*
X108163212Y-88225000D01*
X108386788Y-88225000D01*
X108402000Y-88221974D01*
X108402000Y-88233000D01*
X109242954Y-88233000D01*
X109369119Y-88058126D01*
X109352446Y-88003136D01*
X109262123Y-87799794D01*
X109212647Y-87729658D01*
X109280824Y-87627624D01*
X109366383Y-87421067D01*
X109410000Y-87201788D01*
X109410000Y-86978212D01*
X109366383Y-86758933D01*
X109280824Y-86552376D01*
X109215759Y-86455000D01*
X109280824Y-86357624D01*
X109366383Y-86151067D01*
X109410000Y-85931788D01*
X109410000Y-85708212D01*
X109366383Y-85488933D01*
X109280824Y-85282376D01*
X109215759Y-85185000D01*
X109280824Y-85087624D01*
X109360488Y-84895297D01*
X126100000Y-84895297D01*
X126100000Y-85064703D01*
X126133049Y-85230853D01*
X126197878Y-85387363D01*
X126291995Y-85528218D01*
X126411782Y-85648005D01*
X126552637Y-85742122D01*
X126709147Y-85806951D01*
X126875297Y-85840000D01*
X127044703Y-85840000D01*
X127210853Y-85806951D01*
X127367363Y-85742122D01*
X127508218Y-85648005D01*
X127628005Y-85528218D01*
X127722122Y-85387363D01*
X127786951Y-85230853D01*
X127792317Y-85203875D01*
X127901808Y-85130715D01*
X128021595Y-85010928D01*
X128115712Y-84870073D01*
X128180541Y-84713563D01*
X128213590Y-84547413D01*
X128213590Y-84378007D01*
X128180541Y-84211857D01*
X128115712Y-84055347D01*
X128021595Y-83914492D01*
X127901808Y-83794705D01*
X127760953Y-83700588D01*
X127604443Y-83635759D01*
X127438293Y-83602710D01*
X127268887Y-83602710D01*
X127102737Y-83635759D01*
X126946227Y-83700588D01*
X126805372Y-83794705D01*
X126685585Y-83914492D01*
X126591468Y-84055347D01*
X126526639Y-84211857D01*
X126521273Y-84238835D01*
X126411782Y-84311995D01*
X126291995Y-84431782D01*
X126197878Y-84572637D01*
X126133049Y-84729147D01*
X126100000Y-84895297D01*
X109360488Y-84895297D01*
X109366383Y-84881067D01*
X109410000Y-84661788D01*
X109410000Y-84438212D01*
X109366383Y-84218933D01*
X109280824Y-84012376D01*
X109156612Y-83826480D01*
X108998520Y-83668388D01*
X108812624Y-83544176D01*
X108606067Y-83458617D01*
X108386788Y-83415000D01*
X108163212Y-83415000D01*
X107943933Y-83458617D01*
X107737376Y-83544176D01*
X107640000Y-83609241D01*
X107542624Y-83544176D01*
X107336067Y-83458617D01*
X107116788Y-83415000D01*
X106893212Y-83415000D01*
X106673933Y-83458617D01*
X106467376Y-83544176D01*
X106281480Y-83668388D01*
X106123388Y-83826480D01*
X105999176Y-84012376D01*
X105913617Y-84218933D01*
X105870000Y-84438212D01*
X100660000Y-84438212D01*
X100660000Y-78875000D01*
X101509509Y-78875000D01*
X101531423Y-79097499D01*
X101596324Y-79311447D01*
X101701716Y-79508623D01*
X101843551Y-79681449D01*
X102016377Y-79823284D01*
X102213553Y-79928676D01*
X102427501Y-79993577D01*
X102594248Y-80010000D01*
X103505752Y-80010000D01*
X103672499Y-79993577D01*
X103886447Y-79928676D01*
X104083623Y-79823284D01*
X104256449Y-79681449D01*
X104398284Y-79508623D01*
X104503676Y-79311447D01*
X104568577Y-79097499D01*
X104590491Y-78875000D01*
X104568577Y-78652501D01*
X104503676Y-78438553D01*
X104398284Y-78241377D01*
X104256449Y-78068551D01*
X104083623Y-77926716D01*
X103886447Y-77821324D01*
X103672499Y-77756423D01*
X103505752Y-77740000D01*
X102594248Y-77740000D01*
X102427501Y-77756423D01*
X102213553Y-77821324D01*
X102016377Y-77926716D01*
X101843551Y-78068551D01*
X101701716Y-78241377D01*
X101596324Y-78438553D01*
X101531423Y-78652501D01*
X101509509Y-78875000D01*
X100660000Y-78875000D01*
X100660000Y-77398061D01*
X104765000Y-77398061D01*
X104765000Y-77601939D01*
X104804774Y-77801898D01*
X104882795Y-77990256D01*
X104996063Y-78159774D01*
X105140226Y-78303937D01*
X105266136Y-78388067D01*
X105231423Y-78502501D01*
X105209509Y-78725000D01*
X105231423Y-78947499D01*
X105296324Y-79161447D01*
X105401716Y-79358623D01*
X105543551Y-79531449D01*
X105716377Y-79673284D01*
X105913553Y-79778676D01*
X106127501Y-79843577D01*
X106294248Y-79860000D01*
X107405752Y-79860000D01*
X107572499Y-79843577D01*
X107786447Y-79778676D01*
X107983623Y-79673284D01*
X108156449Y-79531449D01*
X108298284Y-79358623D01*
X108403676Y-79161447D01*
X108468577Y-78947499D01*
X108490491Y-78725000D01*
X108468577Y-78502501D01*
X108403676Y-78288553D01*
X108298284Y-78091377D01*
X108156449Y-77918551D01*
X107983623Y-77776716D01*
X107786447Y-77671324D01*
X107572499Y-77606423D01*
X107405752Y-77590000D01*
X106835000Y-77590000D01*
X106835000Y-77398061D01*
X106808592Y-77265297D01*
X108500000Y-77265297D01*
X108500000Y-77434703D01*
X108533049Y-77600853D01*
X108597878Y-77757363D01*
X108691995Y-77898218D01*
X108811782Y-78018005D01*
X108952637Y-78112122D01*
X109109147Y-78176951D01*
X109275297Y-78210000D01*
X109444703Y-78210000D01*
X109610853Y-78176951D01*
X109767363Y-78112122D01*
X109908218Y-78018005D01*
X110028005Y-77898218D01*
X110122122Y-77757363D01*
X110186951Y-77600853D01*
X110220000Y-77434703D01*
X110220000Y-77265297D01*
X110186951Y-77099147D01*
X110122122Y-76942637D01*
X110028005Y-76801782D01*
X109908218Y-76681995D01*
X109767363Y-76587878D01*
X109610853Y-76523049D01*
X109444703Y-76490000D01*
X109275297Y-76490000D01*
X109109147Y-76523049D01*
X108952637Y-76587878D01*
X108811782Y-76681995D01*
X108691995Y-76801782D01*
X108597878Y-76942637D01*
X108533049Y-77099147D01*
X108500000Y-77265297D01*
X106808592Y-77265297D01*
X106795226Y-77198102D01*
X106717205Y-77009744D01*
X106603937Y-76840226D01*
X106459774Y-76696063D01*
X106290256Y-76582795D01*
X106101898Y-76504774D01*
X105901939Y-76465000D01*
X105698061Y-76465000D01*
X105498102Y-76504774D01*
X105309744Y-76582795D01*
X105140226Y-76696063D01*
X104996063Y-76840226D01*
X104882795Y-77009744D01*
X104804774Y-77198102D01*
X104765000Y-77398061D01*
X100660000Y-77398061D01*
X100660000Y-76040297D01*
X128710000Y-76040297D01*
X128710000Y-76209703D01*
X128743049Y-76375853D01*
X128807878Y-76532363D01*
X128901995Y-76673218D01*
X128990137Y-76761360D01*
X128990137Y-76796240D01*
X129023186Y-76962390D01*
X129088015Y-77118900D01*
X129172189Y-77244874D01*
X129170933Y-77251186D01*
X129170933Y-77420592D01*
X129203982Y-77586742D01*
X129268811Y-77743252D01*
X129362928Y-77884107D01*
X129482715Y-78003894D01*
X129623570Y-78098011D01*
X129733278Y-78143454D01*
X129748980Y-78181361D01*
X129843097Y-78322216D01*
X129962884Y-78442003D01*
X130103739Y-78536120D01*
X130260249Y-78600949D01*
X130426399Y-78633998D01*
X130595805Y-78633998D01*
X130761955Y-78600949D01*
X130918465Y-78536120D01*
X131059320Y-78442003D01*
X131179107Y-78322216D01*
X131273224Y-78181361D01*
X131338053Y-78024851D01*
X131371102Y-77858701D01*
X131371102Y-77689295D01*
X131338053Y-77523145D01*
X131273224Y-77366635D01*
X131179107Y-77225780D01*
X131059320Y-77105993D01*
X130918465Y-77011876D01*
X130808757Y-76966433D01*
X130793055Y-76928526D01*
X130708881Y-76802552D01*
X130710137Y-76796240D01*
X130710137Y-76626834D01*
X130677088Y-76460684D01*
X130612259Y-76304174D01*
X130518142Y-76163319D01*
X130430000Y-76075177D01*
X130430000Y-76040297D01*
X130396951Y-75874147D01*
X130332122Y-75717637D01*
X130238005Y-75576782D01*
X130118218Y-75456995D01*
X129977363Y-75362878D01*
X129820853Y-75298049D01*
X129654703Y-75265000D01*
X129485297Y-75265000D01*
X129319147Y-75298049D01*
X129162637Y-75362878D01*
X129021782Y-75456995D01*
X128901995Y-75576782D01*
X128807878Y-75717637D01*
X128743049Y-75874147D01*
X128710000Y-76040297D01*
X100660000Y-76040297D01*
X100660000Y-72398061D01*
X104765000Y-72398061D01*
X104765000Y-72601939D01*
X104804774Y-72801898D01*
X104882795Y-72990256D01*
X104996063Y-73159774D01*
X105140226Y-73303937D01*
X105309744Y-73417205D01*
X105498102Y-73495226D01*
X105698061Y-73535000D01*
X105901939Y-73535000D01*
X106101898Y-73495226D01*
X106290256Y-73417205D01*
X106459774Y-73303937D01*
X106603937Y-73159774D01*
X106717205Y-72990256D01*
X106795226Y-72801898D01*
X106835000Y-72601939D01*
X106835000Y-72410000D01*
X107405752Y-72410000D01*
X107572499Y-72393577D01*
X107786447Y-72328676D01*
X107983623Y-72223284D01*
X108156449Y-72081449D01*
X108298284Y-71908623D01*
X108403676Y-71711447D01*
X108468577Y-71497499D01*
X108490491Y-71275000D01*
X108468577Y-71052501D01*
X108403676Y-70838553D01*
X108298284Y-70641377D01*
X108156449Y-70468551D01*
X107983623Y-70326716D01*
X107786447Y-70221324D01*
X107572499Y-70156423D01*
X107405752Y-70140000D01*
X106294248Y-70140000D01*
X106127501Y-70156423D01*
X105913553Y-70221324D01*
X105716377Y-70326716D01*
X105543551Y-70468551D01*
X105401716Y-70641377D01*
X105296324Y-70838553D01*
X105231423Y-71052501D01*
X105209509Y-71275000D01*
X105231423Y-71497499D01*
X105266136Y-71611933D01*
X105140226Y-71696063D01*
X104996063Y-71840226D01*
X104882795Y-72009744D01*
X104804774Y-72198102D01*
X104765000Y-72398061D01*
X100660000Y-72398061D01*
X100660000Y-71125000D01*
X101509509Y-71125000D01*
X101531423Y-71347499D01*
X101596324Y-71561447D01*
X101701716Y-71758623D01*
X101843551Y-71931449D01*
X102016377Y-72073284D01*
X102213553Y-72178676D01*
X102427501Y-72243577D01*
X102594248Y-72260000D01*
X103505752Y-72260000D01*
X103672499Y-72243577D01*
X103886447Y-72178676D01*
X104083623Y-72073284D01*
X104256449Y-71931449D01*
X104398284Y-71758623D01*
X104503676Y-71561447D01*
X104568577Y-71347499D01*
X104590491Y-71125000D01*
X104568577Y-70902501D01*
X104503676Y-70688553D01*
X104398284Y-70491377D01*
X104256449Y-70318551D01*
X104083623Y-70176716D01*
X103886447Y-70071324D01*
X103672499Y-70006423D01*
X103505752Y-69990000D01*
X102594248Y-69990000D01*
X102427501Y-70006423D01*
X102213553Y-70071324D01*
X102016377Y-70176716D01*
X101843551Y-70318551D01*
X101701716Y-70491377D01*
X101596324Y-70688553D01*
X101531423Y-70902501D01*
X101509509Y-71125000D01*
X100660000Y-71125000D01*
X100660000Y-69615297D01*
X118050000Y-69615297D01*
X118050000Y-69784703D01*
X118083049Y-69950853D01*
X118147878Y-70107363D01*
X118241995Y-70248218D01*
X118361782Y-70368005D01*
X118502637Y-70462122D01*
X118659147Y-70526951D01*
X118825297Y-70560000D01*
X118994703Y-70560000D01*
X119160853Y-70526951D01*
X119317363Y-70462122D01*
X119458218Y-70368005D01*
X119578005Y-70248218D01*
X119672122Y-70107363D01*
X119736951Y-69950853D01*
X119770000Y-69784703D01*
X119770000Y-69615297D01*
X119736951Y-69449147D01*
X119672122Y-69292637D01*
X119578005Y-69151782D01*
X119458218Y-69031995D01*
X119317363Y-68937878D01*
X119160853Y-68873049D01*
X118994703Y-68840000D01*
X118825297Y-68840000D01*
X118659147Y-68873049D01*
X118502637Y-68937878D01*
X118361782Y-69031995D01*
X118241995Y-69151782D01*
X118147878Y-69292637D01*
X118083049Y-69449147D01*
X118050000Y-69615297D01*
X100660000Y-69615297D01*
X100660000Y-62375297D01*
X111900000Y-62375297D01*
X111900000Y-62544703D01*
X111933049Y-62710853D01*
X111997878Y-62867363D01*
X112091995Y-63008218D01*
X112211782Y-63128005D01*
X112352637Y-63222122D01*
X112509147Y-63286951D01*
X112675297Y-63320000D01*
X112844703Y-63320000D01*
X113010853Y-63286951D01*
X113167363Y-63222122D01*
X113308218Y-63128005D01*
X113428005Y-63008218D01*
X113522122Y-62867363D01*
X113586951Y-62710853D01*
X113620000Y-62544703D01*
X113620000Y-62375297D01*
X113586951Y-62209147D01*
X113522122Y-62052637D01*
X113428005Y-61911782D01*
X113308218Y-61791995D01*
X113167363Y-61697878D01*
X113010853Y-61633049D01*
X112844703Y-61600000D01*
X112675297Y-61600000D01*
X112509147Y-61633049D01*
X112352637Y-61697878D01*
X112211782Y-61791995D01*
X112091995Y-61911782D01*
X111997878Y-62052637D01*
X111933049Y-62209147D01*
X111900000Y-62375297D01*
X100660000Y-62375297D01*
X100660000Y-57915297D01*
X118100000Y-57915297D01*
X118100000Y-58084703D01*
X118133049Y-58250853D01*
X118197878Y-58407363D01*
X118291995Y-58548218D01*
X118411782Y-58668005D01*
X118552637Y-58762122D01*
X118709147Y-58826951D01*
X118875297Y-58860000D01*
X119044703Y-58860000D01*
X119210853Y-58826951D01*
X119367363Y-58762122D01*
X119508218Y-58668005D01*
X119628005Y-58548218D01*
X119722122Y-58407363D01*
X119786951Y-58250853D01*
X119820000Y-58084703D01*
X119820000Y-57915297D01*
X119786951Y-57749147D01*
X119722122Y-57592637D01*
X119628005Y-57451782D01*
X119508218Y-57331995D01*
X119367363Y-57237878D01*
X119210853Y-57173049D01*
X119044703Y-57140000D01*
X118875297Y-57140000D01*
X118709147Y-57173049D01*
X118552637Y-57237878D01*
X118411782Y-57331995D01*
X118291995Y-57451782D01*
X118197878Y-57592637D01*
X118133049Y-57749147D01*
X118100000Y-57915297D01*
X100660000Y-57915297D01*
X100660000Y-55530000D01*
X111801928Y-55530000D01*
X111814188Y-55654482D01*
X111850498Y-55774180D01*
X111909463Y-55884494D01*
X111988815Y-55981185D01*
X112085506Y-56060537D01*
X112195820Y-56119502D01*
X112315518Y-56155812D01*
X112440000Y-56168072D01*
X113004250Y-56165000D01*
X113163000Y-56006250D01*
X113163000Y-54807000D01*
X111963750Y-54807000D01*
X111805000Y-54965750D01*
X111801928Y-55530000D01*
X100660000Y-55530000D01*
X100660000Y-53032279D01*
X100684748Y-52779872D01*
X100765000Y-52779872D01*
X100765000Y-53220128D01*
X100850890Y-53651925D01*
X101019369Y-54058669D01*
X101263962Y-54424729D01*
X101575271Y-54736038D01*
X101941331Y-54980631D01*
X102348075Y-55149110D01*
X102779872Y-55235000D01*
X103220128Y-55235000D01*
X103651925Y-55149110D01*
X104058669Y-54980631D01*
X104424729Y-54736038D01*
X104736038Y-54424729D01*
X104980631Y-54058669D01*
X105075348Y-53830000D01*
X111801928Y-53830000D01*
X111805000Y-54394250D01*
X111963750Y-54553000D01*
X113163000Y-54553000D01*
X113163000Y-52267000D01*
X111969186Y-52267000D01*
X111848519Y-52496891D01*
X111945843Y-52771252D01*
X112094822Y-53021355D01*
X112271626Y-53217502D01*
X112195820Y-53240498D01*
X112085506Y-53299463D01*
X111988815Y-53378815D01*
X111909463Y-53475506D01*
X111850498Y-53585820D01*
X111814188Y-53705518D01*
X111801928Y-53830000D01*
X105075348Y-53830000D01*
X105149110Y-53651925D01*
X105235000Y-53220128D01*
X105235000Y-52779872D01*
X105149110Y-52348075D01*
X104980631Y-51941331D01*
X104736038Y-51575271D01*
X104424729Y-51263962D01*
X104058669Y-51019369D01*
X103651925Y-50850890D01*
X103220128Y-50765000D01*
X102779872Y-50765000D01*
X102348075Y-50850890D01*
X101941331Y-51019369D01*
X101575271Y-51263962D01*
X101263962Y-51575271D01*
X101019369Y-51941331D01*
X100850890Y-52348075D01*
X100765000Y-52779872D01*
X100684748Y-52779872D01*
X100707670Y-52546107D01*
X100839489Y-52109502D01*
X101053600Y-51706815D01*
X101341848Y-51353388D01*
X101693261Y-51062673D01*
X102094439Y-50845758D01*
X102530113Y-50710894D01*
X103014344Y-50660000D01*
X113162998Y-50660000D01*
X113162998Y-50819844D01*
%TA.AperFunction,Conductor*%
D18*
G36*
X113162998Y-50819844D02*
G01*
X112933110Y-50698524D01*
X112785901Y-50743175D01*
X112523080Y-50868359D01*
X112289731Y-51042412D01*
X112094822Y-51258645D01*
X111945843Y-51508748D01*
X111848519Y-51783109D01*
X111969186Y-52013000D01*
X113163000Y-52013000D01*
X113163000Y-51993000D01*
X113417000Y-51993000D01*
X113417000Y-52013000D01*
X113437000Y-52013000D01*
X113437000Y-52267000D01*
X113417000Y-52267000D01*
X113417000Y-54553000D01*
X113437000Y-54553000D01*
X113437000Y-54807000D01*
X113417000Y-54807000D01*
X113417000Y-56006250D01*
X113575750Y-56165000D01*
X114140000Y-56168072D01*
X114264482Y-56155812D01*
X114384180Y-56119502D01*
X114494494Y-56060537D01*
X114591185Y-55981185D01*
X114670537Y-55884494D01*
X114729502Y-55774180D01*
X114751513Y-55701620D01*
X114883368Y-55833475D01*
X115126589Y-55995990D01*
X115396842Y-56107932D01*
X115683740Y-56165000D01*
X115976260Y-56165000D01*
X116263158Y-56107932D01*
X116533411Y-55995990D01*
X116776632Y-55833475D01*
X116983475Y-55626632D01*
X117100000Y-55452240D01*
X117216525Y-55626632D01*
X117423368Y-55833475D01*
X117666589Y-55995990D01*
X117936842Y-56107932D01*
X118223740Y-56165000D01*
X118516260Y-56165000D01*
X118803158Y-56107932D01*
X119073411Y-55995990D01*
X119316632Y-55833475D01*
X119523475Y-55626632D01*
X119640000Y-55452240D01*
X119756525Y-55626632D01*
X119963368Y-55833475D01*
X120206589Y-55995990D01*
X120476842Y-56107932D01*
X120763740Y-56165000D01*
X121056260Y-56165000D01*
X121343158Y-56107932D01*
X121613411Y-55995990D01*
X121856632Y-55833475D01*
X122063475Y-55626632D01*
X122180000Y-55452240D01*
X122296525Y-55626632D01*
X122503368Y-55833475D01*
X122746589Y-55995990D01*
X123016842Y-56107932D01*
X123303740Y-56165000D01*
X123596260Y-56165000D01*
X123883158Y-56107932D01*
X124153411Y-55995990D01*
X124396632Y-55833475D01*
X124603475Y-55626632D01*
X124720000Y-55452240D01*
X124836525Y-55626632D01*
X125043368Y-55833475D01*
X125286589Y-55995990D01*
X125556842Y-56107932D01*
X125843740Y-56165000D01*
X126136260Y-56165000D01*
X126423158Y-56107932D01*
X126693411Y-55995990D01*
X126936632Y-55833475D01*
X127143475Y-55626632D01*
X127260000Y-55452240D01*
X127376525Y-55626632D01*
X127583368Y-55833475D01*
X127826589Y-55995990D01*
X128096842Y-56107932D01*
X128383740Y-56165000D01*
X128676260Y-56165000D01*
X128963158Y-56107932D01*
X129233411Y-55995990D01*
X129476632Y-55833475D01*
X129683475Y-55626632D01*
X129800000Y-55452240D01*
X129916525Y-55626632D01*
X130123368Y-55833475D01*
X130366589Y-55995990D01*
X130636842Y-56107932D01*
X130923740Y-56165000D01*
X131216260Y-56165000D01*
X131503158Y-56107932D01*
X131773411Y-55995990D01*
X132016632Y-55833475D01*
X132223475Y-55626632D01*
X132340000Y-55452240D01*
X132456525Y-55626632D01*
X132663368Y-55833475D01*
X132906589Y-55995990D01*
X133176842Y-56107932D01*
X133463740Y-56165000D01*
X133756260Y-56165000D01*
X134043158Y-56107932D01*
X134313411Y-55995990D01*
X134556632Y-55833475D01*
X134763475Y-55626632D01*
X134880000Y-55452240D01*
X134996525Y-55626632D01*
X135203368Y-55833475D01*
X135446589Y-55995990D01*
X135716842Y-56107932D01*
X136003740Y-56165000D01*
X136296260Y-56165000D01*
X136583158Y-56107932D01*
X136853411Y-55995990D01*
X137096632Y-55833475D01*
X137303475Y-55626632D01*
X137465990Y-55383411D01*
X137577932Y-55113158D01*
X137635000Y-54826260D01*
X137635000Y-54533740D01*
X137577932Y-54246842D01*
X137465990Y-53976589D01*
X137303475Y-53733368D01*
X137096632Y-53526525D01*
X136922240Y-53410000D01*
X137096632Y-53293475D01*
X137303475Y-53086632D01*
X137465990Y-52843411D01*
X137492308Y-52779872D01*
X144765000Y-52779872D01*
X144765000Y-53220128D01*
X144850890Y-53651925D01*
X145019369Y-54058669D01*
X145263962Y-54424729D01*
X145575271Y-54736038D01*
X145941331Y-54980631D01*
X146348075Y-55149110D01*
X146779872Y-55235000D01*
X147220128Y-55235000D01*
X147651925Y-55149110D01*
X148058669Y-54980631D01*
X148424729Y-54736038D01*
X148736038Y-54424729D01*
X148980631Y-54058669D01*
X149149110Y-53651925D01*
X149235000Y-53220128D01*
X149235000Y-52779872D01*
X149149110Y-52348075D01*
X148980631Y-51941331D01*
X148736038Y-51575271D01*
X148424729Y-51263962D01*
X148058669Y-51019369D01*
X147651925Y-50850890D01*
X147220128Y-50765000D01*
X146779872Y-50765000D01*
X146348075Y-50850890D01*
X145941331Y-51019369D01*
X145575271Y-51263962D01*
X145263962Y-51575271D01*
X145019369Y-51941331D01*
X144850890Y-52348075D01*
X144765000Y-52779872D01*
X137492308Y-52779872D01*
X137577932Y-52573158D01*
X137635000Y-52286260D01*
X137635000Y-51993740D01*
X137577932Y-51706842D01*
X137465990Y-51436589D01*
X137303475Y-51193368D01*
X137096632Y-50986525D01*
X136853411Y-50824010D01*
X136583158Y-50712068D01*
X136321397Y-50660000D01*
X146967721Y-50660000D01*
X147453893Y-50707670D01*
X147890498Y-50839489D01*
X148293185Y-51053600D01*
X148646612Y-51341848D01*
X148937327Y-51693261D01*
X149154242Y-52094439D01*
X149289106Y-52530113D01*
X149340000Y-53014344D01*
X149340000Y-60152146D01*
X142112047Y-60152146D01*
X142087688Y-60154504D01*
X142063840Y-60161651D01*
X142041844Y-60173314D01*
X142022546Y-60189043D01*
X142006687Y-60208235D01*
X141994878Y-60230152D01*
X141987571Y-60253952D01*
X141985048Y-60278721D01*
X141942671Y-72928289D01*
X141807363Y-72837878D01*
X141650853Y-72773049D01*
X141484703Y-72740000D01*
X141315297Y-72740000D01*
X141149147Y-72773049D01*
X141050000Y-72814117D01*
X140950853Y-72773049D01*
X140784703Y-72740000D01*
X140615297Y-72740000D01*
X140449147Y-72773049D01*
X140350000Y-72814117D01*
X140250853Y-72773049D01*
X140084703Y-72740000D01*
X139915297Y-72740000D01*
X139749147Y-72773049D01*
X139650000Y-72814117D01*
X139550853Y-72773049D01*
X139384703Y-72740000D01*
X139215297Y-72740000D01*
X139049147Y-72773049D01*
X138950000Y-72814117D01*
X138850853Y-72773049D01*
X138684703Y-72740000D01*
X138515297Y-72740000D01*
X138349147Y-72773049D01*
X138250000Y-72814117D01*
X138150853Y-72773049D01*
X137984703Y-72740000D01*
X137815297Y-72740000D01*
X137649147Y-72773049D01*
X137550000Y-72814117D01*
X137450853Y-72773049D01*
X137284703Y-72740000D01*
X137115297Y-72740000D01*
X136949147Y-72773049D01*
X136850000Y-72814117D01*
X136750853Y-72773049D01*
X136584703Y-72740000D01*
X136415297Y-72740000D01*
X136249147Y-72773049D01*
X136150000Y-72814117D01*
X136050853Y-72773049D01*
X135884703Y-72740000D01*
X135715297Y-72740000D01*
X135549147Y-72773049D01*
X135450000Y-72814117D01*
X135350853Y-72773049D01*
X135184703Y-72740000D01*
X135015297Y-72740000D01*
X134849147Y-72773049D01*
X134750000Y-72814117D01*
X134650853Y-72773049D01*
X134484703Y-72740000D01*
X134315297Y-72740000D01*
X134149147Y-72773049D01*
X134050000Y-72814117D01*
X133950853Y-72773049D01*
X133784703Y-72740000D01*
X133615297Y-72740000D01*
X133449147Y-72773049D01*
X133350000Y-72814117D01*
X133250853Y-72773049D01*
X133084703Y-72740000D01*
X132915297Y-72740000D01*
X132749147Y-72773049D01*
X132592637Y-72837878D01*
X132451782Y-72931995D01*
X132331995Y-73051782D01*
X132237878Y-73192637D01*
X132173049Y-73349147D01*
X132140000Y-73515297D01*
X132140000Y-73684703D01*
X132173049Y-73850853D01*
X132237878Y-74007363D01*
X132331995Y-74148218D01*
X132451782Y-74268005D01*
X132592637Y-74362122D01*
X132749147Y-74426951D01*
X132915297Y-74460000D01*
X133084703Y-74460000D01*
X133250853Y-74426951D01*
X133350000Y-74385883D01*
X133449147Y-74426951D01*
X133615297Y-74460000D01*
X133784703Y-74460000D01*
X133950853Y-74426951D01*
X134050000Y-74385883D01*
X134149147Y-74426951D01*
X134315297Y-74460000D01*
X134484703Y-74460000D01*
X134650853Y-74426951D01*
X134750000Y-74385883D01*
X134849147Y-74426951D01*
X135015297Y-74460000D01*
X135184703Y-74460000D01*
X135350853Y-74426951D01*
X135450000Y-74385883D01*
X135549147Y-74426951D01*
X135715297Y-74460000D01*
X135884703Y-74460000D01*
X136050853Y-74426951D01*
X136150000Y-74385883D01*
X136249147Y-74426951D01*
X136415297Y-74460000D01*
X136584703Y-74460000D01*
X136750853Y-74426951D01*
X136850000Y-74385883D01*
X136949147Y-74426951D01*
X137115297Y-74460000D01*
X137284703Y-74460000D01*
X137450853Y-74426951D01*
X137550000Y-74385883D01*
X137649147Y-74426951D01*
X137815297Y-74460000D01*
X137984703Y-74460000D01*
X138150853Y-74426951D01*
X138250000Y-74385883D01*
X138349147Y-74426951D01*
X138515297Y-74460000D01*
X138684703Y-74460000D01*
X138850853Y-74426951D01*
X138950000Y-74385883D01*
X139049147Y-74426951D01*
X139215297Y-74460000D01*
X139384703Y-74460000D01*
X139550853Y-74426951D01*
X139650000Y-74385883D01*
X139749147Y-74426951D01*
X139915297Y-74460000D01*
X140084703Y-74460000D01*
X140250853Y-74426951D01*
X140350000Y-74385883D01*
X140449147Y-74426951D01*
X140615297Y-74460000D01*
X140784703Y-74460000D01*
X140950853Y-74426951D01*
X141050000Y-74385883D01*
X141149147Y-74426951D01*
X141315297Y-74460000D01*
X141484703Y-74460000D01*
X141650853Y-74426951D01*
X141807363Y-74362122D01*
X141938160Y-74274725D01*
X141936320Y-74824045D01*
X141807363Y-74737878D01*
X141650853Y-74673049D01*
X141484703Y-74640000D01*
X141315297Y-74640000D01*
X141149147Y-74673049D01*
X141050000Y-74714117D01*
X140950853Y-74673049D01*
X140784703Y-74640000D01*
X140615297Y-74640000D01*
X140449147Y-74673049D01*
X140350000Y-74714117D01*
X140250853Y-74673049D01*
X140084703Y-74640000D01*
X139915297Y-74640000D01*
X139749147Y-74673049D01*
X139592637Y-74737878D01*
X139451782Y-74831995D01*
X139331995Y-74951782D01*
X139237878Y-75092637D01*
X139173049Y-75249147D01*
X139140000Y-75415297D01*
X139140000Y-75584703D01*
X139173049Y-75750853D01*
X139214117Y-75850000D01*
X139173049Y-75949147D01*
X139140000Y-76115297D01*
X139140000Y-76284703D01*
X139173049Y-76450853D01*
X139214117Y-76550000D01*
X139173049Y-76649147D01*
X139140000Y-76815297D01*
X139140000Y-76984703D01*
X139173049Y-77150853D01*
X139237878Y-77307363D01*
X139331995Y-77448218D01*
X139451782Y-77568005D01*
X139592637Y-77662122D01*
X139749147Y-77726951D01*
X139915297Y-77760000D01*
X140084703Y-77760000D01*
X140250853Y-77726951D01*
X140407363Y-77662122D01*
X140548218Y-77568005D01*
X140668005Y-77448218D01*
X140700000Y-77400334D01*
X140731995Y-77448218D01*
X140851782Y-77568005D01*
X140992637Y-77662122D01*
X141149147Y-77726951D01*
X141315297Y-77760000D01*
X141484703Y-77760000D01*
X141650853Y-77726951D01*
X141807363Y-77662122D01*
X141927080Y-77582129D01*
X141885048Y-90128721D01*
X141887536Y-90154168D01*
X141894810Y-90177978D01*
X141906589Y-90199911D01*
X141922421Y-90219125D01*
X141941698Y-90234881D01*
X141963677Y-90246574D01*
X141987516Y-90253754D01*
X142012297Y-90256146D01*
X149340001Y-90241721D01*
X149340001Y-96967711D01*
X149292330Y-97453894D01*
X149160512Y-97890497D01*
X148946399Y-98293186D01*
X148658150Y-98646613D01*
X148306739Y-98937327D01*
X147905564Y-99154240D01*
X147469886Y-99289106D01*
X146985664Y-99340000D01*
X136321397Y-99340000D01*
X136583158Y-99287932D01*
X136853411Y-99175990D01*
X137096632Y-99013475D01*
X137303475Y-98806632D01*
X137465990Y-98563411D01*
X137577932Y-98293158D01*
X137635000Y-98006260D01*
X137635000Y-97713740D01*
X137577932Y-97426842D01*
X137465990Y-97156589D01*
X137303475Y-96913368D01*
X137169979Y-96779872D01*
X144765000Y-96779872D01*
X144765000Y-97220128D01*
X144850890Y-97651925D01*
X145019369Y-98058669D01*
X145263962Y-98424729D01*
X145575271Y-98736038D01*
X145941331Y-98980631D01*
X146348075Y-99149110D01*
X146779872Y-99235000D01*
X147220128Y-99235000D01*
X147651925Y-99149110D01*
X148058669Y-98980631D01*
X148424729Y-98736038D01*
X148736038Y-98424729D01*
X148980631Y-98058669D01*
X149149110Y-97651925D01*
X149235000Y-97220128D01*
X149235000Y-96779872D01*
X149149110Y-96348075D01*
X148980631Y-95941331D01*
X148736038Y-95575271D01*
X148424729Y-95263962D01*
X148058669Y-95019369D01*
X147651925Y-94850890D01*
X147220128Y-94765000D01*
X146779872Y-94765000D01*
X146348075Y-94850890D01*
X145941331Y-95019369D01*
X145575271Y-95263962D01*
X145263962Y-95575271D01*
X145019369Y-95941331D01*
X144850890Y-96348075D01*
X144765000Y-96779872D01*
X137169979Y-96779872D01*
X137096632Y-96706525D01*
X136922240Y-96590000D01*
X137096632Y-96473475D01*
X137303475Y-96266632D01*
X137465990Y-96023411D01*
X137577932Y-95753158D01*
X137635000Y-95466260D01*
X137635000Y-95173740D01*
X137577932Y-94886842D01*
X137465990Y-94616589D01*
X137303475Y-94373368D01*
X137096632Y-94166525D01*
X136853411Y-94004010D01*
X136583158Y-93892068D01*
X136296260Y-93835000D01*
X136003740Y-93835000D01*
X135716842Y-93892068D01*
X135446589Y-94004010D01*
X135203368Y-94166525D01*
X134996525Y-94373368D01*
X134880000Y-94547760D01*
X134763475Y-94373368D01*
X134556632Y-94166525D01*
X134313411Y-94004010D01*
X134043158Y-93892068D01*
X133756260Y-93835000D01*
X133463740Y-93835000D01*
X133176842Y-93892068D01*
X132906589Y-94004010D01*
X132663368Y-94166525D01*
X132456525Y-94373368D01*
X132340000Y-94547760D01*
X132223475Y-94373368D01*
X132016632Y-94166525D01*
X131773411Y-94004010D01*
X131503158Y-93892068D01*
X131216260Y-93835000D01*
X130923740Y-93835000D01*
X130636842Y-93892068D01*
X130366589Y-94004010D01*
X130123368Y-94166525D01*
X129916525Y-94373368D01*
X129800000Y-94547760D01*
X129683475Y-94373368D01*
X129476632Y-94166525D01*
X129233411Y-94004010D01*
X128963158Y-93892068D01*
X128676260Y-93835000D01*
X128383740Y-93835000D01*
X128096842Y-93892068D01*
X127826589Y-94004010D01*
X127583368Y-94166525D01*
X127376525Y-94373368D01*
X127260000Y-94547760D01*
X127143475Y-94373368D01*
X126936632Y-94166525D01*
X126693411Y-94004010D01*
X126423158Y-93892068D01*
X126136260Y-93835000D01*
X125843740Y-93835000D01*
X125556842Y-93892068D01*
X125286589Y-94004010D01*
X125043368Y-94166525D01*
X124836525Y-94373368D01*
X124720000Y-94547760D01*
X124603475Y-94373368D01*
X124396632Y-94166525D01*
X124153411Y-94004010D01*
X123883158Y-93892068D01*
X123596260Y-93835000D01*
X123303740Y-93835000D01*
X123016842Y-93892068D01*
X122746589Y-94004010D01*
X122503368Y-94166525D01*
X122296525Y-94373368D01*
X122180000Y-94547760D01*
X122063475Y-94373368D01*
X121856632Y-94166525D01*
X121613411Y-94004010D01*
X121343158Y-93892068D01*
X121056260Y-93835000D01*
X120763740Y-93835000D01*
X120476842Y-93892068D01*
X120206589Y-94004010D01*
X119963368Y-94166525D01*
X119756525Y-94373368D01*
X119640000Y-94547760D01*
X119523475Y-94373368D01*
X119316632Y-94166525D01*
X119073411Y-94004010D01*
X118803158Y-93892068D01*
X118516260Y-93835000D01*
X118223740Y-93835000D01*
X117936842Y-93892068D01*
X117666589Y-94004010D01*
X117423368Y-94166525D01*
X117216525Y-94373368D01*
X117100000Y-94547760D01*
X116983475Y-94373368D01*
X116776632Y-94166525D01*
X116533411Y-94004010D01*
X116263158Y-93892068D01*
X115976260Y-93835000D01*
X115683740Y-93835000D01*
X115396842Y-93892068D01*
X115126589Y-94004010D01*
X114883368Y-94166525D01*
X114676525Y-94373368D01*
X114560000Y-94547760D01*
X114443475Y-94373368D01*
X114236632Y-94166525D01*
X113993411Y-94004010D01*
X113723158Y-93892068D01*
X113436260Y-93835000D01*
X113143740Y-93835000D01*
X112856842Y-93892068D01*
X112586589Y-94004010D01*
X112343368Y-94166525D01*
X112136525Y-94373368D01*
X111974010Y-94616589D01*
X111862068Y-94886842D01*
X111805000Y-95173740D01*
X111805000Y-95466260D01*
X111862068Y-95753158D01*
X111974010Y-96023411D01*
X112136525Y-96266632D01*
X112268380Y-96398487D01*
X112195820Y-96420498D01*
X112085506Y-96479463D01*
X111988815Y-96558815D01*
X111909463Y-96655506D01*
X111850498Y-96765820D01*
X111814188Y-96885518D01*
X111801928Y-97010000D01*
X111805000Y-97574250D01*
X111963750Y-97733000D01*
X113163000Y-97733000D01*
X113163000Y-97713000D01*
X113417000Y-97713000D01*
X113417000Y-97733000D01*
X113437000Y-97733000D01*
X113437000Y-97987000D01*
X113417000Y-97987000D01*
X113417000Y-98007000D01*
X113163000Y-98007000D01*
X113163000Y-97987000D01*
X111963750Y-97987000D01*
X111805000Y-98145750D01*
X111801928Y-98710000D01*
X111814188Y-98834482D01*
X111850498Y-98954180D01*
X111909463Y-99064494D01*
X111988815Y-99161185D01*
X112085506Y-99240537D01*
X112195820Y-99299502D01*
X112315518Y-99335812D01*
X112358041Y-99340000D01*
X103032279Y-99340000D01*
X102546106Y-99292330D01*
X102109503Y-99160512D01*
X101706814Y-98946399D01*
X101353387Y-98658150D01*
X101062673Y-98306739D01*
X100845760Y-97905564D01*
X100710894Y-97469886D01*
X100660000Y-96985664D01*
X100660000Y-96779872D01*
X100765000Y-96779872D01*
X100765000Y-97220128D01*
X100850890Y-97651925D01*
X101019369Y-98058669D01*
X101263962Y-98424729D01*
X101575271Y-98736038D01*
X101941331Y-98980631D01*
X102348075Y-99149110D01*
X102779872Y-99235000D01*
X103220128Y-99235000D01*
X103651925Y-99149110D01*
X104058669Y-98980631D01*
X104424729Y-98736038D01*
X104736038Y-98424729D01*
X104980631Y-98058669D01*
X105149110Y-97651925D01*
X105235000Y-97220128D01*
X105235000Y-96779872D01*
X105149110Y-96348075D01*
X104980631Y-95941331D01*
X104736038Y-95575271D01*
X104424729Y-95263962D01*
X104058669Y-95019369D01*
X103651925Y-94850890D01*
X103220128Y-94765000D01*
X102779872Y-94765000D01*
X102348075Y-94850890D01*
X101941331Y-95019369D01*
X101575271Y-95263962D01*
X101263962Y-95575271D01*
X101019369Y-95941331D01*
X100850890Y-96348075D01*
X100765000Y-96779872D01*
X100660000Y-96779872D01*
X100660000Y-84438212D01*
X105870000Y-84438212D01*
X105870000Y-84661788D01*
X105913617Y-84881067D01*
X105999176Y-85087624D01*
X106064241Y-85185000D01*
X105999176Y-85282376D01*
X105913617Y-85488933D01*
X105870000Y-85708212D01*
X105870000Y-85931788D01*
X105913617Y-86151067D01*
X105999176Y-86357624D01*
X106064241Y-86455000D01*
X105999176Y-86552376D01*
X105913617Y-86758933D01*
X105870000Y-86978212D01*
X105870000Y-87201788D01*
X105913617Y-87421067D01*
X105999176Y-87627624D01*
X106064241Y-87725000D01*
X105999176Y-87822376D01*
X105913617Y-88028933D01*
X105870000Y-88248212D01*
X105870000Y-88471788D01*
X105913617Y-88691067D01*
X105999176Y-88897624D01*
X106064241Y-88995000D01*
X105999176Y-89092376D01*
X105913617Y-89298933D01*
X105870000Y-89518212D01*
X105870000Y-89741788D01*
X105913617Y-89961067D01*
X105999176Y-90167624D01*
X106123388Y-90353520D01*
X106281480Y-90511612D01*
X106467376Y-90635824D01*
X106673933Y-90721383D01*
X106893212Y-90765000D01*
X107116788Y-90765000D01*
X107336067Y-90721383D01*
X107447774Y-90675112D01*
X107530820Y-90719502D01*
X107650518Y-90755812D01*
X107775000Y-90768072D01*
X108775000Y-90768072D01*
X108899482Y-90755812D01*
X109019180Y-90719502D01*
X109129494Y-90660537D01*
X109226185Y-90581185D01*
X109305537Y-90484494D01*
X109364502Y-90374180D01*
X109400812Y-90254482D01*
X109413072Y-90130000D01*
X109413072Y-89130000D01*
X109400812Y-89005518D01*
X109364502Y-88885820D01*
X109316930Y-88796820D01*
X109352446Y-88716864D01*
X109369119Y-88661874D01*
X109242954Y-88487000D01*
X108402000Y-88487000D01*
X108402000Y-88491928D01*
X108148000Y-88491928D01*
X108148000Y-88487000D01*
X108136974Y-88487000D01*
X108140000Y-88471788D01*
X108140000Y-88248212D01*
X108136974Y-88233000D01*
X108148000Y-88233000D01*
X108148000Y-88221974D01*
X108163212Y-88225000D01*
X108386788Y-88225000D01*
X108402000Y-88221974D01*
X108402000Y-88233000D01*
X109242954Y-88233000D01*
X109369119Y-88058126D01*
X109352446Y-88003136D01*
X109262123Y-87799794D01*
X109212647Y-87729658D01*
X109280824Y-87627624D01*
X109366383Y-87421067D01*
X109410000Y-87201788D01*
X109410000Y-86978212D01*
X109366383Y-86758933D01*
X109280824Y-86552376D01*
X109215759Y-86455000D01*
X109280824Y-86357624D01*
X109366383Y-86151067D01*
X109410000Y-85931788D01*
X109410000Y-85708212D01*
X109366383Y-85488933D01*
X109280824Y-85282376D01*
X109215759Y-85185000D01*
X109280824Y-85087624D01*
X109360488Y-84895297D01*
X126100000Y-84895297D01*
X126100000Y-85064703D01*
X126133049Y-85230853D01*
X126197878Y-85387363D01*
X126291995Y-85528218D01*
X126411782Y-85648005D01*
X126552637Y-85742122D01*
X126709147Y-85806951D01*
X126875297Y-85840000D01*
X127044703Y-85840000D01*
X127210853Y-85806951D01*
X127367363Y-85742122D01*
X127508218Y-85648005D01*
X127628005Y-85528218D01*
X127722122Y-85387363D01*
X127786951Y-85230853D01*
X127792317Y-85203875D01*
X127901808Y-85130715D01*
X128021595Y-85010928D01*
X128115712Y-84870073D01*
X128180541Y-84713563D01*
X128213590Y-84547413D01*
X128213590Y-84378007D01*
X128180541Y-84211857D01*
X128115712Y-84055347D01*
X128021595Y-83914492D01*
X127901808Y-83794705D01*
X127760953Y-83700588D01*
X127604443Y-83635759D01*
X127438293Y-83602710D01*
X127268887Y-83602710D01*
X127102737Y-83635759D01*
X126946227Y-83700588D01*
X126805372Y-83794705D01*
X126685585Y-83914492D01*
X126591468Y-84055347D01*
X126526639Y-84211857D01*
X126521273Y-84238835D01*
X126411782Y-84311995D01*
X126291995Y-84431782D01*
X126197878Y-84572637D01*
X126133049Y-84729147D01*
X126100000Y-84895297D01*
X109360488Y-84895297D01*
X109366383Y-84881067D01*
X109410000Y-84661788D01*
X109410000Y-84438212D01*
X109366383Y-84218933D01*
X109280824Y-84012376D01*
X109156612Y-83826480D01*
X108998520Y-83668388D01*
X108812624Y-83544176D01*
X108606067Y-83458617D01*
X108386788Y-83415000D01*
X108163212Y-83415000D01*
X107943933Y-83458617D01*
X107737376Y-83544176D01*
X107640000Y-83609241D01*
X107542624Y-83544176D01*
X107336067Y-83458617D01*
X107116788Y-83415000D01*
X106893212Y-83415000D01*
X106673933Y-83458617D01*
X106467376Y-83544176D01*
X106281480Y-83668388D01*
X106123388Y-83826480D01*
X105999176Y-84012376D01*
X105913617Y-84218933D01*
X105870000Y-84438212D01*
X100660000Y-84438212D01*
X100660000Y-78875000D01*
X101509509Y-78875000D01*
X101531423Y-79097499D01*
X101596324Y-79311447D01*
X101701716Y-79508623D01*
X101843551Y-79681449D01*
X102016377Y-79823284D01*
X102213553Y-79928676D01*
X102427501Y-79993577D01*
X102594248Y-80010000D01*
X103505752Y-80010000D01*
X103672499Y-79993577D01*
X103886447Y-79928676D01*
X104083623Y-79823284D01*
X104256449Y-79681449D01*
X104398284Y-79508623D01*
X104503676Y-79311447D01*
X104568577Y-79097499D01*
X104590491Y-78875000D01*
X104568577Y-78652501D01*
X104503676Y-78438553D01*
X104398284Y-78241377D01*
X104256449Y-78068551D01*
X104083623Y-77926716D01*
X103886447Y-77821324D01*
X103672499Y-77756423D01*
X103505752Y-77740000D01*
X102594248Y-77740000D01*
X102427501Y-77756423D01*
X102213553Y-77821324D01*
X102016377Y-77926716D01*
X101843551Y-78068551D01*
X101701716Y-78241377D01*
X101596324Y-78438553D01*
X101531423Y-78652501D01*
X101509509Y-78875000D01*
X100660000Y-78875000D01*
X100660000Y-77398061D01*
X104765000Y-77398061D01*
X104765000Y-77601939D01*
X104804774Y-77801898D01*
X104882795Y-77990256D01*
X104996063Y-78159774D01*
X105140226Y-78303937D01*
X105266136Y-78388067D01*
X105231423Y-78502501D01*
X105209509Y-78725000D01*
X105231423Y-78947499D01*
X105296324Y-79161447D01*
X105401716Y-79358623D01*
X105543551Y-79531449D01*
X105716377Y-79673284D01*
X105913553Y-79778676D01*
X106127501Y-79843577D01*
X106294248Y-79860000D01*
X107405752Y-79860000D01*
X107572499Y-79843577D01*
X107786447Y-79778676D01*
X107983623Y-79673284D01*
X108156449Y-79531449D01*
X108298284Y-79358623D01*
X108403676Y-79161447D01*
X108468577Y-78947499D01*
X108490491Y-78725000D01*
X108468577Y-78502501D01*
X108403676Y-78288553D01*
X108298284Y-78091377D01*
X108156449Y-77918551D01*
X107983623Y-77776716D01*
X107786447Y-77671324D01*
X107572499Y-77606423D01*
X107405752Y-77590000D01*
X106835000Y-77590000D01*
X106835000Y-77398061D01*
X106808592Y-77265297D01*
X108500000Y-77265297D01*
X108500000Y-77434703D01*
X108533049Y-77600853D01*
X108597878Y-77757363D01*
X108691995Y-77898218D01*
X108811782Y-78018005D01*
X108952637Y-78112122D01*
X109109147Y-78176951D01*
X109275297Y-78210000D01*
X109444703Y-78210000D01*
X109610853Y-78176951D01*
X109767363Y-78112122D01*
X109908218Y-78018005D01*
X110028005Y-77898218D01*
X110122122Y-77757363D01*
X110186951Y-77600853D01*
X110220000Y-77434703D01*
X110220000Y-77265297D01*
X110186951Y-77099147D01*
X110122122Y-76942637D01*
X110028005Y-76801782D01*
X109908218Y-76681995D01*
X109767363Y-76587878D01*
X109610853Y-76523049D01*
X109444703Y-76490000D01*
X109275297Y-76490000D01*
X109109147Y-76523049D01*
X108952637Y-76587878D01*
X108811782Y-76681995D01*
X108691995Y-76801782D01*
X108597878Y-76942637D01*
X108533049Y-77099147D01*
X108500000Y-77265297D01*
X106808592Y-77265297D01*
X106795226Y-77198102D01*
X106717205Y-77009744D01*
X106603937Y-76840226D01*
X106459774Y-76696063D01*
X106290256Y-76582795D01*
X106101898Y-76504774D01*
X105901939Y-76465000D01*
X105698061Y-76465000D01*
X105498102Y-76504774D01*
X105309744Y-76582795D01*
X105140226Y-76696063D01*
X104996063Y-76840226D01*
X104882795Y-77009744D01*
X104804774Y-77198102D01*
X104765000Y-77398061D01*
X100660000Y-77398061D01*
X100660000Y-76040297D01*
X128710000Y-76040297D01*
X128710000Y-76209703D01*
X128743049Y-76375853D01*
X128807878Y-76532363D01*
X128901995Y-76673218D01*
X128990137Y-76761360D01*
X128990137Y-76796240D01*
X129023186Y-76962390D01*
X129088015Y-77118900D01*
X129172189Y-77244874D01*
X129170933Y-77251186D01*
X129170933Y-77420592D01*
X129203982Y-77586742D01*
X129268811Y-77743252D01*
X129362928Y-77884107D01*
X129482715Y-78003894D01*
X129623570Y-78098011D01*
X129733278Y-78143454D01*
X129748980Y-78181361D01*
X129843097Y-78322216D01*
X129962884Y-78442003D01*
X130103739Y-78536120D01*
X130260249Y-78600949D01*
X130426399Y-78633998D01*
X130595805Y-78633998D01*
X130761955Y-78600949D01*
X130918465Y-78536120D01*
X131059320Y-78442003D01*
X131179107Y-78322216D01*
X131273224Y-78181361D01*
X131338053Y-78024851D01*
X131371102Y-77858701D01*
X131371102Y-77689295D01*
X131338053Y-77523145D01*
X131273224Y-77366635D01*
X131179107Y-77225780D01*
X131059320Y-77105993D01*
X130918465Y-77011876D01*
X130808757Y-76966433D01*
X130793055Y-76928526D01*
X130708881Y-76802552D01*
X130710137Y-76796240D01*
X130710137Y-76626834D01*
X130677088Y-76460684D01*
X130612259Y-76304174D01*
X130518142Y-76163319D01*
X130430000Y-76075177D01*
X130430000Y-76040297D01*
X130396951Y-75874147D01*
X130332122Y-75717637D01*
X130238005Y-75576782D01*
X130118218Y-75456995D01*
X129977363Y-75362878D01*
X129820853Y-75298049D01*
X129654703Y-75265000D01*
X129485297Y-75265000D01*
X129319147Y-75298049D01*
X129162637Y-75362878D01*
X129021782Y-75456995D01*
X128901995Y-75576782D01*
X128807878Y-75717637D01*
X128743049Y-75874147D01*
X128710000Y-76040297D01*
X100660000Y-76040297D01*
X100660000Y-72398061D01*
X104765000Y-72398061D01*
X104765000Y-72601939D01*
X104804774Y-72801898D01*
X104882795Y-72990256D01*
X104996063Y-73159774D01*
X105140226Y-73303937D01*
X105309744Y-73417205D01*
X105498102Y-73495226D01*
X105698061Y-73535000D01*
X105901939Y-73535000D01*
X106101898Y-73495226D01*
X106290256Y-73417205D01*
X106459774Y-73303937D01*
X106603937Y-73159774D01*
X106717205Y-72990256D01*
X106795226Y-72801898D01*
X106835000Y-72601939D01*
X106835000Y-72410000D01*
X107405752Y-72410000D01*
X107572499Y-72393577D01*
X107786447Y-72328676D01*
X107983623Y-72223284D01*
X108156449Y-72081449D01*
X108298284Y-71908623D01*
X108403676Y-71711447D01*
X108468577Y-71497499D01*
X108490491Y-71275000D01*
X108468577Y-71052501D01*
X108403676Y-70838553D01*
X108298284Y-70641377D01*
X108156449Y-70468551D01*
X107983623Y-70326716D01*
X107786447Y-70221324D01*
X107572499Y-70156423D01*
X107405752Y-70140000D01*
X106294248Y-70140000D01*
X106127501Y-70156423D01*
X105913553Y-70221324D01*
X105716377Y-70326716D01*
X105543551Y-70468551D01*
X105401716Y-70641377D01*
X105296324Y-70838553D01*
X105231423Y-71052501D01*
X105209509Y-71275000D01*
X105231423Y-71497499D01*
X105266136Y-71611933D01*
X105140226Y-71696063D01*
X104996063Y-71840226D01*
X104882795Y-72009744D01*
X104804774Y-72198102D01*
X104765000Y-72398061D01*
X100660000Y-72398061D01*
X100660000Y-71125000D01*
X101509509Y-71125000D01*
X101531423Y-71347499D01*
X101596324Y-71561447D01*
X101701716Y-71758623D01*
X101843551Y-71931449D01*
X102016377Y-72073284D01*
X102213553Y-72178676D01*
X102427501Y-72243577D01*
X102594248Y-72260000D01*
X103505752Y-72260000D01*
X103672499Y-72243577D01*
X103886447Y-72178676D01*
X104083623Y-72073284D01*
X104256449Y-71931449D01*
X104398284Y-71758623D01*
X104503676Y-71561447D01*
X104568577Y-71347499D01*
X104590491Y-71125000D01*
X104568577Y-70902501D01*
X104503676Y-70688553D01*
X104398284Y-70491377D01*
X104256449Y-70318551D01*
X104083623Y-70176716D01*
X103886447Y-70071324D01*
X103672499Y-70006423D01*
X103505752Y-69990000D01*
X102594248Y-69990000D01*
X102427501Y-70006423D01*
X102213553Y-70071324D01*
X102016377Y-70176716D01*
X101843551Y-70318551D01*
X101701716Y-70491377D01*
X101596324Y-70688553D01*
X101531423Y-70902501D01*
X101509509Y-71125000D01*
X100660000Y-71125000D01*
X100660000Y-69615297D01*
X118050000Y-69615297D01*
X118050000Y-69784703D01*
X118083049Y-69950853D01*
X118147878Y-70107363D01*
X118241995Y-70248218D01*
X118361782Y-70368005D01*
X118502637Y-70462122D01*
X118659147Y-70526951D01*
X118825297Y-70560000D01*
X118994703Y-70560000D01*
X119160853Y-70526951D01*
X119317363Y-70462122D01*
X119458218Y-70368005D01*
X119578005Y-70248218D01*
X119672122Y-70107363D01*
X119736951Y-69950853D01*
X119770000Y-69784703D01*
X119770000Y-69615297D01*
X119736951Y-69449147D01*
X119672122Y-69292637D01*
X119578005Y-69151782D01*
X119458218Y-69031995D01*
X119317363Y-68937878D01*
X119160853Y-68873049D01*
X118994703Y-68840000D01*
X118825297Y-68840000D01*
X118659147Y-68873049D01*
X118502637Y-68937878D01*
X118361782Y-69031995D01*
X118241995Y-69151782D01*
X118147878Y-69292637D01*
X118083049Y-69449147D01*
X118050000Y-69615297D01*
X100660000Y-69615297D01*
X100660000Y-62375297D01*
X111900000Y-62375297D01*
X111900000Y-62544703D01*
X111933049Y-62710853D01*
X111997878Y-62867363D01*
X112091995Y-63008218D01*
X112211782Y-63128005D01*
X112352637Y-63222122D01*
X112509147Y-63286951D01*
X112675297Y-63320000D01*
X112844703Y-63320000D01*
X113010853Y-63286951D01*
X113167363Y-63222122D01*
X113308218Y-63128005D01*
X113428005Y-63008218D01*
X113522122Y-62867363D01*
X113586951Y-62710853D01*
X113620000Y-62544703D01*
X113620000Y-62375297D01*
X113586951Y-62209147D01*
X113522122Y-62052637D01*
X113428005Y-61911782D01*
X113308218Y-61791995D01*
X113167363Y-61697878D01*
X113010853Y-61633049D01*
X112844703Y-61600000D01*
X112675297Y-61600000D01*
X112509147Y-61633049D01*
X112352637Y-61697878D01*
X112211782Y-61791995D01*
X112091995Y-61911782D01*
X111997878Y-62052637D01*
X111933049Y-62209147D01*
X111900000Y-62375297D01*
X100660000Y-62375297D01*
X100660000Y-57915297D01*
X118100000Y-57915297D01*
X118100000Y-58084703D01*
X118133049Y-58250853D01*
X118197878Y-58407363D01*
X118291995Y-58548218D01*
X118411782Y-58668005D01*
X118552637Y-58762122D01*
X118709147Y-58826951D01*
X118875297Y-58860000D01*
X119044703Y-58860000D01*
X119210853Y-58826951D01*
X119367363Y-58762122D01*
X119508218Y-58668005D01*
X119628005Y-58548218D01*
X119722122Y-58407363D01*
X119786951Y-58250853D01*
X119820000Y-58084703D01*
X119820000Y-57915297D01*
X119786951Y-57749147D01*
X119722122Y-57592637D01*
X119628005Y-57451782D01*
X119508218Y-57331995D01*
X119367363Y-57237878D01*
X119210853Y-57173049D01*
X119044703Y-57140000D01*
X118875297Y-57140000D01*
X118709147Y-57173049D01*
X118552637Y-57237878D01*
X118411782Y-57331995D01*
X118291995Y-57451782D01*
X118197878Y-57592637D01*
X118133049Y-57749147D01*
X118100000Y-57915297D01*
X100660000Y-57915297D01*
X100660000Y-55530000D01*
X111801928Y-55530000D01*
X111814188Y-55654482D01*
X111850498Y-55774180D01*
X111909463Y-55884494D01*
X111988815Y-55981185D01*
X112085506Y-56060537D01*
X112195820Y-56119502D01*
X112315518Y-56155812D01*
X112440000Y-56168072D01*
X113004250Y-56165000D01*
X113163000Y-56006250D01*
X113163000Y-54807000D01*
X111963750Y-54807000D01*
X111805000Y-54965750D01*
X111801928Y-55530000D01*
X100660000Y-55530000D01*
X100660000Y-53032279D01*
X100684748Y-52779872D01*
X100765000Y-52779872D01*
X100765000Y-53220128D01*
X100850890Y-53651925D01*
X101019369Y-54058669D01*
X101263962Y-54424729D01*
X101575271Y-54736038D01*
X101941331Y-54980631D01*
X102348075Y-55149110D01*
X102779872Y-55235000D01*
X103220128Y-55235000D01*
X103651925Y-55149110D01*
X104058669Y-54980631D01*
X104424729Y-54736038D01*
X104736038Y-54424729D01*
X104980631Y-54058669D01*
X105075348Y-53830000D01*
X111801928Y-53830000D01*
X111805000Y-54394250D01*
X111963750Y-54553000D01*
X113163000Y-54553000D01*
X113163000Y-52267000D01*
X111969186Y-52267000D01*
X111848519Y-52496891D01*
X111945843Y-52771252D01*
X112094822Y-53021355D01*
X112271626Y-53217502D01*
X112195820Y-53240498D01*
X112085506Y-53299463D01*
X111988815Y-53378815D01*
X111909463Y-53475506D01*
X111850498Y-53585820D01*
X111814188Y-53705518D01*
X111801928Y-53830000D01*
X105075348Y-53830000D01*
X105149110Y-53651925D01*
X105235000Y-53220128D01*
X105235000Y-52779872D01*
X105149110Y-52348075D01*
X104980631Y-51941331D01*
X104736038Y-51575271D01*
X104424729Y-51263962D01*
X104058669Y-51019369D01*
X103651925Y-50850890D01*
X103220128Y-50765000D01*
X102779872Y-50765000D01*
X102348075Y-50850890D01*
X101941331Y-51019369D01*
X101575271Y-51263962D01*
X101263962Y-51575271D01*
X101019369Y-51941331D01*
X100850890Y-52348075D01*
X100765000Y-52779872D01*
X100684748Y-52779872D01*
X100707670Y-52546107D01*
X100839489Y-52109502D01*
X101053600Y-51706815D01*
X101341848Y-51353388D01*
X101693261Y-51062673D01*
X102094439Y-50845758D01*
X102530113Y-50710894D01*
X103014344Y-50660000D01*
X113162998Y-50660000D01*
X113162998Y-50819844D01*
G37*
%TD.AperFunction*%
%TD*%
M02*
