%TF.GenerationSoftware,KiCad,Pcbnew,(5.1.12-1-10_14)*%
%TF.CreationDate,2022-01-30T11:33:22+08:00*%
%TF.ProjectId,nrf51822_devboard,6e726635-3138-4323-925f-646576626f61,rev?*%
%TF.SameCoordinates,Original*%
%TF.FileFunction,Soldermask,Top*%
%TF.FilePolarity,Negative*%
%FSLAX46Y46*%
G04 Gerber Fmt 4.6, Leading zero omitted, Abs format (unit mm)*
G04 Created by KiCad (PCBNEW (5.1.12-1-10_14)) date 2022-01-30 11:33:22*
%MOMM*%
%LPD*%
G01*
G04 APERTURE LIST*
%ADD10R,1.699997X0.899998*%
%ADD11C,3.200000*%
%ADD12O,1.700000X1.700000*%
%ADD13R,1.700000X1.700000*%
%ADD14R,1.400000X1.200000*%
%ADD15R,1.800000X1.750000*%
%ADD16C,0.800000*%
%ADD17O,1.800000X1.000000*%
%ADD18O,2.000000X1.000000*%
%ADD19R,1.300000X0.450000*%
%ADD20R,2.000000X1.500000*%
%ADD21R,2.000000X3.800000*%
%ADD22O,1.000000X1.000000*%
%ADD23R,1.000000X1.000000*%
%ADD24R,4.600000X4.600000*%
G04 APERTURE END LIST*
D10*
%TO.C,SW2*%
X113600000Y-68299970D03*
X113600000Y-63700030D03*
%TD*%
%TO.C,SW1*%
X113600000Y-82669970D03*
X113600000Y-78070030D03*
%TD*%
D11*
%TO.C,H3*%
X147000000Y-53000000D03*
%TD*%
%TO.C,H4*%
X147000000Y-97000000D03*
%TD*%
%TO.C,H2*%
X103000000Y-97000000D03*
%TD*%
%TO.C,H1*%
X103000000Y-53000000D03*
%TD*%
%TO.C,R1*%
G36*
G01*
X116230000Y-82510000D02*
X115910000Y-82510000D01*
G75*
G02*
X115750000Y-82350000I0J160000D01*
G01*
X115750000Y-81955000D01*
G75*
G02*
X115910000Y-81795000I160000J0D01*
G01*
X116230000Y-81795000D01*
G75*
G02*
X116390000Y-81955000I0J-160000D01*
G01*
X116390000Y-82350000D01*
G75*
G02*
X116230000Y-82510000I-160000J0D01*
G01*
G37*
G36*
G01*
X116230000Y-83705000D02*
X115910000Y-83705000D01*
G75*
G02*
X115750000Y-83545000I0J160000D01*
G01*
X115750000Y-83150000D01*
G75*
G02*
X115910000Y-82990000I160000J0D01*
G01*
X116230000Y-82990000D01*
G75*
G02*
X116390000Y-83150000I0J-160000D01*
G01*
X116390000Y-83545000D01*
G75*
G02*
X116230000Y-83705000I-160000J0D01*
G01*
G37*
%TD*%
%TO.C,D1*%
G36*
G01*
X115510000Y-85327500D02*
X115510000Y-84852500D01*
G75*
G02*
X115747500Y-84615000I237500J0D01*
G01*
X116322500Y-84615000D01*
G75*
G02*
X116560000Y-84852500I0J-237500D01*
G01*
X116560000Y-85327500D01*
G75*
G02*
X116322500Y-85565000I-237500J0D01*
G01*
X115747500Y-85565000D01*
G75*
G02*
X115510000Y-85327500I0J237500D01*
G01*
G37*
G36*
G01*
X113760000Y-85327500D02*
X113760000Y-84852500D01*
G75*
G02*
X113997500Y-84615000I237500J0D01*
G01*
X114572500Y-84615000D01*
G75*
G02*
X114810000Y-84852500I0J-237500D01*
G01*
X114810000Y-85327500D01*
G75*
G02*
X114572500Y-85565000I-237500J0D01*
G01*
X113997500Y-85565000D01*
G75*
G02*
X113760000Y-85327500I0J237500D01*
G01*
G37*
%TD*%
D12*
%TO.C,J3*%
X136150000Y-52140000D03*
X136150000Y-54680000D03*
X133610000Y-52140000D03*
X133610000Y-54680000D03*
X131070000Y-52140000D03*
X131070000Y-54680000D03*
X128530000Y-52140000D03*
X128530000Y-54680000D03*
X125990000Y-52140000D03*
X125990000Y-54680000D03*
X123450000Y-52140000D03*
X123450000Y-54680000D03*
X120910000Y-52140000D03*
X120910000Y-54680000D03*
X118370000Y-52140000D03*
X118370000Y-54680000D03*
X115830000Y-52140000D03*
X115830000Y-54680000D03*
X113290000Y-52140000D03*
D13*
X113290000Y-54680000D03*
%TD*%
D12*
%TO.C,J2*%
X136150000Y-95320000D03*
X136150000Y-97860000D03*
X133610000Y-95320000D03*
X133610000Y-97860000D03*
X131070000Y-95320000D03*
X131070000Y-97860000D03*
X128530000Y-95320000D03*
X128530000Y-97860000D03*
X125990000Y-95320000D03*
X125990000Y-97860000D03*
X123450000Y-95320000D03*
X123450000Y-97860000D03*
X120910000Y-95320000D03*
X120910000Y-97860000D03*
X118370000Y-95320000D03*
X118370000Y-97860000D03*
X115830000Y-95320000D03*
X115830000Y-97860000D03*
X113290000Y-95320000D03*
D13*
X113290000Y-97860000D03*
%TD*%
D14*
%TO.C,Y2*%
X127700000Y-66540000D03*
X125500000Y-66540000D03*
X125500000Y-64840000D03*
X127700000Y-64840000D03*
%TD*%
D15*
%TO.C,Y1*%
X118510000Y-65325000D03*
X118510000Y-62075000D03*
%TD*%
D16*
%TO.C,J1*%
X105800000Y-77500000D03*
X105800000Y-72500000D03*
D17*
X103050000Y-78875000D03*
X103050000Y-71125000D03*
D18*
X106850000Y-78725000D03*
X106850000Y-71275000D03*
D19*
X106900000Y-76300000D03*
X106900000Y-75650000D03*
X106900000Y-75000000D03*
X106900000Y-74350000D03*
X106900000Y-73700000D03*
%TD*%
D20*
%TO.C,U2*%
X102610000Y-61790000D03*
X102610000Y-66390000D03*
X102610000Y-64090000D03*
D21*
X108910000Y-64090000D03*
%TD*%
D22*
%TO.C,CON1*%
X108275000Y-84550000D03*
X107005000Y-84550000D03*
X108275000Y-85820000D03*
X107005000Y-85820000D03*
X108275000Y-87090000D03*
X107005000Y-87090000D03*
X108275000Y-88360000D03*
X107005000Y-88360000D03*
X107005000Y-89630000D03*
D23*
X108275000Y-89630000D03*
%TD*%
%TO.C,AE1*%
G36*
G01*
X148080000Y-76150001D02*
X148080000Y-74449999D01*
G75*
G02*
X148329999Y-74200000I249999J0D01*
G01*
X149030001Y-74200000D01*
G75*
G02*
X149280000Y-74449999I0J-249999D01*
G01*
X149280000Y-76150001D01*
G75*
G02*
X149030001Y-76400000I-249999J0D01*
G01*
X148329999Y-76400000D01*
G75*
G02*
X148080000Y-76150001I0J249999D01*
G01*
G37*
G36*
G01*
X142380000Y-76150001D02*
X142380000Y-74449999D01*
G75*
G02*
X142629999Y-74200000I249999J0D01*
G01*
X143330001Y-74200000D01*
G75*
G02*
X143580000Y-74449999I0J-249999D01*
G01*
X143580000Y-76150001D01*
G75*
G02*
X143330001Y-76400000I-249999J0D01*
G01*
X142629999Y-76400000D01*
G75*
G02*
X142380000Y-76150001I0J249999D01*
G01*
G37*
%TD*%
%TO.C,L3*%
G36*
G01*
X134240000Y-74980000D02*
X133920000Y-74980000D01*
G75*
G02*
X133760000Y-74820000I0J160000D01*
G01*
X133760000Y-74375000D01*
G75*
G02*
X133920000Y-74215000I160000J0D01*
G01*
X134240000Y-74215000D01*
G75*
G02*
X134400000Y-74375000I0J-160000D01*
G01*
X134400000Y-74820000D01*
G75*
G02*
X134240000Y-74980000I-160000J0D01*
G01*
G37*
G36*
G01*
X134240000Y-76125000D02*
X133920000Y-76125000D01*
G75*
G02*
X133760000Y-75965000I0J160000D01*
G01*
X133760000Y-75520000D01*
G75*
G02*
X133920000Y-75360000I160000J0D01*
G01*
X134240000Y-75360000D01*
G75*
G02*
X134400000Y-75520000I0J-160000D01*
G01*
X134400000Y-75965000D01*
G75*
G02*
X134240000Y-76125000I-160000J0D01*
G01*
G37*
%TD*%
%TO.C,L2*%
G36*
G01*
X133640000Y-76990000D02*
X133640000Y-76670000D01*
G75*
G02*
X133800000Y-76510000I160000J0D01*
G01*
X134245000Y-76510000D01*
G75*
G02*
X134405000Y-76670000I0J-160000D01*
G01*
X134405000Y-76990000D01*
G75*
G02*
X134245000Y-77150000I-160000J0D01*
G01*
X133800000Y-77150000D01*
G75*
G02*
X133640000Y-76990000I0J160000D01*
G01*
G37*
G36*
G01*
X132495000Y-76990000D02*
X132495000Y-76670000D01*
G75*
G02*
X132655000Y-76510000I160000J0D01*
G01*
X133100000Y-76510000D01*
G75*
G02*
X133260000Y-76670000I0J-160000D01*
G01*
X133260000Y-76990000D01*
G75*
G02*
X133100000Y-77150000I-160000J0D01*
G01*
X132655000Y-77150000D01*
G75*
G02*
X132495000Y-76990000I0J160000D01*
G01*
G37*
%TD*%
%TO.C,L1*%
G36*
G01*
X137850000Y-74400000D02*
X137850000Y-74720000D01*
G75*
G02*
X137690000Y-74880000I-160000J0D01*
G01*
X137245000Y-74880000D01*
G75*
G02*
X137085000Y-74720000I0J160000D01*
G01*
X137085000Y-74400000D01*
G75*
G02*
X137245000Y-74240000I160000J0D01*
G01*
X137690000Y-74240000D01*
G75*
G02*
X137850000Y-74400000I0J-160000D01*
G01*
G37*
G36*
G01*
X138995000Y-74400000D02*
X138995000Y-74720000D01*
G75*
G02*
X138835000Y-74880000I-160000J0D01*
G01*
X138390000Y-74880000D01*
G75*
G02*
X138230000Y-74720000I0J160000D01*
G01*
X138230000Y-74400000D01*
G75*
G02*
X138390000Y-74240000I160000J0D01*
G01*
X138835000Y-74240000D01*
G75*
G02*
X138995000Y-74400000I0J-160000D01*
G01*
G37*
%TD*%
%TO.C,C14*%
G36*
G01*
X108815000Y-59367500D02*
X108815000Y-58892500D01*
G75*
G02*
X109052500Y-58655000I237500J0D01*
G01*
X109652500Y-58655000D01*
G75*
G02*
X109890000Y-58892500I0J-237500D01*
G01*
X109890000Y-59367500D01*
G75*
G02*
X109652500Y-59605000I-237500J0D01*
G01*
X109052500Y-59605000D01*
G75*
G02*
X108815000Y-59367500I0J237500D01*
G01*
G37*
G36*
G01*
X107090000Y-59367500D02*
X107090000Y-58892500D01*
G75*
G02*
X107327500Y-58655000I237500J0D01*
G01*
X107927500Y-58655000D01*
G75*
G02*
X108165000Y-58892500I0J-237500D01*
G01*
X108165000Y-59367500D01*
G75*
G02*
X107927500Y-59605000I-237500J0D01*
G01*
X107327500Y-59605000D01*
G75*
G02*
X107090000Y-59367500I0J237500D01*
G01*
G37*
%TD*%
%TO.C,C13*%
G36*
G01*
X121532500Y-79835000D02*
X121532500Y-80145000D01*
G75*
G02*
X121377500Y-80300000I-155000J0D01*
G01*
X120952500Y-80300000D01*
G75*
G02*
X120797500Y-80145000I0J155000D01*
G01*
X120797500Y-79835000D01*
G75*
G02*
X120952500Y-79680000I155000J0D01*
G01*
X121377500Y-79680000D01*
G75*
G02*
X121532500Y-79835000I0J-155000D01*
G01*
G37*
G36*
G01*
X122667500Y-79835000D02*
X122667500Y-80145000D01*
G75*
G02*
X122512500Y-80300000I-155000J0D01*
G01*
X122087500Y-80300000D01*
G75*
G02*
X121932500Y-80145000I0J155000D01*
G01*
X121932500Y-79835000D01*
G75*
G02*
X122087500Y-79680000I155000J0D01*
G01*
X122512500Y-79680000D01*
G75*
G02*
X122667500Y-79835000I0J-155000D01*
G01*
G37*
%TD*%
%TO.C,C12*%
G36*
G01*
X130505000Y-72300000D02*
X130195000Y-72300000D01*
G75*
G02*
X130040000Y-72145000I0J155000D01*
G01*
X130040000Y-71720000D01*
G75*
G02*
X130195000Y-71565000I155000J0D01*
G01*
X130505000Y-71565000D01*
G75*
G02*
X130660000Y-71720000I0J-155000D01*
G01*
X130660000Y-72145000D01*
G75*
G02*
X130505000Y-72300000I-155000J0D01*
G01*
G37*
G36*
G01*
X130505000Y-73435000D02*
X130195000Y-73435000D01*
G75*
G02*
X130040000Y-73280000I0J155000D01*
G01*
X130040000Y-72855000D01*
G75*
G02*
X130195000Y-72700000I155000J0D01*
G01*
X130505000Y-72700000D01*
G75*
G02*
X130660000Y-72855000I0J-155000D01*
G01*
X130660000Y-73280000D01*
G75*
G02*
X130505000Y-73435000I-155000J0D01*
G01*
G37*
%TD*%
%TO.C,C11*%
G36*
G01*
X109690000Y-68815000D02*
X109690000Y-68505000D01*
G75*
G02*
X109845000Y-68350000I155000J0D01*
G01*
X110270000Y-68350000D01*
G75*
G02*
X110425000Y-68505000I0J-155000D01*
G01*
X110425000Y-68815000D01*
G75*
G02*
X110270000Y-68970000I-155000J0D01*
G01*
X109845000Y-68970000D01*
G75*
G02*
X109690000Y-68815000I0J155000D01*
G01*
G37*
G36*
G01*
X108555000Y-68815000D02*
X108555000Y-68505000D01*
G75*
G02*
X108710000Y-68350000I155000J0D01*
G01*
X109135000Y-68350000D01*
G75*
G02*
X109290000Y-68505000I0J-155000D01*
G01*
X109290000Y-68815000D01*
G75*
G02*
X109135000Y-68970000I-155000J0D01*
G01*
X108710000Y-68970000D01*
G75*
G02*
X108555000Y-68815000I0J155000D01*
G01*
G37*
%TD*%
%TO.C,C10*%
G36*
G01*
X122995000Y-64040000D02*
X122685000Y-64040000D01*
G75*
G02*
X122530000Y-63885000I0J155000D01*
G01*
X122530000Y-63460000D01*
G75*
G02*
X122685000Y-63305000I155000J0D01*
G01*
X122995000Y-63305000D01*
G75*
G02*
X123150000Y-63460000I0J-155000D01*
G01*
X123150000Y-63885000D01*
G75*
G02*
X122995000Y-64040000I-155000J0D01*
G01*
G37*
G36*
G01*
X122995000Y-65175000D02*
X122685000Y-65175000D01*
G75*
G02*
X122530000Y-65020000I0J155000D01*
G01*
X122530000Y-64595000D01*
G75*
G02*
X122685000Y-64440000I155000J0D01*
G01*
X122995000Y-64440000D01*
G75*
G02*
X123150000Y-64595000I0J-155000D01*
G01*
X123150000Y-65020000D01*
G75*
G02*
X122995000Y-65175000I-155000J0D01*
G01*
G37*
%TD*%
%TO.C,C9*%
G36*
G01*
X135920000Y-79145000D02*
X135920000Y-78835000D01*
G75*
G02*
X136075000Y-78680000I155000J0D01*
G01*
X136500000Y-78680000D01*
G75*
G02*
X136655000Y-78835000I0J-155000D01*
G01*
X136655000Y-79145000D01*
G75*
G02*
X136500000Y-79300000I-155000J0D01*
G01*
X136075000Y-79300000D01*
G75*
G02*
X135920000Y-79145000I0J155000D01*
G01*
G37*
G36*
G01*
X134785000Y-79145000D02*
X134785000Y-78835000D01*
G75*
G02*
X134940000Y-78680000I155000J0D01*
G01*
X135365000Y-78680000D01*
G75*
G02*
X135520000Y-78835000I0J-155000D01*
G01*
X135520000Y-79145000D01*
G75*
G02*
X135365000Y-79300000I-155000J0D01*
G01*
X134940000Y-79300000D01*
G75*
G02*
X134785000Y-79145000I0J155000D01*
G01*
G37*
%TD*%
%TO.C,C8*%
G36*
G01*
X135890000Y-78025000D02*
X135890000Y-77715000D01*
G75*
G02*
X136045000Y-77560000I155000J0D01*
G01*
X136470000Y-77560000D01*
G75*
G02*
X136625000Y-77715000I0J-155000D01*
G01*
X136625000Y-78025000D01*
G75*
G02*
X136470000Y-78180000I-155000J0D01*
G01*
X136045000Y-78180000D01*
G75*
G02*
X135890000Y-78025000I0J155000D01*
G01*
G37*
G36*
G01*
X134755000Y-78025000D02*
X134755000Y-77715000D01*
G75*
G02*
X134910000Y-77560000I155000J0D01*
G01*
X135335000Y-77560000D01*
G75*
G02*
X135490000Y-77715000I0J-155000D01*
G01*
X135490000Y-78025000D01*
G75*
G02*
X135335000Y-78180000I-155000J0D01*
G01*
X134910000Y-78180000D01*
G75*
G02*
X134755000Y-78025000I0J155000D01*
G01*
G37*
%TD*%
%TO.C,C7*%
G36*
G01*
X124055000Y-65480000D02*
X123745000Y-65480000D01*
G75*
G02*
X123590000Y-65325000I0J155000D01*
G01*
X123590000Y-64900000D01*
G75*
G02*
X123745000Y-64745000I155000J0D01*
G01*
X124055000Y-64745000D01*
G75*
G02*
X124210000Y-64900000I0J-155000D01*
G01*
X124210000Y-65325000D01*
G75*
G02*
X124055000Y-65480000I-155000J0D01*
G01*
G37*
G36*
G01*
X124055000Y-66615000D02*
X123745000Y-66615000D01*
G75*
G02*
X123590000Y-66460000I0J155000D01*
G01*
X123590000Y-66035000D01*
G75*
G02*
X123745000Y-65880000I155000J0D01*
G01*
X124055000Y-65880000D01*
G75*
G02*
X124210000Y-66035000I0J-155000D01*
G01*
X124210000Y-66460000D01*
G75*
G02*
X124055000Y-66615000I-155000J0D01*
G01*
G37*
%TD*%
%TO.C,C6*%
G36*
G01*
X129155000Y-65880000D02*
X129465000Y-65880000D01*
G75*
G02*
X129620000Y-66035000I0J-155000D01*
G01*
X129620000Y-66460000D01*
G75*
G02*
X129465000Y-66615000I-155000J0D01*
G01*
X129155000Y-66615000D01*
G75*
G02*
X129000000Y-66460000I0J155000D01*
G01*
X129000000Y-66035000D01*
G75*
G02*
X129155000Y-65880000I155000J0D01*
G01*
G37*
G36*
G01*
X129155000Y-64745000D02*
X129465000Y-64745000D01*
G75*
G02*
X129620000Y-64900000I0J-155000D01*
G01*
X129620000Y-65325000D01*
G75*
G02*
X129465000Y-65480000I-155000J0D01*
G01*
X129155000Y-65480000D01*
G75*
G02*
X129000000Y-65325000I0J155000D01*
G01*
X129000000Y-64900000D01*
G75*
G02*
X129155000Y-64745000I155000J0D01*
G01*
G37*
%TD*%
%TO.C,C5*%
G36*
G01*
X135530000Y-74385000D02*
X135530000Y-74695000D01*
G75*
G02*
X135375000Y-74850000I-155000J0D01*
G01*
X134950000Y-74850000D01*
G75*
G02*
X134795000Y-74695000I0J155000D01*
G01*
X134795000Y-74385000D01*
G75*
G02*
X134950000Y-74230000I155000J0D01*
G01*
X135375000Y-74230000D01*
G75*
G02*
X135530000Y-74385000I0J-155000D01*
G01*
G37*
G36*
G01*
X136665000Y-74385000D02*
X136665000Y-74695000D01*
G75*
G02*
X136510000Y-74850000I-155000J0D01*
G01*
X136085000Y-74850000D01*
G75*
G02*
X135930000Y-74695000I0J155000D01*
G01*
X135930000Y-74385000D01*
G75*
G02*
X136085000Y-74230000I155000J0D01*
G01*
X136510000Y-74230000D01*
G75*
G02*
X136665000Y-74385000I0J-155000D01*
G01*
G37*
%TD*%
%TO.C,C4*%
G36*
G01*
X118425000Y-68400000D02*
X118735000Y-68400000D01*
G75*
G02*
X118890000Y-68555000I0J-155000D01*
G01*
X118890000Y-68980000D01*
G75*
G02*
X118735000Y-69135000I-155000J0D01*
G01*
X118425000Y-69135000D01*
G75*
G02*
X118270000Y-68980000I0J155000D01*
G01*
X118270000Y-68555000D01*
G75*
G02*
X118425000Y-68400000I155000J0D01*
G01*
G37*
G36*
G01*
X118425000Y-67265000D02*
X118735000Y-67265000D01*
G75*
G02*
X118890000Y-67420000I0J-155000D01*
G01*
X118890000Y-67845000D01*
G75*
G02*
X118735000Y-68000000I-155000J0D01*
G01*
X118425000Y-68000000D01*
G75*
G02*
X118270000Y-67845000I0J155000D01*
G01*
X118270000Y-67420000D01*
G75*
G02*
X118425000Y-67265000I155000J0D01*
G01*
G37*
%TD*%
%TO.C,C3*%
G36*
G01*
X118725000Y-59220000D02*
X118415000Y-59220000D01*
G75*
G02*
X118260000Y-59065000I0J155000D01*
G01*
X118260000Y-58640000D01*
G75*
G02*
X118415000Y-58485000I155000J0D01*
G01*
X118725000Y-58485000D01*
G75*
G02*
X118880000Y-58640000I0J-155000D01*
G01*
X118880000Y-59065000D01*
G75*
G02*
X118725000Y-59220000I-155000J0D01*
G01*
G37*
G36*
G01*
X118725000Y-60355000D02*
X118415000Y-60355000D01*
G75*
G02*
X118260000Y-60200000I0J155000D01*
G01*
X118260000Y-59775000D01*
G75*
G02*
X118415000Y-59620000I155000J0D01*
G01*
X118725000Y-59620000D01*
G75*
G02*
X118880000Y-59775000I0J-155000D01*
G01*
X118880000Y-60200000D01*
G75*
G02*
X118725000Y-60355000I-155000J0D01*
G01*
G37*
%TD*%
%TO.C,C2*%
G36*
G01*
X136195000Y-76380000D02*
X136505000Y-76380000D01*
G75*
G02*
X136660000Y-76535000I0J-155000D01*
G01*
X136660000Y-76960000D01*
G75*
G02*
X136505000Y-77115000I-155000J0D01*
G01*
X136195000Y-77115000D01*
G75*
G02*
X136040000Y-76960000I0J155000D01*
G01*
X136040000Y-76535000D01*
G75*
G02*
X136195000Y-76380000I155000J0D01*
G01*
G37*
G36*
G01*
X136195000Y-75245000D02*
X136505000Y-75245000D01*
G75*
G02*
X136660000Y-75400000I0J-155000D01*
G01*
X136660000Y-75825000D01*
G75*
G02*
X136505000Y-75980000I-155000J0D01*
G01*
X136195000Y-75980000D01*
G75*
G02*
X136040000Y-75825000I0J155000D01*
G01*
X136040000Y-75400000D01*
G75*
G02*
X136195000Y-75245000I155000J0D01*
G01*
G37*
%TD*%
%TO.C,C1*%
G36*
G01*
X138535000Y-76390000D02*
X138845000Y-76390000D01*
G75*
G02*
X139000000Y-76545000I0J-155000D01*
G01*
X139000000Y-76970000D01*
G75*
G02*
X138845000Y-77125000I-155000J0D01*
G01*
X138535000Y-77125000D01*
G75*
G02*
X138380000Y-76970000I0J155000D01*
G01*
X138380000Y-76545000D01*
G75*
G02*
X138535000Y-76390000I155000J0D01*
G01*
G37*
G36*
G01*
X138535000Y-75255000D02*
X138845000Y-75255000D01*
G75*
G02*
X139000000Y-75410000I0J-155000D01*
G01*
X139000000Y-75835000D01*
G75*
G02*
X138845000Y-75990000I-155000J0D01*
G01*
X138535000Y-75990000D01*
G75*
G02*
X138380000Y-75835000I0J155000D01*
G01*
X138380000Y-75410000D01*
G75*
G02*
X138535000Y-75255000I155000J0D01*
G01*
G37*
%TD*%
D24*
%TO.C,U1*%
X125000000Y-75000000D03*
G36*
G01*
X122700000Y-72400000D02*
X122700000Y-71700000D01*
G75*
G02*
X122750000Y-71650000I50000J0D01*
G01*
X122850000Y-71650000D01*
G75*
G02*
X122900000Y-71700000I0J-50000D01*
G01*
X122900000Y-72400000D01*
G75*
G02*
X122850000Y-72450000I-50000J0D01*
G01*
X122750000Y-72450000D01*
G75*
G02*
X122700000Y-72400000I0J50000D01*
G01*
G37*
G36*
G01*
X123100000Y-72400000D02*
X123100000Y-71700000D01*
G75*
G02*
X123150000Y-71650000I50000J0D01*
G01*
X123250000Y-71650000D01*
G75*
G02*
X123300000Y-71700000I0J-50000D01*
G01*
X123300000Y-72400000D01*
G75*
G02*
X123250000Y-72450000I-50000J0D01*
G01*
X123150000Y-72450000D01*
G75*
G02*
X123100000Y-72400000I0J50000D01*
G01*
G37*
G36*
G01*
X123500000Y-72400000D02*
X123500000Y-71700000D01*
G75*
G02*
X123550000Y-71650000I50000J0D01*
G01*
X123650000Y-71650000D01*
G75*
G02*
X123700000Y-71700000I0J-50000D01*
G01*
X123700000Y-72400000D01*
G75*
G02*
X123650000Y-72450000I-50000J0D01*
G01*
X123550000Y-72450000D01*
G75*
G02*
X123500000Y-72400000I0J50000D01*
G01*
G37*
G36*
G01*
X123900000Y-72400000D02*
X123900000Y-71700000D01*
G75*
G02*
X123950000Y-71650000I50000J0D01*
G01*
X124050000Y-71650000D01*
G75*
G02*
X124100000Y-71700000I0J-50000D01*
G01*
X124100000Y-72400000D01*
G75*
G02*
X124050000Y-72450000I-50000J0D01*
G01*
X123950000Y-72450000D01*
G75*
G02*
X123900000Y-72400000I0J50000D01*
G01*
G37*
G36*
G01*
X124300000Y-72400000D02*
X124300000Y-71700000D01*
G75*
G02*
X124350000Y-71650000I50000J0D01*
G01*
X124450000Y-71650000D01*
G75*
G02*
X124500000Y-71700000I0J-50000D01*
G01*
X124500000Y-72400000D01*
G75*
G02*
X124450000Y-72450000I-50000J0D01*
G01*
X124350000Y-72450000D01*
G75*
G02*
X124300000Y-72400000I0J50000D01*
G01*
G37*
G36*
G01*
X124700000Y-72400000D02*
X124700000Y-71700000D01*
G75*
G02*
X124750000Y-71650000I50000J0D01*
G01*
X124850000Y-71650000D01*
G75*
G02*
X124900000Y-71700000I0J-50000D01*
G01*
X124900000Y-72400000D01*
G75*
G02*
X124850000Y-72450000I-50000J0D01*
G01*
X124750000Y-72450000D01*
G75*
G02*
X124700000Y-72400000I0J50000D01*
G01*
G37*
G36*
G01*
X125100000Y-72400000D02*
X125100000Y-71700000D01*
G75*
G02*
X125150000Y-71650000I50000J0D01*
G01*
X125250000Y-71650000D01*
G75*
G02*
X125300000Y-71700000I0J-50000D01*
G01*
X125300000Y-72400000D01*
G75*
G02*
X125250000Y-72450000I-50000J0D01*
G01*
X125150000Y-72450000D01*
G75*
G02*
X125100000Y-72400000I0J50000D01*
G01*
G37*
G36*
G01*
X125500000Y-72400000D02*
X125500000Y-71700000D01*
G75*
G02*
X125550000Y-71650000I50000J0D01*
G01*
X125650000Y-71650000D01*
G75*
G02*
X125700000Y-71700000I0J-50000D01*
G01*
X125700000Y-72400000D01*
G75*
G02*
X125650000Y-72450000I-50000J0D01*
G01*
X125550000Y-72450000D01*
G75*
G02*
X125500000Y-72400000I0J50000D01*
G01*
G37*
G36*
G01*
X125900000Y-72400000D02*
X125900000Y-71700000D01*
G75*
G02*
X125950000Y-71650000I50000J0D01*
G01*
X126050000Y-71650000D01*
G75*
G02*
X126100000Y-71700000I0J-50000D01*
G01*
X126100000Y-72400000D01*
G75*
G02*
X126050000Y-72450000I-50000J0D01*
G01*
X125950000Y-72450000D01*
G75*
G02*
X125900000Y-72400000I0J50000D01*
G01*
G37*
G36*
G01*
X126300000Y-72400000D02*
X126300000Y-71700000D01*
G75*
G02*
X126350000Y-71650000I50000J0D01*
G01*
X126450000Y-71650000D01*
G75*
G02*
X126500000Y-71700000I0J-50000D01*
G01*
X126500000Y-72400000D01*
G75*
G02*
X126450000Y-72450000I-50000J0D01*
G01*
X126350000Y-72450000D01*
G75*
G02*
X126300000Y-72400000I0J50000D01*
G01*
G37*
G36*
G01*
X126700000Y-72400000D02*
X126700000Y-71700000D01*
G75*
G02*
X126750000Y-71650000I50000J0D01*
G01*
X126850000Y-71650000D01*
G75*
G02*
X126900000Y-71700000I0J-50000D01*
G01*
X126900000Y-72400000D01*
G75*
G02*
X126850000Y-72450000I-50000J0D01*
G01*
X126750000Y-72450000D01*
G75*
G02*
X126700000Y-72400000I0J50000D01*
G01*
G37*
G36*
G01*
X127100000Y-72400000D02*
X127100000Y-71700000D01*
G75*
G02*
X127150000Y-71650000I50000J0D01*
G01*
X127250000Y-71650000D01*
G75*
G02*
X127300000Y-71700000I0J-50000D01*
G01*
X127300000Y-72400000D01*
G75*
G02*
X127250000Y-72450000I-50000J0D01*
G01*
X127150000Y-72450000D01*
G75*
G02*
X127100000Y-72400000I0J50000D01*
G01*
G37*
G36*
G01*
X127550000Y-72850000D02*
X127550000Y-72750000D01*
G75*
G02*
X127600000Y-72700000I50000J0D01*
G01*
X128300000Y-72700000D01*
G75*
G02*
X128350000Y-72750000I0J-50000D01*
G01*
X128350000Y-72850000D01*
G75*
G02*
X128300000Y-72900000I-50000J0D01*
G01*
X127600000Y-72900000D01*
G75*
G02*
X127550000Y-72850000I0J50000D01*
G01*
G37*
G36*
G01*
X127550000Y-73250000D02*
X127550000Y-73150000D01*
G75*
G02*
X127600000Y-73100000I50000J0D01*
G01*
X128300000Y-73100000D01*
G75*
G02*
X128350000Y-73150000I0J-50000D01*
G01*
X128350000Y-73250000D01*
G75*
G02*
X128300000Y-73300000I-50000J0D01*
G01*
X127600000Y-73300000D01*
G75*
G02*
X127550000Y-73250000I0J50000D01*
G01*
G37*
G36*
G01*
X127550000Y-73650000D02*
X127550000Y-73550000D01*
G75*
G02*
X127600000Y-73500000I50000J0D01*
G01*
X128300000Y-73500000D01*
G75*
G02*
X128350000Y-73550000I0J-50000D01*
G01*
X128350000Y-73650000D01*
G75*
G02*
X128300000Y-73700000I-50000J0D01*
G01*
X127600000Y-73700000D01*
G75*
G02*
X127550000Y-73650000I0J50000D01*
G01*
G37*
G36*
G01*
X127550000Y-74050000D02*
X127550000Y-73950000D01*
G75*
G02*
X127600000Y-73900000I50000J0D01*
G01*
X128300000Y-73900000D01*
G75*
G02*
X128350000Y-73950000I0J-50000D01*
G01*
X128350000Y-74050000D01*
G75*
G02*
X128300000Y-74100000I-50000J0D01*
G01*
X127600000Y-74100000D01*
G75*
G02*
X127550000Y-74050000I0J50000D01*
G01*
G37*
G36*
G01*
X127550000Y-74450000D02*
X127550000Y-74350000D01*
G75*
G02*
X127600000Y-74300000I50000J0D01*
G01*
X128300000Y-74300000D01*
G75*
G02*
X128350000Y-74350000I0J-50000D01*
G01*
X128350000Y-74450000D01*
G75*
G02*
X128300000Y-74500000I-50000J0D01*
G01*
X127600000Y-74500000D01*
G75*
G02*
X127550000Y-74450000I0J50000D01*
G01*
G37*
G36*
G01*
X127550000Y-74850000D02*
X127550000Y-74750000D01*
G75*
G02*
X127600000Y-74700000I50000J0D01*
G01*
X128300000Y-74700000D01*
G75*
G02*
X128350000Y-74750000I0J-50000D01*
G01*
X128350000Y-74850000D01*
G75*
G02*
X128300000Y-74900000I-50000J0D01*
G01*
X127600000Y-74900000D01*
G75*
G02*
X127550000Y-74850000I0J50000D01*
G01*
G37*
G36*
G01*
X127550000Y-75250000D02*
X127550000Y-75150000D01*
G75*
G02*
X127600000Y-75100000I50000J0D01*
G01*
X128300000Y-75100000D01*
G75*
G02*
X128350000Y-75150000I0J-50000D01*
G01*
X128350000Y-75250000D01*
G75*
G02*
X128300000Y-75300000I-50000J0D01*
G01*
X127600000Y-75300000D01*
G75*
G02*
X127550000Y-75250000I0J50000D01*
G01*
G37*
G36*
G01*
X127550000Y-75650000D02*
X127550000Y-75550000D01*
G75*
G02*
X127600000Y-75500000I50000J0D01*
G01*
X128300000Y-75500000D01*
G75*
G02*
X128350000Y-75550000I0J-50000D01*
G01*
X128350000Y-75650000D01*
G75*
G02*
X128300000Y-75700000I-50000J0D01*
G01*
X127600000Y-75700000D01*
G75*
G02*
X127550000Y-75650000I0J50000D01*
G01*
G37*
G36*
G01*
X127550000Y-76050000D02*
X127550000Y-75950000D01*
G75*
G02*
X127600000Y-75900000I50000J0D01*
G01*
X128300000Y-75900000D01*
G75*
G02*
X128350000Y-75950000I0J-50000D01*
G01*
X128350000Y-76050000D01*
G75*
G02*
X128300000Y-76100000I-50000J0D01*
G01*
X127600000Y-76100000D01*
G75*
G02*
X127550000Y-76050000I0J50000D01*
G01*
G37*
G36*
G01*
X127550000Y-76450000D02*
X127550000Y-76350000D01*
G75*
G02*
X127600000Y-76300000I50000J0D01*
G01*
X128300000Y-76300000D01*
G75*
G02*
X128350000Y-76350000I0J-50000D01*
G01*
X128350000Y-76450000D01*
G75*
G02*
X128300000Y-76500000I-50000J0D01*
G01*
X127600000Y-76500000D01*
G75*
G02*
X127550000Y-76450000I0J50000D01*
G01*
G37*
G36*
G01*
X127550000Y-76850000D02*
X127550000Y-76750000D01*
G75*
G02*
X127600000Y-76700000I50000J0D01*
G01*
X128300000Y-76700000D01*
G75*
G02*
X128350000Y-76750000I0J-50000D01*
G01*
X128350000Y-76850000D01*
G75*
G02*
X128300000Y-76900000I-50000J0D01*
G01*
X127600000Y-76900000D01*
G75*
G02*
X127550000Y-76850000I0J50000D01*
G01*
G37*
G36*
G01*
X127550000Y-77250000D02*
X127550000Y-77150000D01*
G75*
G02*
X127600000Y-77100000I50000J0D01*
G01*
X128300000Y-77100000D01*
G75*
G02*
X128350000Y-77150000I0J-50000D01*
G01*
X128350000Y-77250000D01*
G75*
G02*
X128300000Y-77300000I-50000J0D01*
G01*
X127600000Y-77300000D01*
G75*
G02*
X127550000Y-77250000I0J50000D01*
G01*
G37*
G36*
G01*
X127100000Y-78300000D02*
X127100000Y-77600000D01*
G75*
G02*
X127150000Y-77550000I50000J0D01*
G01*
X127250000Y-77550000D01*
G75*
G02*
X127300000Y-77600000I0J-50000D01*
G01*
X127300000Y-78300000D01*
G75*
G02*
X127250000Y-78350000I-50000J0D01*
G01*
X127150000Y-78350000D01*
G75*
G02*
X127100000Y-78300000I0J50000D01*
G01*
G37*
G36*
G01*
X126700000Y-78300000D02*
X126700000Y-77600000D01*
G75*
G02*
X126750000Y-77550000I50000J0D01*
G01*
X126850000Y-77550000D01*
G75*
G02*
X126900000Y-77600000I0J-50000D01*
G01*
X126900000Y-78300000D01*
G75*
G02*
X126850000Y-78350000I-50000J0D01*
G01*
X126750000Y-78350000D01*
G75*
G02*
X126700000Y-78300000I0J50000D01*
G01*
G37*
G36*
G01*
X126300000Y-78300000D02*
X126300000Y-77600000D01*
G75*
G02*
X126350000Y-77550000I50000J0D01*
G01*
X126450000Y-77550000D01*
G75*
G02*
X126500000Y-77600000I0J-50000D01*
G01*
X126500000Y-78300000D01*
G75*
G02*
X126450000Y-78350000I-50000J0D01*
G01*
X126350000Y-78350000D01*
G75*
G02*
X126300000Y-78300000I0J50000D01*
G01*
G37*
G36*
G01*
X125900000Y-78300000D02*
X125900000Y-77600000D01*
G75*
G02*
X125950000Y-77550000I50000J0D01*
G01*
X126050000Y-77550000D01*
G75*
G02*
X126100000Y-77600000I0J-50000D01*
G01*
X126100000Y-78300000D01*
G75*
G02*
X126050000Y-78350000I-50000J0D01*
G01*
X125950000Y-78350000D01*
G75*
G02*
X125900000Y-78300000I0J50000D01*
G01*
G37*
G36*
G01*
X125500000Y-78300000D02*
X125500000Y-77600000D01*
G75*
G02*
X125550000Y-77550000I50000J0D01*
G01*
X125650000Y-77550000D01*
G75*
G02*
X125700000Y-77600000I0J-50000D01*
G01*
X125700000Y-78300000D01*
G75*
G02*
X125650000Y-78350000I-50000J0D01*
G01*
X125550000Y-78350000D01*
G75*
G02*
X125500000Y-78300000I0J50000D01*
G01*
G37*
G36*
G01*
X125100000Y-78300000D02*
X125100000Y-77600000D01*
G75*
G02*
X125150000Y-77550000I50000J0D01*
G01*
X125250000Y-77550000D01*
G75*
G02*
X125300000Y-77600000I0J-50000D01*
G01*
X125300000Y-78300000D01*
G75*
G02*
X125250000Y-78350000I-50000J0D01*
G01*
X125150000Y-78350000D01*
G75*
G02*
X125100000Y-78300000I0J50000D01*
G01*
G37*
G36*
G01*
X124700000Y-78300000D02*
X124700000Y-77600000D01*
G75*
G02*
X124750000Y-77550000I50000J0D01*
G01*
X124850000Y-77550000D01*
G75*
G02*
X124900000Y-77600000I0J-50000D01*
G01*
X124900000Y-78300000D01*
G75*
G02*
X124850000Y-78350000I-50000J0D01*
G01*
X124750000Y-78350000D01*
G75*
G02*
X124700000Y-78300000I0J50000D01*
G01*
G37*
G36*
G01*
X124300000Y-78300000D02*
X124300000Y-77600000D01*
G75*
G02*
X124350000Y-77550000I50000J0D01*
G01*
X124450000Y-77550000D01*
G75*
G02*
X124500000Y-77600000I0J-50000D01*
G01*
X124500000Y-78300000D01*
G75*
G02*
X124450000Y-78350000I-50000J0D01*
G01*
X124350000Y-78350000D01*
G75*
G02*
X124300000Y-78300000I0J50000D01*
G01*
G37*
G36*
G01*
X123900000Y-78300000D02*
X123900000Y-77600000D01*
G75*
G02*
X123950000Y-77550000I50000J0D01*
G01*
X124050000Y-77550000D01*
G75*
G02*
X124100000Y-77600000I0J-50000D01*
G01*
X124100000Y-78300000D01*
G75*
G02*
X124050000Y-78350000I-50000J0D01*
G01*
X123950000Y-78350000D01*
G75*
G02*
X123900000Y-78300000I0J50000D01*
G01*
G37*
G36*
G01*
X123500000Y-78300000D02*
X123500000Y-77600000D01*
G75*
G02*
X123550000Y-77550000I50000J0D01*
G01*
X123650000Y-77550000D01*
G75*
G02*
X123700000Y-77600000I0J-50000D01*
G01*
X123700000Y-78300000D01*
G75*
G02*
X123650000Y-78350000I-50000J0D01*
G01*
X123550000Y-78350000D01*
G75*
G02*
X123500000Y-78300000I0J50000D01*
G01*
G37*
G36*
G01*
X123100000Y-78300000D02*
X123100000Y-77600000D01*
G75*
G02*
X123150000Y-77550000I50000J0D01*
G01*
X123250000Y-77550000D01*
G75*
G02*
X123300000Y-77600000I0J-50000D01*
G01*
X123300000Y-78300000D01*
G75*
G02*
X123250000Y-78350000I-50000J0D01*
G01*
X123150000Y-78350000D01*
G75*
G02*
X123100000Y-78300000I0J50000D01*
G01*
G37*
G36*
G01*
X122700000Y-78300000D02*
X122700000Y-77600000D01*
G75*
G02*
X122750000Y-77550000I50000J0D01*
G01*
X122850000Y-77550000D01*
G75*
G02*
X122900000Y-77600000I0J-50000D01*
G01*
X122900000Y-78300000D01*
G75*
G02*
X122850000Y-78350000I-50000J0D01*
G01*
X122750000Y-78350000D01*
G75*
G02*
X122700000Y-78300000I0J50000D01*
G01*
G37*
G36*
G01*
X121650000Y-77250000D02*
X121650000Y-77150000D01*
G75*
G02*
X121700000Y-77100000I50000J0D01*
G01*
X122400000Y-77100000D01*
G75*
G02*
X122450000Y-77150000I0J-50000D01*
G01*
X122450000Y-77250000D01*
G75*
G02*
X122400000Y-77300000I-50000J0D01*
G01*
X121700000Y-77300000D01*
G75*
G02*
X121650000Y-77250000I0J50000D01*
G01*
G37*
G36*
G01*
X121650000Y-76850000D02*
X121650000Y-76750000D01*
G75*
G02*
X121700000Y-76700000I50000J0D01*
G01*
X122400000Y-76700000D01*
G75*
G02*
X122450000Y-76750000I0J-50000D01*
G01*
X122450000Y-76850000D01*
G75*
G02*
X122400000Y-76900000I-50000J0D01*
G01*
X121700000Y-76900000D01*
G75*
G02*
X121650000Y-76850000I0J50000D01*
G01*
G37*
G36*
G01*
X121650000Y-76450000D02*
X121650000Y-76350000D01*
G75*
G02*
X121700000Y-76300000I50000J0D01*
G01*
X122400000Y-76300000D01*
G75*
G02*
X122450000Y-76350000I0J-50000D01*
G01*
X122450000Y-76450000D01*
G75*
G02*
X122400000Y-76500000I-50000J0D01*
G01*
X121700000Y-76500000D01*
G75*
G02*
X121650000Y-76450000I0J50000D01*
G01*
G37*
G36*
G01*
X121650000Y-76050000D02*
X121650000Y-75950000D01*
G75*
G02*
X121700000Y-75900000I50000J0D01*
G01*
X122400000Y-75900000D01*
G75*
G02*
X122450000Y-75950000I0J-50000D01*
G01*
X122450000Y-76050000D01*
G75*
G02*
X122400000Y-76100000I-50000J0D01*
G01*
X121700000Y-76100000D01*
G75*
G02*
X121650000Y-76050000I0J50000D01*
G01*
G37*
G36*
G01*
X121650000Y-75650000D02*
X121650000Y-75550000D01*
G75*
G02*
X121700000Y-75500000I50000J0D01*
G01*
X122400000Y-75500000D01*
G75*
G02*
X122450000Y-75550000I0J-50000D01*
G01*
X122450000Y-75650000D01*
G75*
G02*
X122400000Y-75700000I-50000J0D01*
G01*
X121700000Y-75700000D01*
G75*
G02*
X121650000Y-75650000I0J50000D01*
G01*
G37*
G36*
G01*
X121650000Y-75250000D02*
X121650000Y-75150000D01*
G75*
G02*
X121700000Y-75100000I50000J0D01*
G01*
X122400000Y-75100000D01*
G75*
G02*
X122450000Y-75150000I0J-50000D01*
G01*
X122450000Y-75250000D01*
G75*
G02*
X122400000Y-75300000I-50000J0D01*
G01*
X121700000Y-75300000D01*
G75*
G02*
X121650000Y-75250000I0J50000D01*
G01*
G37*
G36*
G01*
X121650000Y-74850000D02*
X121650000Y-74750000D01*
G75*
G02*
X121700000Y-74700000I50000J0D01*
G01*
X122400000Y-74700000D01*
G75*
G02*
X122450000Y-74750000I0J-50000D01*
G01*
X122450000Y-74850000D01*
G75*
G02*
X122400000Y-74900000I-50000J0D01*
G01*
X121700000Y-74900000D01*
G75*
G02*
X121650000Y-74850000I0J50000D01*
G01*
G37*
G36*
G01*
X121650000Y-74450000D02*
X121650000Y-74350000D01*
G75*
G02*
X121700000Y-74300000I50000J0D01*
G01*
X122400000Y-74300000D01*
G75*
G02*
X122450000Y-74350000I0J-50000D01*
G01*
X122450000Y-74450000D01*
G75*
G02*
X122400000Y-74500000I-50000J0D01*
G01*
X121700000Y-74500000D01*
G75*
G02*
X121650000Y-74450000I0J50000D01*
G01*
G37*
G36*
G01*
X121650000Y-74050000D02*
X121650000Y-73950000D01*
G75*
G02*
X121700000Y-73900000I50000J0D01*
G01*
X122400000Y-73900000D01*
G75*
G02*
X122450000Y-73950000I0J-50000D01*
G01*
X122450000Y-74050000D01*
G75*
G02*
X122400000Y-74100000I-50000J0D01*
G01*
X121700000Y-74100000D01*
G75*
G02*
X121650000Y-74050000I0J50000D01*
G01*
G37*
G36*
G01*
X121650000Y-73650000D02*
X121650000Y-73550000D01*
G75*
G02*
X121700000Y-73500000I50000J0D01*
G01*
X122400000Y-73500000D01*
G75*
G02*
X122450000Y-73550000I0J-50000D01*
G01*
X122450000Y-73650000D01*
G75*
G02*
X122400000Y-73700000I-50000J0D01*
G01*
X121700000Y-73700000D01*
G75*
G02*
X121650000Y-73650000I0J50000D01*
G01*
G37*
G36*
G01*
X121650000Y-73250000D02*
X121650000Y-73150000D01*
G75*
G02*
X121700000Y-73100000I50000J0D01*
G01*
X122400000Y-73100000D01*
G75*
G02*
X122450000Y-73150000I0J-50000D01*
G01*
X122450000Y-73250000D01*
G75*
G02*
X122400000Y-73300000I-50000J0D01*
G01*
X121700000Y-73300000D01*
G75*
G02*
X121650000Y-73250000I0J50000D01*
G01*
G37*
G36*
G01*
X121650000Y-72850000D02*
X121650000Y-72750000D01*
G75*
G02*
X121700000Y-72700000I50000J0D01*
G01*
X122400000Y-72700000D01*
G75*
G02*
X122450000Y-72750000I0J-50000D01*
G01*
X122450000Y-72850000D01*
G75*
G02*
X122400000Y-72900000I-50000J0D01*
G01*
X121700000Y-72900000D01*
G75*
G02*
X121650000Y-72850000I0J50000D01*
G01*
G37*
%TD*%
M02*
