M48
; DRILL file {KiCad (5.1.12-1-10_14)} date 2022 January 30, Sunday 11:35:27
; FORMAT={-:-/ absolute / inch / decimal}
; #@! TF.CreationDate,2022-01-30T11:35:27+08:00
; #@! TF.GenerationSoftware,Kicad,Pcbnew,(5.1.12-1-10_14)
; #@! TF.FileFunction,Plated,1,4,PTH
FMAT,2
INCH
T1C0.0157
T2C0.0197
T3C0.0236
T4C0.0276
T5C0.0394
%
G90
G05
T1
X4.0031Y-3.3449
X4.0311Y-3.4409
X4.0563Y-3.2642
X4.0843Y-3.5697
X4.1118Y-3.3878
X4.2531Y-3.8551
X4.2634Y-3.7665
X4.2846Y-2.1709
X4.3008Y-3.0335
X4.3217Y-2.2228
X4.3417Y-2.6268
X4.3465Y-2.3008
X4.3492Y-2.4776
X4.3492Y-2.5539
X4.3713Y-2.8484
X4.4272Y-2.9469
X4.4728Y-3.0161
X4.4807Y-3.2614
X4.5083Y-3.3728
X4.5134Y-2.2374
X4.5236Y-2.8587
X4.5543Y-3.135
X4.6299Y-2.7524
X4.7114Y-2.4224
X4.7268Y-3.4787
X4.824Y-3.1909
X4.8413Y-2.7335
X4.8421Y-2.6732
X4.865Y-2.622
X4.865Y-2.8315
X4.8752Y-2.5071
X4.9681Y-2.5559
X4.9787Y-2.6783
X5.0528Y-2.637
X5.0913Y-3.4445
X5.102Y-2.5965
X5.2071Y-3.0516
X5.3134Y-3.0453
X5.3697Y-2.2992
X5.4043Y-2.8528
X5.4303Y-2.8732
X5.4378Y-2.3752
X5.4575Y-2.8913
X5.474Y-3.1189
X5.4846Y-2.915
X5.5035Y-3.7921
X5.5059Y-3.8854
X5.5154Y-3.1094
X5.5287Y-2.4535
X5.5354Y-3.4894
T2
X4.2431Y-3.3465
X4.2431Y-3.3965
X4.2431Y-3.4465
X4.2431Y-3.4965
X4.2431Y-3.5465
X4.2931Y-3.3465
X4.2931Y-3.3965
X4.2931Y-3.4465
X4.2931Y-3.4965
X4.2931Y-3.5465
T5
X4.4602Y-2.0528
X4.4602Y-2.1528
X4.4602Y-3.7528
X4.4602Y-3.8528
X4.5602Y-2.0528
X4.5602Y-2.1528
X4.5602Y-3.7528
X4.5602Y-3.8528
X4.6602Y-2.0528
X4.6602Y-2.1528
X4.6602Y-3.7528
X4.6602Y-3.8528
X4.7602Y-2.0528
X4.7602Y-2.1528
X4.7602Y-3.7528
X4.7602Y-3.8528
X4.8602Y-2.0528
X4.8602Y-2.1528
X4.8602Y-3.7528
X4.8602Y-3.8528
X4.9602Y-2.0528
X4.9602Y-2.1528
X4.9602Y-3.7528
X4.9602Y-3.8528
X5.0602Y-2.0528
X5.0602Y-2.1528
X5.0602Y-3.7528
X5.0602Y-3.8528
X5.1602Y-2.0528
X5.1602Y-2.1528
X5.1602Y-3.7528
X5.1602Y-3.8528
X5.2602Y-2.0528
X5.2602Y-2.1528
X5.2602Y-3.7528
X5.2602Y-3.8528
X5.3602Y-2.0528
X5.3602Y-2.1528
X5.3602Y-3.7528
X5.3602Y-3.8528
T3
G00X4.0689Y-2.8002
M15
G01X4.0453Y-2.8002
M16
G05
G00X4.0689Y-3.1053
M15
G01X4.0453Y-3.1053
M16
G05
T4
G00X4.2205Y-2.8061
M15
G01X4.1929Y-2.8061
M16
G05
G00X4.2205Y-3.0994
M15
G01X4.1929Y-3.0994
M16
G05
T0
M30
