%TF.GenerationSoftware,KiCad,Pcbnew,(5.1.12-1-10_14)*%
%TF.CreationDate,2022-01-30T11:35:25+08:00*%
%TF.ProjectId,bl600-sa-devboard,626c3630-302d-4736-912d-646576626f61,rev?*%
%TF.SameCoordinates,Original*%
%TF.FileFunction,Legend,Bot*%
%TF.FilePolarity,Positive*%
%FSLAX46Y46*%
G04 Gerber Fmt 4.6, Leading zero omitted, Abs format (unit mm)*
G04 Created by KiCad (PCBNEW (5.1.12-1-10_14)) date 2022-01-30 11:35:25*
%MOMM*%
%LPD*%
G01*
G04 APERTURE LIST*
%ADD10C,0.450000*%
G04 APERTURE END LIST*
D10*
X134242857Y-89767142D02*
X137242857Y-89767142D01*
X134242857Y-88052857D01*
X137242857Y-88052857D01*
X134242857Y-84910000D02*
X135671428Y-85910000D01*
X134242857Y-86624285D02*
X137242857Y-86624285D01*
X137242857Y-85481428D01*
X137100000Y-85195714D01*
X136957142Y-85052857D01*
X136671428Y-84910000D01*
X136242857Y-84910000D01*
X135957142Y-85052857D01*
X135814285Y-85195714D01*
X135671428Y-85481428D01*
X135671428Y-86624285D01*
X135814285Y-82624285D02*
X135814285Y-83624285D01*
X134242857Y-83624285D02*
X137242857Y-83624285D01*
X137242857Y-82195714D01*
X137242857Y-79624285D02*
X137242857Y-81052857D01*
X135814285Y-81195714D01*
X135957142Y-81052857D01*
X136100000Y-80767142D01*
X136100000Y-80052857D01*
X135957142Y-79767142D01*
X135814285Y-79624285D01*
X135528571Y-79481428D01*
X134814285Y-79481428D01*
X134528571Y-79624285D01*
X134385714Y-79767142D01*
X134242857Y-80052857D01*
X134242857Y-80767142D01*
X134385714Y-81052857D01*
X134528571Y-81195714D01*
X134242857Y-76624285D02*
X134242857Y-78338571D01*
X134242857Y-77481428D02*
X137242857Y-77481428D01*
X136814285Y-77767142D01*
X136528571Y-78052857D01*
X136385714Y-78338571D01*
X135385714Y-75338571D02*
X135385714Y-73052857D01*
X135814285Y-70624285D02*
X135671428Y-70195714D01*
X135528571Y-70052857D01*
X135242857Y-69910000D01*
X134814285Y-69910000D01*
X134528571Y-70052857D01*
X134385714Y-70195714D01*
X134242857Y-70481428D01*
X134242857Y-71624285D01*
X137242857Y-71624285D01*
X137242857Y-70624285D01*
X137100000Y-70338571D01*
X136957142Y-70195714D01*
X136671428Y-70052857D01*
X136385714Y-70052857D01*
X136100000Y-70195714D01*
X135957142Y-70338571D01*
X135814285Y-70624285D01*
X135814285Y-71624285D01*
X134242857Y-67195714D02*
X134242857Y-68624285D01*
X137242857Y-68624285D01*
X137242857Y-64910000D02*
X137242857Y-65481428D01*
X137100000Y-65767142D01*
X136957142Y-65910000D01*
X136528571Y-66195714D01*
X135957142Y-66338571D01*
X134814285Y-66338571D01*
X134528571Y-66195714D01*
X134385714Y-66052857D01*
X134242857Y-65767142D01*
X134242857Y-65195714D01*
X134385714Y-64910000D01*
X134528571Y-64767142D01*
X134814285Y-64624285D01*
X135528571Y-64624285D01*
X135814285Y-64767142D01*
X135957142Y-64910000D01*
X136100000Y-65195714D01*
X136100000Y-65767142D01*
X135957142Y-66052857D01*
X135814285Y-66195714D01*
X135528571Y-66338571D01*
X137242857Y-62767142D02*
X137242857Y-62481428D01*
X137100000Y-62195714D01*
X136957142Y-62052857D01*
X136671428Y-61910000D01*
X136100000Y-61767142D01*
X135385714Y-61767142D01*
X134814285Y-61910000D01*
X134528571Y-62052857D01*
X134385714Y-62195714D01*
X134242857Y-62481428D01*
X134242857Y-62767142D01*
X134385714Y-63052857D01*
X134528571Y-63195714D01*
X134814285Y-63338571D01*
X135385714Y-63481428D01*
X136100000Y-63481428D01*
X136671428Y-63338571D01*
X136957142Y-63195714D01*
X137100000Y-63052857D01*
X137242857Y-62767142D01*
X137242857Y-59910000D02*
X137242857Y-59624285D01*
X137100000Y-59338571D01*
X136957142Y-59195714D01*
X136671428Y-59052857D01*
X136100000Y-58910000D01*
X135385714Y-58910000D01*
X134814285Y-59052857D01*
X134528571Y-59195714D01*
X134385714Y-59338571D01*
X134242857Y-59624285D01*
X134242857Y-59910000D01*
X134385714Y-60195714D01*
X134528571Y-60338571D01*
X134814285Y-60481428D01*
X135385714Y-60624285D01*
X136100000Y-60624285D01*
X136671428Y-60481428D01*
X136957142Y-60338571D01*
X137100000Y-60195714D01*
X137242857Y-59910000D01*
M02*
