%TF.GenerationSoftware,KiCad,Pcbnew,(5.1.12-1-10_14)*%
%TF.CreationDate,2022-01-30T11:35:25+08:00*%
%TF.ProjectId,bl600-sa-devboard,626c3630-302d-4736-912d-646576626f61,rev?*%
%TF.SameCoordinates,Original*%
%TF.FileFunction,Soldermask,Bot*%
%TF.FilePolarity,Negative*%
%FSLAX46Y46*%
G04 Gerber Fmt 4.6, Leading zero omitted, Abs format (unit mm)*
G04 Created by KiCad (PCBNEW (5.1.12-1-10_14)) date 2022-01-30 11:35:25*
%MOMM*%
%LPD*%
G01*
G04 APERTURE LIST*
%ADD10O,1.700000X1.700000*%
%ADD11R,1.700000X1.700000*%
%ADD12C,0.800000*%
%ADD13O,1.800000X1.000000*%
%ADD14O,2.000000X1.000000*%
%ADD15C,3.200000*%
%ADD16O,1.000000X1.000000*%
%ADD17R,1.000000X1.000000*%
G04 APERTURE END LIST*
D10*
%TO.C,J3*%
X136150000Y-52140000D03*
X136150000Y-54680000D03*
X133610000Y-52140000D03*
X133610000Y-54680000D03*
X131070000Y-52140000D03*
X131070000Y-54680000D03*
X128530000Y-52140000D03*
X128530000Y-54680000D03*
X125990000Y-52140000D03*
X125990000Y-54680000D03*
X123450000Y-52140000D03*
X123450000Y-54680000D03*
X120910000Y-52140000D03*
X120910000Y-54680000D03*
X118370000Y-52140000D03*
X118370000Y-54680000D03*
X115830000Y-52140000D03*
X115830000Y-54680000D03*
X113290000Y-52140000D03*
D11*
X113290000Y-54680000D03*
%TD*%
D10*
%TO.C,J2*%
X136150000Y-95320000D03*
X136150000Y-97860000D03*
X133610000Y-95320000D03*
X133610000Y-97860000D03*
X131070000Y-95320000D03*
X131070000Y-97860000D03*
X128530000Y-95320000D03*
X128530000Y-97860000D03*
X125990000Y-95320000D03*
X125990000Y-97860000D03*
X123450000Y-95320000D03*
X123450000Y-97860000D03*
X120910000Y-95320000D03*
X120910000Y-97860000D03*
X118370000Y-95320000D03*
X118370000Y-97860000D03*
X115830000Y-95320000D03*
X115830000Y-97860000D03*
X113290000Y-95320000D03*
D11*
X113290000Y-97860000D03*
%TD*%
D12*
%TO.C,J1*%
X105800000Y-77500000D03*
X105800000Y-72500000D03*
D13*
X103050000Y-78875000D03*
X103050000Y-71125000D03*
D14*
X106850000Y-78725000D03*
X106850000Y-71275000D03*
%TD*%
D15*
%TO.C,H4*%
X147000000Y-97000000D03*
%TD*%
%TO.C,H3*%
X103000000Y-97000000D03*
%TD*%
%TO.C,H2*%
X147000000Y-53000000D03*
%TD*%
%TO.C,H1*%
X103000000Y-53000000D03*
%TD*%
D16*
%TO.C,CON1*%
X107775000Y-90080000D03*
X109045000Y-90080000D03*
X107775000Y-88810000D03*
X109045000Y-88810000D03*
X107775000Y-87540000D03*
X109045000Y-87540000D03*
X107775000Y-86270000D03*
X109045000Y-86270000D03*
X109045000Y-85000000D03*
D17*
X107775000Y-85000000D03*
%TD*%
M02*
