%TF.GenerationSoftware,KiCad,Pcbnew,(5.1.12-1-10_14)*%
%TF.CreationDate,2022-01-30T11:35:24+08:00*%
%TF.ProjectId,bl600-sa-devboard,626c3630-302d-4736-912d-646576626f61,rev?*%
%TF.SameCoordinates,Original*%
%TF.FileFunction,Copper,L1,Top*%
%TF.FilePolarity,Positive*%
%FSLAX46Y46*%
G04 Gerber Fmt 4.6, Leading zero omitted, Abs format (unit mm)*
G04 Created by KiCad (PCBNEW (5.1.12-1-10_14)) date 2022-01-30 11:35:24*
%MOMM*%
%LPD*%
G01*
G04 APERTURE LIST*
%TA.AperFunction,SMDPad,CuDef*%
%ADD10R,1.700000X0.500000*%
%TD*%
%TA.AperFunction,SMDPad,CuDef*%
%ADD11R,0.499872X1.700022*%
%TD*%
%TA.AperFunction,SMDPad,CuDef*%
%ADD12R,1.699997X0.899998*%
%TD*%
%TA.AperFunction,SMDPad,CuDef*%
%ADD13R,2.000000X1.500000*%
%TD*%
%TA.AperFunction,SMDPad,CuDef*%
%ADD14R,2.000000X3.800000*%
%TD*%
%TA.AperFunction,ComponentPad*%
%ADD15O,1.700000X1.700000*%
%TD*%
%TA.AperFunction,ComponentPad*%
%ADD16R,1.700000X1.700000*%
%TD*%
%TA.AperFunction,ComponentPad*%
%ADD17O,1.800000X1.000000*%
%TD*%
%TA.AperFunction,ComponentPad*%
%ADD18O,2.000000X1.000000*%
%TD*%
%TA.AperFunction,SMDPad,CuDef*%
%ADD19R,1.300000X0.450000*%
%TD*%
%TA.AperFunction,ComponentPad*%
%ADD20O,1.000000X1.000000*%
%TD*%
%TA.AperFunction,ComponentPad*%
%ADD21R,1.000000X1.000000*%
%TD*%
%TA.AperFunction,ViaPad*%
%ADD22C,0.450000*%
%TD*%
%TA.AperFunction,Conductor*%
%ADD23C,0.300000*%
%TD*%
%TA.AperFunction,Conductor*%
%ADD24C,0.450000*%
%TD*%
%TA.AperFunction,Conductor*%
%ADD25C,0.200000*%
%TD*%
%TA.AperFunction,Conductor*%
%ADD26C,0.254000*%
%TD*%
%TA.AperFunction,Conductor*%
%ADD27C,0.100000*%
%TD*%
G04 APERTURE END LIST*
%TO.P,C3,2*%
%TO.N,GND*%
%TA.AperFunction,SMDPad,CuDef*%
G36*
G01*
X114170002Y-67900000D02*
X111969998Y-67900000D01*
G75*
G02*
X111720000Y-67650002I0J249998D01*
G01*
X111720000Y-66824998D01*
G75*
G02*
X111969998Y-66575000I249998J0D01*
G01*
X114170002Y-66575000D01*
G75*
G02*
X114420000Y-66824998I0J-249998D01*
G01*
X114420000Y-67650002D01*
G75*
G02*
X114170002Y-67900000I-249998J0D01*
G01*
G37*
%TD.AperFunction*%
%TO.P,C3,1*%
%TO.N,VBUS*%
%TA.AperFunction,SMDPad,CuDef*%
G36*
G01*
X114170002Y-71025000D02*
X111969998Y-71025000D01*
G75*
G02*
X111720000Y-70775002I0J249998D01*
G01*
X111720000Y-69949998D01*
G75*
G02*
X111969998Y-69700000I249998J0D01*
G01*
X114170002Y-69700000D01*
G75*
G02*
X114420000Y-69949998I0J-249998D01*
G01*
X114420000Y-70775002D01*
G75*
G02*
X114170002Y-71025000I-249998J0D01*
G01*
G37*
%TD.AperFunction*%
%TD*%
%TO.P,C2,2*%
%TO.N,GND*%
%TA.AperFunction,SMDPad,CuDef*%
G36*
G01*
X103950000Y-58039998D02*
X103950000Y-60240002D01*
G75*
G02*
X103700002Y-60490000I-249998J0D01*
G01*
X102874998Y-60490000D01*
G75*
G02*
X102625000Y-60240002I0J249998D01*
G01*
X102625000Y-58039998D01*
G75*
G02*
X102874998Y-57790000I249998J0D01*
G01*
X103700002Y-57790000D01*
G75*
G02*
X103950000Y-58039998I0J-249998D01*
G01*
G37*
%TD.AperFunction*%
%TO.P,C2,1*%
%TO.N,+3V3*%
%TA.AperFunction,SMDPad,CuDef*%
G36*
G01*
X107075000Y-58039998D02*
X107075000Y-60240002D01*
G75*
G02*
X106825002Y-60490000I-249998J0D01*
G01*
X105999998Y-60490000D01*
G75*
G02*
X105750000Y-60240002I0J249998D01*
G01*
X105750000Y-58039998D01*
G75*
G02*
X105999998Y-57790000I249998J0D01*
G01*
X106825002Y-57790000D01*
G75*
G02*
X107075000Y-58039998I0J-249998D01*
G01*
G37*
%TD.AperFunction*%
%TD*%
D10*
%TO.P,MOD1,12*%
%TO.N,IO_8*%
X130500146Y-79400042D03*
%TO.P,MOD1,11*%
%TO.N,GND*%
X130500146Y-78599942D03*
%TO.P,MOD1,10*%
%TO.N,+3V3*%
X130500146Y-77800096D03*
%TO.P,MOD1,9*%
%TO.N,IO_7*%
X130500146Y-76999996D03*
%TO.P,MOD1,8*%
%TO.N,IO_6*%
X130500146Y-76199896D03*
%TO.P,MOD1,7*%
%TO.N,IO_5*%
X130500146Y-75400050D03*
%TO.P,MOD1,6*%
%TO.N,IO_4*%
X130500146Y-74599950D03*
%TO.P,MOD1,5*%
%TO.N,IO_3*%
X130500146Y-73800104D03*
%TO.P,MOD1,4*%
%TO.N,IO_2*%
X130500146Y-73000004D03*
%TO.P,MOD1,3*%
%TO.N,GND*%
X130500146Y-72199904D03*
%TO.P,MOD1,2*%
%TO.N,IO_1*%
X130500146Y-71400058D03*
D11*
%TO.P,MOD1,28*%
%TO.N,GND*%
X144999990Y-81249924D03*
%TO.P,MOD1,27*%
%TO.N,IO_20*%
X144199890Y-81249924D03*
%TO.P,MOD1,26*%
%TO.N,IO_19*%
X143400044Y-81249924D03*
%TO.P,MOD1,25*%
%TO.N,IO_18*%
X142599944Y-81249924D03*
%TO.P,MOD1,24*%
%TO.N,IO_17*%
X141800098Y-81249924D03*
%TO.P,MOD1,23*%
%TO.N,SWCLK*%
X140999998Y-81249924D03*
%TO.P,MOD1,22*%
%TO.N,SWDIO*%
X140199898Y-81249924D03*
%TO.P,MOD1,21*%
%TO.N,IO_16*%
X139400052Y-81249924D03*
%TO.P,MOD1,20*%
%TO.N,IO_15*%
X138599952Y-81249924D03*
%TO.P,MOD1,19*%
%TO.N,IO_14*%
X137800106Y-81249924D03*
%TO.P,MOD1,18*%
%TO.N,IO_13*%
X137000006Y-81249924D03*
%TO.P,MOD1,17*%
%TO.N,GND*%
X136199906Y-81249924D03*
%TO.P,MOD1,16*%
%TO.N,IO_12*%
X135400060Y-81249924D03*
%TO.P,MOD1,15*%
%TO.N,IO_11*%
X134599960Y-81249924D03*
%TO.P,MOD1,14*%
%TO.N,IO_10*%
X133800114Y-81249924D03*
%TO.P,MOD1,13*%
%TO.N,IO_9*%
X133000014Y-81249924D03*
%TO.P,MOD1,44*%
%TO.N,IO_0*%
X133000014Y-68750076D03*
%TO.P,MOD1,43*%
%TO.N,GND*%
X133800114Y-68750076D03*
%TO.P,MOD1,42*%
%TO.N,IO_30*%
X134599960Y-68750076D03*
%TO.P,MOD1,41*%
%TO.N,IO_29*%
X135400060Y-68750076D03*
%TO.P,MOD1,40*%
%TO.N,IO_28*%
X136199906Y-68750076D03*
%TO.P,MOD1,39*%
%TO.N,IO_27*%
X137000006Y-68750076D03*
%TO.P,MOD1,38*%
%TO.N,IO_26*%
X137800106Y-68750076D03*
%TO.P,MOD1,37*%
%TO.N,GND*%
X138599952Y-68750076D03*
%TO.P,MOD1,36*%
%TO.N,IO_25*%
X139400052Y-68750076D03*
%TO.P,MOD1,35*%
%TO.N,IO_24*%
X140199898Y-68750076D03*
%TO.P,MOD1,34*%
%TO.N,IO_23*%
X140999998Y-68750076D03*
%TO.P,MOD1,33*%
%TO.N,IO_22*%
X141800098Y-68750076D03*
%TO.P,MOD1,32*%
%TO.N,IO_21*%
X142599944Y-68750076D03*
%TO.P,MOD1,31*%
%TO.N,GND*%
X143400044Y-68750076D03*
%TO.P,MOD1,30*%
%TO.N,N/C*%
X144199890Y-68750076D03*
D10*
%TO.P,MOD1,1*%
%TO.N,GND*%
X130500146Y-70599958D03*
D11*
%TO.P,MOD1,29*%
X144999990Y-68750076D03*
%TD*%
%TO.P,C1,2*%
%TO.N,GND*%
%TA.AperFunction,SMDPad,CuDef*%
G36*
G01*
X124085000Y-69737500D02*
X125035000Y-69737500D01*
G75*
G02*
X125285000Y-69987500I0J-250000D01*
G01*
X125285000Y-70662500D01*
G75*
G02*
X125035000Y-70912500I-250000J0D01*
G01*
X124085000Y-70912500D01*
G75*
G02*
X123835000Y-70662500I0J250000D01*
G01*
X123835000Y-69987500D01*
G75*
G02*
X124085000Y-69737500I250000J0D01*
G01*
G37*
%TD.AperFunction*%
%TO.P,C1,1*%
%TO.N,+3V3*%
%TA.AperFunction,SMDPad,CuDef*%
G36*
G01*
X124085000Y-67662500D02*
X125035000Y-67662500D01*
G75*
G02*
X125285000Y-67912500I0J-250000D01*
G01*
X125285000Y-68587500D01*
G75*
G02*
X125035000Y-68837500I-250000J0D01*
G01*
X124085000Y-68837500D01*
G75*
G02*
X123835000Y-68587500I0J250000D01*
G01*
X123835000Y-67912500D01*
G75*
G02*
X124085000Y-67662500I250000J0D01*
G01*
G37*
%TD.AperFunction*%
%TD*%
D12*
%TO.P,SW3,1*%
%TO.N,IO_17*%
X120000000Y-62700030D03*
%TO.P,SW3,2*%
%TO.N,GND*%
X120000000Y-67299970D03*
%TD*%
%TO.P,SW2,1*%
%TO.N,IO_16*%
X120000000Y-87299970D03*
%TO.P,SW2,2*%
%TO.N,GND*%
X120000000Y-82700030D03*
%TD*%
%TO.P,SW1,1*%
%TO.N,SWDIO*%
X120000000Y-77299970D03*
%TO.P,SW1,2*%
%TO.N,GND*%
X120000000Y-72700030D03*
%TD*%
%TO.P,R4,2*%
%TO.N,GND*%
%TA.AperFunction,SMDPad,CuDef*%
G36*
G01*
X142015000Y-55005000D02*
X141465000Y-55005000D01*
G75*
G02*
X141265000Y-54805000I0J200000D01*
G01*
X141265000Y-54405000D01*
G75*
G02*
X141465000Y-54205000I200000J0D01*
G01*
X142015000Y-54205000D01*
G75*
G02*
X142215000Y-54405000I0J-200000D01*
G01*
X142215000Y-54805000D01*
G75*
G02*
X142015000Y-55005000I-200000J0D01*
G01*
G37*
%TD.AperFunction*%
%TO.P,R4,1*%
%TO.N,Net-(D3-Pad1)*%
%TA.AperFunction,SMDPad,CuDef*%
G36*
G01*
X142015000Y-56655000D02*
X141465000Y-56655000D01*
G75*
G02*
X141265000Y-56455000I0J200000D01*
G01*
X141265000Y-56055000D01*
G75*
G02*
X141465000Y-55855000I200000J0D01*
G01*
X142015000Y-55855000D01*
G75*
G02*
X142215000Y-56055000I0J-200000D01*
G01*
X142215000Y-56455000D01*
G75*
G02*
X142015000Y-56655000I-200000J0D01*
G01*
G37*
%TD.AperFunction*%
%TD*%
%TO.P,R3,2*%
%TO.N,GND*%
%TA.AperFunction,SMDPad,CuDef*%
G36*
G01*
X141925000Y-95615000D02*
X142475000Y-95615000D01*
G75*
G02*
X142675000Y-95815000I0J-200000D01*
G01*
X142675000Y-96215000D01*
G75*
G02*
X142475000Y-96415000I-200000J0D01*
G01*
X141925000Y-96415000D01*
G75*
G02*
X141725000Y-96215000I0J200000D01*
G01*
X141725000Y-95815000D01*
G75*
G02*
X141925000Y-95615000I200000J0D01*
G01*
G37*
%TD.AperFunction*%
%TO.P,R3,1*%
%TO.N,Net-(D2-Pad1)*%
%TA.AperFunction,SMDPad,CuDef*%
G36*
G01*
X141925000Y-93965000D02*
X142475000Y-93965000D01*
G75*
G02*
X142675000Y-94165000I0J-200000D01*
G01*
X142675000Y-94565000D01*
G75*
G02*
X142475000Y-94765000I-200000J0D01*
G01*
X141925000Y-94765000D01*
G75*
G02*
X141725000Y-94565000I0J200000D01*
G01*
X141725000Y-94165000D01*
G75*
G02*
X141925000Y-93965000I200000J0D01*
G01*
G37*
%TD.AperFunction*%
%TD*%
%TO.P,R2,2*%
%TO.N,GND*%
%TA.AperFunction,SMDPad,CuDef*%
G36*
G01*
X115305000Y-57755000D02*
X115305000Y-58305000D01*
G75*
G02*
X115105000Y-58505000I-200000J0D01*
G01*
X114705000Y-58505000D01*
G75*
G02*
X114505000Y-58305000I0J200000D01*
G01*
X114505000Y-57755000D01*
G75*
G02*
X114705000Y-57555000I200000J0D01*
G01*
X115105000Y-57555000D01*
G75*
G02*
X115305000Y-57755000I0J-200000D01*
G01*
G37*
%TD.AperFunction*%
%TO.P,R2,1*%
%TO.N,Net-(D1-Pad1)*%
%TA.AperFunction,SMDPad,CuDef*%
G36*
G01*
X116955000Y-57755000D02*
X116955000Y-58305000D01*
G75*
G02*
X116755000Y-58505000I-200000J0D01*
G01*
X116355000Y-58505000D01*
G75*
G02*
X116155000Y-58305000I0J200000D01*
G01*
X116155000Y-57755000D01*
G75*
G02*
X116355000Y-57555000I200000J0D01*
G01*
X116755000Y-57555000D01*
G75*
G02*
X116955000Y-57755000I0J-200000D01*
G01*
G37*
%TD.AperFunction*%
%TD*%
%TO.P,D3,2*%
%TO.N,IO_19*%
%TA.AperFunction,SMDPad,CuDef*%
G36*
G01*
X140430000Y-58092500D02*
X140430000Y-58567500D01*
G75*
G02*
X140192500Y-58805000I-237500J0D01*
G01*
X139617500Y-58805000D01*
G75*
G02*
X139380000Y-58567500I0J237500D01*
G01*
X139380000Y-58092500D01*
G75*
G02*
X139617500Y-57855000I237500J0D01*
G01*
X140192500Y-57855000D01*
G75*
G02*
X140430000Y-58092500I0J-237500D01*
G01*
G37*
%TD.AperFunction*%
%TO.P,D3,1*%
%TO.N,Net-(D3-Pad1)*%
%TA.AperFunction,SMDPad,CuDef*%
G36*
G01*
X142180000Y-58092500D02*
X142180000Y-58567500D01*
G75*
G02*
X141942500Y-58805000I-237500J0D01*
G01*
X141367500Y-58805000D01*
G75*
G02*
X141130000Y-58567500I0J237500D01*
G01*
X141130000Y-58092500D01*
G75*
G02*
X141367500Y-57855000I237500J0D01*
G01*
X141942500Y-57855000D01*
G75*
G02*
X142180000Y-58092500I0J-237500D01*
G01*
G37*
%TD.AperFunction*%
%TD*%
%TO.P,D2,2*%
%TO.N,IO_18*%
%TA.AperFunction,SMDPad,CuDef*%
G36*
G01*
X140880000Y-91362500D02*
X140880000Y-91837500D01*
G75*
G02*
X140642500Y-92075000I-237500J0D01*
G01*
X140067500Y-92075000D01*
G75*
G02*
X139830000Y-91837500I0J237500D01*
G01*
X139830000Y-91362500D01*
G75*
G02*
X140067500Y-91125000I237500J0D01*
G01*
X140642500Y-91125000D01*
G75*
G02*
X140880000Y-91362500I0J-237500D01*
G01*
G37*
%TD.AperFunction*%
%TO.P,D2,1*%
%TO.N,Net-(D2-Pad1)*%
%TA.AperFunction,SMDPad,CuDef*%
G36*
G01*
X142630000Y-91362500D02*
X142630000Y-91837500D01*
G75*
G02*
X142392500Y-92075000I-237500J0D01*
G01*
X141817500Y-92075000D01*
G75*
G02*
X141580000Y-91837500I0J237500D01*
G01*
X141580000Y-91362500D01*
G75*
G02*
X141817500Y-91125000I237500J0D01*
G01*
X142392500Y-91125000D01*
G75*
G02*
X142630000Y-91362500I0J-237500D01*
G01*
G37*
%TD.AperFunction*%
%TD*%
%TO.P,D1,2*%
%TO.N,+3V3*%
%TA.AperFunction,SMDPad,CuDef*%
G36*
G01*
X116400000Y-59722500D02*
X116400000Y-60197500D01*
G75*
G02*
X116162500Y-60435000I-237500J0D01*
G01*
X115587500Y-60435000D01*
G75*
G02*
X115350000Y-60197500I0J237500D01*
G01*
X115350000Y-59722500D01*
G75*
G02*
X115587500Y-59485000I237500J0D01*
G01*
X116162500Y-59485000D01*
G75*
G02*
X116400000Y-59722500I0J-237500D01*
G01*
G37*
%TD.AperFunction*%
%TO.P,D1,1*%
%TO.N,Net-(D1-Pad1)*%
%TA.AperFunction,SMDPad,CuDef*%
G36*
G01*
X118150000Y-59722500D02*
X118150000Y-60197500D01*
G75*
G02*
X117912500Y-60435000I-237500J0D01*
G01*
X117337500Y-60435000D01*
G75*
G02*
X117100000Y-60197500I0J237500D01*
G01*
X117100000Y-59722500D01*
G75*
G02*
X117337500Y-59485000I237500J0D01*
G01*
X117912500Y-59485000D01*
G75*
G02*
X118150000Y-59722500I0J-237500D01*
G01*
G37*
%TD.AperFunction*%
%TD*%
D13*
%TO.P,U2,1*%
%TO.N,GND*%
X102470000Y-62680000D03*
%TO.P,U2,3*%
%TO.N,VBUS*%
X102470000Y-67280000D03*
%TO.P,U2,2*%
%TO.N,+3V3*%
X102470000Y-64980000D03*
D14*
X108770000Y-64980000D03*
%TD*%
%TO.P,R1,2*%
%TO.N,GND*%
%TA.AperFunction,SMDPad,CuDef*%
G36*
G01*
X140515000Y-86395000D02*
X141065000Y-86395000D01*
G75*
G02*
X141265000Y-86595000I0J-200000D01*
G01*
X141265000Y-86995000D01*
G75*
G02*
X141065000Y-87195000I-200000J0D01*
G01*
X140515000Y-87195000D01*
G75*
G02*
X140315000Y-86995000I0J200000D01*
G01*
X140315000Y-86595000D01*
G75*
G02*
X140515000Y-86395000I200000J0D01*
G01*
G37*
%TD.AperFunction*%
%TO.P,R1,1*%
%TO.N,SWCLK*%
%TA.AperFunction,SMDPad,CuDef*%
G36*
G01*
X140515000Y-84745000D02*
X141065000Y-84745000D01*
G75*
G02*
X141265000Y-84945000I0J-200000D01*
G01*
X141265000Y-85345000D01*
G75*
G02*
X141065000Y-85545000I-200000J0D01*
G01*
X140515000Y-85545000D01*
G75*
G02*
X140315000Y-85345000I0J200000D01*
G01*
X140315000Y-84945000D01*
G75*
G02*
X140515000Y-84745000I200000J0D01*
G01*
G37*
%TD.AperFunction*%
%TD*%
D15*
%TO.P,J3,20*%
%TO.N,GND*%
X136150000Y-52140000D03*
%TO.P,J3,19*%
X136150000Y-54680000D03*
%TO.P,J3,18*%
X133610000Y-52140000D03*
%TO.P,J3,17*%
X133610000Y-54680000D03*
%TO.P,J3,16*%
%TO.N,IO_17*%
X131070000Y-52140000D03*
%TO.P,J3,15*%
%TO.N,IO_18*%
X131070000Y-54680000D03*
%TO.P,J3,14*%
%TO.N,IO_19*%
X128530000Y-52140000D03*
%TO.P,J3,13*%
%TO.N,IO_20*%
X128530000Y-54680000D03*
%TO.P,J3,12*%
%TO.N,IO_21*%
X125990000Y-52140000D03*
%TO.P,J3,11*%
%TO.N,IO_22*%
X125990000Y-54680000D03*
%TO.P,J3,10*%
%TO.N,IO_23*%
X123450000Y-52140000D03*
%TO.P,J3,9*%
%TO.N,IO_24*%
X123450000Y-54680000D03*
%TO.P,J3,8*%
%TO.N,IO_25*%
X120910000Y-52140000D03*
%TO.P,J3,7*%
%TO.N,IO_26*%
X120910000Y-54680000D03*
%TO.P,J3,6*%
%TO.N,IO_27*%
X118370000Y-52140000D03*
%TO.P,J3,5*%
%TO.N,IO_28*%
X118370000Y-54680000D03*
%TO.P,J3,4*%
%TO.N,IO_29*%
X115830000Y-52140000D03*
%TO.P,J3,3*%
%TO.N,IO_30*%
X115830000Y-54680000D03*
%TO.P,J3,2*%
%TO.N,+3V3*%
X113290000Y-52140000D03*
D16*
%TO.P,J3,1*%
X113290000Y-54680000D03*
%TD*%
D15*
%TO.P,J2,20*%
%TO.N,GND*%
X136150000Y-95320000D03*
%TO.P,J2,19*%
X136150000Y-97860000D03*
%TO.P,J2,18*%
%TO.N,IO_16*%
X133610000Y-95320000D03*
%TO.P,J2,17*%
%TO.N,IO_15*%
X133610000Y-97860000D03*
%TO.P,J2,16*%
%TO.N,IO_14*%
X131070000Y-95320000D03*
%TO.P,J2,15*%
%TO.N,IO_13*%
X131070000Y-97860000D03*
%TO.P,J2,14*%
%TO.N,IO_12*%
X128530000Y-95320000D03*
%TO.P,J2,13*%
%TO.N,IO_11*%
X128530000Y-97860000D03*
%TO.P,J2,12*%
%TO.N,IO_10*%
X125990000Y-95320000D03*
%TO.P,J2,11*%
%TO.N,IO_9*%
X125990000Y-97860000D03*
%TO.P,J2,10*%
%TO.N,IO_8*%
X123450000Y-95320000D03*
%TO.P,J2,9*%
%TO.N,IO_7*%
X123450000Y-97860000D03*
%TO.P,J2,8*%
%TO.N,IO_6*%
X120910000Y-95320000D03*
%TO.P,J2,7*%
%TO.N,IO_5*%
X120910000Y-97860000D03*
%TO.P,J2,6*%
%TO.N,IO_4*%
X118370000Y-95320000D03*
%TO.P,J2,5*%
%TO.N,IO_3*%
X118370000Y-97860000D03*
%TO.P,J2,4*%
%TO.N,IO_2*%
X115830000Y-95320000D03*
%TO.P,J2,3*%
%TO.N,IO_1*%
X115830000Y-97860000D03*
%TO.P,J2,2*%
%TO.N,IO_0*%
X113290000Y-95320000D03*
D16*
%TO.P,J2,1*%
%TO.N,+3V3*%
X113290000Y-97860000D03*
%TD*%
D17*
%TO.P,J1,0*%
%TO.N,Net-(J1-Pad0)*%
X103050000Y-78875000D03*
X103050000Y-71125000D03*
D18*
X106850000Y-78725000D03*
X106850000Y-71275000D03*
D19*
%TO.P,J1,5*%
%TO.N,GND*%
X106900000Y-76300000D03*
%TO.P,J1,4*%
%TO.N,N/C*%
X106900000Y-75650000D03*
%TO.P,J1,3*%
X106900000Y-75000000D03*
%TO.P,J1,2*%
X106900000Y-74350000D03*
%TO.P,J1,1*%
%TO.N,VBUS*%
X106900000Y-73700000D03*
%TD*%
D20*
%TO.P,CON1,9*%
%TO.N,GND*%
X107775000Y-90080000D03*
%TO.P,CON1,10*%
%TO.N,IO_4*%
X109045000Y-90080000D03*
%TO.P,CON1,7*%
%TO.N,SWCLK*%
X107775000Y-88810000D03*
%TO.P,CON1,8*%
%TO.N,IO_5*%
X109045000Y-88810000D03*
%TO.P,CON1,5*%
%TO.N,SWDIO*%
X107775000Y-87540000D03*
%TO.P,CON1,6*%
%TO.N,GND*%
X109045000Y-87540000D03*
%TO.P,CON1,3*%
%TO.N,+3V3*%
X107775000Y-86270000D03*
%TO.P,CON1,4*%
%TO.N,N/C*%
X109045000Y-86270000D03*
%TO.P,CON1,2*%
X109045000Y-85000000D03*
D21*
%TO.P,CON1,1*%
X107775000Y-85000000D03*
%TD*%
D22*
%TO.N,GND*%
X140600000Y-88630000D03*
X109240000Y-77050000D03*
X134960000Y-77350000D03*
X129320000Y-87490000D03*
X108830000Y-55140000D03*
X109770000Y-56460000D03*
X110400000Y-58440000D03*
X114640000Y-56830000D03*
X123830000Y-63680000D03*
X126190000Y-64920000D03*
X122970000Y-69430000D03*
X123570000Y-66600000D03*
X126460000Y-68030000D03*
X123570000Y-71920000D03*
X129590000Y-65950000D03*
X128340000Y-66980000D03*
X117600000Y-69910000D03*
X112450000Y-74850000D03*
X113610000Y-76610000D03*
X114900000Y-72610000D03*
X111030000Y-72350000D03*
X114510000Y-85670000D03*
X113810000Y-82840000D03*
X103030000Y-82910000D03*
X102390000Y-87400000D03*
X103740000Y-90670000D03*
X104440000Y-86050000D03*
X101680000Y-84960000D03*
X140430000Y-62320000D03*
X136390000Y-58400000D03*
X138120000Y-60330000D03*
X139790000Y-96320000D03*
X139850000Y-98690000D03*
X108290000Y-95670000D03*
X108030000Y-97920000D03*
X122530000Y-81050000D03*
%TO.N,+3V3*%
X110470000Y-64870000D03*
X110280000Y-66720000D03*
X110470000Y-62930000D03*
X132260000Y-77510000D03*
X122990000Y-67900000D03*
%TO.N,SWCLK*%
X140090000Y-78980000D03*
%TO.N,SWDIO*%
X139040000Y-79220000D03*
X115680000Y-79630000D03*
%TO.N,IO_16*%
X120060000Y-88360000D03*
%TO.N,IO_17*%
X139310000Y-74040000D03*
X119670000Y-61530000D03*
%TO.N,IO_18*%
X138620000Y-73440000D03*
%TO.N,IO_19*%
X137930000Y-72980000D03*
%TO.N,IO_20*%
X137270000Y-72460000D03*
%TD*%
D23*
%TO.N,GND*%
X140790000Y-88440000D02*
X140600000Y-88630000D01*
X140790000Y-86795000D02*
X140790000Y-88440000D01*
X134699935Y-78599942D02*
X130500146Y-78599942D01*
X136199906Y-80099913D02*
X134699935Y-78599942D01*
X136199906Y-81249924D02*
X136199906Y-80099913D01*
X144999990Y-68750076D02*
X144999990Y-70610010D01*
X143400044Y-70450044D02*
X143400044Y-68750076D01*
X144280000Y-71330000D02*
X143400044Y-70450044D01*
X144510000Y-71100000D02*
X140030000Y-71100000D01*
X144999990Y-70610010D02*
X144510000Y-71100000D01*
X144510000Y-71100000D02*
X144280000Y-71330000D01*
X138599952Y-69669952D02*
X138599952Y-68750076D01*
X140030000Y-71100000D02*
X138599952Y-69669952D01*
X138599952Y-69900087D02*
X137900081Y-70599958D01*
X138599952Y-68750076D02*
X138599952Y-69900087D01*
X133800114Y-69749820D02*
X133800114Y-68750076D01*
X131350030Y-72199904D02*
X133800114Y-69749820D01*
D24*
X108490000Y-76300000D02*
X109240000Y-77050000D01*
X106900000Y-76300000D02*
X108490000Y-76300000D01*
X134699935Y-77610065D02*
X134960000Y-77350000D01*
X134699935Y-78599942D02*
X134699935Y-77610065D01*
D25*
X144999990Y-83060010D02*
X144999990Y-81249924D01*
X141265000Y-86795000D02*
X144999990Y-83060010D01*
X140790000Y-86795000D02*
X141265000Y-86795000D01*
X132529958Y-71019976D02*
X132529958Y-70599958D01*
X130500146Y-72199904D02*
X131350030Y-72199904D01*
X131350030Y-72199904D02*
X132529958Y-71019976D01*
D23*
X132529958Y-70599958D02*
X130500146Y-70599958D01*
X137900081Y-70599958D02*
X132529958Y-70599958D01*
D25*
X129430000Y-87380000D02*
X129320000Y-87490000D01*
X114905000Y-57095000D02*
X114640000Y-56830000D01*
X114905000Y-58030000D02*
X114905000Y-57095000D01*
D23*
%TO.N,+3V3*%
X110360000Y-64980000D02*
X110470000Y-64870000D01*
X108770000Y-64980000D02*
X110360000Y-64980000D01*
X108770000Y-64980000D02*
X108770000Y-65420000D01*
X110070000Y-66720000D02*
X110280000Y-66720000D01*
X108770000Y-65420000D02*
X110070000Y-66720000D01*
X108770000Y-64980000D02*
X108770000Y-64860000D01*
X110470000Y-63160000D02*
X110470000Y-62930000D01*
X108770000Y-64860000D02*
X110470000Y-63160000D01*
X131969904Y-77800096D02*
X132260000Y-77510000D01*
X130500146Y-77800096D02*
X131969904Y-77800096D01*
D24*
X102470000Y-64980000D02*
X102900000Y-64980000D01*
X102900000Y-64980000D02*
X108770000Y-64980000D01*
D25*
X113290000Y-57900000D02*
X113290000Y-54680000D01*
X115350000Y-59960000D02*
X113290000Y-57900000D01*
X115875000Y-59960000D02*
X115350000Y-59960000D01*
D24*
X106827500Y-63037500D02*
X108770000Y-64980000D01*
X106827500Y-59150000D02*
X106827500Y-63037500D01*
D25*
X130500146Y-77800096D02*
X129775638Y-77800096D01*
D23*
X123340000Y-68250000D02*
X122990000Y-67900000D01*
X124560000Y-68250000D02*
X123340000Y-68250000D01*
%TO.N,SWCLK*%
X140999998Y-79889998D02*
X140999998Y-81249924D01*
X140090000Y-78980000D02*
X140999998Y-79889998D01*
X140999998Y-84935002D02*
X140790000Y-85145000D01*
X140999998Y-81249924D02*
X140999998Y-84935002D01*
%TO.N,SWDIO*%
X140199898Y-80379898D02*
X140199898Y-81249924D01*
X139040000Y-79220000D02*
X140199898Y-80379898D01*
D25*
X118010030Y-77299970D02*
X115680000Y-79630000D01*
X120000000Y-77299970D02*
X118010030Y-77299970D01*
D23*
%TO.N,IO_4*%
X126840000Y-77465130D02*
X126840000Y-87788640D01*
X129705180Y-74599950D02*
X126840000Y-77465130D01*
X130500146Y-74599950D02*
X129705180Y-74599950D01*
X126840000Y-87788640D02*
X121648640Y-92980000D01*
X120840000Y-92980000D02*
X120210010Y-93609990D01*
X120210010Y-93609990D02*
X119410010Y-93609990D01*
X121648640Y-92980000D02*
X120840000Y-92980000D01*
X118370000Y-94650000D02*
X118370000Y-95320000D01*
X119410010Y-93609990D02*
X118370000Y-94650000D01*
%TO.N,IO_5*%
X119650000Y-94803998D02*
X119650000Y-96600000D01*
X120343998Y-94110000D02*
X119650000Y-94803998D01*
X121225760Y-94110000D02*
X120343998Y-94110000D01*
X119650000Y-96600000D02*
X120910000Y-97860000D01*
X127340000Y-87995760D02*
X121225760Y-94110000D01*
X127349980Y-77754996D02*
X127349980Y-87270020D01*
X127340000Y-87280000D02*
X127340000Y-87995760D01*
X130500146Y-75400050D02*
X129704926Y-75400050D01*
X127349980Y-87270020D02*
X127340000Y-87280000D01*
X129704926Y-75400050D02*
X127349980Y-77754996D01*
D24*
%TO.N,VBUS*%
X106900000Y-73700000D02*
X108090000Y-73700000D01*
X108090000Y-73700000D02*
X108950000Y-72840000D01*
X105970000Y-67280000D02*
X102470000Y-67280000D01*
X108950000Y-70260000D02*
X105970000Y-67280000D01*
X109442500Y-69837500D02*
X108950000Y-70330000D01*
X113070000Y-69837500D02*
X109442500Y-69837500D01*
X108950000Y-70330000D02*
X108950000Y-70260000D01*
X108950000Y-72840000D02*
X108950000Y-70330000D01*
D23*
%TO.N,IO_16*%
X139400052Y-89529948D02*
X133610000Y-95320000D01*
X139400052Y-81249924D02*
X139400052Y-89529948D01*
D25*
X120060000Y-87359970D02*
X120000000Y-87299970D01*
X120060000Y-88360000D02*
X120060000Y-87359970D01*
D23*
%TO.N,IO_15*%
X132409999Y-96659999D02*
X133610000Y-97860000D01*
X132409999Y-94743999D02*
X132409999Y-96659999D01*
X138599952Y-88554046D02*
X132409999Y-94743999D01*
X138599952Y-81249924D02*
X138599952Y-88554046D01*
%TO.N,IO_14*%
X137800106Y-81249924D02*
X137800106Y-88646772D01*
X131126878Y-95320000D02*
X131070000Y-95320000D01*
X137800106Y-88646772D02*
X131126878Y-95320000D01*
%TO.N,IO_13*%
X137000006Y-81249924D02*
X137000006Y-88739752D01*
X129869999Y-94743999D02*
X129869999Y-96659999D01*
X129869999Y-96659999D02*
X131070000Y-97860000D01*
X130493999Y-94119999D02*
X129869999Y-94743999D01*
X131619759Y-94119999D02*
X130493999Y-94119999D01*
X137000006Y-88739752D02*
X131619759Y-94119999D01*
%TO.N,IO_12*%
X135400060Y-81249924D02*
X135400060Y-86599940D01*
X128530000Y-93470000D02*
X128530000Y-95320000D01*
X135400060Y-86599940D02*
X128530000Y-93470000D01*
%TO.N,IO_11*%
X134599960Y-86692920D02*
X127792880Y-93500000D01*
X134599960Y-81249924D02*
X134599960Y-86692920D01*
X127792880Y-93500000D02*
X127790000Y-93500000D01*
X127329999Y-96659999D02*
X128530000Y-97860000D01*
X127329999Y-93960001D02*
X127329999Y-96659999D01*
X127790000Y-93500000D02*
X127329999Y-93960001D01*
%TO.N,IO_10*%
X133800114Y-86782766D02*
X125990000Y-94592880D01*
X125990000Y-94592880D02*
X125990000Y-95320000D01*
X133800114Y-81249924D02*
X133800114Y-86782766D01*
%TO.N,IO_9*%
X133000014Y-81249924D02*
X133000014Y-86689986D01*
X124789999Y-96659999D02*
X125990000Y-97860000D01*
X124789999Y-94743999D02*
X124789999Y-96659999D01*
X125413999Y-94119999D02*
X124789999Y-94743999D01*
X125570001Y-94119999D02*
X125413999Y-94119999D01*
X133000014Y-86689986D02*
X125570001Y-94119999D01*
%TO.N,IO_8*%
X130500146Y-88269854D02*
X123450000Y-95320000D01*
X130500146Y-79400042D02*
X130500146Y-88269854D01*
%TO.N,IO_7*%
X129704926Y-76999996D02*
X128350000Y-78354922D01*
X130500146Y-76999996D02*
X129704926Y-76999996D01*
X128350000Y-78354922D02*
X128350000Y-88400000D01*
X128350000Y-88400000D02*
X122180000Y-94570000D01*
X122180000Y-96590000D02*
X123450000Y-97860000D01*
X122180000Y-94570000D02*
X122180000Y-96590000D01*
%TO.N,IO_6*%
X129705180Y-76199896D02*
X127849990Y-78055086D01*
X130500146Y-76199896D02*
X129705180Y-76199896D01*
X120910000Y-95132880D02*
X120910000Y-95320000D01*
X127849990Y-88192890D02*
X120910000Y-95132880D01*
X127849990Y-78055086D02*
X127849990Y-88192890D01*
%TO.N,IO_3*%
X126210000Y-87711520D02*
X121441530Y-92479990D01*
X117169999Y-94743999D02*
X117169999Y-96659999D01*
X117793999Y-94119999D02*
X117169999Y-94743999D01*
X119202900Y-93109980D02*
X118192881Y-94119999D01*
X117169999Y-96659999D02*
X118370000Y-97860000D01*
X121441530Y-92479990D02*
X120632890Y-92479990D01*
X118192881Y-94119999D02*
X117793999Y-94119999D01*
X120002900Y-93109980D02*
X119202900Y-93109980D01*
X130500146Y-73800104D02*
X129704926Y-73800104D01*
X126210000Y-77295030D02*
X126210000Y-87711520D01*
X120632890Y-92479990D02*
X120002900Y-93109980D01*
X129704926Y-73800104D02*
X126210000Y-77295030D01*
%TO.N,IO_2*%
X117530011Y-93619989D02*
X115830000Y-95320000D01*
X117985771Y-93619989D02*
X117530011Y-93619989D01*
X119945760Y-91660000D02*
X117985771Y-93619989D01*
X121554400Y-91660000D02*
X119945760Y-91660000D01*
X130500146Y-73000004D02*
X129704926Y-73000004D01*
X125690000Y-87524400D02*
X121554400Y-91660000D01*
X125690000Y-77014930D02*
X125690000Y-87524400D01*
X129704926Y-73000004D02*
X125690000Y-77014930D01*
%TO.N,IO_1*%
X129704926Y-71400058D02*
X125030000Y-76074984D01*
X130500146Y-71400058D02*
X129704926Y-71400058D01*
X125030000Y-76074984D02*
X125030000Y-87230000D01*
X121100010Y-91159990D02*
X119390010Y-91159990D01*
X125030000Y-87230000D02*
X121100010Y-91159990D01*
X119390010Y-91159990D02*
X117640000Y-92910000D01*
X117640000Y-92910000D02*
X116190000Y-92910000D01*
X114629999Y-96659999D02*
X115830000Y-97860000D01*
X114629999Y-94470001D02*
X114629999Y-96659999D01*
X116190000Y-92910000D02*
X114629999Y-94470001D01*
%TO.N,IO_0*%
X113290000Y-95102880D02*
X113290000Y-95320000D01*
X115982890Y-92409990D02*
X113290000Y-95102880D01*
X119060020Y-90659980D02*
X117310010Y-92409990D01*
X124529990Y-87022890D02*
X120892900Y-90659980D01*
X130754962Y-68750076D02*
X124529990Y-74975048D01*
X120892900Y-90659980D02*
X119060020Y-90659980D01*
X117310010Y-92409990D02*
X115982890Y-92409990D01*
X124529990Y-74975048D02*
X124529990Y-87022890D01*
X133000014Y-68750076D02*
X130754962Y-68750076D01*
%TO.N,IO_17*%
X141800098Y-81249924D02*
X141800098Y-76230098D01*
X139610000Y-74040000D02*
X139310000Y-74040000D01*
X141800098Y-76230098D02*
X139610000Y-74040000D01*
D25*
X119670000Y-62370030D02*
X120000000Y-62700030D01*
X119670000Y-61530000D02*
X119670000Y-62370030D01*
D23*
%TO.N,IO_18*%
X139717120Y-73440000D02*
X138620000Y-73440000D01*
X142599944Y-76322824D02*
X139717120Y-73440000D01*
X142599944Y-81249924D02*
X142599944Y-76322824D01*
D25*
X142599944Y-84517178D02*
X142599944Y-81249924D01*
X141272112Y-85845010D02*
X142599944Y-84517178D01*
X140557868Y-85845010D02*
X141272112Y-85845010D01*
X140014990Y-91259990D02*
X140014990Y-86387888D01*
X140014990Y-86387888D02*
X140557868Y-85845010D01*
X140355000Y-91600000D02*
X140014990Y-91259990D01*
D23*
%TO.N,IO_19*%
X138045001Y-72864999D02*
X137930000Y-72980000D01*
X139849239Y-72864999D02*
X138045001Y-72864999D01*
X143400044Y-76415804D02*
X139849239Y-72864999D01*
X143400044Y-81249924D02*
X143400044Y-76415804D01*
D25*
X136702001Y-50989999D02*
X129680001Y-50989999D01*
X129680001Y-50989999D02*
X128530000Y-52140000D01*
X139905000Y-54192998D02*
X136702001Y-50989999D01*
X139905000Y-58330000D02*
X139905000Y-54192998D01*
D23*
%TO.N,IO_20*%
X137365011Y-72364989D02*
X137270000Y-72460000D01*
X140056349Y-72364989D02*
X137365011Y-72364989D01*
X144199890Y-76508530D02*
X140056349Y-72364989D01*
X144199890Y-81249924D02*
X144199890Y-76508530D01*
%TO.N,IO_21*%
X142599944Y-67600065D02*
X130939819Y-55939940D01*
X142599944Y-68750076D02*
X142599944Y-67600065D01*
X130939819Y-55939940D02*
X127809940Y-55939940D01*
X127809940Y-55939940D02*
X127260000Y-55390000D01*
X127260000Y-53410000D02*
X125990000Y-52140000D01*
X127260000Y-55390000D02*
X127260000Y-53410000D01*
%TO.N,IO_22*%
X141800098Y-68750076D02*
X141800098Y-67786025D01*
X141800098Y-67786025D02*
X130454023Y-56439950D01*
X130454023Y-56439950D02*
X126249950Y-56439950D01*
X125990000Y-56180000D02*
X125990000Y-54680000D01*
X126249950Y-56439950D02*
X125990000Y-56180000D01*
%TO.N,IO_23*%
X124700000Y-53390000D02*
X123450000Y-52140000D01*
X140999998Y-67693045D02*
X130246913Y-56939960D01*
X124700000Y-56330000D02*
X124700000Y-53390000D01*
X130246913Y-56939960D02*
X125309960Y-56939960D01*
X125309960Y-56939960D02*
X124700000Y-56330000D01*
X140999998Y-68750076D02*
X140999998Y-67693045D01*
%TO.N,IO_24*%
X140199898Y-67600065D02*
X130039803Y-57439970D01*
X140199898Y-68750076D02*
X140199898Y-67600065D01*
X130039803Y-57439970D02*
X124179970Y-57439970D01*
X123450000Y-56710000D02*
X123450000Y-54680000D01*
X124179970Y-57439970D02*
X123450000Y-56710000D01*
%TO.N,IO_25*%
X139400052Y-67600065D02*
X129739967Y-57939980D01*
X139400052Y-68750076D02*
X139400052Y-67600065D01*
X129739967Y-57939980D02*
X123009980Y-57939980D01*
X123009980Y-57939980D02*
X122170000Y-57100000D01*
X122170000Y-53400000D02*
X120910000Y-52140000D01*
X122170000Y-57100000D02*
X122170000Y-53400000D01*
%TO.N,IO_26*%
X137800106Y-67600065D02*
X128640031Y-58439990D01*
X137800106Y-68750076D02*
X137800106Y-67600065D01*
X128640031Y-58439990D02*
X122779990Y-58439990D01*
X120910000Y-56570000D02*
X120910000Y-54680000D01*
X122779990Y-58439990D02*
X120910000Y-56570000D01*
%TO.N,IO_27*%
X137000006Y-68750076D02*
X137000006Y-67693045D01*
X137000006Y-67693045D02*
X128246961Y-58940000D01*
X128246961Y-58940000D02*
X122300000Y-58940000D01*
X119570001Y-53340001D02*
X118370000Y-52140000D01*
X119570001Y-56210001D02*
X119570001Y-53340001D01*
X122300000Y-58940000D02*
X119570001Y-56210001D01*
%TO.N,IO_28*%
X136199906Y-67600065D02*
X128169821Y-59569980D01*
X136199906Y-68750076D02*
X136199906Y-67600065D01*
X128169821Y-59569980D02*
X122134220Y-59569980D01*
X118370000Y-55805760D02*
X118370000Y-54680000D01*
X122134220Y-59569980D02*
X118370000Y-55805760D01*
%TO.N,IO_29*%
X135400060Y-67600065D02*
X127869985Y-60069990D01*
X135400060Y-68750076D02*
X135400060Y-67600065D01*
X127869985Y-60069990D02*
X121927110Y-60069990D01*
X117169999Y-53479999D02*
X115830000Y-52140000D01*
X117169999Y-55312879D02*
X117169999Y-53479999D01*
X121927110Y-60069990D02*
X117169999Y-55312879D01*
%TO.N,IO_30*%
X134599960Y-67600065D02*
X127569895Y-60570000D01*
X134599960Y-68750076D02*
X134599960Y-67600065D01*
X121720000Y-60570000D02*
X115830000Y-54680000D01*
X127569895Y-60570000D02*
X121720000Y-60570000D01*
D25*
%TO.N,Net-(D1-Pad1)*%
X116555000Y-58890000D02*
X117625000Y-59960000D01*
X116555000Y-58030000D02*
X116555000Y-58890000D01*
%TO.N,Net-(D2-Pad1)*%
X142105000Y-94270000D02*
X142200000Y-94365000D01*
X142105000Y-91600000D02*
X142105000Y-94270000D01*
%TO.N,Net-(D3-Pad1)*%
X141655000Y-56340000D02*
X141740000Y-56255000D01*
X141655000Y-58330000D02*
X141655000Y-56340000D01*
%TD*%
D26*
%TO.N,GND*%
X140917000Y-86668000D02*
X140937000Y-86668000D01*
X140937000Y-86922000D01*
X140917000Y-86922000D01*
X140917000Y-87671250D01*
X141075750Y-87830000D01*
X141265000Y-87833072D01*
X141389482Y-87820812D01*
X141509180Y-87784502D01*
X141619494Y-87725537D01*
X141716185Y-87646185D01*
X141795537Y-87549494D01*
X141854502Y-87439180D01*
X141890812Y-87319482D01*
X141894588Y-87281146D01*
X141885048Y-90128721D01*
X141887536Y-90154168D01*
X141894810Y-90177978D01*
X141906589Y-90199911D01*
X141922421Y-90219125D01*
X141941698Y-90234881D01*
X141963677Y-90246574D01*
X141987516Y-90253754D01*
X142012297Y-90256146D01*
X149340001Y-90241721D01*
X149340001Y-96967711D01*
X149292330Y-97453894D01*
X149160512Y-97890497D01*
X148946399Y-98293186D01*
X148658150Y-98646613D01*
X148306739Y-98937327D01*
X147905564Y-99154240D01*
X147469886Y-99289106D01*
X146985664Y-99340000D01*
X136277002Y-99340000D01*
X136277002Y-99180156D01*
X136506890Y-99301476D01*
X136654099Y-99256825D01*
X136916920Y-99131641D01*
X137150269Y-98957588D01*
X137345178Y-98741355D01*
X137494157Y-98491252D01*
X137591481Y-98216891D01*
X137470814Y-97987000D01*
X136277000Y-97987000D01*
X136277000Y-98007000D01*
X136023000Y-98007000D01*
X136023000Y-97987000D01*
X136003000Y-97987000D01*
X136003000Y-97733000D01*
X136023000Y-97733000D01*
X136023000Y-95447000D01*
X136277000Y-95447000D01*
X136277000Y-97733000D01*
X137470814Y-97733000D01*
X137591481Y-97503109D01*
X137494157Y-97228748D01*
X137345178Y-96978645D01*
X137150269Y-96762412D01*
X136919120Y-96590000D01*
X137150269Y-96417588D01*
X137152601Y-96415000D01*
X141086928Y-96415000D01*
X141099188Y-96539482D01*
X141135498Y-96659180D01*
X141194463Y-96769494D01*
X141273815Y-96866185D01*
X141370506Y-96945537D01*
X141480820Y-97004502D01*
X141600518Y-97040812D01*
X141725000Y-97053072D01*
X141914250Y-97050000D01*
X142073000Y-96891250D01*
X142073000Y-96142000D01*
X142327000Y-96142000D01*
X142327000Y-96891250D01*
X142485750Y-97050000D01*
X142675000Y-97053072D01*
X142799482Y-97040812D01*
X142919180Y-97004502D01*
X143029494Y-96945537D01*
X143126185Y-96866185D01*
X143197020Y-96779872D01*
X144765000Y-96779872D01*
X144765000Y-97220128D01*
X144850890Y-97651925D01*
X145019369Y-98058669D01*
X145263962Y-98424729D01*
X145575271Y-98736038D01*
X145941331Y-98980631D01*
X146348075Y-99149110D01*
X146779872Y-99235000D01*
X147220128Y-99235000D01*
X147651925Y-99149110D01*
X148058669Y-98980631D01*
X148424729Y-98736038D01*
X148736038Y-98424729D01*
X148980631Y-98058669D01*
X149149110Y-97651925D01*
X149235000Y-97220128D01*
X149235000Y-96779872D01*
X149149110Y-96348075D01*
X148980631Y-95941331D01*
X148736038Y-95575271D01*
X148424729Y-95263962D01*
X148058669Y-95019369D01*
X147651925Y-94850890D01*
X147220128Y-94765000D01*
X146779872Y-94765000D01*
X146348075Y-94850890D01*
X145941331Y-95019369D01*
X145575271Y-95263962D01*
X145263962Y-95575271D01*
X145019369Y-95941331D01*
X144850890Y-96348075D01*
X144765000Y-96779872D01*
X143197020Y-96779872D01*
X143205537Y-96769494D01*
X143264502Y-96659180D01*
X143300812Y-96539482D01*
X143313072Y-96415000D01*
X143310000Y-96300750D01*
X143151250Y-96142000D01*
X142327000Y-96142000D01*
X142073000Y-96142000D01*
X141248750Y-96142000D01*
X141090000Y-96300750D01*
X141086928Y-96415000D01*
X137152601Y-96415000D01*
X137345178Y-96201355D01*
X137494157Y-95951252D01*
X137591481Y-95676891D01*
X137470814Y-95447000D01*
X136277000Y-95447000D01*
X136023000Y-95447000D01*
X136003000Y-95447000D01*
X136003000Y-95193000D01*
X136023000Y-95193000D01*
X136023000Y-95173000D01*
X136277000Y-95173000D01*
X136277000Y-95193000D01*
X137470814Y-95193000D01*
X137591481Y-94963109D01*
X137494157Y-94688748D01*
X137345178Y-94438645D01*
X137150269Y-94222412D01*
X136916920Y-94048359D01*
X136654099Y-93923175D01*
X136506890Y-93878524D01*
X136277002Y-93999844D01*
X136277002Y-93835000D01*
X136205157Y-93835000D01*
X139279990Y-90760168D01*
X139279990Y-90987372D01*
X139258577Y-91027433D01*
X139208752Y-91191684D01*
X139191928Y-91362500D01*
X139191928Y-91837500D01*
X139208752Y-92008316D01*
X139258577Y-92172567D01*
X139339488Y-92323942D01*
X139448377Y-92456623D01*
X139581058Y-92565512D01*
X139732433Y-92646423D01*
X139896684Y-92696248D01*
X140067500Y-92713072D01*
X140642500Y-92713072D01*
X140813316Y-92696248D01*
X140977567Y-92646423D01*
X141128942Y-92565512D01*
X141230000Y-92482575D01*
X141331058Y-92565512D01*
X141370000Y-92586327D01*
X141370001Y-93541531D01*
X141332394Y-93572394D01*
X141228169Y-93699392D01*
X141150722Y-93844284D01*
X141103031Y-94001500D01*
X141086928Y-94165000D01*
X141086928Y-94565000D01*
X141103031Y-94728500D01*
X141150722Y-94885716D01*
X141228169Y-95030608D01*
X141311863Y-95132590D01*
X141273815Y-95163815D01*
X141194463Y-95260506D01*
X141135498Y-95370820D01*
X141099188Y-95490518D01*
X141086928Y-95615000D01*
X141090000Y-95729250D01*
X141248750Y-95888000D01*
X142073000Y-95888000D01*
X142073000Y-95868000D01*
X142327000Y-95868000D01*
X142327000Y-95888000D01*
X143151250Y-95888000D01*
X143310000Y-95729250D01*
X143313072Y-95615000D01*
X143300812Y-95490518D01*
X143264502Y-95370820D01*
X143205537Y-95260506D01*
X143126185Y-95163815D01*
X143088137Y-95132590D01*
X143171831Y-95030608D01*
X143249278Y-94885716D01*
X143296969Y-94728500D01*
X143313072Y-94565000D01*
X143313072Y-94165000D01*
X143296969Y-94001500D01*
X143249278Y-93844284D01*
X143171831Y-93699392D01*
X143067606Y-93572394D01*
X142940608Y-93468169D01*
X142840000Y-93414392D01*
X142840000Y-92586327D01*
X142878942Y-92565512D01*
X143011623Y-92456623D01*
X143120512Y-92323942D01*
X143201423Y-92172567D01*
X143251248Y-92008316D01*
X143268072Y-91837500D01*
X143268072Y-91362500D01*
X143251248Y-91191684D01*
X143201423Y-91027433D01*
X143120512Y-90876058D01*
X143011623Y-90743377D01*
X142878942Y-90634488D01*
X142727567Y-90553577D01*
X142563316Y-90503752D01*
X142392500Y-90486928D01*
X141817500Y-90486928D01*
X141646684Y-90503752D01*
X141482433Y-90553577D01*
X141331058Y-90634488D01*
X141230000Y-90717425D01*
X141128942Y-90634488D01*
X140977567Y-90553577D01*
X140813316Y-90503752D01*
X140749990Y-90497515D01*
X140749990Y-86692334D01*
X140794324Y-86648000D01*
X140917000Y-86648000D01*
X140917000Y-86668000D01*
%TA.AperFunction,Conductor*%
D27*
G36*
X140917000Y-86668000D02*
G01*
X140937000Y-86668000D01*
X140937000Y-86922000D01*
X140917000Y-86922000D01*
X140917000Y-87671250D01*
X141075750Y-87830000D01*
X141265000Y-87833072D01*
X141389482Y-87820812D01*
X141509180Y-87784502D01*
X141619494Y-87725537D01*
X141716185Y-87646185D01*
X141795537Y-87549494D01*
X141854502Y-87439180D01*
X141890812Y-87319482D01*
X141894588Y-87281146D01*
X141885048Y-90128721D01*
X141887536Y-90154168D01*
X141894810Y-90177978D01*
X141906589Y-90199911D01*
X141922421Y-90219125D01*
X141941698Y-90234881D01*
X141963677Y-90246574D01*
X141987516Y-90253754D01*
X142012297Y-90256146D01*
X149340001Y-90241721D01*
X149340001Y-96967711D01*
X149292330Y-97453894D01*
X149160512Y-97890497D01*
X148946399Y-98293186D01*
X148658150Y-98646613D01*
X148306739Y-98937327D01*
X147905564Y-99154240D01*
X147469886Y-99289106D01*
X146985664Y-99340000D01*
X136277002Y-99340000D01*
X136277002Y-99180156D01*
X136506890Y-99301476D01*
X136654099Y-99256825D01*
X136916920Y-99131641D01*
X137150269Y-98957588D01*
X137345178Y-98741355D01*
X137494157Y-98491252D01*
X137591481Y-98216891D01*
X137470814Y-97987000D01*
X136277000Y-97987000D01*
X136277000Y-98007000D01*
X136023000Y-98007000D01*
X136023000Y-97987000D01*
X136003000Y-97987000D01*
X136003000Y-97733000D01*
X136023000Y-97733000D01*
X136023000Y-95447000D01*
X136277000Y-95447000D01*
X136277000Y-97733000D01*
X137470814Y-97733000D01*
X137591481Y-97503109D01*
X137494157Y-97228748D01*
X137345178Y-96978645D01*
X137150269Y-96762412D01*
X136919120Y-96590000D01*
X137150269Y-96417588D01*
X137152601Y-96415000D01*
X141086928Y-96415000D01*
X141099188Y-96539482D01*
X141135498Y-96659180D01*
X141194463Y-96769494D01*
X141273815Y-96866185D01*
X141370506Y-96945537D01*
X141480820Y-97004502D01*
X141600518Y-97040812D01*
X141725000Y-97053072D01*
X141914250Y-97050000D01*
X142073000Y-96891250D01*
X142073000Y-96142000D01*
X142327000Y-96142000D01*
X142327000Y-96891250D01*
X142485750Y-97050000D01*
X142675000Y-97053072D01*
X142799482Y-97040812D01*
X142919180Y-97004502D01*
X143029494Y-96945537D01*
X143126185Y-96866185D01*
X143197020Y-96779872D01*
X144765000Y-96779872D01*
X144765000Y-97220128D01*
X144850890Y-97651925D01*
X145019369Y-98058669D01*
X145263962Y-98424729D01*
X145575271Y-98736038D01*
X145941331Y-98980631D01*
X146348075Y-99149110D01*
X146779872Y-99235000D01*
X147220128Y-99235000D01*
X147651925Y-99149110D01*
X148058669Y-98980631D01*
X148424729Y-98736038D01*
X148736038Y-98424729D01*
X148980631Y-98058669D01*
X149149110Y-97651925D01*
X149235000Y-97220128D01*
X149235000Y-96779872D01*
X149149110Y-96348075D01*
X148980631Y-95941331D01*
X148736038Y-95575271D01*
X148424729Y-95263962D01*
X148058669Y-95019369D01*
X147651925Y-94850890D01*
X147220128Y-94765000D01*
X146779872Y-94765000D01*
X146348075Y-94850890D01*
X145941331Y-95019369D01*
X145575271Y-95263962D01*
X145263962Y-95575271D01*
X145019369Y-95941331D01*
X144850890Y-96348075D01*
X144765000Y-96779872D01*
X143197020Y-96779872D01*
X143205537Y-96769494D01*
X143264502Y-96659180D01*
X143300812Y-96539482D01*
X143313072Y-96415000D01*
X143310000Y-96300750D01*
X143151250Y-96142000D01*
X142327000Y-96142000D01*
X142073000Y-96142000D01*
X141248750Y-96142000D01*
X141090000Y-96300750D01*
X141086928Y-96415000D01*
X137152601Y-96415000D01*
X137345178Y-96201355D01*
X137494157Y-95951252D01*
X137591481Y-95676891D01*
X137470814Y-95447000D01*
X136277000Y-95447000D01*
X136023000Y-95447000D01*
X136003000Y-95447000D01*
X136003000Y-95193000D01*
X136023000Y-95193000D01*
X136023000Y-95173000D01*
X136277000Y-95173000D01*
X136277000Y-95193000D01*
X137470814Y-95193000D01*
X137591481Y-94963109D01*
X137494157Y-94688748D01*
X137345178Y-94438645D01*
X137150269Y-94222412D01*
X136916920Y-94048359D01*
X136654099Y-93923175D01*
X136506890Y-93878524D01*
X136277002Y-93999844D01*
X136277002Y-93835000D01*
X136205157Y-93835000D01*
X139279990Y-90760168D01*
X139279990Y-90987372D01*
X139258577Y-91027433D01*
X139208752Y-91191684D01*
X139191928Y-91362500D01*
X139191928Y-91837500D01*
X139208752Y-92008316D01*
X139258577Y-92172567D01*
X139339488Y-92323942D01*
X139448377Y-92456623D01*
X139581058Y-92565512D01*
X139732433Y-92646423D01*
X139896684Y-92696248D01*
X140067500Y-92713072D01*
X140642500Y-92713072D01*
X140813316Y-92696248D01*
X140977567Y-92646423D01*
X141128942Y-92565512D01*
X141230000Y-92482575D01*
X141331058Y-92565512D01*
X141370000Y-92586327D01*
X141370001Y-93541531D01*
X141332394Y-93572394D01*
X141228169Y-93699392D01*
X141150722Y-93844284D01*
X141103031Y-94001500D01*
X141086928Y-94165000D01*
X141086928Y-94565000D01*
X141103031Y-94728500D01*
X141150722Y-94885716D01*
X141228169Y-95030608D01*
X141311863Y-95132590D01*
X141273815Y-95163815D01*
X141194463Y-95260506D01*
X141135498Y-95370820D01*
X141099188Y-95490518D01*
X141086928Y-95615000D01*
X141090000Y-95729250D01*
X141248750Y-95888000D01*
X142073000Y-95888000D01*
X142073000Y-95868000D01*
X142327000Y-95868000D01*
X142327000Y-95888000D01*
X143151250Y-95888000D01*
X143310000Y-95729250D01*
X143313072Y-95615000D01*
X143300812Y-95490518D01*
X143264502Y-95370820D01*
X143205537Y-95260506D01*
X143126185Y-95163815D01*
X143088137Y-95132590D01*
X143171831Y-95030608D01*
X143249278Y-94885716D01*
X143296969Y-94728500D01*
X143313072Y-94565000D01*
X143313072Y-94165000D01*
X143296969Y-94001500D01*
X143249278Y-93844284D01*
X143171831Y-93699392D01*
X143067606Y-93572394D01*
X142940608Y-93468169D01*
X142840000Y-93414392D01*
X142840000Y-92586327D01*
X142878942Y-92565512D01*
X143011623Y-92456623D01*
X143120512Y-92323942D01*
X143201423Y-92172567D01*
X143251248Y-92008316D01*
X143268072Y-91837500D01*
X143268072Y-91362500D01*
X143251248Y-91191684D01*
X143201423Y-91027433D01*
X143120512Y-90876058D01*
X143011623Y-90743377D01*
X142878942Y-90634488D01*
X142727567Y-90553577D01*
X142563316Y-90503752D01*
X142392500Y-90486928D01*
X141817500Y-90486928D01*
X141646684Y-90503752D01*
X141482433Y-90553577D01*
X141331058Y-90634488D01*
X141230000Y-90717425D01*
X141128942Y-90634488D01*
X140977567Y-90553577D01*
X140813316Y-90503752D01*
X140749990Y-90497515D01*
X140749990Y-86692334D01*
X140794324Y-86648000D01*
X140917000Y-86648000D01*
X140917000Y-86668000D01*
G37*
%TD.AperFunction*%
D26*
X112856842Y-50712068D02*
X112586589Y-50824010D01*
X112343368Y-50986525D01*
X112136525Y-51193368D01*
X111974010Y-51436589D01*
X111862068Y-51706842D01*
X111805000Y-51993740D01*
X111805000Y-52286260D01*
X111862068Y-52573158D01*
X111974010Y-52843411D01*
X112136525Y-53086632D01*
X112268380Y-53218487D01*
X112195820Y-53240498D01*
X112085506Y-53299463D01*
X111988815Y-53378815D01*
X111909463Y-53475506D01*
X111850498Y-53585820D01*
X111814188Y-53705518D01*
X111801928Y-53830000D01*
X111801928Y-55530000D01*
X111814188Y-55654482D01*
X111850498Y-55774180D01*
X111909463Y-55884494D01*
X111988815Y-55981185D01*
X112085506Y-56060537D01*
X112195820Y-56119502D01*
X112315518Y-56155812D01*
X112440000Y-56168072D01*
X112555001Y-56168072D01*
X112555000Y-57863895D01*
X112551444Y-57900000D01*
X112565635Y-58044084D01*
X112607663Y-58182632D01*
X112675913Y-58310319D01*
X112767762Y-58422237D01*
X112795808Y-58445254D01*
X114733055Y-60382502D01*
X114778577Y-60532567D01*
X114859488Y-60683942D01*
X114968377Y-60816623D01*
X115101058Y-60925512D01*
X115252433Y-61006423D01*
X115416684Y-61056248D01*
X115587500Y-61073072D01*
X116162500Y-61073072D01*
X116333316Y-61056248D01*
X116497567Y-61006423D01*
X116648942Y-60925512D01*
X116750000Y-60842575D01*
X116851058Y-60925512D01*
X117002433Y-61006423D01*
X117166684Y-61056248D01*
X117337500Y-61073072D01*
X117912500Y-61073072D01*
X118083316Y-61056248D01*
X118247567Y-61006423D01*
X118398942Y-60925512D01*
X118531623Y-60816623D01*
X118640512Y-60683942D01*
X118721423Y-60532567D01*
X118771248Y-60368316D01*
X118788072Y-60197500D01*
X118788072Y-59722500D01*
X118771248Y-59551684D01*
X118721423Y-59387433D01*
X118640512Y-59236058D01*
X118531623Y-59103377D01*
X118398942Y-58994488D01*
X118247567Y-58913577D01*
X118083316Y-58863752D01*
X117912500Y-58846928D01*
X117551374Y-58846928D01*
X117459920Y-58755474D01*
X117529278Y-58625716D01*
X117576969Y-58468500D01*
X117593072Y-58305000D01*
X117593072Y-57755000D01*
X117576969Y-57591500D01*
X117553293Y-57513450D01*
X121137653Y-61097810D01*
X121162236Y-61127764D01*
X121281767Y-61225862D01*
X121405369Y-61291928D01*
X121418140Y-61298754D01*
X121566113Y-61343642D01*
X121641026Y-61351020D01*
X121681439Y-61355000D01*
X121681444Y-61355000D01*
X121720000Y-61358797D01*
X121758556Y-61355000D01*
X127244738Y-61355000D01*
X133151730Y-67261993D01*
X132750078Y-67261993D01*
X132625596Y-67274253D01*
X132505898Y-67310563D01*
X132395584Y-67369528D01*
X132298893Y-67448880D01*
X132219541Y-67545571D01*
X132160576Y-67655885D01*
X132124266Y-67775583D01*
X132112006Y-67900065D01*
X132112006Y-67965076D01*
X130793518Y-67965076D01*
X130754962Y-67961279D01*
X130716406Y-67965076D01*
X130716401Y-67965076D01*
X130675988Y-67969056D01*
X130601075Y-67976434D01*
X130453102Y-68021322D01*
X130316729Y-68094214D01*
X130197198Y-68192312D01*
X130172615Y-68222266D01*
X124002180Y-74392701D01*
X123972226Y-74417284D01*
X123874128Y-74536816D01*
X123801236Y-74673189D01*
X123756349Y-74821162D01*
X123744990Y-74936488D01*
X123744990Y-74936495D01*
X123741193Y-74975048D01*
X123744990Y-75013601D01*
X123744991Y-86697731D01*
X120567743Y-89874980D01*
X119098576Y-89874980D01*
X119060020Y-89871183D01*
X119021464Y-89874980D01*
X119021459Y-89874980D01*
X118981046Y-89878960D01*
X118906133Y-89886338D01*
X118758160Y-89931226D01*
X118621787Y-90004118D01*
X118502256Y-90102216D01*
X118477675Y-90132168D01*
X116984853Y-91624990D01*
X116021446Y-91624990D01*
X115982890Y-91621193D01*
X115944334Y-91624990D01*
X115944329Y-91624990D01*
X115903916Y-91628970D01*
X115829003Y-91636348D01*
X115681030Y-91681236D01*
X115544657Y-91754128D01*
X115425126Y-91852226D01*
X115400545Y-91882178D01*
X113445821Y-93836902D01*
X113436260Y-93835000D01*
X113143740Y-93835000D01*
X112856842Y-93892068D01*
X112586589Y-94004010D01*
X112343368Y-94166525D01*
X112136525Y-94373368D01*
X111974010Y-94616589D01*
X111862068Y-94886842D01*
X111805000Y-95173740D01*
X111805000Y-95466260D01*
X111862068Y-95753158D01*
X111974010Y-96023411D01*
X112136525Y-96266632D01*
X112268380Y-96398487D01*
X112195820Y-96420498D01*
X112085506Y-96479463D01*
X111988815Y-96558815D01*
X111909463Y-96655506D01*
X111850498Y-96765820D01*
X111814188Y-96885518D01*
X111801928Y-97010000D01*
X111801928Y-98710000D01*
X111814188Y-98834482D01*
X111850498Y-98954180D01*
X111909463Y-99064494D01*
X111988815Y-99161185D01*
X112085506Y-99240537D01*
X112195820Y-99299502D01*
X112315518Y-99335812D01*
X112358041Y-99340000D01*
X103032279Y-99340000D01*
X102546106Y-99292330D01*
X102109503Y-99160512D01*
X101706814Y-98946399D01*
X101353387Y-98658150D01*
X101062673Y-98306739D01*
X100845760Y-97905564D01*
X100710894Y-97469886D01*
X100660000Y-96985664D01*
X100660000Y-96779872D01*
X100765000Y-96779872D01*
X100765000Y-97220128D01*
X100850890Y-97651925D01*
X101019369Y-98058669D01*
X101263962Y-98424729D01*
X101575271Y-98736038D01*
X101941331Y-98980631D01*
X102348075Y-99149110D01*
X102779872Y-99235000D01*
X103220128Y-99235000D01*
X103651925Y-99149110D01*
X104058669Y-98980631D01*
X104424729Y-98736038D01*
X104736038Y-98424729D01*
X104980631Y-98058669D01*
X105149110Y-97651925D01*
X105235000Y-97220128D01*
X105235000Y-96779872D01*
X105149110Y-96348075D01*
X104980631Y-95941331D01*
X104736038Y-95575271D01*
X104424729Y-95263962D01*
X104058669Y-95019369D01*
X103651925Y-94850890D01*
X103220128Y-94765000D01*
X102779872Y-94765000D01*
X102348075Y-94850890D01*
X101941331Y-95019369D01*
X101575271Y-95263962D01*
X101263962Y-95575271D01*
X101019369Y-95941331D01*
X100850890Y-96348075D01*
X100765000Y-96779872D01*
X100660000Y-96779872D01*
X100660000Y-90381874D01*
X106680881Y-90381874D01*
X106697554Y-90436864D01*
X106787877Y-90640206D01*
X106916135Y-90822020D01*
X107077399Y-90975318D01*
X107265471Y-91094210D01*
X107473124Y-91174126D01*
X107648000Y-91049129D01*
X107648000Y-90207000D01*
X106807046Y-90207000D01*
X106680881Y-90381874D01*
X100660000Y-90381874D01*
X100660000Y-84500000D01*
X106636928Y-84500000D01*
X106636928Y-85500000D01*
X106649188Y-85624482D01*
X106685498Y-85744180D01*
X106729888Y-85827226D01*
X106683617Y-85938933D01*
X106640000Y-86158212D01*
X106640000Y-86381788D01*
X106683617Y-86601067D01*
X106769176Y-86807624D01*
X106834241Y-86905000D01*
X106769176Y-87002376D01*
X106683617Y-87208933D01*
X106640000Y-87428212D01*
X106640000Y-87651788D01*
X106683617Y-87871067D01*
X106769176Y-88077624D01*
X106834241Y-88175000D01*
X106769176Y-88272376D01*
X106683617Y-88478933D01*
X106640000Y-88698212D01*
X106640000Y-88921788D01*
X106683617Y-89141067D01*
X106769176Y-89347624D01*
X106837353Y-89449658D01*
X106787877Y-89519794D01*
X106697554Y-89723136D01*
X106680881Y-89778126D01*
X106807046Y-89953000D01*
X107648000Y-89953000D01*
X107648000Y-89941974D01*
X107663212Y-89945000D01*
X107886788Y-89945000D01*
X107902000Y-89941974D01*
X107902000Y-89953000D01*
X107913026Y-89953000D01*
X107910000Y-89968212D01*
X107910000Y-90191788D01*
X107913026Y-90207000D01*
X107902000Y-90207000D01*
X107902000Y-91049129D01*
X108076876Y-91174126D01*
X108284529Y-91094210D01*
X108405488Y-91017744D01*
X108507376Y-91085824D01*
X108713933Y-91171383D01*
X108933212Y-91215000D01*
X109156788Y-91215000D01*
X109376067Y-91171383D01*
X109582624Y-91085824D01*
X109768520Y-90961612D01*
X109926612Y-90803520D01*
X110050824Y-90617624D01*
X110136383Y-90411067D01*
X110180000Y-90191788D01*
X110180000Y-89968212D01*
X110136383Y-89748933D01*
X110050824Y-89542376D01*
X109985759Y-89445000D01*
X110050824Y-89347624D01*
X110136383Y-89141067D01*
X110180000Y-88921788D01*
X110180000Y-88698212D01*
X110136383Y-88478933D01*
X110050824Y-88272376D01*
X109982647Y-88170342D01*
X110032123Y-88100206D01*
X110122446Y-87896864D01*
X110139119Y-87841874D01*
X110012954Y-87667000D01*
X109172000Y-87667000D01*
X109172000Y-87678026D01*
X109156788Y-87675000D01*
X108933212Y-87675000D01*
X108918000Y-87678026D01*
X108918000Y-87667000D01*
X108906974Y-87667000D01*
X108910000Y-87651788D01*
X108910000Y-87428212D01*
X108906974Y-87413000D01*
X108918000Y-87413000D01*
X108918000Y-87401974D01*
X108933212Y-87405000D01*
X109156788Y-87405000D01*
X109172000Y-87401974D01*
X109172000Y-87413000D01*
X110012954Y-87413000D01*
X110139119Y-87238126D01*
X110122446Y-87183136D01*
X110032123Y-86979794D01*
X109982647Y-86909658D01*
X110022528Y-86849971D01*
X118511930Y-86849971D01*
X118511930Y-87749969D01*
X118524190Y-87874451D01*
X118560500Y-87994149D01*
X118619465Y-88104463D01*
X118698817Y-88201154D01*
X118795508Y-88280506D01*
X118905822Y-88339471D01*
X119025520Y-88375781D01*
X119150002Y-88388041D01*
X119200000Y-88388041D01*
X119200000Y-88444703D01*
X119233049Y-88610853D01*
X119297878Y-88767363D01*
X119391995Y-88908218D01*
X119511782Y-89028005D01*
X119652637Y-89122122D01*
X119809147Y-89186951D01*
X119975297Y-89220000D01*
X120144703Y-89220000D01*
X120310853Y-89186951D01*
X120467363Y-89122122D01*
X120608218Y-89028005D01*
X120728005Y-88908218D01*
X120822122Y-88767363D01*
X120886951Y-88610853D01*
X120920000Y-88444703D01*
X120920000Y-88381147D01*
X120974480Y-88375781D01*
X121094178Y-88339471D01*
X121204492Y-88280506D01*
X121301183Y-88201154D01*
X121380535Y-88104463D01*
X121439500Y-87994149D01*
X121475810Y-87874451D01*
X121488070Y-87749969D01*
X121488070Y-86849971D01*
X121475810Y-86725489D01*
X121439500Y-86605791D01*
X121380535Y-86495477D01*
X121301183Y-86398786D01*
X121204492Y-86319434D01*
X121094178Y-86260469D01*
X120974480Y-86224159D01*
X120849998Y-86211899D01*
X119150002Y-86211899D01*
X119025520Y-86224159D01*
X118905822Y-86260469D01*
X118795508Y-86319434D01*
X118698817Y-86398786D01*
X118619465Y-86495477D01*
X118560500Y-86605791D01*
X118524190Y-86725489D01*
X118511930Y-86849971D01*
X110022528Y-86849971D01*
X110050824Y-86807624D01*
X110136383Y-86601067D01*
X110180000Y-86381788D01*
X110180000Y-86158212D01*
X110136383Y-85938933D01*
X110050824Y-85732376D01*
X109985759Y-85635000D01*
X110050824Y-85537624D01*
X110136383Y-85331067D01*
X110180000Y-85111788D01*
X110180000Y-84888212D01*
X110136383Y-84668933D01*
X110050824Y-84462376D01*
X109926612Y-84276480D01*
X109768520Y-84118388D01*
X109582624Y-83994176D01*
X109376067Y-83908617D01*
X109156788Y-83865000D01*
X108933212Y-83865000D01*
X108713933Y-83908617D01*
X108602226Y-83954888D01*
X108519180Y-83910498D01*
X108399482Y-83874188D01*
X108275000Y-83861928D01*
X107275000Y-83861928D01*
X107150518Y-83874188D01*
X107030820Y-83910498D01*
X106920506Y-83969463D01*
X106823815Y-84048815D01*
X106744463Y-84145506D01*
X106685498Y-84255820D01*
X106649188Y-84375518D01*
X106636928Y-84500000D01*
X100660000Y-84500000D01*
X100660000Y-83150029D01*
X118511930Y-83150029D01*
X118524190Y-83274511D01*
X118560500Y-83394209D01*
X118619465Y-83504523D01*
X118698817Y-83601214D01*
X118795508Y-83680566D01*
X118905822Y-83739531D01*
X119025520Y-83775841D01*
X119150002Y-83788101D01*
X119714250Y-83785029D01*
X119873000Y-83626279D01*
X119873000Y-82827030D01*
X120127000Y-82827030D01*
X120127000Y-83626279D01*
X120285750Y-83785029D01*
X120849998Y-83788101D01*
X120974480Y-83775841D01*
X121094178Y-83739531D01*
X121204492Y-83680566D01*
X121301183Y-83601214D01*
X121380535Y-83504523D01*
X121439500Y-83394209D01*
X121475810Y-83274511D01*
X121488070Y-83150029D01*
X121484998Y-82985780D01*
X121326248Y-82827030D01*
X120127000Y-82827030D01*
X119873000Y-82827030D01*
X118673752Y-82827030D01*
X118515002Y-82985780D01*
X118511930Y-83150029D01*
X100660000Y-83150029D01*
X100660000Y-82250031D01*
X118511930Y-82250031D01*
X118515002Y-82414280D01*
X118673752Y-82573030D01*
X119873000Y-82573030D01*
X119873000Y-81773781D01*
X120127000Y-81773781D01*
X120127000Y-82573030D01*
X121326248Y-82573030D01*
X121484998Y-82414280D01*
X121488070Y-82250031D01*
X121475810Y-82125549D01*
X121439500Y-82005851D01*
X121380535Y-81895537D01*
X121301183Y-81798846D01*
X121204492Y-81719494D01*
X121094178Y-81660529D01*
X120974480Y-81624219D01*
X120849998Y-81611959D01*
X120285750Y-81615031D01*
X120127000Y-81773781D01*
X119873000Y-81773781D01*
X119714250Y-81615031D01*
X119150002Y-81611959D01*
X119025520Y-81624219D01*
X118905822Y-81660529D01*
X118795508Y-81719494D01*
X118698817Y-81798846D01*
X118619465Y-81895537D01*
X118560500Y-82005851D01*
X118524190Y-82125549D01*
X118511930Y-82250031D01*
X100660000Y-82250031D01*
X100660000Y-78875000D01*
X101509509Y-78875000D01*
X101531423Y-79097499D01*
X101596324Y-79311447D01*
X101701716Y-79508623D01*
X101843551Y-79681449D01*
X102016377Y-79823284D01*
X102213553Y-79928676D01*
X102427501Y-79993577D01*
X102594248Y-80010000D01*
X103505752Y-80010000D01*
X103672499Y-79993577D01*
X103886447Y-79928676D01*
X104083623Y-79823284D01*
X104256449Y-79681449D01*
X104398284Y-79508623D01*
X104503676Y-79311447D01*
X104568577Y-79097499D01*
X104590491Y-78875000D01*
X104568577Y-78652501D01*
X104503676Y-78438553D01*
X104398284Y-78241377D01*
X104256449Y-78068551D01*
X104083623Y-77926716D01*
X103886447Y-77821324D01*
X103672499Y-77756423D01*
X103505752Y-77740000D01*
X102594248Y-77740000D01*
X102427501Y-77756423D01*
X102213553Y-77821324D01*
X102016377Y-77926716D01*
X101843551Y-78068551D01*
X101701716Y-78241377D01*
X101596324Y-78438553D01*
X101531423Y-78652501D01*
X101509509Y-78875000D01*
X100660000Y-78875000D01*
X100660000Y-71125000D01*
X101509509Y-71125000D01*
X101531423Y-71347499D01*
X101596324Y-71561447D01*
X101701716Y-71758623D01*
X101843551Y-71931449D01*
X102016377Y-72073284D01*
X102213553Y-72178676D01*
X102427501Y-72243577D01*
X102594248Y-72260000D01*
X103505752Y-72260000D01*
X103672499Y-72243577D01*
X103886447Y-72178676D01*
X104083623Y-72073284D01*
X104256449Y-71931449D01*
X104398284Y-71758623D01*
X104503676Y-71561447D01*
X104568577Y-71347499D01*
X104590491Y-71125000D01*
X104568577Y-70902501D01*
X104503676Y-70688553D01*
X104398284Y-70491377D01*
X104256449Y-70318551D01*
X104083623Y-70176716D01*
X103886447Y-70071324D01*
X103672499Y-70006423D01*
X103505752Y-69990000D01*
X102594248Y-69990000D01*
X102427501Y-70006423D01*
X102213553Y-70071324D01*
X102016377Y-70176716D01*
X101843551Y-70318551D01*
X101701716Y-70491377D01*
X101596324Y-70688553D01*
X101531423Y-70902501D01*
X101509509Y-71125000D01*
X100660000Y-71125000D01*
X100660000Y-63430000D01*
X100831928Y-63430000D01*
X100844188Y-63554482D01*
X100880498Y-63674180D01*
X100939463Y-63784494D01*
X100976809Y-63830000D01*
X100939463Y-63875506D01*
X100880498Y-63985820D01*
X100844188Y-64105518D01*
X100831928Y-64230000D01*
X100831928Y-65730000D01*
X100844188Y-65854482D01*
X100880498Y-65974180D01*
X100939463Y-66084494D01*
X100976809Y-66130000D01*
X100939463Y-66175506D01*
X100880498Y-66285820D01*
X100844188Y-66405518D01*
X100831928Y-66530000D01*
X100831928Y-68030000D01*
X100844188Y-68154482D01*
X100880498Y-68274180D01*
X100939463Y-68384494D01*
X101018815Y-68481185D01*
X101115506Y-68560537D01*
X101225820Y-68619502D01*
X101345518Y-68655812D01*
X101470000Y-68668072D01*
X103470000Y-68668072D01*
X103594482Y-68655812D01*
X103714180Y-68619502D01*
X103824494Y-68560537D01*
X103921185Y-68481185D01*
X104000537Y-68384494D01*
X104059502Y-68274180D01*
X104095812Y-68154482D01*
X104097238Y-68140000D01*
X105613777Y-68140000D01*
X107655325Y-70181548D01*
X107572499Y-70156423D01*
X107405752Y-70140000D01*
X106294248Y-70140000D01*
X106127501Y-70156423D01*
X105913553Y-70221324D01*
X105716377Y-70326716D01*
X105543551Y-70468551D01*
X105401716Y-70641377D01*
X105296324Y-70838553D01*
X105231423Y-71052501D01*
X105209509Y-71275000D01*
X105231423Y-71497499D01*
X105266136Y-71611933D01*
X105140226Y-71696063D01*
X104996063Y-71840226D01*
X104882795Y-72009744D01*
X104804774Y-72198102D01*
X104765000Y-72398061D01*
X104765000Y-72601939D01*
X104804774Y-72801898D01*
X104882795Y-72990256D01*
X104996063Y-73159774D01*
X105140226Y-73303937D01*
X105309744Y-73417205D01*
X105498102Y-73495226D01*
X105611928Y-73517867D01*
X105611928Y-73925000D01*
X105621777Y-74025000D01*
X105611928Y-74125000D01*
X105611928Y-74575000D01*
X105621777Y-74675000D01*
X105611928Y-74775000D01*
X105611928Y-75225000D01*
X105621777Y-75325000D01*
X105611928Y-75425000D01*
X105611928Y-75875000D01*
X105622118Y-75978465D01*
X105615000Y-76043250D01*
X105647247Y-76075497D01*
X105660498Y-76119180D01*
X105719463Y-76229494D01*
X105798815Y-76326185D01*
X105886322Y-76398000D01*
X105773750Y-76398000D01*
X105706750Y-76465000D01*
X105698061Y-76465000D01*
X105498102Y-76504774D01*
X105309744Y-76582795D01*
X105140226Y-76696063D01*
X104996063Y-76840226D01*
X104882795Y-77009744D01*
X104804774Y-77198102D01*
X104765000Y-77398061D01*
X104765000Y-77601939D01*
X104804774Y-77801898D01*
X104882795Y-77990256D01*
X104996063Y-78159774D01*
X105140226Y-78303937D01*
X105266136Y-78388067D01*
X105231423Y-78502501D01*
X105209509Y-78725000D01*
X105231423Y-78947499D01*
X105296324Y-79161447D01*
X105401716Y-79358623D01*
X105543551Y-79531449D01*
X105716377Y-79673284D01*
X105913553Y-79778676D01*
X106127501Y-79843577D01*
X106294248Y-79860000D01*
X107405752Y-79860000D01*
X107572499Y-79843577D01*
X107786447Y-79778676D01*
X107983623Y-79673284D01*
X108139575Y-79545297D01*
X114820000Y-79545297D01*
X114820000Y-79714703D01*
X114853049Y-79880853D01*
X114917878Y-80037363D01*
X115011995Y-80178218D01*
X115131782Y-80298005D01*
X115272637Y-80392122D01*
X115429147Y-80456951D01*
X115595297Y-80490000D01*
X115764703Y-80490000D01*
X115930853Y-80456951D01*
X116087363Y-80392122D01*
X116228218Y-80298005D01*
X116348005Y-80178218D01*
X116442122Y-80037363D01*
X116506951Y-79880853D01*
X116516475Y-79832971D01*
X118314477Y-78034970D01*
X118582320Y-78034970D01*
X118619465Y-78104463D01*
X118698817Y-78201154D01*
X118795508Y-78280506D01*
X118905822Y-78339471D01*
X119025520Y-78375781D01*
X119150002Y-78388041D01*
X120849998Y-78388041D01*
X120974480Y-78375781D01*
X121094178Y-78339471D01*
X121204492Y-78280506D01*
X121301183Y-78201154D01*
X121380535Y-78104463D01*
X121439500Y-77994149D01*
X121475810Y-77874451D01*
X121488070Y-77749969D01*
X121488070Y-76849971D01*
X121475810Y-76725489D01*
X121439500Y-76605791D01*
X121380535Y-76495477D01*
X121301183Y-76398786D01*
X121204492Y-76319434D01*
X121094178Y-76260469D01*
X120974480Y-76224159D01*
X120849998Y-76211899D01*
X119150002Y-76211899D01*
X119025520Y-76224159D01*
X118905822Y-76260469D01*
X118795508Y-76319434D01*
X118698817Y-76398786D01*
X118619465Y-76495477D01*
X118582320Y-76564970D01*
X118046134Y-76564970D01*
X118010029Y-76561414D01*
X117865944Y-76575605D01*
X117823916Y-76588354D01*
X117727397Y-76617633D01*
X117599710Y-76685883D01*
X117487792Y-76777732D01*
X117464776Y-76805777D01*
X115477029Y-78793525D01*
X115429147Y-78803049D01*
X115272637Y-78867878D01*
X115131782Y-78961995D01*
X115011995Y-79081782D01*
X114917878Y-79222637D01*
X114853049Y-79379147D01*
X114820000Y-79545297D01*
X108139575Y-79545297D01*
X108156449Y-79531449D01*
X108298284Y-79358623D01*
X108403676Y-79161447D01*
X108468577Y-78947499D01*
X108490491Y-78725000D01*
X108468577Y-78502501D01*
X108403676Y-78288553D01*
X108298284Y-78091377D01*
X108156449Y-77918551D01*
X107983623Y-77776716D01*
X107786447Y-77671324D01*
X107572499Y-77606423D01*
X107405752Y-77590000D01*
X106835000Y-77590000D01*
X106835000Y-77398061D01*
X106795226Y-77198102D01*
X106731059Y-77043191D01*
X106773000Y-77001250D01*
X106773000Y-76513072D01*
X107027000Y-76513072D01*
X107027000Y-77001250D01*
X107185750Y-77160000D01*
X107539532Y-77162986D01*
X107664198Y-77152770D01*
X107784475Y-77118428D01*
X107895742Y-77061282D01*
X107993722Y-76983526D01*
X108074650Y-76888150D01*
X108135416Y-76778818D01*
X108173685Y-76659732D01*
X108185000Y-76556750D01*
X108026250Y-76398000D01*
X107913678Y-76398000D01*
X108001185Y-76326185D01*
X108080537Y-76229494D01*
X108139502Y-76119180D01*
X108152753Y-76075497D01*
X108185000Y-76043250D01*
X108177882Y-75978465D01*
X108188072Y-75875000D01*
X108188072Y-75425000D01*
X108178223Y-75325000D01*
X108188072Y-75225000D01*
X108188072Y-74775000D01*
X108178223Y-74675000D01*
X108188072Y-74575000D01*
X108188072Y-74554501D01*
X108258589Y-74547556D01*
X108420700Y-74498381D01*
X108570102Y-74418524D01*
X108701054Y-74311054D01*
X108727988Y-74278236D01*
X109528241Y-73477982D01*
X109561054Y-73451054D01*
X109587991Y-73418232D01*
X109634244Y-73361872D01*
X109668524Y-73320102D01*
X109722084Y-73219898D01*
X109748381Y-73170701D01*
X109754651Y-73150029D01*
X118511930Y-73150029D01*
X118524190Y-73274511D01*
X118560500Y-73394209D01*
X118619465Y-73504523D01*
X118698817Y-73601214D01*
X118795508Y-73680566D01*
X118905822Y-73739531D01*
X119025520Y-73775841D01*
X119150002Y-73788101D01*
X119714250Y-73785029D01*
X119873000Y-73626279D01*
X119873000Y-72827030D01*
X120127000Y-72827030D01*
X120127000Y-73626279D01*
X120285750Y-73785029D01*
X120849998Y-73788101D01*
X120974480Y-73775841D01*
X121094178Y-73739531D01*
X121204492Y-73680566D01*
X121301183Y-73601214D01*
X121380535Y-73504523D01*
X121439500Y-73394209D01*
X121475810Y-73274511D01*
X121488070Y-73150029D01*
X121484998Y-72985780D01*
X121326248Y-72827030D01*
X120127000Y-72827030D01*
X119873000Y-72827030D01*
X118673752Y-72827030D01*
X118515002Y-72985780D01*
X118511930Y-73150029D01*
X109754651Y-73150029D01*
X109797556Y-73008590D01*
X109814161Y-72840000D01*
X109810000Y-72797754D01*
X109810000Y-72250031D01*
X118511930Y-72250031D01*
X118515002Y-72414280D01*
X118673752Y-72573030D01*
X119873000Y-72573030D01*
X119873000Y-71773781D01*
X120127000Y-71773781D01*
X120127000Y-72573030D01*
X121326248Y-72573030D01*
X121484998Y-72414280D01*
X121488070Y-72250031D01*
X121475810Y-72125549D01*
X121439500Y-72005851D01*
X121380535Y-71895537D01*
X121301183Y-71798846D01*
X121204492Y-71719494D01*
X121094178Y-71660529D01*
X120974480Y-71624219D01*
X120849998Y-71611959D01*
X120285750Y-71615031D01*
X120127000Y-71773781D01*
X119873000Y-71773781D01*
X119714250Y-71615031D01*
X119150002Y-71611959D01*
X119025520Y-71624219D01*
X118905822Y-71660529D01*
X118795508Y-71719494D01*
X118698817Y-71798846D01*
X118619465Y-71895537D01*
X118560500Y-72005851D01*
X118524190Y-72125549D01*
X118511930Y-72250031D01*
X109810000Y-72250031D01*
X109810000Y-70697500D01*
X111081928Y-70697500D01*
X111081928Y-70775002D01*
X111098992Y-70948256D01*
X111149528Y-71114852D01*
X111231595Y-71268387D01*
X111342038Y-71402962D01*
X111476613Y-71513405D01*
X111630148Y-71595472D01*
X111796744Y-71646008D01*
X111969998Y-71663072D01*
X114170002Y-71663072D01*
X114343256Y-71646008D01*
X114509852Y-71595472D01*
X114663387Y-71513405D01*
X114797962Y-71402962D01*
X114908405Y-71268387D01*
X114990472Y-71114852D01*
X115041008Y-70948256D01*
X115044529Y-70912500D01*
X123196928Y-70912500D01*
X123209188Y-71036982D01*
X123245498Y-71156680D01*
X123304463Y-71266994D01*
X123383815Y-71363685D01*
X123480506Y-71443037D01*
X123590820Y-71502002D01*
X123710518Y-71538312D01*
X123835000Y-71550572D01*
X124274250Y-71547500D01*
X124433000Y-71388750D01*
X124433000Y-70452000D01*
X124687000Y-70452000D01*
X124687000Y-71388750D01*
X124845750Y-71547500D01*
X125285000Y-71550572D01*
X125409482Y-71538312D01*
X125529180Y-71502002D01*
X125639494Y-71443037D01*
X125736185Y-71363685D01*
X125815537Y-71266994D01*
X125874502Y-71156680D01*
X125910812Y-71036982D01*
X125923072Y-70912500D01*
X125920000Y-70610750D01*
X125761250Y-70452000D01*
X124687000Y-70452000D01*
X124433000Y-70452000D01*
X123358750Y-70452000D01*
X123200000Y-70610750D01*
X123196928Y-70912500D01*
X115044529Y-70912500D01*
X115058072Y-70775002D01*
X115058072Y-69949998D01*
X115041008Y-69776744D01*
X114990472Y-69610148D01*
X114908405Y-69456613D01*
X114797962Y-69322038D01*
X114663387Y-69211595D01*
X114509852Y-69129528D01*
X114343256Y-69078992D01*
X114170002Y-69061928D01*
X113443373Y-69061928D01*
X113400700Y-69039119D01*
X113238589Y-68989944D01*
X113112246Y-68977500D01*
X109484738Y-68977500D01*
X109442499Y-68973340D01*
X109400260Y-68977500D01*
X109400254Y-68977500D01*
X109291058Y-68988255D01*
X109273910Y-68989944D01*
X109224735Y-69004861D01*
X109111800Y-69039119D01*
X109003324Y-69097101D01*
X107806223Y-67900000D01*
X111081928Y-67900000D01*
X111094188Y-68024482D01*
X111130498Y-68144180D01*
X111189463Y-68254494D01*
X111268815Y-68351185D01*
X111365506Y-68430537D01*
X111475820Y-68489502D01*
X111595518Y-68525812D01*
X111720000Y-68538072D01*
X112784250Y-68535000D01*
X112943000Y-68376250D01*
X112943000Y-67364500D01*
X113197000Y-67364500D01*
X113197000Y-68376250D01*
X113355750Y-68535000D01*
X114420000Y-68538072D01*
X114544482Y-68525812D01*
X114664180Y-68489502D01*
X114774494Y-68430537D01*
X114871185Y-68351185D01*
X114950537Y-68254494D01*
X115009502Y-68144180D01*
X115045812Y-68024482D01*
X115058072Y-67900000D01*
X115056849Y-67749969D01*
X118511930Y-67749969D01*
X118524190Y-67874451D01*
X118560500Y-67994149D01*
X118619465Y-68104463D01*
X118698817Y-68201154D01*
X118795508Y-68280506D01*
X118905822Y-68339471D01*
X119025520Y-68375781D01*
X119150002Y-68388041D01*
X119714250Y-68384969D01*
X119873000Y-68226219D01*
X119873000Y-67426970D01*
X120127000Y-67426970D01*
X120127000Y-68226219D01*
X120285750Y-68384969D01*
X120849998Y-68388041D01*
X120974480Y-68375781D01*
X121094178Y-68339471D01*
X121204492Y-68280506D01*
X121301183Y-68201154D01*
X121380535Y-68104463D01*
X121439500Y-67994149D01*
X121475810Y-67874451D01*
X121481635Y-67815297D01*
X122130000Y-67815297D01*
X122130000Y-67984703D01*
X122163049Y-68150853D01*
X122227878Y-68307363D01*
X122321995Y-68448218D01*
X122441782Y-68568005D01*
X122582637Y-68662122D01*
X122683918Y-68704074D01*
X122757649Y-68777805D01*
X122782236Y-68807764D01*
X122901767Y-68905862D01*
X123028011Y-68973340D01*
X123038140Y-68978754D01*
X123186113Y-69023642D01*
X123261026Y-69031020D01*
X123301439Y-69035000D01*
X123301444Y-69035000D01*
X123323214Y-69037144D01*
X123346595Y-69080886D01*
X123457038Y-69215462D01*
X123463594Y-69220842D01*
X123383815Y-69286315D01*
X123304463Y-69383006D01*
X123245498Y-69493320D01*
X123209188Y-69613018D01*
X123196928Y-69737500D01*
X123200000Y-70039250D01*
X123358750Y-70198000D01*
X124433000Y-70198000D01*
X124433000Y-70178000D01*
X124687000Y-70178000D01*
X124687000Y-70198000D01*
X125761250Y-70198000D01*
X125920000Y-70039250D01*
X125923072Y-69737500D01*
X125910812Y-69613018D01*
X125874502Y-69493320D01*
X125815537Y-69383006D01*
X125736185Y-69286315D01*
X125656406Y-69220842D01*
X125662962Y-69215462D01*
X125773405Y-69080886D01*
X125855472Y-68927350D01*
X125906008Y-68760754D01*
X125923072Y-68587500D01*
X125923072Y-67912500D01*
X125906008Y-67739246D01*
X125855472Y-67572650D01*
X125773405Y-67419114D01*
X125662962Y-67284538D01*
X125528386Y-67174095D01*
X125374850Y-67092028D01*
X125208254Y-67041492D01*
X125035000Y-67024428D01*
X124085000Y-67024428D01*
X123911746Y-67041492D01*
X123745150Y-67092028D01*
X123591614Y-67174095D01*
X123528762Y-67225676D01*
X123397363Y-67137878D01*
X123240853Y-67073049D01*
X123074703Y-67040000D01*
X122905297Y-67040000D01*
X122739147Y-67073049D01*
X122582637Y-67137878D01*
X122441782Y-67231995D01*
X122321995Y-67351782D01*
X122227878Y-67492637D01*
X122163049Y-67649147D01*
X122130000Y-67815297D01*
X121481635Y-67815297D01*
X121488070Y-67749969D01*
X121484998Y-67585720D01*
X121326248Y-67426970D01*
X120127000Y-67426970D01*
X119873000Y-67426970D01*
X118673752Y-67426970D01*
X118515002Y-67585720D01*
X118511930Y-67749969D01*
X115056849Y-67749969D01*
X115055000Y-67523250D01*
X114896250Y-67364500D01*
X113197000Y-67364500D01*
X112943000Y-67364500D01*
X111243750Y-67364500D01*
X111085000Y-67523250D01*
X111081928Y-67900000D01*
X107806223Y-67900000D01*
X106607988Y-66701765D01*
X106581054Y-66668946D01*
X106450102Y-66561476D01*
X106300700Y-66481619D01*
X106138589Y-66432444D01*
X106012246Y-66420000D01*
X106012239Y-66420000D01*
X105970000Y-66415840D01*
X105927761Y-66420000D01*
X104097238Y-66420000D01*
X104095812Y-66405518D01*
X104059502Y-66285820D01*
X104000537Y-66175506D01*
X103963191Y-66130000D01*
X104000537Y-66084494D01*
X104059502Y-65974180D01*
X104095812Y-65854482D01*
X104097238Y-65840000D01*
X107131928Y-65840000D01*
X107131928Y-66880000D01*
X107144188Y-67004482D01*
X107180498Y-67124180D01*
X107239463Y-67234494D01*
X107318815Y-67331185D01*
X107415506Y-67410537D01*
X107525820Y-67469502D01*
X107645518Y-67505812D01*
X107770000Y-67518072D01*
X109770000Y-67518072D01*
X109894482Y-67505812D01*
X109914886Y-67499622D01*
X110029147Y-67546951D01*
X110195297Y-67580000D01*
X110364703Y-67580000D01*
X110530853Y-67546951D01*
X110687363Y-67482122D01*
X110828218Y-67388005D01*
X110948005Y-67268218D01*
X111042122Y-67127363D01*
X111106117Y-66972867D01*
X111243750Y-67110500D01*
X112943000Y-67110500D01*
X112943000Y-66098750D01*
X113197000Y-66098750D01*
X113197000Y-67110500D01*
X114896250Y-67110500D01*
X115055000Y-66951750D01*
X115055829Y-66849971D01*
X118511930Y-66849971D01*
X118515002Y-67014220D01*
X118673752Y-67172970D01*
X119873000Y-67172970D01*
X119873000Y-66373721D01*
X120127000Y-66373721D01*
X120127000Y-67172970D01*
X121326248Y-67172970D01*
X121484998Y-67014220D01*
X121488070Y-66849971D01*
X121475810Y-66725489D01*
X121439500Y-66605791D01*
X121380535Y-66495477D01*
X121301183Y-66398786D01*
X121204492Y-66319434D01*
X121094178Y-66260469D01*
X120974480Y-66224159D01*
X120849998Y-66211899D01*
X120285750Y-66214971D01*
X120127000Y-66373721D01*
X119873000Y-66373721D01*
X119714250Y-66214971D01*
X119150002Y-66211899D01*
X119025520Y-66224159D01*
X118905822Y-66260469D01*
X118795508Y-66319434D01*
X118698817Y-66398786D01*
X118619465Y-66495477D01*
X118560500Y-66605791D01*
X118524190Y-66725489D01*
X118511930Y-66849971D01*
X115055829Y-66849971D01*
X115058072Y-66575000D01*
X115045812Y-66450518D01*
X115009502Y-66330820D01*
X114950537Y-66220506D01*
X114871185Y-66123815D01*
X114774494Y-66044463D01*
X114664180Y-65985498D01*
X114544482Y-65949188D01*
X114420000Y-65936928D01*
X113355750Y-65940000D01*
X113197000Y-66098750D01*
X112943000Y-66098750D01*
X112784250Y-65940000D01*
X111720000Y-65936928D01*
X111595518Y-65949188D01*
X111475820Y-65985498D01*
X111365506Y-66044463D01*
X111268815Y-66123815D01*
X111189463Y-66220506D01*
X111130498Y-66330820D01*
X111096321Y-66443485D01*
X111042122Y-66312637D01*
X110948005Y-66171782D01*
X110828218Y-66051995D01*
X110687363Y-65957878D01*
X110530853Y-65893049D01*
X110408072Y-65868627D01*
X110408072Y-65764063D01*
X110513887Y-65753641D01*
X110661860Y-65708754D01*
X110662065Y-65708645D01*
X110720853Y-65696951D01*
X110877363Y-65632122D01*
X111018218Y-65538005D01*
X111138005Y-65418218D01*
X111232122Y-65277363D01*
X111296951Y-65120853D01*
X111330000Y-64954703D01*
X111330000Y-64785297D01*
X111296951Y-64619147D01*
X111232122Y-64462637D01*
X111138005Y-64321782D01*
X111018218Y-64201995D01*
X110877363Y-64107878D01*
X110720853Y-64043049D01*
X110701048Y-64039110D01*
X110997817Y-63742341D01*
X111027764Y-63717764D01*
X111125862Y-63598233D01*
X111198754Y-63461860D01*
X111243641Y-63313887D01*
X111244201Y-63308202D01*
X111296951Y-63180853D01*
X111330000Y-63014703D01*
X111330000Y-62845297D01*
X111296951Y-62679147D01*
X111232122Y-62522637D01*
X111138005Y-62381782D01*
X111018218Y-62261995D01*
X111000313Y-62250031D01*
X118511930Y-62250031D01*
X118511930Y-63150029D01*
X118524190Y-63274511D01*
X118560500Y-63394209D01*
X118619465Y-63504523D01*
X118698817Y-63601214D01*
X118795508Y-63680566D01*
X118905822Y-63739531D01*
X119025520Y-63775841D01*
X119150002Y-63788101D01*
X120849998Y-63788101D01*
X120974480Y-63775841D01*
X121094178Y-63739531D01*
X121204492Y-63680566D01*
X121301183Y-63601214D01*
X121380535Y-63504523D01*
X121439500Y-63394209D01*
X121475810Y-63274511D01*
X121488070Y-63150029D01*
X121488070Y-62250031D01*
X121475810Y-62125549D01*
X121439500Y-62005851D01*
X121380535Y-61895537D01*
X121301183Y-61798846D01*
X121204492Y-61719494D01*
X121094178Y-61660529D01*
X120974480Y-61624219D01*
X120849998Y-61611959D01*
X120530000Y-61611959D01*
X120530000Y-61445297D01*
X120496951Y-61279147D01*
X120432122Y-61122637D01*
X120338005Y-60981782D01*
X120218218Y-60861995D01*
X120077363Y-60767878D01*
X119920853Y-60703049D01*
X119754703Y-60670000D01*
X119585297Y-60670000D01*
X119419147Y-60703049D01*
X119262637Y-60767878D01*
X119121782Y-60861995D01*
X119001995Y-60981782D01*
X118907878Y-61122637D01*
X118843049Y-61279147D01*
X118810000Y-61445297D01*
X118810000Y-61614703D01*
X118827448Y-61702421D01*
X118795508Y-61719494D01*
X118698817Y-61798846D01*
X118619465Y-61895537D01*
X118560500Y-62005851D01*
X118524190Y-62125549D01*
X118511930Y-62250031D01*
X111000313Y-62250031D01*
X110877363Y-62167878D01*
X110720853Y-62103049D01*
X110554703Y-62070000D01*
X110385297Y-62070000D01*
X110219147Y-62103049D01*
X110062637Y-62167878D01*
X109921782Y-62261995D01*
X109801995Y-62381782D01*
X109761806Y-62441928D01*
X107770000Y-62441928D01*
X107687500Y-62450053D01*
X107687500Y-60441303D01*
X107696008Y-60413256D01*
X107713072Y-60240002D01*
X107713072Y-58039998D01*
X107696008Y-57866744D01*
X107645472Y-57700148D01*
X107563405Y-57546613D01*
X107452962Y-57412038D01*
X107318387Y-57301595D01*
X107164852Y-57219528D01*
X106998256Y-57168992D01*
X106825002Y-57151928D01*
X105999998Y-57151928D01*
X105826744Y-57168992D01*
X105660148Y-57219528D01*
X105506613Y-57301595D01*
X105372038Y-57412038D01*
X105261595Y-57546613D01*
X105179528Y-57700148D01*
X105128992Y-57866744D01*
X105111928Y-58039998D01*
X105111928Y-60240002D01*
X105128992Y-60413256D01*
X105179528Y-60579852D01*
X105261595Y-60733387D01*
X105372038Y-60867962D01*
X105506613Y-60978405D01*
X105660148Y-61060472D01*
X105826744Y-61111008D01*
X105967501Y-61124871D01*
X105967501Y-62995251D01*
X105963340Y-63037500D01*
X105979944Y-63206089D01*
X106029120Y-63368200D01*
X106108977Y-63517602D01*
X106180037Y-63604188D01*
X106216447Y-63648554D01*
X106249260Y-63675483D01*
X106693777Y-64120000D01*
X104097238Y-64120000D01*
X104095812Y-64105518D01*
X104059502Y-63985820D01*
X104000537Y-63875506D01*
X103963191Y-63830000D01*
X104000537Y-63784494D01*
X104059502Y-63674180D01*
X104095812Y-63554482D01*
X104108072Y-63430000D01*
X104105000Y-62965750D01*
X103946250Y-62807000D01*
X102597000Y-62807000D01*
X102597000Y-62827000D01*
X102343000Y-62827000D01*
X102343000Y-62807000D01*
X100993750Y-62807000D01*
X100835000Y-62965750D01*
X100831928Y-63430000D01*
X100660000Y-63430000D01*
X100660000Y-61930000D01*
X100831928Y-61930000D01*
X100835000Y-62394250D01*
X100993750Y-62553000D01*
X102343000Y-62553000D01*
X102343000Y-61453750D01*
X102597000Y-61453750D01*
X102597000Y-62553000D01*
X103946250Y-62553000D01*
X104105000Y-62394250D01*
X104108072Y-61930000D01*
X104095812Y-61805518D01*
X104059502Y-61685820D01*
X104000537Y-61575506D01*
X103921185Y-61478815D01*
X103824494Y-61399463D01*
X103714180Y-61340498D01*
X103594482Y-61304188D01*
X103470000Y-61291928D01*
X102755750Y-61295000D01*
X102597000Y-61453750D01*
X102343000Y-61453750D01*
X102184250Y-61295000D01*
X101470000Y-61291928D01*
X101345518Y-61304188D01*
X101225820Y-61340498D01*
X101115506Y-61399463D01*
X101018815Y-61478815D01*
X100939463Y-61575506D01*
X100880498Y-61685820D01*
X100844188Y-61805518D01*
X100831928Y-61930000D01*
X100660000Y-61930000D01*
X100660000Y-60490000D01*
X101986928Y-60490000D01*
X101999188Y-60614482D01*
X102035498Y-60734180D01*
X102094463Y-60844494D01*
X102173815Y-60941185D01*
X102270506Y-61020537D01*
X102380820Y-61079502D01*
X102500518Y-61115812D01*
X102625000Y-61128072D01*
X103001750Y-61125000D01*
X103160500Y-60966250D01*
X103160500Y-59267000D01*
X103414500Y-59267000D01*
X103414500Y-60966250D01*
X103573250Y-61125000D01*
X103950000Y-61128072D01*
X104074482Y-61115812D01*
X104194180Y-61079502D01*
X104304494Y-61020537D01*
X104401185Y-60941185D01*
X104480537Y-60844494D01*
X104539502Y-60734180D01*
X104575812Y-60614482D01*
X104588072Y-60490000D01*
X104585000Y-59425750D01*
X104426250Y-59267000D01*
X103414500Y-59267000D01*
X103160500Y-59267000D01*
X102148750Y-59267000D01*
X101990000Y-59425750D01*
X101986928Y-60490000D01*
X100660000Y-60490000D01*
X100660000Y-57790000D01*
X101986928Y-57790000D01*
X101990000Y-58854250D01*
X102148750Y-59013000D01*
X103160500Y-59013000D01*
X103160500Y-57313750D01*
X103414500Y-57313750D01*
X103414500Y-59013000D01*
X104426250Y-59013000D01*
X104585000Y-58854250D01*
X104588072Y-57790000D01*
X104575812Y-57665518D01*
X104539502Y-57545820D01*
X104480537Y-57435506D01*
X104401185Y-57338815D01*
X104304494Y-57259463D01*
X104194180Y-57200498D01*
X104074482Y-57164188D01*
X103950000Y-57151928D01*
X103573250Y-57155000D01*
X103414500Y-57313750D01*
X103160500Y-57313750D01*
X103001750Y-57155000D01*
X102625000Y-57151928D01*
X102500518Y-57164188D01*
X102380820Y-57200498D01*
X102270506Y-57259463D01*
X102173815Y-57338815D01*
X102094463Y-57435506D01*
X102035498Y-57545820D01*
X101999188Y-57665518D01*
X101986928Y-57790000D01*
X100660000Y-57790000D01*
X100660000Y-53032279D01*
X100684748Y-52779872D01*
X100765000Y-52779872D01*
X100765000Y-53220128D01*
X100850890Y-53651925D01*
X101019369Y-54058669D01*
X101263962Y-54424729D01*
X101575271Y-54736038D01*
X101941331Y-54980631D01*
X102348075Y-55149110D01*
X102779872Y-55235000D01*
X103220128Y-55235000D01*
X103651925Y-55149110D01*
X104058669Y-54980631D01*
X104424729Y-54736038D01*
X104736038Y-54424729D01*
X104980631Y-54058669D01*
X105149110Y-53651925D01*
X105235000Y-53220128D01*
X105235000Y-52779872D01*
X105149110Y-52348075D01*
X104980631Y-51941331D01*
X104736038Y-51575271D01*
X104424729Y-51263962D01*
X104058669Y-51019369D01*
X103651925Y-50850890D01*
X103220128Y-50765000D01*
X102779872Y-50765000D01*
X102348075Y-50850890D01*
X101941331Y-51019369D01*
X101575271Y-51263962D01*
X101263962Y-51575271D01*
X101019369Y-51941331D01*
X100850890Y-52348075D01*
X100765000Y-52779872D01*
X100684748Y-52779872D01*
X100707670Y-52546107D01*
X100839489Y-52109502D01*
X101053600Y-51706815D01*
X101341848Y-51353388D01*
X101693261Y-51062673D01*
X102094439Y-50845758D01*
X102530113Y-50710894D01*
X103014344Y-50660000D01*
X113118603Y-50660000D01*
X112856842Y-50712068D01*
%TA.AperFunction,Conductor*%
D27*
G36*
X112856842Y-50712068D02*
G01*
X112586589Y-50824010D01*
X112343368Y-50986525D01*
X112136525Y-51193368D01*
X111974010Y-51436589D01*
X111862068Y-51706842D01*
X111805000Y-51993740D01*
X111805000Y-52286260D01*
X111862068Y-52573158D01*
X111974010Y-52843411D01*
X112136525Y-53086632D01*
X112268380Y-53218487D01*
X112195820Y-53240498D01*
X112085506Y-53299463D01*
X111988815Y-53378815D01*
X111909463Y-53475506D01*
X111850498Y-53585820D01*
X111814188Y-53705518D01*
X111801928Y-53830000D01*
X111801928Y-55530000D01*
X111814188Y-55654482D01*
X111850498Y-55774180D01*
X111909463Y-55884494D01*
X111988815Y-55981185D01*
X112085506Y-56060537D01*
X112195820Y-56119502D01*
X112315518Y-56155812D01*
X112440000Y-56168072D01*
X112555001Y-56168072D01*
X112555000Y-57863895D01*
X112551444Y-57900000D01*
X112565635Y-58044084D01*
X112607663Y-58182632D01*
X112675913Y-58310319D01*
X112767762Y-58422237D01*
X112795808Y-58445254D01*
X114733055Y-60382502D01*
X114778577Y-60532567D01*
X114859488Y-60683942D01*
X114968377Y-60816623D01*
X115101058Y-60925512D01*
X115252433Y-61006423D01*
X115416684Y-61056248D01*
X115587500Y-61073072D01*
X116162500Y-61073072D01*
X116333316Y-61056248D01*
X116497567Y-61006423D01*
X116648942Y-60925512D01*
X116750000Y-60842575D01*
X116851058Y-60925512D01*
X117002433Y-61006423D01*
X117166684Y-61056248D01*
X117337500Y-61073072D01*
X117912500Y-61073072D01*
X118083316Y-61056248D01*
X118247567Y-61006423D01*
X118398942Y-60925512D01*
X118531623Y-60816623D01*
X118640512Y-60683942D01*
X118721423Y-60532567D01*
X118771248Y-60368316D01*
X118788072Y-60197500D01*
X118788072Y-59722500D01*
X118771248Y-59551684D01*
X118721423Y-59387433D01*
X118640512Y-59236058D01*
X118531623Y-59103377D01*
X118398942Y-58994488D01*
X118247567Y-58913577D01*
X118083316Y-58863752D01*
X117912500Y-58846928D01*
X117551374Y-58846928D01*
X117459920Y-58755474D01*
X117529278Y-58625716D01*
X117576969Y-58468500D01*
X117593072Y-58305000D01*
X117593072Y-57755000D01*
X117576969Y-57591500D01*
X117553293Y-57513450D01*
X121137653Y-61097810D01*
X121162236Y-61127764D01*
X121281767Y-61225862D01*
X121405369Y-61291928D01*
X121418140Y-61298754D01*
X121566113Y-61343642D01*
X121641026Y-61351020D01*
X121681439Y-61355000D01*
X121681444Y-61355000D01*
X121720000Y-61358797D01*
X121758556Y-61355000D01*
X127244738Y-61355000D01*
X133151730Y-67261993D01*
X132750078Y-67261993D01*
X132625596Y-67274253D01*
X132505898Y-67310563D01*
X132395584Y-67369528D01*
X132298893Y-67448880D01*
X132219541Y-67545571D01*
X132160576Y-67655885D01*
X132124266Y-67775583D01*
X132112006Y-67900065D01*
X132112006Y-67965076D01*
X130793518Y-67965076D01*
X130754962Y-67961279D01*
X130716406Y-67965076D01*
X130716401Y-67965076D01*
X130675988Y-67969056D01*
X130601075Y-67976434D01*
X130453102Y-68021322D01*
X130316729Y-68094214D01*
X130197198Y-68192312D01*
X130172615Y-68222266D01*
X124002180Y-74392701D01*
X123972226Y-74417284D01*
X123874128Y-74536816D01*
X123801236Y-74673189D01*
X123756349Y-74821162D01*
X123744990Y-74936488D01*
X123744990Y-74936495D01*
X123741193Y-74975048D01*
X123744990Y-75013601D01*
X123744991Y-86697731D01*
X120567743Y-89874980D01*
X119098576Y-89874980D01*
X119060020Y-89871183D01*
X119021464Y-89874980D01*
X119021459Y-89874980D01*
X118981046Y-89878960D01*
X118906133Y-89886338D01*
X118758160Y-89931226D01*
X118621787Y-90004118D01*
X118502256Y-90102216D01*
X118477675Y-90132168D01*
X116984853Y-91624990D01*
X116021446Y-91624990D01*
X115982890Y-91621193D01*
X115944334Y-91624990D01*
X115944329Y-91624990D01*
X115903916Y-91628970D01*
X115829003Y-91636348D01*
X115681030Y-91681236D01*
X115544657Y-91754128D01*
X115425126Y-91852226D01*
X115400545Y-91882178D01*
X113445821Y-93836902D01*
X113436260Y-93835000D01*
X113143740Y-93835000D01*
X112856842Y-93892068D01*
X112586589Y-94004010D01*
X112343368Y-94166525D01*
X112136525Y-94373368D01*
X111974010Y-94616589D01*
X111862068Y-94886842D01*
X111805000Y-95173740D01*
X111805000Y-95466260D01*
X111862068Y-95753158D01*
X111974010Y-96023411D01*
X112136525Y-96266632D01*
X112268380Y-96398487D01*
X112195820Y-96420498D01*
X112085506Y-96479463D01*
X111988815Y-96558815D01*
X111909463Y-96655506D01*
X111850498Y-96765820D01*
X111814188Y-96885518D01*
X111801928Y-97010000D01*
X111801928Y-98710000D01*
X111814188Y-98834482D01*
X111850498Y-98954180D01*
X111909463Y-99064494D01*
X111988815Y-99161185D01*
X112085506Y-99240537D01*
X112195820Y-99299502D01*
X112315518Y-99335812D01*
X112358041Y-99340000D01*
X103032279Y-99340000D01*
X102546106Y-99292330D01*
X102109503Y-99160512D01*
X101706814Y-98946399D01*
X101353387Y-98658150D01*
X101062673Y-98306739D01*
X100845760Y-97905564D01*
X100710894Y-97469886D01*
X100660000Y-96985664D01*
X100660000Y-96779872D01*
X100765000Y-96779872D01*
X100765000Y-97220128D01*
X100850890Y-97651925D01*
X101019369Y-98058669D01*
X101263962Y-98424729D01*
X101575271Y-98736038D01*
X101941331Y-98980631D01*
X102348075Y-99149110D01*
X102779872Y-99235000D01*
X103220128Y-99235000D01*
X103651925Y-99149110D01*
X104058669Y-98980631D01*
X104424729Y-98736038D01*
X104736038Y-98424729D01*
X104980631Y-98058669D01*
X105149110Y-97651925D01*
X105235000Y-97220128D01*
X105235000Y-96779872D01*
X105149110Y-96348075D01*
X104980631Y-95941331D01*
X104736038Y-95575271D01*
X104424729Y-95263962D01*
X104058669Y-95019369D01*
X103651925Y-94850890D01*
X103220128Y-94765000D01*
X102779872Y-94765000D01*
X102348075Y-94850890D01*
X101941331Y-95019369D01*
X101575271Y-95263962D01*
X101263962Y-95575271D01*
X101019369Y-95941331D01*
X100850890Y-96348075D01*
X100765000Y-96779872D01*
X100660000Y-96779872D01*
X100660000Y-90381874D01*
X106680881Y-90381874D01*
X106697554Y-90436864D01*
X106787877Y-90640206D01*
X106916135Y-90822020D01*
X107077399Y-90975318D01*
X107265471Y-91094210D01*
X107473124Y-91174126D01*
X107648000Y-91049129D01*
X107648000Y-90207000D01*
X106807046Y-90207000D01*
X106680881Y-90381874D01*
X100660000Y-90381874D01*
X100660000Y-84500000D01*
X106636928Y-84500000D01*
X106636928Y-85500000D01*
X106649188Y-85624482D01*
X106685498Y-85744180D01*
X106729888Y-85827226D01*
X106683617Y-85938933D01*
X106640000Y-86158212D01*
X106640000Y-86381788D01*
X106683617Y-86601067D01*
X106769176Y-86807624D01*
X106834241Y-86905000D01*
X106769176Y-87002376D01*
X106683617Y-87208933D01*
X106640000Y-87428212D01*
X106640000Y-87651788D01*
X106683617Y-87871067D01*
X106769176Y-88077624D01*
X106834241Y-88175000D01*
X106769176Y-88272376D01*
X106683617Y-88478933D01*
X106640000Y-88698212D01*
X106640000Y-88921788D01*
X106683617Y-89141067D01*
X106769176Y-89347624D01*
X106837353Y-89449658D01*
X106787877Y-89519794D01*
X106697554Y-89723136D01*
X106680881Y-89778126D01*
X106807046Y-89953000D01*
X107648000Y-89953000D01*
X107648000Y-89941974D01*
X107663212Y-89945000D01*
X107886788Y-89945000D01*
X107902000Y-89941974D01*
X107902000Y-89953000D01*
X107913026Y-89953000D01*
X107910000Y-89968212D01*
X107910000Y-90191788D01*
X107913026Y-90207000D01*
X107902000Y-90207000D01*
X107902000Y-91049129D01*
X108076876Y-91174126D01*
X108284529Y-91094210D01*
X108405488Y-91017744D01*
X108507376Y-91085824D01*
X108713933Y-91171383D01*
X108933212Y-91215000D01*
X109156788Y-91215000D01*
X109376067Y-91171383D01*
X109582624Y-91085824D01*
X109768520Y-90961612D01*
X109926612Y-90803520D01*
X110050824Y-90617624D01*
X110136383Y-90411067D01*
X110180000Y-90191788D01*
X110180000Y-89968212D01*
X110136383Y-89748933D01*
X110050824Y-89542376D01*
X109985759Y-89445000D01*
X110050824Y-89347624D01*
X110136383Y-89141067D01*
X110180000Y-88921788D01*
X110180000Y-88698212D01*
X110136383Y-88478933D01*
X110050824Y-88272376D01*
X109982647Y-88170342D01*
X110032123Y-88100206D01*
X110122446Y-87896864D01*
X110139119Y-87841874D01*
X110012954Y-87667000D01*
X109172000Y-87667000D01*
X109172000Y-87678026D01*
X109156788Y-87675000D01*
X108933212Y-87675000D01*
X108918000Y-87678026D01*
X108918000Y-87667000D01*
X108906974Y-87667000D01*
X108910000Y-87651788D01*
X108910000Y-87428212D01*
X108906974Y-87413000D01*
X108918000Y-87413000D01*
X108918000Y-87401974D01*
X108933212Y-87405000D01*
X109156788Y-87405000D01*
X109172000Y-87401974D01*
X109172000Y-87413000D01*
X110012954Y-87413000D01*
X110139119Y-87238126D01*
X110122446Y-87183136D01*
X110032123Y-86979794D01*
X109982647Y-86909658D01*
X110022528Y-86849971D01*
X118511930Y-86849971D01*
X118511930Y-87749969D01*
X118524190Y-87874451D01*
X118560500Y-87994149D01*
X118619465Y-88104463D01*
X118698817Y-88201154D01*
X118795508Y-88280506D01*
X118905822Y-88339471D01*
X119025520Y-88375781D01*
X119150002Y-88388041D01*
X119200000Y-88388041D01*
X119200000Y-88444703D01*
X119233049Y-88610853D01*
X119297878Y-88767363D01*
X119391995Y-88908218D01*
X119511782Y-89028005D01*
X119652637Y-89122122D01*
X119809147Y-89186951D01*
X119975297Y-89220000D01*
X120144703Y-89220000D01*
X120310853Y-89186951D01*
X120467363Y-89122122D01*
X120608218Y-89028005D01*
X120728005Y-88908218D01*
X120822122Y-88767363D01*
X120886951Y-88610853D01*
X120920000Y-88444703D01*
X120920000Y-88381147D01*
X120974480Y-88375781D01*
X121094178Y-88339471D01*
X121204492Y-88280506D01*
X121301183Y-88201154D01*
X121380535Y-88104463D01*
X121439500Y-87994149D01*
X121475810Y-87874451D01*
X121488070Y-87749969D01*
X121488070Y-86849971D01*
X121475810Y-86725489D01*
X121439500Y-86605791D01*
X121380535Y-86495477D01*
X121301183Y-86398786D01*
X121204492Y-86319434D01*
X121094178Y-86260469D01*
X120974480Y-86224159D01*
X120849998Y-86211899D01*
X119150002Y-86211899D01*
X119025520Y-86224159D01*
X118905822Y-86260469D01*
X118795508Y-86319434D01*
X118698817Y-86398786D01*
X118619465Y-86495477D01*
X118560500Y-86605791D01*
X118524190Y-86725489D01*
X118511930Y-86849971D01*
X110022528Y-86849971D01*
X110050824Y-86807624D01*
X110136383Y-86601067D01*
X110180000Y-86381788D01*
X110180000Y-86158212D01*
X110136383Y-85938933D01*
X110050824Y-85732376D01*
X109985759Y-85635000D01*
X110050824Y-85537624D01*
X110136383Y-85331067D01*
X110180000Y-85111788D01*
X110180000Y-84888212D01*
X110136383Y-84668933D01*
X110050824Y-84462376D01*
X109926612Y-84276480D01*
X109768520Y-84118388D01*
X109582624Y-83994176D01*
X109376067Y-83908617D01*
X109156788Y-83865000D01*
X108933212Y-83865000D01*
X108713933Y-83908617D01*
X108602226Y-83954888D01*
X108519180Y-83910498D01*
X108399482Y-83874188D01*
X108275000Y-83861928D01*
X107275000Y-83861928D01*
X107150518Y-83874188D01*
X107030820Y-83910498D01*
X106920506Y-83969463D01*
X106823815Y-84048815D01*
X106744463Y-84145506D01*
X106685498Y-84255820D01*
X106649188Y-84375518D01*
X106636928Y-84500000D01*
X100660000Y-84500000D01*
X100660000Y-83150029D01*
X118511930Y-83150029D01*
X118524190Y-83274511D01*
X118560500Y-83394209D01*
X118619465Y-83504523D01*
X118698817Y-83601214D01*
X118795508Y-83680566D01*
X118905822Y-83739531D01*
X119025520Y-83775841D01*
X119150002Y-83788101D01*
X119714250Y-83785029D01*
X119873000Y-83626279D01*
X119873000Y-82827030D01*
X120127000Y-82827030D01*
X120127000Y-83626279D01*
X120285750Y-83785029D01*
X120849998Y-83788101D01*
X120974480Y-83775841D01*
X121094178Y-83739531D01*
X121204492Y-83680566D01*
X121301183Y-83601214D01*
X121380535Y-83504523D01*
X121439500Y-83394209D01*
X121475810Y-83274511D01*
X121488070Y-83150029D01*
X121484998Y-82985780D01*
X121326248Y-82827030D01*
X120127000Y-82827030D01*
X119873000Y-82827030D01*
X118673752Y-82827030D01*
X118515002Y-82985780D01*
X118511930Y-83150029D01*
X100660000Y-83150029D01*
X100660000Y-82250031D01*
X118511930Y-82250031D01*
X118515002Y-82414280D01*
X118673752Y-82573030D01*
X119873000Y-82573030D01*
X119873000Y-81773781D01*
X120127000Y-81773781D01*
X120127000Y-82573030D01*
X121326248Y-82573030D01*
X121484998Y-82414280D01*
X121488070Y-82250031D01*
X121475810Y-82125549D01*
X121439500Y-82005851D01*
X121380535Y-81895537D01*
X121301183Y-81798846D01*
X121204492Y-81719494D01*
X121094178Y-81660529D01*
X120974480Y-81624219D01*
X120849998Y-81611959D01*
X120285750Y-81615031D01*
X120127000Y-81773781D01*
X119873000Y-81773781D01*
X119714250Y-81615031D01*
X119150002Y-81611959D01*
X119025520Y-81624219D01*
X118905822Y-81660529D01*
X118795508Y-81719494D01*
X118698817Y-81798846D01*
X118619465Y-81895537D01*
X118560500Y-82005851D01*
X118524190Y-82125549D01*
X118511930Y-82250031D01*
X100660000Y-82250031D01*
X100660000Y-78875000D01*
X101509509Y-78875000D01*
X101531423Y-79097499D01*
X101596324Y-79311447D01*
X101701716Y-79508623D01*
X101843551Y-79681449D01*
X102016377Y-79823284D01*
X102213553Y-79928676D01*
X102427501Y-79993577D01*
X102594248Y-80010000D01*
X103505752Y-80010000D01*
X103672499Y-79993577D01*
X103886447Y-79928676D01*
X104083623Y-79823284D01*
X104256449Y-79681449D01*
X104398284Y-79508623D01*
X104503676Y-79311447D01*
X104568577Y-79097499D01*
X104590491Y-78875000D01*
X104568577Y-78652501D01*
X104503676Y-78438553D01*
X104398284Y-78241377D01*
X104256449Y-78068551D01*
X104083623Y-77926716D01*
X103886447Y-77821324D01*
X103672499Y-77756423D01*
X103505752Y-77740000D01*
X102594248Y-77740000D01*
X102427501Y-77756423D01*
X102213553Y-77821324D01*
X102016377Y-77926716D01*
X101843551Y-78068551D01*
X101701716Y-78241377D01*
X101596324Y-78438553D01*
X101531423Y-78652501D01*
X101509509Y-78875000D01*
X100660000Y-78875000D01*
X100660000Y-71125000D01*
X101509509Y-71125000D01*
X101531423Y-71347499D01*
X101596324Y-71561447D01*
X101701716Y-71758623D01*
X101843551Y-71931449D01*
X102016377Y-72073284D01*
X102213553Y-72178676D01*
X102427501Y-72243577D01*
X102594248Y-72260000D01*
X103505752Y-72260000D01*
X103672499Y-72243577D01*
X103886447Y-72178676D01*
X104083623Y-72073284D01*
X104256449Y-71931449D01*
X104398284Y-71758623D01*
X104503676Y-71561447D01*
X104568577Y-71347499D01*
X104590491Y-71125000D01*
X104568577Y-70902501D01*
X104503676Y-70688553D01*
X104398284Y-70491377D01*
X104256449Y-70318551D01*
X104083623Y-70176716D01*
X103886447Y-70071324D01*
X103672499Y-70006423D01*
X103505752Y-69990000D01*
X102594248Y-69990000D01*
X102427501Y-70006423D01*
X102213553Y-70071324D01*
X102016377Y-70176716D01*
X101843551Y-70318551D01*
X101701716Y-70491377D01*
X101596324Y-70688553D01*
X101531423Y-70902501D01*
X101509509Y-71125000D01*
X100660000Y-71125000D01*
X100660000Y-63430000D01*
X100831928Y-63430000D01*
X100844188Y-63554482D01*
X100880498Y-63674180D01*
X100939463Y-63784494D01*
X100976809Y-63830000D01*
X100939463Y-63875506D01*
X100880498Y-63985820D01*
X100844188Y-64105518D01*
X100831928Y-64230000D01*
X100831928Y-65730000D01*
X100844188Y-65854482D01*
X100880498Y-65974180D01*
X100939463Y-66084494D01*
X100976809Y-66130000D01*
X100939463Y-66175506D01*
X100880498Y-66285820D01*
X100844188Y-66405518D01*
X100831928Y-66530000D01*
X100831928Y-68030000D01*
X100844188Y-68154482D01*
X100880498Y-68274180D01*
X100939463Y-68384494D01*
X101018815Y-68481185D01*
X101115506Y-68560537D01*
X101225820Y-68619502D01*
X101345518Y-68655812D01*
X101470000Y-68668072D01*
X103470000Y-68668072D01*
X103594482Y-68655812D01*
X103714180Y-68619502D01*
X103824494Y-68560537D01*
X103921185Y-68481185D01*
X104000537Y-68384494D01*
X104059502Y-68274180D01*
X104095812Y-68154482D01*
X104097238Y-68140000D01*
X105613777Y-68140000D01*
X107655325Y-70181548D01*
X107572499Y-70156423D01*
X107405752Y-70140000D01*
X106294248Y-70140000D01*
X106127501Y-70156423D01*
X105913553Y-70221324D01*
X105716377Y-70326716D01*
X105543551Y-70468551D01*
X105401716Y-70641377D01*
X105296324Y-70838553D01*
X105231423Y-71052501D01*
X105209509Y-71275000D01*
X105231423Y-71497499D01*
X105266136Y-71611933D01*
X105140226Y-71696063D01*
X104996063Y-71840226D01*
X104882795Y-72009744D01*
X104804774Y-72198102D01*
X104765000Y-72398061D01*
X104765000Y-72601939D01*
X104804774Y-72801898D01*
X104882795Y-72990256D01*
X104996063Y-73159774D01*
X105140226Y-73303937D01*
X105309744Y-73417205D01*
X105498102Y-73495226D01*
X105611928Y-73517867D01*
X105611928Y-73925000D01*
X105621777Y-74025000D01*
X105611928Y-74125000D01*
X105611928Y-74575000D01*
X105621777Y-74675000D01*
X105611928Y-74775000D01*
X105611928Y-75225000D01*
X105621777Y-75325000D01*
X105611928Y-75425000D01*
X105611928Y-75875000D01*
X105622118Y-75978465D01*
X105615000Y-76043250D01*
X105647247Y-76075497D01*
X105660498Y-76119180D01*
X105719463Y-76229494D01*
X105798815Y-76326185D01*
X105886322Y-76398000D01*
X105773750Y-76398000D01*
X105706750Y-76465000D01*
X105698061Y-76465000D01*
X105498102Y-76504774D01*
X105309744Y-76582795D01*
X105140226Y-76696063D01*
X104996063Y-76840226D01*
X104882795Y-77009744D01*
X104804774Y-77198102D01*
X104765000Y-77398061D01*
X104765000Y-77601939D01*
X104804774Y-77801898D01*
X104882795Y-77990256D01*
X104996063Y-78159774D01*
X105140226Y-78303937D01*
X105266136Y-78388067D01*
X105231423Y-78502501D01*
X105209509Y-78725000D01*
X105231423Y-78947499D01*
X105296324Y-79161447D01*
X105401716Y-79358623D01*
X105543551Y-79531449D01*
X105716377Y-79673284D01*
X105913553Y-79778676D01*
X106127501Y-79843577D01*
X106294248Y-79860000D01*
X107405752Y-79860000D01*
X107572499Y-79843577D01*
X107786447Y-79778676D01*
X107983623Y-79673284D01*
X108139575Y-79545297D01*
X114820000Y-79545297D01*
X114820000Y-79714703D01*
X114853049Y-79880853D01*
X114917878Y-80037363D01*
X115011995Y-80178218D01*
X115131782Y-80298005D01*
X115272637Y-80392122D01*
X115429147Y-80456951D01*
X115595297Y-80490000D01*
X115764703Y-80490000D01*
X115930853Y-80456951D01*
X116087363Y-80392122D01*
X116228218Y-80298005D01*
X116348005Y-80178218D01*
X116442122Y-80037363D01*
X116506951Y-79880853D01*
X116516475Y-79832971D01*
X118314477Y-78034970D01*
X118582320Y-78034970D01*
X118619465Y-78104463D01*
X118698817Y-78201154D01*
X118795508Y-78280506D01*
X118905822Y-78339471D01*
X119025520Y-78375781D01*
X119150002Y-78388041D01*
X120849998Y-78388041D01*
X120974480Y-78375781D01*
X121094178Y-78339471D01*
X121204492Y-78280506D01*
X121301183Y-78201154D01*
X121380535Y-78104463D01*
X121439500Y-77994149D01*
X121475810Y-77874451D01*
X121488070Y-77749969D01*
X121488070Y-76849971D01*
X121475810Y-76725489D01*
X121439500Y-76605791D01*
X121380535Y-76495477D01*
X121301183Y-76398786D01*
X121204492Y-76319434D01*
X121094178Y-76260469D01*
X120974480Y-76224159D01*
X120849998Y-76211899D01*
X119150002Y-76211899D01*
X119025520Y-76224159D01*
X118905822Y-76260469D01*
X118795508Y-76319434D01*
X118698817Y-76398786D01*
X118619465Y-76495477D01*
X118582320Y-76564970D01*
X118046134Y-76564970D01*
X118010029Y-76561414D01*
X117865944Y-76575605D01*
X117823916Y-76588354D01*
X117727397Y-76617633D01*
X117599710Y-76685883D01*
X117487792Y-76777732D01*
X117464776Y-76805777D01*
X115477029Y-78793525D01*
X115429147Y-78803049D01*
X115272637Y-78867878D01*
X115131782Y-78961995D01*
X115011995Y-79081782D01*
X114917878Y-79222637D01*
X114853049Y-79379147D01*
X114820000Y-79545297D01*
X108139575Y-79545297D01*
X108156449Y-79531449D01*
X108298284Y-79358623D01*
X108403676Y-79161447D01*
X108468577Y-78947499D01*
X108490491Y-78725000D01*
X108468577Y-78502501D01*
X108403676Y-78288553D01*
X108298284Y-78091377D01*
X108156449Y-77918551D01*
X107983623Y-77776716D01*
X107786447Y-77671324D01*
X107572499Y-77606423D01*
X107405752Y-77590000D01*
X106835000Y-77590000D01*
X106835000Y-77398061D01*
X106795226Y-77198102D01*
X106731059Y-77043191D01*
X106773000Y-77001250D01*
X106773000Y-76513072D01*
X107027000Y-76513072D01*
X107027000Y-77001250D01*
X107185750Y-77160000D01*
X107539532Y-77162986D01*
X107664198Y-77152770D01*
X107784475Y-77118428D01*
X107895742Y-77061282D01*
X107993722Y-76983526D01*
X108074650Y-76888150D01*
X108135416Y-76778818D01*
X108173685Y-76659732D01*
X108185000Y-76556750D01*
X108026250Y-76398000D01*
X107913678Y-76398000D01*
X108001185Y-76326185D01*
X108080537Y-76229494D01*
X108139502Y-76119180D01*
X108152753Y-76075497D01*
X108185000Y-76043250D01*
X108177882Y-75978465D01*
X108188072Y-75875000D01*
X108188072Y-75425000D01*
X108178223Y-75325000D01*
X108188072Y-75225000D01*
X108188072Y-74775000D01*
X108178223Y-74675000D01*
X108188072Y-74575000D01*
X108188072Y-74554501D01*
X108258589Y-74547556D01*
X108420700Y-74498381D01*
X108570102Y-74418524D01*
X108701054Y-74311054D01*
X108727988Y-74278236D01*
X109528241Y-73477982D01*
X109561054Y-73451054D01*
X109587991Y-73418232D01*
X109634244Y-73361872D01*
X109668524Y-73320102D01*
X109722084Y-73219898D01*
X109748381Y-73170701D01*
X109754651Y-73150029D01*
X118511930Y-73150029D01*
X118524190Y-73274511D01*
X118560500Y-73394209D01*
X118619465Y-73504523D01*
X118698817Y-73601214D01*
X118795508Y-73680566D01*
X118905822Y-73739531D01*
X119025520Y-73775841D01*
X119150002Y-73788101D01*
X119714250Y-73785029D01*
X119873000Y-73626279D01*
X119873000Y-72827030D01*
X120127000Y-72827030D01*
X120127000Y-73626279D01*
X120285750Y-73785029D01*
X120849998Y-73788101D01*
X120974480Y-73775841D01*
X121094178Y-73739531D01*
X121204492Y-73680566D01*
X121301183Y-73601214D01*
X121380535Y-73504523D01*
X121439500Y-73394209D01*
X121475810Y-73274511D01*
X121488070Y-73150029D01*
X121484998Y-72985780D01*
X121326248Y-72827030D01*
X120127000Y-72827030D01*
X119873000Y-72827030D01*
X118673752Y-72827030D01*
X118515002Y-72985780D01*
X118511930Y-73150029D01*
X109754651Y-73150029D01*
X109797556Y-73008590D01*
X109814161Y-72840000D01*
X109810000Y-72797754D01*
X109810000Y-72250031D01*
X118511930Y-72250031D01*
X118515002Y-72414280D01*
X118673752Y-72573030D01*
X119873000Y-72573030D01*
X119873000Y-71773781D01*
X120127000Y-71773781D01*
X120127000Y-72573030D01*
X121326248Y-72573030D01*
X121484998Y-72414280D01*
X121488070Y-72250031D01*
X121475810Y-72125549D01*
X121439500Y-72005851D01*
X121380535Y-71895537D01*
X121301183Y-71798846D01*
X121204492Y-71719494D01*
X121094178Y-71660529D01*
X120974480Y-71624219D01*
X120849998Y-71611959D01*
X120285750Y-71615031D01*
X120127000Y-71773781D01*
X119873000Y-71773781D01*
X119714250Y-71615031D01*
X119150002Y-71611959D01*
X119025520Y-71624219D01*
X118905822Y-71660529D01*
X118795508Y-71719494D01*
X118698817Y-71798846D01*
X118619465Y-71895537D01*
X118560500Y-72005851D01*
X118524190Y-72125549D01*
X118511930Y-72250031D01*
X109810000Y-72250031D01*
X109810000Y-70697500D01*
X111081928Y-70697500D01*
X111081928Y-70775002D01*
X111098992Y-70948256D01*
X111149528Y-71114852D01*
X111231595Y-71268387D01*
X111342038Y-71402962D01*
X111476613Y-71513405D01*
X111630148Y-71595472D01*
X111796744Y-71646008D01*
X111969998Y-71663072D01*
X114170002Y-71663072D01*
X114343256Y-71646008D01*
X114509852Y-71595472D01*
X114663387Y-71513405D01*
X114797962Y-71402962D01*
X114908405Y-71268387D01*
X114990472Y-71114852D01*
X115041008Y-70948256D01*
X115044529Y-70912500D01*
X123196928Y-70912500D01*
X123209188Y-71036982D01*
X123245498Y-71156680D01*
X123304463Y-71266994D01*
X123383815Y-71363685D01*
X123480506Y-71443037D01*
X123590820Y-71502002D01*
X123710518Y-71538312D01*
X123835000Y-71550572D01*
X124274250Y-71547500D01*
X124433000Y-71388750D01*
X124433000Y-70452000D01*
X124687000Y-70452000D01*
X124687000Y-71388750D01*
X124845750Y-71547500D01*
X125285000Y-71550572D01*
X125409482Y-71538312D01*
X125529180Y-71502002D01*
X125639494Y-71443037D01*
X125736185Y-71363685D01*
X125815537Y-71266994D01*
X125874502Y-71156680D01*
X125910812Y-71036982D01*
X125923072Y-70912500D01*
X125920000Y-70610750D01*
X125761250Y-70452000D01*
X124687000Y-70452000D01*
X124433000Y-70452000D01*
X123358750Y-70452000D01*
X123200000Y-70610750D01*
X123196928Y-70912500D01*
X115044529Y-70912500D01*
X115058072Y-70775002D01*
X115058072Y-69949998D01*
X115041008Y-69776744D01*
X114990472Y-69610148D01*
X114908405Y-69456613D01*
X114797962Y-69322038D01*
X114663387Y-69211595D01*
X114509852Y-69129528D01*
X114343256Y-69078992D01*
X114170002Y-69061928D01*
X113443373Y-69061928D01*
X113400700Y-69039119D01*
X113238589Y-68989944D01*
X113112246Y-68977500D01*
X109484738Y-68977500D01*
X109442499Y-68973340D01*
X109400260Y-68977500D01*
X109400254Y-68977500D01*
X109291058Y-68988255D01*
X109273910Y-68989944D01*
X109224735Y-69004861D01*
X109111800Y-69039119D01*
X109003324Y-69097101D01*
X107806223Y-67900000D01*
X111081928Y-67900000D01*
X111094188Y-68024482D01*
X111130498Y-68144180D01*
X111189463Y-68254494D01*
X111268815Y-68351185D01*
X111365506Y-68430537D01*
X111475820Y-68489502D01*
X111595518Y-68525812D01*
X111720000Y-68538072D01*
X112784250Y-68535000D01*
X112943000Y-68376250D01*
X112943000Y-67364500D01*
X113197000Y-67364500D01*
X113197000Y-68376250D01*
X113355750Y-68535000D01*
X114420000Y-68538072D01*
X114544482Y-68525812D01*
X114664180Y-68489502D01*
X114774494Y-68430537D01*
X114871185Y-68351185D01*
X114950537Y-68254494D01*
X115009502Y-68144180D01*
X115045812Y-68024482D01*
X115058072Y-67900000D01*
X115056849Y-67749969D01*
X118511930Y-67749969D01*
X118524190Y-67874451D01*
X118560500Y-67994149D01*
X118619465Y-68104463D01*
X118698817Y-68201154D01*
X118795508Y-68280506D01*
X118905822Y-68339471D01*
X119025520Y-68375781D01*
X119150002Y-68388041D01*
X119714250Y-68384969D01*
X119873000Y-68226219D01*
X119873000Y-67426970D01*
X120127000Y-67426970D01*
X120127000Y-68226219D01*
X120285750Y-68384969D01*
X120849998Y-68388041D01*
X120974480Y-68375781D01*
X121094178Y-68339471D01*
X121204492Y-68280506D01*
X121301183Y-68201154D01*
X121380535Y-68104463D01*
X121439500Y-67994149D01*
X121475810Y-67874451D01*
X121481635Y-67815297D01*
X122130000Y-67815297D01*
X122130000Y-67984703D01*
X122163049Y-68150853D01*
X122227878Y-68307363D01*
X122321995Y-68448218D01*
X122441782Y-68568005D01*
X122582637Y-68662122D01*
X122683918Y-68704074D01*
X122757649Y-68777805D01*
X122782236Y-68807764D01*
X122901767Y-68905862D01*
X123028011Y-68973340D01*
X123038140Y-68978754D01*
X123186113Y-69023642D01*
X123261026Y-69031020D01*
X123301439Y-69035000D01*
X123301444Y-69035000D01*
X123323214Y-69037144D01*
X123346595Y-69080886D01*
X123457038Y-69215462D01*
X123463594Y-69220842D01*
X123383815Y-69286315D01*
X123304463Y-69383006D01*
X123245498Y-69493320D01*
X123209188Y-69613018D01*
X123196928Y-69737500D01*
X123200000Y-70039250D01*
X123358750Y-70198000D01*
X124433000Y-70198000D01*
X124433000Y-70178000D01*
X124687000Y-70178000D01*
X124687000Y-70198000D01*
X125761250Y-70198000D01*
X125920000Y-70039250D01*
X125923072Y-69737500D01*
X125910812Y-69613018D01*
X125874502Y-69493320D01*
X125815537Y-69383006D01*
X125736185Y-69286315D01*
X125656406Y-69220842D01*
X125662962Y-69215462D01*
X125773405Y-69080886D01*
X125855472Y-68927350D01*
X125906008Y-68760754D01*
X125923072Y-68587500D01*
X125923072Y-67912500D01*
X125906008Y-67739246D01*
X125855472Y-67572650D01*
X125773405Y-67419114D01*
X125662962Y-67284538D01*
X125528386Y-67174095D01*
X125374850Y-67092028D01*
X125208254Y-67041492D01*
X125035000Y-67024428D01*
X124085000Y-67024428D01*
X123911746Y-67041492D01*
X123745150Y-67092028D01*
X123591614Y-67174095D01*
X123528762Y-67225676D01*
X123397363Y-67137878D01*
X123240853Y-67073049D01*
X123074703Y-67040000D01*
X122905297Y-67040000D01*
X122739147Y-67073049D01*
X122582637Y-67137878D01*
X122441782Y-67231995D01*
X122321995Y-67351782D01*
X122227878Y-67492637D01*
X122163049Y-67649147D01*
X122130000Y-67815297D01*
X121481635Y-67815297D01*
X121488070Y-67749969D01*
X121484998Y-67585720D01*
X121326248Y-67426970D01*
X120127000Y-67426970D01*
X119873000Y-67426970D01*
X118673752Y-67426970D01*
X118515002Y-67585720D01*
X118511930Y-67749969D01*
X115056849Y-67749969D01*
X115055000Y-67523250D01*
X114896250Y-67364500D01*
X113197000Y-67364500D01*
X112943000Y-67364500D01*
X111243750Y-67364500D01*
X111085000Y-67523250D01*
X111081928Y-67900000D01*
X107806223Y-67900000D01*
X106607988Y-66701765D01*
X106581054Y-66668946D01*
X106450102Y-66561476D01*
X106300700Y-66481619D01*
X106138589Y-66432444D01*
X106012246Y-66420000D01*
X106012239Y-66420000D01*
X105970000Y-66415840D01*
X105927761Y-66420000D01*
X104097238Y-66420000D01*
X104095812Y-66405518D01*
X104059502Y-66285820D01*
X104000537Y-66175506D01*
X103963191Y-66130000D01*
X104000537Y-66084494D01*
X104059502Y-65974180D01*
X104095812Y-65854482D01*
X104097238Y-65840000D01*
X107131928Y-65840000D01*
X107131928Y-66880000D01*
X107144188Y-67004482D01*
X107180498Y-67124180D01*
X107239463Y-67234494D01*
X107318815Y-67331185D01*
X107415506Y-67410537D01*
X107525820Y-67469502D01*
X107645518Y-67505812D01*
X107770000Y-67518072D01*
X109770000Y-67518072D01*
X109894482Y-67505812D01*
X109914886Y-67499622D01*
X110029147Y-67546951D01*
X110195297Y-67580000D01*
X110364703Y-67580000D01*
X110530853Y-67546951D01*
X110687363Y-67482122D01*
X110828218Y-67388005D01*
X110948005Y-67268218D01*
X111042122Y-67127363D01*
X111106117Y-66972867D01*
X111243750Y-67110500D01*
X112943000Y-67110500D01*
X112943000Y-66098750D01*
X113197000Y-66098750D01*
X113197000Y-67110500D01*
X114896250Y-67110500D01*
X115055000Y-66951750D01*
X115055829Y-66849971D01*
X118511930Y-66849971D01*
X118515002Y-67014220D01*
X118673752Y-67172970D01*
X119873000Y-67172970D01*
X119873000Y-66373721D01*
X120127000Y-66373721D01*
X120127000Y-67172970D01*
X121326248Y-67172970D01*
X121484998Y-67014220D01*
X121488070Y-66849971D01*
X121475810Y-66725489D01*
X121439500Y-66605791D01*
X121380535Y-66495477D01*
X121301183Y-66398786D01*
X121204492Y-66319434D01*
X121094178Y-66260469D01*
X120974480Y-66224159D01*
X120849998Y-66211899D01*
X120285750Y-66214971D01*
X120127000Y-66373721D01*
X119873000Y-66373721D01*
X119714250Y-66214971D01*
X119150002Y-66211899D01*
X119025520Y-66224159D01*
X118905822Y-66260469D01*
X118795508Y-66319434D01*
X118698817Y-66398786D01*
X118619465Y-66495477D01*
X118560500Y-66605791D01*
X118524190Y-66725489D01*
X118511930Y-66849971D01*
X115055829Y-66849971D01*
X115058072Y-66575000D01*
X115045812Y-66450518D01*
X115009502Y-66330820D01*
X114950537Y-66220506D01*
X114871185Y-66123815D01*
X114774494Y-66044463D01*
X114664180Y-65985498D01*
X114544482Y-65949188D01*
X114420000Y-65936928D01*
X113355750Y-65940000D01*
X113197000Y-66098750D01*
X112943000Y-66098750D01*
X112784250Y-65940000D01*
X111720000Y-65936928D01*
X111595518Y-65949188D01*
X111475820Y-65985498D01*
X111365506Y-66044463D01*
X111268815Y-66123815D01*
X111189463Y-66220506D01*
X111130498Y-66330820D01*
X111096321Y-66443485D01*
X111042122Y-66312637D01*
X110948005Y-66171782D01*
X110828218Y-66051995D01*
X110687363Y-65957878D01*
X110530853Y-65893049D01*
X110408072Y-65868627D01*
X110408072Y-65764063D01*
X110513887Y-65753641D01*
X110661860Y-65708754D01*
X110662065Y-65708645D01*
X110720853Y-65696951D01*
X110877363Y-65632122D01*
X111018218Y-65538005D01*
X111138005Y-65418218D01*
X111232122Y-65277363D01*
X111296951Y-65120853D01*
X111330000Y-64954703D01*
X111330000Y-64785297D01*
X111296951Y-64619147D01*
X111232122Y-64462637D01*
X111138005Y-64321782D01*
X111018218Y-64201995D01*
X110877363Y-64107878D01*
X110720853Y-64043049D01*
X110701048Y-64039110D01*
X110997817Y-63742341D01*
X111027764Y-63717764D01*
X111125862Y-63598233D01*
X111198754Y-63461860D01*
X111243641Y-63313887D01*
X111244201Y-63308202D01*
X111296951Y-63180853D01*
X111330000Y-63014703D01*
X111330000Y-62845297D01*
X111296951Y-62679147D01*
X111232122Y-62522637D01*
X111138005Y-62381782D01*
X111018218Y-62261995D01*
X111000313Y-62250031D01*
X118511930Y-62250031D01*
X118511930Y-63150029D01*
X118524190Y-63274511D01*
X118560500Y-63394209D01*
X118619465Y-63504523D01*
X118698817Y-63601214D01*
X118795508Y-63680566D01*
X118905822Y-63739531D01*
X119025520Y-63775841D01*
X119150002Y-63788101D01*
X120849998Y-63788101D01*
X120974480Y-63775841D01*
X121094178Y-63739531D01*
X121204492Y-63680566D01*
X121301183Y-63601214D01*
X121380535Y-63504523D01*
X121439500Y-63394209D01*
X121475810Y-63274511D01*
X121488070Y-63150029D01*
X121488070Y-62250031D01*
X121475810Y-62125549D01*
X121439500Y-62005851D01*
X121380535Y-61895537D01*
X121301183Y-61798846D01*
X121204492Y-61719494D01*
X121094178Y-61660529D01*
X120974480Y-61624219D01*
X120849998Y-61611959D01*
X120530000Y-61611959D01*
X120530000Y-61445297D01*
X120496951Y-61279147D01*
X120432122Y-61122637D01*
X120338005Y-60981782D01*
X120218218Y-60861995D01*
X120077363Y-60767878D01*
X119920853Y-60703049D01*
X119754703Y-60670000D01*
X119585297Y-60670000D01*
X119419147Y-60703049D01*
X119262637Y-60767878D01*
X119121782Y-60861995D01*
X119001995Y-60981782D01*
X118907878Y-61122637D01*
X118843049Y-61279147D01*
X118810000Y-61445297D01*
X118810000Y-61614703D01*
X118827448Y-61702421D01*
X118795508Y-61719494D01*
X118698817Y-61798846D01*
X118619465Y-61895537D01*
X118560500Y-62005851D01*
X118524190Y-62125549D01*
X118511930Y-62250031D01*
X111000313Y-62250031D01*
X110877363Y-62167878D01*
X110720853Y-62103049D01*
X110554703Y-62070000D01*
X110385297Y-62070000D01*
X110219147Y-62103049D01*
X110062637Y-62167878D01*
X109921782Y-62261995D01*
X109801995Y-62381782D01*
X109761806Y-62441928D01*
X107770000Y-62441928D01*
X107687500Y-62450053D01*
X107687500Y-60441303D01*
X107696008Y-60413256D01*
X107713072Y-60240002D01*
X107713072Y-58039998D01*
X107696008Y-57866744D01*
X107645472Y-57700148D01*
X107563405Y-57546613D01*
X107452962Y-57412038D01*
X107318387Y-57301595D01*
X107164852Y-57219528D01*
X106998256Y-57168992D01*
X106825002Y-57151928D01*
X105999998Y-57151928D01*
X105826744Y-57168992D01*
X105660148Y-57219528D01*
X105506613Y-57301595D01*
X105372038Y-57412038D01*
X105261595Y-57546613D01*
X105179528Y-57700148D01*
X105128992Y-57866744D01*
X105111928Y-58039998D01*
X105111928Y-60240002D01*
X105128992Y-60413256D01*
X105179528Y-60579852D01*
X105261595Y-60733387D01*
X105372038Y-60867962D01*
X105506613Y-60978405D01*
X105660148Y-61060472D01*
X105826744Y-61111008D01*
X105967501Y-61124871D01*
X105967501Y-62995251D01*
X105963340Y-63037500D01*
X105979944Y-63206089D01*
X106029120Y-63368200D01*
X106108977Y-63517602D01*
X106180037Y-63604188D01*
X106216447Y-63648554D01*
X106249260Y-63675483D01*
X106693777Y-64120000D01*
X104097238Y-64120000D01*
X104095812Y-64105518D01*
X104059502Y-63985820D01*
X104000537Y-63875506D01*
X103963191Y-63830000D01*
X104000537Y-63784494D01*
X104059502Y-63674180D01*
X104095812Y-63554482D01*
X104108072Y-63430000D01*
X104105000Y-62965750D01*
X103946250Y-62807000D01*
X102597000Y-62807000D01*
X102597000Y-62827000D01*
X102343000Y-62827000D01*
X102343000Y-62807000D01*
X100993750Y-62807000D01*
X100835000Y-62965750D01*
X100831928Y-63430000D01*
X100660000Y-63430000D01*
X100660000Y-61930000D01*
X100831928Y-61930000D01*
X100835000Y-62394250D01*
X100993750Y-62553000D01*
X102343000Y-62553000D01*
X102343000Y-61453750D01*
X102597000Y-61453750D01*
X102597000Y-62553000D01*
X103946250Y-62553000D01*
X104105000Y-62394250D01*
X104108072Y-61930000D01*
X104095812Y-61805518D01*
X104059502Y-61685820D01*
X104000537Y-61575506D01*
X103921185Y-61478815D01*
X103824494Y-61399463D01*
X103714180Y-61340498D01*
X103594482Y-61304188D01*
X103470000Y-61291928D01*
X102755750Y-61295000D01*
X102597000Y-61453750D01*
X102343000Y-61453750D01*
X102184250Y-61295000D01*
X101470000Y-61291928D01*
X101345518Y-61304188D01*
X101225820Y-61340498D01*
X101115506Y-61399463D01*
X101018815Y-61478815D01*
X100939463Y-61575506D01*
X100880498Y-61685820D01*
X100844188Y-61805518D01*
X100831928Y-61930000D01*
X100660000Y-61930000D01*
X100660000Y-60490000D01*
X101986928Y-60490000D01*
X101999188Y-60614482D01*
X102035498Y-60734180D01*
X102094463Y-60844494D01*
X102173815Y-60941185D01*
X102270506Y-61020537D01*
X102380820Y-61079502D01*
X102500518Y-61115812D01*
X102625000Y-61128072D01*
X103001750Y-61125000D01*
X103160500Y-60966250D01*
X103160500Y-59267000D01*
X103414500Y-59267000D01*
X103414500Y-60966250D01*
X103573250Y-61125000D01*
X103950000Y-61128072D01*
X104074482Y-61115812D01*
X104194180Y-61079502D01*
X104304494Y-61020537D01*
X104401185Y-60941185D01*
X104480537Y-60844494D01*
X104539502Y-60734180D01*
X104575812Y-60614482D01*
X104588072Y-60490000D01*
X104585000Y-59425750D01*
X104426250Y-59267000D01*
X103414500Y-59267000D01*
X103160500Y-59267000D01*
X102148750Y-59267000D01*
X101990000Y-59425750D01*
X101986928Y-60490000D01*
X100660000Y-60490000D01*
X100660000Y-57790000D01*
X101986928Y-57790000D01*
X101990000Y-58854250D01*
X102148750Y-59013000D01*
X103160500Y-59013000D01*
X103160500Y-57313750D01*
X103414500Y-57313750D01*
X103414500Y-59013000D01*
X104426250Y-59013000D01*
X104585000Y-58854250D01*
X104588072Y-57790000D01*
X104575812Y-57665518D01*
X104539502Y-57545820D01*
X104480537Y-57435506D01*
X104401185Y-57338815D01*
X104304494Y-57259463D01*
X104194180Y-57200498D01*
X104074482Y-57164188D01*
X103950000Y-57151928D01*
X103573250Y-57155000D01*
X103414500Y-57313750D01*
X103160500Y-57313750D01*
X103001750Y-57155000D01*
X102625000Y-57151928D01*
X102500518Y-57164188D01*
X102380820Y-57200498D01*
X102270506Y-57259463D01*
X102173815Y-57338815D01*
X102094463Y-57435506D01*
X102035498Y-57545820D01*
X101999188Y-57665518D01*
X101986928Y-57790000D01*
X100660000Y-57790000D01*
X100660000Y-53032279D01*
X100684748Y-52779872D01*
X100765000Y-52779872D01*
X100765000Y-53220128D01*
X100850890Y-53651925D01*
X101019369Y-54058669D01*
X101263962Y-54424729D01*
X101575271Y-54736038D01*
X101941331Y-54980631D01*
X102348075Y-55149110D01*
X102779872Y-55235000D01*
X103220128Y-55235000D01*
X103651925Y-55149110D01*
X104058669Y-54980631D01*
X104424729Y-54736038D01*
X104736038Y-54424729D01*
X104980631Y-54058669D01*
X105149110Y-53651925D01*
X105235000Y-53220128D01*
X105235000Y-52779872D01*
X105149110Y-52348075D01*
X104980631Y-51941331D01*
X104736038Y-51575271D01*
X104424729Y-51263962D01*
X104058669Y-51019369D01*
X103651925Y-50850890D01*
X103220128Y-50765000D01*
X102779872Y-50765000D01*
X102348075Y-50850890D01*
X101941331Y-51019369D01*
X101575271Y-51263962D01*
X101263962Y-51575271D01*
X101019369Y-51941331D01*
X100850890Y-52348075D01*
X100765000Y-52779872D01*
X100684748Y-52779872D01*
X100707670Y-52546107D01*
X100839489Y-52109502D01*
X101053600Y-51706815D01*
X101341848Y-51353388D01*
X101693261Y-51062673D01*
X102094439Y-50845758D01*
X102530113Y-50710894D01*
X103014344Y-50660000D01*
X113118603Y-50660000D01*
X112856842Y-50712068D01*
G37*
%TD.AperFunction*%
D26*
X129198961Y-80101227D02*
X129295652Y-80180579D01*
X129405966Y-80239544D01*
X129525664Y-80275854D01*
X129650146Y-80288114D01*
X129715146Y-80288114D01*
X129715147Y-87944695D01*
X129125574Y-88534268D01*
X129134395Y-88444703D01*
X129135000Y-88438561D01*
X129135000Y-88438556D01*
X129138797Y-88400000D01*
X129135000Y-88361444D01*
X129135000Y-80023290D01*
X129198961Y-80101227D01*
%TA.AperFunction,Conductor*%
D27*
G36*
X129198961Y-80101227D02*
G01*
X129295652Y-80180579D01*
X129405966Y-80239544D01*
X129525664Y-80275854D01*
X129650146Y-80288114D01*
X129715146Y-80288114D01*
X129715147Y-87944695D01*
X129125574Y-88534268D01*
X129134395Y-88444703D01*
X129135000Y-88438561D01*
X129135000Y-88438556D01*
X129138797Y-88400000D01*
X129135000Y-88361444D01*
X129135000Y-80023290D01*
X129198961Y-80101227D01*
G37*
%TD.AperFunction*%
D26*
X132112006Y-69600087D02*
X132124266Y-69724569D01*
X132160576Y-69844267D01*
X132219541Y-69954581D01*
X132298893Y-70051272D01*
X132395584Y-70130624D01*
X132505898Y-70189589D01*
X132625596Y-70225899D01*
X132750078Y-70238159D01*
X133249950Y-70238159D01*
X133374432Y-70225899D01*
X133399145Y-70218402D01*
X133417199Y-70224148D01*
X133518428Y-70235087D01*
X133677178Y-70076337D01*
X133677178Y-70070933D01*
X133701135Y-70051272D01*
X133780487Y-69954581D01*
X133799987Y-69918100D01*
X133819487Y-69954581D01*
X133898839Y-70051272D01*
X133923050Y-70071141D01*
X133923050Y-70076337D01*
X134081800Y-70235087D01*
X134183029Y-70224148D01*
X134200959Y-70218442D01*
X134225542Y-70225899D01*
X134350024Y-70238159D01*
X134849896Y-70238159D01*
X134974378Y-70225899D01*
X135000010Y-70218124D01*
X135025642Y-70225899D01*
X135150124Y-70238159D01*
X135649996Y-70238159D01*
X135774478Y-70225899D01*
X135799983Y-70218162D01*
X135825488Y-70225899D01*
X135949970Y-70238159D01*
X136449842Y-70238159D01*
X136574324Y-70225899D01*
X136599956Y-70218124D01*
X136625588Y-70225899D01*
X136750070Y-70238159D01*
X137249942Y-70238159D01*
X137374424Y-70225899D01*
X137400056Y-70218124D01*
X137425688Y-70225899D01*
X137550170Y-70238159D01*
X138050042Y-70238159D01*
X138174524Y-70225899D01*
X138199107Y-70218442D01*
X138217037Y-70224148D01*
X138318266Y-70235087D01*
X138477016Y-70076337D01*
X138477016Y-70071141D01*
X138501227Y-70051272D01*
X138580579Y-69954581D01*
X138600079Y-69918100D01*
X138619579Y-69954581D01*
X138698931Y-70051272D01*
X138722888Y-70070933D01*
X138722888Y-70076337D01*
X138881638Y-70235087D01*
X138982867Y-70224148D01*
X139000921Y-70218402D01*
X139025634Y-70225899D01*
X139150116Y-70238159D01*
X139649988Y-70238159D01*
X139774470Y-70225899D01*
X139799975Y-70218162D01*
X139825480Y-70225899D01*
X139949962Y-70238159D01*
X140449834Y-70238159D01*
X140574316Y-70225899D01*
X140599948Y-70218124D01*
X140625580Y-70225899D01*
X140750062Y-70238159D01*
X141249934Y-70238159D01*
X141374416Y-70225899D01*
X141400048Y-70218124D01*
X141425680Y-70225899D01*
X141550162Y-70238159D01*
X141951683Y-70238159D01*
X141941960Y-73140443D01*
X140638696Y-71837179D01*
X140614113Y-71807225D01*
X140494582Y-71709127D01*
X140358209Y-71636235D01*
X140210236Y-71591348D01*
X140094910Y-71579989D01*
X140094902Y-71579989D01*
X140056349Y-71576192D01*
X140017796Y-71579989D01*
X137403567Y-71579989D01*
X137365011Y-71576192D01*
X137326456Y-71579989D01*
X137326450Y-71579989D01*
X137282060Y-71584361D01*
X137211125Y-71591347D01*
X137177465Y-71601558D01*
X137019147Y-71633049D01*
X136862637Y-71697878D01*
X136721782Y-71791995D01*
X136601995Y-71911782D01*
X136507878Y-72052637D01*
X136443049Y-72209147D01*
X136410000Y-72375297D01*
X136410000Y-72544703D01*
X136443049Y-72710853D01*
X136507878Y-72867363D01*
X136601995Y-73008218D01*
X136721782Y-73128005D01*
X136862637Y-73222122D01*
X137019147Y-73286951D01*
X137135906Y-73310176D01*
X137167878Y-73387363D01*
X137261995Y-73528218D01*
X137381782Y-73648005D01*
X137522637Y-73742122D01*
X137679147Y-73806951D01*
X137845297Y-73840000D01*
X137854828Y-73840000D01*
X137857878Y-73847363D01*
X137951995Y-73988218D01*
X138071782Y-74108005D01*
X138212637Y-74202122D01*
X138369147Y-74266951D01*
X138482791Y-74289556D01*
X138483049Y-74290853D01*
X138547878Y-74447363D01*
X138641995Y-74588218D01*
X138761782Y-74708005D01*
X138902637Y-74802122D01*
X139059147Y-74866951D01*
X139225297Y-74900000D01*
X139359843Y-74900000D01*
X141015099Y-76555257D01*
X141015098Y-78794941D01*
X140894074Y-78673917D01*
X140852122Y-78572637D01*
X140758005Y-78431782D01*
X140638218Y-78311995D01*
X140497363Y-78217878D01*
X140340853Y-78153049D01*
X140174703Y-78120000D01*
X140005297Y-78120000D01*
X139839147Y-78153049D01*
X139682637Y-78217878D01*
X139541782Y-78311995D01*
X139421995Y-78431782D01*
X139413837Y-78443991D01*
X139290853Y-78393049D01*
X139124703Y-78360000D01*
X138955297Y-78360000D01*
X138789147Y-78393049D01*
X138632637Y-78457878D01*
X138491782Y-78551995D01*
X138371995Y-78671782D01*
X138277878Y-78812637D01*
X138213049Y-78969147D01*
X138180000Y-79135297D01*
X138180000Y-79304703D01*
X138213049Y-79470853D01*
X138277878Y-79627363D01*
X138367734Y-79761841D01*
X138350016Y-79761841D01*
X138225534Y-79774101D01*
X138200029Y-79781838D01*
X138174524Y-79774101D01*
X138050042Y-79761841D01*
X137550170Y-79761841D01*
X137425688Y-79774101D01*
X137400056Y-79781876D01*
X137374424Y-79774101D01*
X137249942Y-79761841D01*
X136750070Y-79761841D01*
X136625588Y-79774101D01*
X136600875Y-79781598D01*
X136582821Y-79775852D01*
X136481592Y-79764913D01*
X136322842Y-79923663D01*
X136322842Y-79929067D01*
X136298885Y-79948728D01*
X136219533Y-80045419D01*
X136200033Y-80081900D01*
X136180533Y-80045419D01*
X136101181Y-79948728D01*
X136076970Y-79928859D01*
X136076970Y-79923663D01*
X135918220Y-79764913D01*
X135816991Y-79775852D01*
X135799061Y-79781558D01*
X135774478Y-79774101D01*
X135649996Y-79761841D01*
X135150124Y-79761841D01*
X135025642Y-79774101D01*
X135000010Y-79781876D01*
X134974378Y-79774101D01*
X134849896Y-79761841D01*
X134350024Y-79761841D01*
X134225542Y-79774101D01*
X134200037Y-79781838D01*
X134174532Y-79774101D01*
X134050050Y-79761841D01*
X133550178Y-79761841D01*
X133425696Y-79774101D01*
X133400064Y-79781876D01*
X133374432Y-79774101D01*
X133249950Y-79761841D01*
X132750078Y-79761841D01*
X132625596Y-79774101D01*
X132505898Y-79810411D01*
X132395584Y-79869376D01*
X132298893Y-79948728D01*
X132219541Y-80045419D01*
X132160576Y-80155733D01*
X132124266Y-80275431D01*
X132112006Y-80399913D01*
X132112006Y-82099935D01*
X132124266Y-82224417D01*
X132160576Y-82344115D01*
X132215014Y-82445960D01*
X132215015Y-86364827D01*
X131285146Y-87294696D01*
X131285146Y-80288114D01*
X131350146Y-80288114D01*
X131474628Y-80275854D01*
X131594326Y-80239544D01*
X131704640Y-80180579D01*
X131801331Y-80101227D01*
X131880683Y-80004536D01*
X131939648Y-79894222D01*
X131975958Y-79774524D01*
X131988218Y-79650042D01*
X131988218Y-79150042D01*
X131975958Y-79025560D01*
X131939648Y-78905862D01*
X131880683Y-78795548D01*
X131801331Y-78698857D01*
X131704640Y-78619505D01*
X131668278Y-78600069D01*
X131696290Y-78585096D01*
X131931351Y-78585096D01*
X131969904Y-78588893D01*
X132008457Y-78585096D01*
X132008465Y-78585096D01*
X132123791Y-78573737D01*
X132271764Y-78528850D01*
X132408137Y-78455958D01*
X132527668Y-78357860D01*
X132552252Y-78327905D01*
X132566083Y-78314074D01*
X132667363Y-78272122D01*
X132808218Y-78178005D01*
X132928005Y-78058218D01*
X133022122Y-77917363D01*
X133086951Y-77760853D01*
X133120000Y-77594703D01*
X133120000Y-77425297D01*
X133086951Y-77259147D01*
X133022122Y-77102637D01*
X132928005Y-76961782D01*
X132808218Y-76841995D01*
X132667363Y-76747878D01*
X132510853Y-76683049D01*
X132344703Y-76650000D01*
X132175297Y-76650000D01*
X132009147Y-76683049D01*
X131982703Y-76694002D01*
X131975958Y-76625514D01*
X131968202Y-76599946D01*
X131975958Y-76574378D01*
X131988218Y-76449896D01*
X131988218Y-75949896D01*
X131975958Y-75825414D01*
X131968241Y-75799973D01*
X131975958Y-75774532D01*
X131988218Y-75650050D01*
X131988218Y-75150050D01*
X131975958Y-75025568D01*
X131968202Y-75000000D01*
X131975958Y-74974432D01*
X131988218Y-74849950D01*
X131988218Y-74349950D01*
X131975958Y-74225468D01*
X131968241Y-74200027D01*
X131975958Y-74174586D01*
X131988218Y-74050104D01*
X131988218Y-73550104D01*
X131975958Y-73425622D01*
X131968202Y-73400054D01*
X131975958Y-73374486D01*
X131988218Y-73250004D01*
X131988218Y-72750004D01*
X131975958Y-72625522D01*
X131939648Y-72505824D01*
X131880683Y-72395510D01*
X131801331Y-72298819D01*
X131704640Y-72219467D01*
X131668278Y-72200031D01*
X131704640Y-72180595D01*
X131801331Y-72101243D01*
X131880683Y-72004552D01*
X131939648Y-71894238D01*
X131975958Y-71774540D01*
X131988218Y-71650058D01*
X131988218Y-71150058D01*
X131975958Y-71025576D01*
X131939648Y-70905878D01*
X131880683Y-70795564D01*
X131801331Y-70698873D01*
X131704640Y-70619521D01*
X131594326Y-70560556D01*
X131474628Y-70524246D01*
X131350146Y-70511986D01*
X130103209Y-70511986D01*
X131080119Y-69535076D01*
X132112006Y-69535076D01*
X132112006Y-69600087D01*
%TA.AperFunction,Conductor*%
D27*
G36*
X132112006Y-69600087D02*
G01*
X132124266Y-69724569D01*
X132160576Y-69844267D01*
X132219541Y-69954581D01*
X132298893Y-70051272D01*
X132395584Y-70130624D01*
X132505898Y-70189589D01*
X132625596Y-70225899D01*
X132750078Y-70238159D01*
X133249950Y-70238159D01*
X133374432Y-70225899D01*
X133399145Y-70218402D01*
X133417199Y-70224148D01*
X133518428Y-70235087D01*
X133677178Y-70076337D01*
X133677178Y-70070933D01*
X133701135Y-70051272D01*
X133780487Y-69954581D01*
X133799987Y-69918100D01*
X133819487Y-69954581D01*
X133898839Y-70051272D01*
X133923050Y-70071141D01*
X133923050Y-70076337D01*
X134081800Y-70235087D01*
X134183029Y-70224148D01*
X134200959Y-70218442D01*
X134225542Y-70225899D01*
X134350024Y-70238159D01*
X134849896Y-70238159D01*
X134974378Y-70225899D01*
X135000010Y-70218124D01*
X135025642Y-70225899D01*
X135150124Y-70238159D01*
X135649996Y-70238159D01*
X135774478Y-70225899D01*
X135799983Y-70218162D01*
X135825488Y-70225899D01*
X135949970Y-70238159D01*
X136449842Y-70238159D01*
X136574324Y-70225899D01*
X136599956Y-70218124D01*
X136625588Y-70225899D01*
X136750070Y-70238159D01*
X137249942Y-70238159D01*
X137374424Y-70225899D01*
X137400056Y-70218124D01*
X137425688Y-70225899D01*
X137550170Y-70238159D01*
X138050042Y-70238159D01*
X138174524Y-70225899D01*
X138199107Y-70218442D01*
X138217037Y-70224148D01*
X138318266Y-70235087D01*
X138477016Y-70076337D01*
X138477016Y-70071141D01*
X138501227Y-70051272D01*
X138580579Y-69954581D01*
X138600079Y-69918100D01*
X138619579Y-69954581D01*
X138698931Y-70051272D01*
X138722888Y-70070933D01*
X138722888Y-70076337D01*
X138881638Y-70235087D01*
X138982867Y-70224148D01*
X139000921Y-70218402D01*
X139025634Y-70225899D01*
X139150116Y-70238159D01*
X139649988Y-70238159D01*
X139774470Y-70225899D01*
X139799975Y-70218162D01*
X139825480Y-70225899D01*
X139949962Y-70238159D01*
X140449834Y-70238159D01*
X140574316Y-70225899D01*
X140599948Y-70218124D01*
X140625580Y-70225899D01*
X140750062Y-70238159D01*
X141249934Y-70238159D01*
X141374416Y-70225899D01*
X141400048Y-70218124D01*
X141425680Y-70225899D01*
X141550162Y-70238159D01*
X141951683Y-70238159D01*
X141941960Y-73140443D01*
X140638696Y-71837179D01*
X140614113Y-71807225D01*
X140494582Y-71709127D01*
X140358209Y-71636235D01*
X140210236Y-71591348D01*
X140094910Y-71579989D01*
X140094902Y-71579989D01*
X140056349Y-71576192D01*
X140017796Y-71579989D01*
X137403567Y-71579989D01*
X137365011Y-71576192D01*
X137326456Y-71579989D01*
X137326450Y-71579989D01*
X137282060Y-71584361D01*
X137211125Y-71591347D01*
X137177465Y-71601558D01*
X137019147Y-71633049D01*
X136862637Y-71697878D01*
X136721782Y-71791995D01*
X136601995Y-71911782D01*
X136507878Y-72052637D01*
X136443049Y-72209147D01*
X136410000Y-72375297D01*
X136410000Y-72544703D01*
X136443049Y-72710853D01*
X136507878Y-72867363D01*
X136601995Y-73008218D01*
X136721782Y-73128005D01*
X136862637Y-73222122D01*
X137019147Y-73286951D01*
X137135906Y-73310176D01*
X137167878Y-73387363D01*
X137261995Y-73528218D01*
X137381782Y-73648005D01*
X137522637Y-73742122D01*
X137679147Y-73806951D01*
X137845297Y-73840000D01*
X137854828Y-73840000D01*
X137857878Y-73847363D01*
X137951995Y-73988218D01*
X138071782Y-74108005D01*
X138212637Y-74202122D01*
X138369147Y-74266951D01*
X138482791Y-74289556D01*
X138483049Y-74290853D01*
X138547878Y-74447363D01*
X138641995Y-74588218D01*
X138761782Y-74708005D01*
X138902637Y-74802122D01*
X139059147Y-74866951D01*
X139225297Y-74900000D01*
X139359843Y-74900000D01*
X141015099Y-76555257D01*
X141015098Y-78794941D01*
X140894074Y-78673917D01*
X140852122Y-78572637D01*
X140758005Y-78431782D01*
X140638218Y-78311995D01*
X140497363Y-78217878D01*
X140340853Y-78153049D01*
X140174703Y-78120000D01*
X140005297Y-78120000D01*
X139839147Y-78153049D01*
X139682637Y-78217878D01*
X139541782Y-78311995D01*
X139421995Y-78431782D01*
X139413837Y-78443991D01*
X139290853Y-78393049D01*
X139124703Y-78360000D01*
X138955297Y-78360000D01*
X138789147Y-78393049D01*
X138632637Y-78457878D01*
X138491782Y-78551995D01*
X138371995Y-78671782D01*
X138277878Y-78812637D01*
X138213049Y-78969147D01*
X138180000Y-79135297D01*
X138180000Y-79304703D01*
X138213049Y-79470853D01*
X138277878Y-79627363D01*
X138367734Y-79761841D01*
X138350016Y-79761841D01*
X138225534Y-79774101D01*
X138200029Y-79781838D01*
X138174524Y-79774101D01*
X138050042Y-79761841D01*
X137550170Y-79761841D01*
X137425688Y-79774101D01*
X137400056Y-79781876D01*
X137374424Y-79774101D01*
X137249942Y-79761841D01*
X136750070Y-79761841D01*
X136625588Y-79774101D01*
X136600875Y-79781598D01*
X136582821Y-79775852D01*
X136481592Y-79764913D01*
X136322842Y-79923663D01*
X136322842Y-79929067D01*
X136298885Y-79948728D01*
X136219533Y-80045419D01*
X136200033Y-80081900D01*
X136180533Y-80045419D01*
X136101181Y-79948728D01*
X136076970Y-79928859D01*
X136076970Y-79923663D01*
X135918220Y-79764913D01*
X135816991Y-79775852D01*
X135799061Y-79781558D01*
X135774478Y-79774101D01*
X135649996Y-79761841D01*
X135150124Y-79761841D01*
X135025642Y-79774101D01*
X135000010Y-79781876D01*
X134974378Y-79774101D01*
X134849896Y-79761841D01*
X134350024Y-79761841D01*
X134225542Y-79774101D01*
X134200037Y-79781838D01*
X134174532Y-79774101D01*
X134050050Y-79761841D01*
X133550178Y-79761841D01*
X133425696Y-79774101D01*
X133400064Y-79781876D01*
X133374432Y-79774101D01*
X133249950Y-79761841D01*
X132750078Y-79761841D01*
X132625596Y-79774101D01*
X132505898Y-79810411D01*
X132395584Y-79869376D01*
X132298893Y-79948728D01*
X132219541Y-80045419D01*
X132160576Y-80155733D01*
X132124266Y-80275431D01*
X132112006Y-80399913D01*
X132112006Y-82099935D01*
X132124266Y-82224417D01*
X132160576Y-82344115D01*
X132215014Y-82445960D01*
X132215015Y-86364827D01*
X131285146Y-87294696D01*
X131285146Y-80288114D01*
X131350146Y-80288114D01*
X131474628Y-80275854D01*
X131594326Y-80239544D01*
X131704640Y-80180579D01*
X131801331Y-80101227D01*
X131880683Y-80004536D01*
X131939648Y-79894222D01*
X131975958Y-79774524D01*
X131988218Y-79650042D01*
X131988218Y-79150042D01*
X131975958Y-79025560D01*
X131939648Y-78905862D01*
X131880683Y-78795548D01*
X131801331Y-78698857D01*
X131704640Y-78619505D01*
X131668278Y-78600069D01*
X131696290Y-78585096D01*
X131931351Y-78585096D01*
X131969904Y-78588893D01*
X132008457Y-78585096D01*
X132008465Y-78585096D01*
X132123791Y-78573737D01*
X132271764Y-78528850D01*
X132408137Y-78455958D01*
X132527668Y-78357860D01*
X132552252Y-78327905D01*
X132566083Y-78314074D01*
X132667363Y-78272122D01*
X132808218Y-78178005D01*
X132928005Y-78058218D01*
X133022122Y-77917363D01*
X133086951Y-77760853D01*
X133120000Y-77594703D01*
X133120000Y-77425297D01*
X133086951Y-77259147D01*
X133022122Y-77102637D01*
X132928005Y-76961782D01*
X132808218Y-76841995D01*
X132667363Y-76747878D01*
X132510853Y-76683049D01*
X132344703Y-76650000D01*
X132175297Y-76650000D01*
X132009147Y-76683049D01*
X131982703Y-76694002D01*
X131975958Y-76625514D01*
X131968202Y-76599946D01*
X131975958Y-76574378D01*
X131988218Y-76449896D01*
X131988218Y-75949896D01*
X131975958Y-75825414D01*
X131968241Y-75799973D01*
X131975958Y-75774532D01*
X131988218Y-75650050D01*
X131988218Y-75150050D01*
X131975958Y-75025568D01*
X131968202Y-75000000D01*
X131975958Y-74974432D01*
X131988218Y-74849950D01*
X131988218Y-74349950D01*
X131975958Y-74225468D01*
X131968241Y-74200027D01*
X131975958Y-74174586D01*
X131988218Y-74050104D01*
X131988218Y-73550104D01*
X131975958Y-73425622D01*
X131968202Y-73400054D01*
X131975958Y-73374486D01*
X131988218Y-73250004D01*
X131988218Y-72750004D01*
X131975958Y-72625522D01*
X131939648Y-72505824D01*
X131880683Y-72395510D01*
X131801331Y-72298819D01*
X131704640Y-72219467D01*
X131668278Y-72200031D01*
X131704640Y-72180595D01*
X131801331Y-72101243D01*
X131880683Y-72004552D01*
X131939648Y-71894238D01*
X131975958Y-71774540D01*
X131988218Y-71650058D01*
X131988218Y-71150058D01*
X131975958Y-71025576D01*
X131939648Y-70905878D01*
X131880683Y-70795564D01*
X131801331Y-70698873D01*
X131704640Y-70619521D01*
X131594326Y-70560556D01*
X131474628Y-70524246D01*
X131350146Y-70511986D01*
X130103209Y-70511986D01*
X131080119Y-69535076D01*
X132112006Y-69535076D01*
X132112006Y-69600087D01*
G37*
%TD.AperFunction*%
D26*
X147453893Y-50707670D02*
X147890498Y-50839489D01*
X148293185Y-51053600D01*
X148646612Y-51341848D01*
X148937327Y-51693261D01*
X149154242Y-52094439D01*
X149289106Y-52530113D01*
X149340000Y-53014344D01*
X149340000Y-60152146D01*
X142112047Y-60152146D01*
X142087688Y-60154504D01*
X142063840Y-60161651D01*
X142041844Y-60173314D01*
X142022546Y-60189043D01*
X142006687Y-60208235D01*
X141994878Y-60230152D01*
X141987571Y-60253952D01*
X141985048Y-60278721D01*
X141966363Y-65856326D01*
X131972799Y-55862763D01*
X132016632Y-55833475D01*
X132223475Y-55626632D01*
X132345195Y-55444466D01*
X132414822Y-55561355D01*
X132609731Y-55777588D01*
X132843080Y-55951641D01*
X133105901Y-56076825D01*
X133253110Y-56121476D01*
X133483000Y-56000155D01*
X133483000Y-54807000D01*
X133737000Y-54807000D01*
X133737000Y-56000155D01*
X133966890Y-56121476D01*
X134114099Y-56076825D01*
X134376920Y-55951641D01*
X134610269Y-55777588D01*
X134805178Y-55561355D01*
X134880000Y-55435745D01*
X134954822Y-55561355D01*
X135149731Y-55777588D01*
X135383080Y-55951641D01*
X135645901Y-56076825D01*
X135793110Y-56121476D01*
X136023000Y-56000155D01*
X136023000Y-54807000D01*
X136277000Y-54807000D01*
X136277000Y-56000155D01*
X136506890Y-56121476D01*
X136654099Y-56076825D01*
X136916920Y-55951641D01*
X137150269Y-55777588D01*
X137345178Y-55561355D01*
X137494157Y-55311252D01*
X137591481Y-55036891D01*
X137470814Y-54807000D01*
X136277000Y-54807000D01*
X136023000Y-54807000D01*
X133737000Y-54807000D01*
X133483000Y-54807000D01*
X133463000Y-54807000D01*
X133463000Y-54553000D01*
X133483000Y-54553000D01*
X133483000Y-52267000D01*
X133737000Y-52267000D01*
X133737000Y-54553000D01*
X136023000Y-54553000D01*
X136023000Y-52267000D01*
X133737000Y-52267000D01*
X133483000Y-52267000D01*
X133463000Y-52267000D01*
X133463000Y-52013000D01*
X133483000Y-52013000D01*
X133483000Y-51993000D01*
X133737000Y-51993000D01*
X133737000Y-52013000D01*
X136023000Y-52013000D01*
X136023000Y-51993000D01*
X136277000Y-51993000D01*
X136277000Y-52013000D01*
X136297000Y-52013000D01*
X136297000Y-52267000D01*
X136277000Y-52267000D01*
X136277000Y-54553000D01*
X137470814Y-54553000D01*
X137591481Y-54323109D01*
X137494157Y-54048748D01*
X137345178Y-53798645D01*
X137150269Y-53582412D01*
X136919120Y-53410000D01*
X137150269Y-53237588D01*
X137345178Y-53021355D01*
X137475361Y-52802806D01*
X139170001Y-54497446D01*
X139170000Y-57343673D01*
X139131058Y-57364488D01*
X138998377Y-57473377D01*
X138889488Y-57606058D01*
X138808577Y-57757433D01*
X138758752Y-57921684D01*
X138741928Y-58092500D01*
X138741928Y-58567500D01*
X138758752Y-58738316D01*
X138808577Y-58902567D01*
X138889488Y-59053942D01*
X138998377Y-59186623D01*
X139131058Y-59295512D01*
X139282433Y-59376423D01*
X139446684Y-59426248D01*
X139617500Y-59443072D01*
X140192500Y-59443072D01*
X140363316Y-59426248D01*
X140527567Y-59376423D01*
X140678942Y-59295512D01*
X140780000Y-59212575D01*
X140881058Y-59295512D01*
X141032433Y-59376423D01*
X141196684Y-59426248D01*
X141367500Y-59443072D01*
X141942500Y-59443072D01*
X142113316Y-59426248D01*
X142277567Y-59376423D01*
X142428942Y-59295512D01*
X142561623Y-59186623D01*
X142670512Y-59053942D01*
X142751423Y-58902567D01*
X142801248Y-58738316D01*
X142818072Y-58567500D01*
X142818072Y-58092500D01*
X142801248Y-57921684D01*
X142751423Y-57757433D01*
X142670512Y-57606058D01*
X142561623Y-57473377D01*
X142428942Y-57364488D01*
X142390000Y-57343673D01*
X142390000Y-57200262D01*
X142480608Y-57151831D01*
X142607606Y-57047606D01*
X142711831Y-56920608D01*
X142789278Y-56775716D01*
X142836969Y-56618500D01*
X142853072Y-56455000D01*
X142853072Y-56055000D01*
X142836969Y-55891500D01*
X142789278Y-55734284D01*
X142711831Y-55589392D01*
X142628137Y-55487410D01*
X142666185Y-55456185D01*
X142745537Y-55359494D01*
X142804502Y-55249180D01*
X142840812Y-55129482D01*
X142853072Y-55005000D01*
X142850000Y-54890750D01*
X142691250Y-54732000D01*
X141867000Y-54732000D01*
X141867000Y-54752000D01*
X141613000Y-54752000D01*
X141613000Y-54732000D01*
X141593000Y-54732000D01*
X141593000Y-54478000D01*
X141613000Y-54478000D01*
X141613000Y-53728750D01*
X141867000Y-53728750D01*
X141867000Y-54478000D01*
X142691250Y-54478000D01*
X142850000Y-54319250D01*
X142853072Y-54205000D01*
X142840812Y-54080518D01*
X142804502Y-53960820D01*
X142745537Y-53850506D01*
X142666185Y-53753815D01*
X142569494Y-53674463D01*
X142459180Y-53615498D01*
X142339482Y-53579188D01*
X142215000Y-53566928D01*
X142025750Y-53570000D01*
X141867000Y-53728750D01*
X141613000Y-53728750D01*
X141454250Y-53570000D01*
X141265000Y-53566928D01*
X141140518Y-53579188D01*
X141020820Y-53615498D01*
X140910506Y-53674463D01*
X140813815Y-53753815D01*
X140734463Y-53850506D01*
X140675498Y-53960820D01*
X140639188Y-54080518D01*
X140635833Y-54114584D01*
X140629365Y-54048913D01*
X140587337Y-53910364D01*
X140519087Y-53782678D01*
X140450253Y-53698804D01*
X140427238Y-53670760D01*
X140399193Y-53647744D01*
X139531321Y-52779872D01*
X144765000Y-52779872D01*
X144765000Y-53220128D01*
X144850890Y-53651925D01*
X145019369Y-54058669D01*
X145263962Y-54424729D01*
X145575271Y-54736038D01*
X145941331Y-54980631D01*
X146348075Y-55149110D01*
X146779872Y-55235000D01*
X147220128Y-55235000D01*
X147651925Y-55149110D01*
X148058669Y-54980631D01*
X148424729Y-54736038D01*
X148736038Y-54424729D01*
X148980631Y-54058669D01*
X149149110Y-53651925D01*
X149235000Y-53220128D01*
X149235000Y-52779872D01*
X149149110Y-52348075D01*
X148980631Y-51941331D01*
X148736038Y-51575271D01*
X148424729Y-51263962D01*
X148058669Y-51019369D01*
X147651925Y-50850890D01*
X147220128Y-50765000D01*
X146779872Y-50765000D01*
X146348075Y-50850890D01*
X145941331Y-51019369D01*
X145575271Y-51263962D01*
X145263962Y-51575271D01*
X145019369Y-51941331D01*
X144850890Y-52348075D01*
X144765000Y-52779872D01*
X139531321Y-52779872D01*
X137411448Y-50660000D01*
X146967721Y-50660000D01*
X147453893Y-50707670D01*
%TA.AperFunction,Conductor*%
D27*
G36*
X147453893Y-50707670D02*
G01*
X147890498Y-50839489D01*
X148293185Y-51053600D01*
X148646612Y-51341848D01*
X148937327Y-51693261D01*
X149154242Y-52094439D01*
X149289106Y-52530113D01*
X149340000Y-53014344D01*
X149340000Y-60152146D01*
X142112047Y-60152146D01*
X142087688Y-60154504D01*
X142063840Y-60161651D01*
X142041844Y-60173314D01*
X142022546Y-60189043D01*
X142006687Y-60208235D01*
X141994878Y-60230152D01*
X141987571Y-60253952D01*
X141985048Y-60278721D01*
X141966363Y-65856326D01*
X131972799Y-55862763D01*
X132016632Y-55833475D01*
X132223475Y-55626632D01*
X132345195Y-55444466D01*
X132414822Y-55561355D01*
X132609731Y-55777588D01*
X132843080Y-55951641D01*
X133105901Y-56076825D01*
X133253110Y-56121476D01*
X133483000Y-56000155D01*
X133483000Y-54807000D01*
X133737000Y-54807000D01*
X133737000Y-56000155D01*
X133966890Y-56121476D01*
X134114099Y-56076825D01*
X134376920Y-55951641D01*
X134610269Y-55777588D01*
X134805178Y-55561355D01*
X134880000Y-55435745D01*
X134954822Y-55561355D01*
X135149731Y-55777588D01*
X135383080Y-55951641D01*
X135645901Y-56076825D01*
X135793110Y-56121476D01*
X136023000Y-56000155D01*
X136023000Y-54807000D01*
X136277000Y-54807000D01*
X136277000Y-56000155D01*
X136506890Y-56121476D01*
X136654099Y-56076825D01*
X136916920Y-55951641D01*
X137150269Y-55777588D01*
X137345178Y-55561355D01*
X137494157Y-55311252D01*
X137591481Y-55036891D01*
X137470814Y-54807000D01*
X136277000Y-54807000D01*
X136023000Y-54807000D01*
X133737000Y-54807000D01*
X133483000Y-54807000D01*
X133463000Y-54807000D01*
X133463000Y-54553000D01*
X133483000Y-54553000D01*
X133483000Y-52267000D01*
X133737000Y-52267000D01*
X133737000Y-54553000D01*
X136023000Y-54553000D01*
X136023000Y-52267000D01*
X133737000Y-52267000D01*
X133483000Y-52267000D01*
X133463000Y-52267000D01*
X133463000Y-52013000D01*
X133483000Y-52013000D01*
X133483000Y-51993000D01*
X133737000Y-51993000D01*
X133737000Y-52013000D01*
X136023000Y-52013000D01*
X136023000Y-51993000D01*
X136277000Y-51993000D01*
X136277000Y-52013000D01*
X136297000Y-52013000D01*
X136297000Y-52267000D01*
X136277000Y-52267000D01*
X136277000Y-54553000D01*
X137470814Y-54553000D01*
X137591481Y-54323109D01*
X137494157Y-54048748D01*
X137345178Y-53798645D01*
X137150269Y-53582412D01*
X136919120Y-53410000D01*
X137150269Y-53237588D01*
X137345178Y-53021355D01*
X137475361Y-52802806D01*
X139170001Y-54497446D01*
X139170000Y-57343673D01*
X139131058Y-57364488D01*
X138998377Y-57473377D01*
X138889488Y-57606058D01*
X138808577Y-57757433D01*
X138758752Y-57921684D01*
X138741928Y-58092500D01*
X138741928Y-58567500D01*
X138758752Y-58738316D01*
X138808577Y-58902567D01*
X138889488Y-59053942D01*
X138998377Y-59186623D01*
X139131058Y-59295512D01*
X139282433Y-59376423D01*
X139446684Y-59426248D01*
X139617500Y-59443072D01*
X140192500Y-59443072D01*
X140363316Y-59426248D01*
X140527567Y-59376423D01*
X140678942Y-59295512D01*
X140780000Y-59212575D01*
X140881058Y-59295512D01*
X141032433Y-59376423D01*
X141196684Y-59426248D01*
X141367500Y-59443072D01*
X141942500Y-59443072D01*
X142113316Y-59426248D01*
X142277567Y-59376423D01*
X142428942Y-59295512D01*
X142561623Y-59186623D01*
X142670512Y-59053942D01*
X142751423Y-58902567D01*
X142801248Y-58738316D01*
X142818072Y-58567500D01*
X142818072Y-58092500D01*
X142801248Y-57921684D01*
X142751423Y-57757433D01*
X142670512Y-57606058D01*
X142561623Y-57473377D01*
X142428942Y-57364488D01*
X142390000Y-57343673D01*
X142390000Y-57200262D01*
X142480608Y-57151831D01*
X142607606Y-57047606D01*
X142711831Y-56920608D01*
X142789278Y-56775716D01*
X142836969Y-56618500D01*
X142853072Y-56455000D01*
X142853072Y-56055000D01*
X142836969Y-55891500D01*
X142789278Y-55734284D01*
X142711831Y-55589392D01*
X142628137Y-55487410D01*
X142666185Y-55456185D01*
X142745537Y-55359494D01*
X142804502Y-55249180D01*
X142840812Y-55129482D01*
X142853072Y-55005000D01*
X142850000Y-54890750D01*
X142691250Y-54732000D01*
X141867000Y-54732000D01*
X141867000Y-54752000D01*
X141613000Y-54752000D01*
X141613000Y-54732000D01*
X141593000Y-54732000D01*
X141593000Y-54478000D01*
X141613000Y-54478000D01*
X141613000Y-53728750D01*
X141867000Y-53728750D01*
X141867000Y-54478000D01*
X142691250Y-54478000D01*
X142850000Y-54319250D01*
X142853072Y-54205000D01*
X142840812Y-54080518D01*
X142804502Y-53960820D01*
X142745537Y-53850506D01*
X142666185Y-53753815D01*
X142569494Y-53674463D01*
X142459180Y-53615498D01*
X142339482Y-53579188D01*
X142215000Y-53566928D01*
X142025750Y-53570000D01*
X141867000Y-53728750D01*
X141613000Y-53728750D01*
X141454250Y-53570000D01*
X141265000Y-53566928D01*
X141140518Y-53579188D01*
X141020820Y-53615498D01*
X140910506Y-53674463D01*
X140813815Y-53753815D01*
X140734463Y-53850506D01*
X140675498Y-53960820D01*
X140639188Y-54080518D01*
X140635833Y-54114584D01*
X140629365Y-54048913D01*
X140587337Y-53910364D01*
X140519087Y-53782678D01*
X140450253Y-53698804D01*
X140427238Y-53670760D01*
X140399193Y-53647744D01*
X139531321Y-52779872D01*
X144765000Y-52779872D01*
X144765000Y-53220128D01*
X144850890Y-53651925D01*
X145019369Y-54058669D01*
X145263962Y-54424729D01*
X145575271Y-54736038D01*
X145941331Y-54980631D01*
X146348075Y-55149110D01*
X146779872Y-55235000D01*
X147220128Y-55235000D01*
X147651925Y-55149110D01*
X148058669Y-54980631D01*
X148424729Y-54736038D01*
X148736038Y-54424729D01*
X148980631Y-54058669D01*
X149149110Y-53651925D01*
X149235000Y-53220128D01*
X149235000Y-52779872D01*
X149149110Y-52348075D01*
X148980631Y-51941331D01*
X148736038Y-51575271D01*
X148424729Y-51263962D01*
X148058669Y-51019369D01*
X147651925Y-50850890D01*
X147220128Y-50765000D01*
X146779872Y-50765000D01*
X146348075Y-50850890D01*
X145941331Y-51019369D01*
X145575271Y-51263962D01*
X145263962Y-51575271D01*
X145019369Y-51941331D01*
X144850890Y-52348075D01*
X144765000Y-52779872D01*
X139531321Y-52779872D01*
X137411448Y-50660000D01*
X146967721Y-50660000D01*
X147453893Y-50707670D01*
G37*
%TD.AperFunction*%
D26*
X114883368Y-55833475D02*
X115126589Y-55995990D01*
X115396842Y-56107932D01*
X115683740Y-56165000D01*
X115976260Y-56165000D01*
X116166918Y-56127075D01*
X116996550Y-56956707D01*
X116918500Y-56933031D01*
X116755000Y-56916928D01*
X116355000Y-56916928D01*
X116191500Y-56933031D01*
X116034284Y-56980722D01*
X115889392Y-57058169D01*
X115787410Y-57141863D01*
X115756185Y-57103815D01*
X115659494Y-57024463D01*
X115549180Y-56965498D01*
X115429482Y-56929188D01*
X115305000Y-56916928D01*
X115190750Y-56920000D01*
X115032000Y-57078750D01*
X115032000Y-57903000D01*
X115052000Y-57903000D01*
X115052000Y-58157000D01*
X115032000Y-58157000D01*
X115032000Y-58177000D01*
X114778000Y-58177000D01*
X114778000Y-58157000D01*
X114758000Y-58157000D01*
X114758000Y-57903000D01*
X114778000Y-57903000D01*
X114778000Y-57078750D01*
X114619250Y-56920000D01*
X114505000Y-56916928D01*
X114380518Y-56929188D01*
X114260820Y-56965498D01*
X114150506Y-57024463D01*
X114053815Y-57103815D01*
X114025000Y-57138926D01*
X114025000Y-56168072D01*
X114140000Y-56168072D01*
X114264482Y-56155812D01*
X114384180Y-56119502D01*
X114494494Y-56060537D01*
X114591185Y-55981185D01*
X114670537Y-55884494D01*
X114729502Y-55774180D01*
X114751513Y-55701620D01*
X114883368Y-55833475D01*
%TA.AperFunction,Conductor*%
D27*
G36*
X114883368Y-55833475D02*
G01*
X115126589Y-55995990D01*
X115396842Y-56107932D01*
X115683740Y-56165000D01*
X115976260Y-56165000D01*
X116166918Y-56127075D01*
X116996550Y-56956707D01*
X116918500Y-56933031D01*
X116755000Y-56916928D01*
X116355000Y-56916928D01*
X116191500Y-56933031D01*
X116034284Y-56980722D01*
X115889392Y-57058169D01*
X115787410Y-57141863D01*
X115756185Y-57103815D01*
X115659494Y-57024463D01*
X115549180Y-56965498D01*
X115429482Y-56929188D01*
X115305000Y-56916928D01*
X115190750Y-56920000D01*
X115032000Y-57078750D01*
X115032000Y-57903000D01*
X115052000Y-57903000D01*
X115052000Y-58157000D01*
X115032000Y-58157000D01*
X115032000Y-58177000D01*
X114778000Y-58177000D01*
X114778000Y-58157000D01*
X114758000Y-58157000D01*
X114758000Y-57903000D01*
X114778000Y-57903000D01*
X114778000Y-57078750D01*
X114619250Y-56920000D01*
X114505000Y-56916928D01*
X114380518Y-56929188D01*
X114260820Y-56965498D01*
X114150506Y-57024463D01*
X114053815Y-57103815D01*
X114025000Y-57138926D01*
X114025000Y-56168072D01*
X114140000Y-56168072D01*
X114264482Y-56155812D01*
X114384180Y-56119502D01*
X114494494Y-56060537D01*
X114591185Y-55981185D01*
X114670537Y-55884494D01*
X114729502Y-55774180D01*
X114751513Y-55701620D01*
X114883368Y-55833475D01*
G37*
%TD.AperFunction*%
%TD*%
M02*
