%TF.GenerationSoftware,KiCad,Pcbnew,(5.1.12-1-10_14)*%
%TF.CreationDate,2022-01-30T11:35:25+08:00*%
%TF.ProjectId,bl600-sa-devboard,626c3630-302d-4736-912d-646576626f61,rev?*%
%TF.SameCoordinates,Original*%
%TF.FileFunction,Copper,L3,Inr*%
%TF.FilePolarity,Positive*%
%FSLAX46Y46*%
G04 Gerber Fmt 4.6, Leading zero omitted, Abs format (unit mm)*
G04 Created by KiCad (PCBNEW (5.1.12-1-10_14)) date 2022-01-30 11:35:25*
%MOMM*%
%LPD*%
G01*
G04 APERTURE LIST*
%TA.AperFunction,ComponentPad*%
%ADD10O,1.700000X1.700000*%
%TD*%
%TA.AperFunction,ComponentPad*%
%ADD11R,1.700000X1.700000*%
%TD*%
%TA.AperFunction,ComponentPad*%
%ADD12O,1.800000X1.000000*%
%TD*%
%TA.AperFunction,ComponentPad*%
%ADD13O,2.000000X1.000000*%
%TD*%
%TA.AperFunction,ComponentPad*%
%ADD14O,1.000000X1.000000*%
%TD*%
%TA.AperFunction,ComponentPad*%
%ADD15R,1.000000X1.000000*%
%TD*%
%TA.AperFunction,ViaPad*%
%ADD16C,0.450000*%
%TD*%
%TA.AperFunction,Conductor*%
%ADD17C,0.254000*%
%TD*%
%TA.AperFunction,Conductor*%
%ADD18C,0.100000*%
%TD*%
G04 APERTURE END LIST*
D10*
%TO.N,GND*%
%TO.C,J3*%
X136150000Y-52140000D03*
X136150000Y-54680000D03*
X133610000Y-52140000D03*
X133610000Y-54680000D03*
%TO.N,IO_17*%
X131070000Y-52140000D03*
%TO.N,IO_18*%
X131070000Y-54680000D03*
%TO.N,IO_19*%
X128530000Y-52140000D03*
%TO.N,IO_20*%
X128530000Y-54680000D03*
%TO.N,IO_21*%
X125990000Y-52140000D03*
%TO.N,IO_22*%
X125990000Y-54680000D03*
%TO.N,IO_23*%
X123450000Y-52140000D03*
%TO.N,IO_24*%
X123450000Y-54680000D03*
%TO.N,IO_25*%
X120910000Y-52140000D03*
%TO.N,IO_26*%
X120910000Y-54680000D03*
%TO.N,IO_27*%
X118370000Y-52140000D03*
%TO.N,IO_28*%
X118370000Y-54680000D03*
%TO.N,IO_29*%
X115830000Y-52140000D03*
%TO.N,IO_30*%
X115830000Y-54680000D03*
%TO.N,+3V3*%
X113290000Y-52140000D03*
D11*
X113290000Y-54680000D03*
%TD*%
D10*
%TO.N,GND*%
%TO.C,J2*%
X136150000Y-95320000D03*
X136150000Y-97860000D03*
%TO.N,IO_16*%
X133610000Y-95320000D03*
%TO.N,IO_15*%
X133610000Y-97860000D03*
%TO.N,IO_14*%
X131070000Y-95320000D03*
%TO.N,IO_13*%
X131070000Y-97860000D03*
%TO.N,IO_12*%
X128530000Y-95320000D03*
%TO.N,IO_11*%
X128530000Y-97860000D03*
%TO.N,IO_10*%
X125990000Y-95320000D03*
%TO.N,IO_9*%
X125990000Y-97860000D03*
%TO.N,IO_8*%
X123450000Y-95320000D03*
%TO.N,IO_7*%
X123450000Y-97860000D03*
%TO.N,IO_6*%
X120910000Y-95320000D03*
%TO.N,IO_5*%
X120910000Y-97860000D03*
%TO.N,IO_4*%
X118370000Y-95320000D03*
%TO.N,IO_3*%
X118370000Y-97860000D03*
%TO.N,IO_2*%
X115830000Y-95320000D03*
%TO.N,IO_1*%
X115830000Y-97860000D03*
%TO.N,IO_0*%
X113290000Y-95320000D03*
D11*
%TO.N,+3V3*%
X113290000Y-97860000D03*
%TD*%
D12*
%TO.N,Net-(J1-Pad0)*%
%TO.C,J1*%
X103050000Y-78875000D03*
X103050000Y-71125000D03*
D13*
X106850000Y-78725000D03*
X106850000Y-71275000D03*
%TD*%
D14*
%TO.N,GND*%
%TO.C,CON1*%
X107775000Y-90080000D03*
%TO.N,IO_4*%
X109045000Y-90080000D03*
%TO.N,SWCLK*%
X107775000Y-88810000D03*
%TO.N,IO_5*%
X109045000Y-88810000D03*
%TO.N,SWDIO*%
X107775000Y-87540000D03*
%TO.N,GND*%
X109045000Y-87540000D03*
%TO.N,+3V3*%
X107775000Y-86270000D03*
%TO.N,N/C*%
X109045000Y-86270000D03*
X109045000Y-85000000D03*
D15*
X107775000Y-85000000D03*
%TD*%
D16*
%TO.N,GND*%
X140600000Y-88630000D03*
X109240000Y-77050000D03*
X134960000Y-77350000D03*
X129320000Y-87490000D03*
X108830000Y-55140000D03*
X109770000Y-56460000D03*
X110400000Y-58440000D03*
X114640000Y-56830000D03*
X123830000Y-63680000D03*
X126190000Y-64920000D03*
X122970000Y-69430000D03*
X123570000Y-66600000D03*
X126460000Y-68030000D03*
X123570000Y-71920000D03*
X129590000Y-65950000D03*
X128340000Y-66980000D03*
X117600000Y-69910000D03*
X112450000Y-74850000D03*
X113610000Y-76610000D03*
X114900000Y-72610000D03*
X111030000Y-72350000D03*
X114510000Y-85670000D03*
X113810000Y-82840000D03*
X103030000Y-82910000D03*
X102390000Y-87400000D03*
X103740000Y-90670000D03*
X104440000Y-86050000D03*
X101680000Y-84960000D03*
X140430000Y-62320000D03*
X136390000Y-58400000D03*
X138120000Y-60330000D03*
X139790000Y-96320000D03*
X139850000Y-98690000D03*
X108290000Y-95670000D03*
X108030000Y-97920000D03*
X122530000Y-81050000D03*
%TO.N,+3V3*%
X110470000Y-64870000D03*
X110280000Y-66720000D03*
X110470000Y-62930000D03*
X132260000Y-77510000D03*
X122990000Y-67900000D03*
%TO.N,SWCLK*%
X140090000Y-78980000D03*
%TO.N,SWDIO*%
X139040000Y-79220000D03*
X115680000Y-79630000D03*
%TO.N,IO_16*%
X120060000Y-88360000D03*
%TO.N,IO_17*%
X139310000Y-74040000D03*
X119670000Y-61530000D03*
%TO.N,IO_18*%
X138620000Y-73440000D03*
%TO.N,IO_19*%
X137930000Y-72980000D03*
%TO.N,IO_20*%
X137270000Y-72460000D03*
%TD*%
D17*
%TO.N,+3V3*%
X113162998Y-50819844D02*
X112933110Y-50698524D01*
X112785901Y-50743175D01*
X112523080Y-50868359D01*
X112289731Y-51042412D01*
X112094822Y-51258645D01*
X111945843Y-51508748D01*
X111848519Y-51783109D01*
X111969186Y-52013000D01*
X113163000Y-52013000D01*
X113163000Y-51993000D01*
X113417000Y-51993000D01*
X113417000Y-52013000D01*
X113437000Y-52013000D01*
X113437000Y-52267000D01*
X113417000Y-52267000D01*
X113417000Y-54553000D01*
X113437000Y-54553000D01*
X113437000Y-54807000D01*
X113417000Y-54807000D01*
X113417000Y-56006250D01*
X113575750Y-56165000D01*
X114085999Y-56167778D01*
X113971995Y-56281782D01*
X113877878Y-56422637D01*
X113813049Y-56579147D01*
X113780000Y-56745297D01*
X113780000Y-56914703D01*
X113813049Y-57080853D01*
X113877878Y-57237363D01*
X113971995Y-57378218D01*
X114091782Y-57498005D01*
X114232637Y-57592122D01*
X114389147Y-57656951D01*
X114555297Y-57690000D01*
X114724703Y-57690000D01*
X114890853Y-57656951D01*
X115047363Y-57592122D01*
X115188218Y-57498005D01*
X115308005Y-57378218D01*
X115402122Y-57237363D01*
X115466951Y-57080853D01*
X115500000Y-56914703D01*
X115500000Y-56745297D01*
X115466951Y-56579147D01*
X115402122Y-56422637D01*
X115308005Y-56281782D01*
X115188218Y-56161995D01*
X115047363Y-56067878D01*
X114890853Y-56003049D01*
X114724703Y-55970000D01*
X114600364Y-55970000D01*
X114670537Y-55884494D01*
X114729502Y-55774180D01*
X114751513Y-55701620D01*
X114883368Y-55833475D01*
X115126589Y-55995990D01*
X115396842Y-56107932D01*
X115683740Y-56165000D01*
X115976260Y-56165000D01*
X116263158Y-56107932D01*
X116533411Y-55995990D01*
X116776632Y-55833475D01*
X116983475Y-55626632D01*
X117100000Y-55452240D01*
X117216525Y-55626632D01*
X117423368Y-55833475D01*
X117666589Y-55995990D01*
X117936842Y-56107932D01*
X118223740Y-56165000D01*
X118516260Y-56165000D01*
X118803158Y-56107932D01*
X119073411Y-55995990D01*
X119316632Y-55833475D01*
X119523475Y-55626632D01*
X119640000Y-55452240D01*
X119756525Y-55626632D01*
X119963368Y-55833475D01*
X120206589Y-55995990D01*
X120476842Y-56107932D01*
X120763740Y-56165000D01*
X121056260Y-56165000D01*
X121343158Y-56107932D01*
X121613411Y-55995990D01*
X121856632Y-55833475D01*
X122063475Y-55626632D01*
X122180000Y-55452240D01*
X122296525Y-55626632D01*
X122503368Y-55833475D01*
X122746589Y-55995990D01*
X123016842Y-56107932D01*
X123303740Y-56165000D01*
X123596260Y-56165000D01*
X123883158Y-56107932D01*
X124153411Y-55995990D01*
X124396632Y-55833475D01*
X124603475Y-55626632D01*
X124720000Y-55452240D01*
X124836525Y-55626632D01*
X125043368Y-55833475D01*
X125286589Y-55995990D01*
X125556842Y-56107932D01*
X125843740Y-56165000D01*
X126136260Y-56165000D01*
X126423158Y-56107932D01*
X126693411Y-55995990D01*
X126936632Y-55833475D01*
X127143475Y-55626632D01*
X127260000Y-55452240D01*
X127376525Y-55626632D01*
X127583368Y-55833475D01*
X127826589Y-55995990D01*
X128096842Y-56107932D01*
X128383740Y-56165000D01*
X128676260Y-56165000D01*
X128963158Y-56107932D01*
X129233411Y-55995990D01*
X129476632Y-55833475D01*
X129683475Y-55626632D01*
X129800000Y-55452240D01*
X129916525Y-55626632D01*
X130123368Y-55833475D01*
X130366589Y-55995990D01*
X130636842Y-56107932D01*
X130923740Y-56165000D01*
X131216260Y-56165000D01*
X131503158Y-56107932D01*
X131773411Y-55995990D01*
X132016632Y-55833475D01*
X132223475Y-55626632D01*
X132340000Y-55452240D01*
X132456525Y-55626632D01*
X132663368Y-55833475D01*
X132906589Y-55995990D01*
X133176842Y-56107932D01*
X133463740Y-56165000D01*
X133756260Y-56165000D01*
X134043158Y-56107932D01*
X134313411Y-55995990D01*
X134556632Y-55833475D01*
X134763475Y-55626632D01*
X134880000Y-55452240D01*
X134996525Y-55626632D01*
X135203368Y-55833475D01*
X135446589Y-55995990D01*
X135716842Y-56107932D01*
X136003740Y-56165000D01*
X136296260Y-56165000D01*
X136583158Y-56107932D01*
X136853411Y-55995990D01*
X137096632Y-55833475D01*
X137303475Y-55626632D01*
X137465990Y-55383411D01*
X137577932Y-55113158D01*
X137635000Y-54826260D01*
X137635000Y-54533740D01*
X137577932Y-54246842D01*
X137465990Y-53976589D01*
X137303475Y-53733368D01*
X137096632Y-53526525D01*
X136922240Y-53410000D01*
X137096632Y-53293475D01*
X137303475Y-53086632D01*
X137465990Y-52843411D01*
X137492308Y-52779872D01*
X144765000Y-52779872D01*
X144765000Y-53220128D01*
X144850890Y-53651925D01*
X145019369Y-54058669D01*
X145263962Y-54424729D01*
X145575271Y-54736038D01*
X145941331Y-54980631D01*
X146348075Y-55149110D01*
X146779872Y-55235000D01*
X147220128Y-55235000D01*
X147651925Y-55149110D01*
X148058669Y-54980631D01*
X148424729Y-54736038D01*
X148736038Y-54424729D01*
X148980631Y-54058669D01*
X149149110Y-53651925D01*
X149235000Y-53220128D01*
X149235000Y-52779872D01*
X149149110Y-52348075D01*
X148980631Y-51941331D01*
X148736038Y-51575271D01*
X148424729Y-51263962D01*
X148058669Y-51019369D01*
X147651925Y-50850890D01*
X147220128Y-50765000D01*
X146779872Y-50765000D01*
X146348075Y-50850890D01*
X145941331Y-51019369D01*
X145575271Y-51263962D01*
X145263962Y-51575271D01*
X145019369Y-51941331D01*
X144850890Y-52348075D01*
X144765000Y-52779872D01*
X137492308Y-52779872D01*
X137577932Y-52573158D01*
X137635000Y-52286260D01*
X137635000Y-51993740D01*
X137577932Y-51706842D01*
X137465990Y-51436589D01*
X137303475Y-51193368D01*
X137096632Y-50986525D01*
X136853411Y-50824010D01*
X136583158Y-50712068D01*
X136321397Y-50660000D01*
X146967721Y-50660000D01*
X147453893Y-50707670D01*
X147890498Y-50839489D01*
X148293185Y-51053600D01*
X148646612Y-51341848D01*
X148937327Y-51693261D01*
X149154242Y-52094439D01*
X149289106Y-52530113D01*
X149340000Y-53014344D01*
X149340000Y-60152146D01*
X142112047Y-60152146D01*
X142087688Y-60154504D01*
X142063840Y-60161651D01*
X142041844Y-60173314D01*
X142022546Y-60189043D01*
X142006687Y-60208235D01*
X141994878Y-60230152D01*
X141987571Y-60253952D01*
X141985048Y-60278721D01*
X141885048Y-90128721D01*
X141887536Y-90154168D01*
X141894810Y-90177978D01*
X141906589Y-90199911D01*
X141922421Y-90219125D01*
X141941698Y-90234881D01*
X141963677Y-90246574D01*
X141987516Y-90253754D01*
X142012297Y-90256146D01*
X149340001Y-90241721D01*
X149340001Y-96967711D01*
X149292330Y-97453894D01*
X149160512Y-97890497D01*
X148946399Y-98293186D01*
X148658150Y-98646613D01*
X148306739Y-98937327D01*
X147905564Y-99154240D01*
X147469886Y-99289106D01*
X146985664Y-99340000D01*
X140416223Y-99340000D01*
X140518005Y-99238218D01*
X140612122Y-99097363D01*
X140676951Y-98940853D01*
X140710000Y-98774703D01*
X140710000Y-98605297D01*
X140676951Y-98439147D01*
X140612122Y-98282637D01*
X140518005Y-98141782D01*
X140398218Y-98021995D01*
X140257363Y-97927878D01*
X140100853Y-97863049D01*
X139934703Y-97830000D01*
X139765297Y-97830000D01*
X139599147Y-97863049D01*
X139442637Y-97927878D01*
X139301782Y-98021995D01*
X139181995Y-98141782D01*
X139087878Y-98282637D01*
X139023049Y-98439147D01*
X138990000Y-98605297D01*
X138990000Y-98774703D01*
X139023049Y-98940853D01*
X139087878Y-99097363D01*
X139181995Y-99238218D01*
X139283777Y-99340000D01*
X136321397Y-99340000D01*
X136583158Y-99287932D01*
X136853411Y-99175990D01*
X137096632Y-99013475D01*
X137303475Y-98806632D01*
X137465990Y-98563411D01*
X137577932Y-98293158D01*
X137635000Y-98006260D01*
X137635000Y-97713740D01*
X137577932Y-97426842D01*
X137465990Y-97156589D01*
X137303475Y-96913368D01*
X137096632Y-96706525D01*
X136922240Y-96590000D01*
X137096632Y-96473475D01*
X137303475Y-96266632D01*
X137324412Y-96235297D01*
X138930000Y-96235297D01*
X138930000Y-96404703D01*
X138963049Y-96570853D01*
X139027878Y-96727363D01*
X139121995Y-96868218D01*
X139241782Y-96988005D01*
X139382637Y-97082122D01*
X139539147Y-97146951D01*
X139705297Y-97180000D01*
X139874703Y-97180000D01*
X140040853Y-97146951D01*
X140197363Y-97082122D01*
X140338218Y-96988005D01*
X140458005Y-96868218D01*
X140517036Y-96779872D01*
X144765000Y-96779872D01*
X144765000Y-97220128D01*
X144850890Y-97651925D01*
X145019369Y-98058669D01*
X145263962Y-98424729D01*
X145575271Y-98736038D01*
X145941331Y-98980631D01*
X146348075Y-99149110D01*
X146779872Y-99235000D01*
X147220128Y-99235000D01*
X147651925Y-99149110D01*
X148058669Y-98980631D01*
X148424729Y-98736038D01*
X148736038Y-98424729D01*
X148980631Y-98058669D01*
X149149110Y-97651925D01*
X149235000Y-97220128D01*
X149235000Y-96779872D01*
X149149110Y-96348075D01*
X148980631Y-95941331D01*
X148736038Y-95575271D01*
X148424729Y-95263962D01*
X148058669Y-95019369D01*
X147651925Y-94850890D01*
X147220128Y-94765000D01*
X146779872Y-94765000D01*
X146348075Y-94850890D01*
X145941331Y-95019369D01*
X145575271Y-95263962D01*
X145263962Y-95575271D01*
X145019369Y-95941331D01*
X144850890Y-96348075D01*
X144765000Y-96779872D01*
X140517036Y-96779872D01*
X140552122Y-96727363D01*
X140616951Y-96570853D01*
X140650000Y-96404703D01*
X140650000Y-96235297D01*
X140616951Y-96069147D01*
X140552122Y-95912637D01*
X140458005Y-95771782D01*
X140338218Y-95651995D01*
X140197363Y-95557878D01*
X140040853Y-95493049D01*
X139874703Y-95460000D01*
X139705297Y-95460000D01*
X139539147Y-95493049D01*
X139382637Y-95557878D01*
X139241782Y-95651995D01*
X139121995Y-95771782D01*
X139027878Y-95912637D01*
X138963049Y-96069147D01*
X138930000Y-96235297D01*
X137324412Y-96235297D01*
X137465990Y-96023411D01*
X137577932Y-95753158D01*
X137635000Y-95466260D01*
X137635000Y-95173740D01*
X137577932Y-94886842D01*
X137465990Y-94616589D01*
X137303475Y-94373368D01*
X137096632Y-94166525D01*
X136853411Y-94004010D01*
X136583158Y-93892068D01*
X136296260Y-93835000D01*
X136003740Y-93835000D01*
X135716842Y-93892068D01*
X135446589Y-94004010D01*
X135203368Y-94166525D01*
X134996525Y-94373368D01*
X134880000Y-94547760D01*
X134763475Y-94373368D01*
X134556632Y-94166525D01*
X134313411Y-94004010D01*
X134043158Y-93892068D01*
X133756260Y-93835000D01*
X133463740Y-93835000D01*
X133176842Y-93892068D01*
X132906589Y-94004010D01*
X132663368Y-94166525D01*
X132456525Y-94373368D01*
X132340000Y-94547760D01*
X132223475Y-94373368D01*
X132016632Y-94166525D01*
X131773411Y-94004010D01*
X131503158Y-93892068D01*
X131216260Y-93835000D01*
X130923740Y-93835000D01*
X130636842Y-93892068D01*
X130366589Y-94004010D01*
X130123368Y-94166525D01*
X129916525Y-94373368D01*
X129800000Y-94547760D01*
X129683475Y-94373368D01*
X129476632Y-94166525D01*
X129233411Y-94004010D01*
X128963158Y-93892068D01*
X128676260Y-93835000D01*
X128383740Y-93835000D01*
X128096842Y-93892068D01*
X127826589Y-94004010D01*
X127583368Y-94166525D01*
X127376525Y-94373368D01*
X127260000Y-94547760D01*
X127143475Y-94373368D01*
X126936632Y-94166525D01*
X126693411Y-94004010D01*
X126423158Y-93892068D01*
X126136260Y-93835000D01*
X125843740Y-93835000D01*
X125556842Y-93892068D01*
X125286589Y-94004010D01*
X125043368Y-94166525D01*
X124836525Y-94373368D01*
X124720000Y-94547760D01*
X124603475Y-94373368D01*
X124396632Y-94166525D01*
X124153411Y-94004010D01*
X123883158Y-93892068D01*
X123596260Y-93835000D01*
X123303740Y-93835000D01*
X123016842Y-93892068D01*
X122746589Y-94004010D01*
X122503368Y-94166525D01*
X122296525Y-94373368D01*
X122180000Y-94547760D01*
X122063475Y-94373368D01*
X121856632Y-94166525D01*
X121613411Y-94004010D01*
X121343158Y-93892068D01*
X121056260Y-93835000D01*
X120763740Y-93835000D01*
X120476842Y-93892068D01*
X120206589Y-94004010D01*
X119963368Y-94166525D01*
X119756525Y-94373368D01*
X119640000Y-94547760D01*
X119523475Y-94373368D01*
X119316632Y-94166525D01*
X119073411Y-94004010D01*
X118803158Y-93892068D01*
X118516260Y-93835000D01*
X118223740Y-93835000D01*
X117936842Y-93892068D01*
X117666589Y-94004010D01*
X117423368Y-94166525D01*
X117216525Y-94373368D01*
X117100000Y-94547760D01*
X116983475Y-94373368D01*
X116776632Y-94166525D01*
X116533411Y-94004010D01*
X116263158Y-93892068D01*
X115976260Y-93835000D01*
X115683740Y-93835000D01*
X115396842Y-93892068D01*
X115126589Y-94004010D01*
X114883368Y-94166525D01*
X114676525Y-94373368D01*
X114560000Y-94547760D01*
X114443475Y-94373368D01*
X114236632Y-94166525D01*
X113993411Y-94004010D01*
X113723158Y-93892068D01*
X113436260Y-93835000D01*
X113143740Y-93835000D01*
X112856842Y-93892068D01*
X112586589Y-94004010D01*
X112343368Y-94166525D01*
X112136525Y-94373368D01*
X111974010Y-94616589D01*
X111862068Y-94886842D01*
X111805000Y-95173740D01*
X111805000Y-95466260D01*
X111862068Y-95753158D01*
X111974010Y-96023411D01*
X112136525Y-96266632D01*
X112268380Y-96398487D01*
X112195820Y-96420498D01*
X112085506Y-96479463D01*
X111988815Y-96558815D01*
X111909463Y-96655506D01*
X111850498Y-96765820D01*
X111814188Y-96885518D01*
X111801928Y-97010000D01*
X111805000Y-97574250D01*
X111963750Y-97733000D01*
X113163000Y-97733000D01*
X113163000Y-97713000D01*
X113417000Y-97713000D01*
X113417000Y-97733000D01*
X113437000Y-97733000D01*
X113437000Y-97987000D01*
X113417000Y-97987000D01*
X113417000Y-98007000D01*
X113163000Y-98007000D01*
X113163000Y-97987000D01*
X111963750Y-97987000D01*
X111805000Y-98145750D01*
X111801928Y-98710000D01*
X111814188Y-98834482D01*
X111850498Y-98954180D01*
X111909463Y-99064494D01*
X111988815Y-99161185D01*
X112085506Y-99240537D01*
X112195820Y-99299502D01*
X112315518Y-99335812D01*
X112358041Y-99340000D01*
X103032279Y-99340000D01*
X102546106Y-99292330D01*
X102109503Y-99160512D01*
X101706814Y-98946399D01*
X101353387Y-98658150D01*
X101062673Y-98306739D01*
X100845760Y-97905564D01*
X100710894Y-97469886D01*
X100660000Y-96985664D01*
X100660000Y-96779872D01*
X100765000Y-96779872D01*
X100765000Y-97220128D01*
X100850890Y-97651925D01*
X101019369Y-98058669D01*
X101263962Y-98424729D01*
X101575271Y-98736038D01*
X101941331Y-98980631D01*
X102348075Y-99149110D01*
X102779872Y-99235000D01*
X103220128Y-99235000D01*
X103651925Y-99149110D01*
X104058669Y-98980631D01*
X104424729Y-98736038D01*
X104736038Y-98424729D01*
X104980631Y-98058669D01*
X105073154Y-97835297D01*
X107170000Y-97835297D01*
X107170000Y-98004703D01*
X107203049Y-98170853D01*
X107267878Y-98327363D01*
X107361995Y-98468218D01*
X107481782Y-98588005D01*
X107622637Y-98682122D01*
X107779147Y-98746951D01*
X107945297Y-98780000D01*
X108114703Y-98780000D01*
X108280853Y-98746951D01*
X108437363Y-98682122D01*
X108578218Y-98588005D01*
X108698005Y-98468218D01*
X108792122Y-98327363D01*
X108856951Y-98170853D01*
X108890000Y-98004703D01*
X108890000Y-97835297D01*
X108856951Y-97669147D01*
X108792122Y-97512637D01*
X108698005Y-97371782D01*
X108578218Y-97251995D01*
X108437363Y-97157878D01*
X108280853Y-97093049D01*
X108114703Y-97060000D01*
X107945297Y-97060000D01*
X107779147Y-97093049D01*
X107622637Y-97157878D01*
X107481782Y-97251995D01*
X107361995Y-97371782D01*
X107267878Y-97512637D01*
X107203049Y-97669147D01*
X107170000Y-97835297D01*
X105073154Y-97835297D01*
X105149110Y-97651925D01*
X105235000Y-97220128D01*
X105235000Y-96779872D01*
X105149110Y-96348075D01*
X104980631Y-95941331D01*
X104742738Y-95585297D01*
X107430000Y-95585297D01*
X107430000Y-95754703D01*
X107463049Y-95920853D01*
X107527878Y-96077363D01*
X107621995Y-96218218D01*
X107741782Y-96338005D01*
X107882637Y-96432122D01*
X108039147Y-96496951D01*
X108205297Y-96530000D01*
X108374703Y-96530000D01*
X108540853Y-96496951D01*
X108697363Y-96432122D01*
X108838218Y-96338005D01*
X108958005Y-96218218D01*
X109052122Y-96077363D01*
X109116951Y-95920853D01*
X109150000Y-95754703D01*
X109150000Y-95585297D01*
X109116951Y-95419147D01*
X109052122Y-95262637D01*
X108958005Y-95121782D01*
X108838218Y-95001995D01*
X108697363Y-94907878D01*
X108540853Y-94843049D01*
X108374703Y-94810000D01*
X108205297Y-94810000D01*
X108039147Y-94843049D01*
X107882637Y-94907878D01*
X107741782Y-95001995D01*
X107621995Y-95121782D01*
X107527878Y-95262637D01*
X107463049Y-95419147D01*
X107430000Y-95585297D01*
X104742738Y-95585297D01*
X104736038Y-95575271D01*
X104424729Y-95263962D01*
X104058669Y-95019369D01*
X103651925Y-94850890D01*
X103220128Y-94765000D01*
X102779872Y-94765000D01*
X102348075Y-94850890D01*
X101941331Y-95019369D01*
X101575271Y-95263962D01*
X101263962Y-95575271D01*
X101019369Y-95941331D01*
X100850890Y-96348075D01*
X100765000Y-96779872D01*
X100660000Y-96779872D01*
X100660000Y-90585297D01*
X102880000Y-90585297D01*
X102880000Y-90754703D01*
X102913049Y-90920853D01*
X102977878Y-91077363D01*
X103071995Y-91218218D01*
X103191782Y-91338005D01*
X103332637Y-91432122D01*
X103489147Y-91496951D01*
X103655297Y-91530000D01*
X103824703Y-91530000D01*
X103990853Y-91496951D01*
X104147363Y-91432122D01*
X104288218Y-91338005D01*
X104408005Y-91218218D01*
X104502122Y-91077363D01*
X104566951Y-90920853D01*
X104600000Y-90754703D01*
X104600000Y-90585297D01*
X104566951Y-90419147D01*
X104502122Y-90262637D01*
X104408005Y-90121782D01*
X104288218Y-90001995D01*
X104147363Y-89907878D01*
X103990853Y-89843049D01*
X103824703Y-89810000D01*
X103655297Y-89810000D01*
X103489147Y-89843049D01*
X103332637Y-89907878D01*
X103191782Y-90001995D01*
X103071995Y-90121782D01*
X102977878Y-90262637D01*
X102913049Y-90419147D01*
X102880000Y-90585297D01*
X100660000Y-90585297D01*
X100660000Y-87315297D01*
X101530000Y-87315297D01*
X101530000Y-87484703D01*
X101563049Y-87650853D01*
X101627878Y-87807363D01*
X101721995Y-87948218D01*
X101841782Y-88068005D01*
X101982637Y-88162122D01*
X102139147Y-88226951D01*
X102305297Y-88260000D01*
X102474703Y-88260000D01*
X102640853Y-88226951D01*
X102797363Y-88162122D01*
X102938218Y-88068005D01*
X103058005Y-87948218D01*
X103152122Y-87807363D01*
X103216951Y-87650853D01*
X103250000Y-87484703D01*
X103250000Y-87315297D01*
X103216951Y-87149147D01*
X103152122Y-86992637D01*
X103058005Y-86851782D01*
X102938218Y-86731995D01*
X102797363Y-86637878D01*
X102640853Y-86573049D01*
X102474703Y-86540000D01*
X102305297Y-86540000D01*
X102139147Y-86573049D01*
X101982637Y-86637878D01*
X101841782Y-86731995D01*
X101721995Y-86851782D01*
X101627878Y-86992637D01*
X101563049Y-87149147D01*
X101530000Y-87315297D01*
X100660000Y-87315297D01*
X100660000Y-85965297D01*
X103580000Y-85965297D01*
X103580000Y-86134703D01*
X103613049Y-86300853D01*
X103677878Y-86457363D01*
X103771995Y-86598218D01*
X103891782Y-86718005D01*
X104032637Y-86812122D01*
X104189147Y-86876951D01*
X104355297Y-86910000D01*
X104524703Y-86910000D01*
X104690853Y-86876951D01*
X104847363Y-86812122D01*
X104988218Y-86718005D01*
X105108005Y-86598218D01*
X105202122Y-86457363D01*
X105266951Y-86300853D01*
X105300000Y-86134703D01*
X105300000Y-85965297D01*
X105266951Y-85799147D01*
X105202122Y-85642637D01*
X105108005Y-85501782D01*
X104988218Y-85381995D01*
X104847363Y-85287878D01*
X104690853Y-85223049D01*
X104524703Y-85190000D01*
X104355297Y-85190000D01*
X104189147Y-85223049D01*
X104032637Y-85287878D01*
X103891782Y-85381995D01*
X103771995Y-85501782D01*
X103677878Y-85642637D01*
X103613049Y-85799147D01*
X103580000Y-85965297D01*
X100660000Y-85965297D01*
X100660000Y-84875297D01*
X100820000Y-84875297D01*
X100820000Y-85044703D01*
X100853049Y-85210853D01*
X100917878Y-85367363D01*
X101011995Y-85508218D01*
X101131782Y-85628005D01*
X101272637Y-85722122D01*
X101429147Y-85786951D01*
X101595297Y-85820000D01*
X101764703Y-85820000D01*
X101930853Y-85786951D01*
X102087363Y-85722122D01*
X102228218Y-85628005D01*
X102348005Y-85508218D01*
X102442122Y-85367363D01*
X102506951Y-85210853D01*
X102540000Y-85044703D01*
X102540000Y-84875297D01*
X102506951Y-84709147D01*
X102442122Y-84552637D01*
X102406951Y-84500000D01*
X106636928Y-84500000D01*
X106636928Y-85500000D01*
X106649188Y-85624482D01*
X106685498Y-85744180D01*
X106733070Y-85833180D01*
X106697554Y-85913136D01*
X106680881Y-85968126D01*
X106807046Y-86143000D01*
X107648000Y-86143000D01*
X107648000Y-86138072D01*
X107902000Y-86138072D01*
X107902000Y-86143000D01*
X107913026Y-86143000D01*
X107910000Y-86158212D01*
X107910000Y-86381788D01*
X107913026Y-86397000D01*
X107902000Y-86397000D01*
X107902000Y-86408026D01*
X107886788Y-86405000D01*
X107663212Y-86405000D01*
X107648000Y-86408026D01*
X107648000Y-86397000D01*
X106807046Y-86397000D01*
X106680881Y-86571874D01*
X106697554Y-86626864D01*
X106787877Y-86830206D01*
X106837353Y-86900342D01*
X106769176Y-87002376D01*
X106683617Y-87208933D01*
X106640000Y-87428212D01*
X106640000Y-87651788D01*
X106683617Y-87871067D01*
X106769176Y-88077624D01*
X106834241Y-88175000D01*
X106769176Y-88272376D01*
X106683617Y-88478933D01*
X106640000Y-88698212D01*
X106640000Y-88921788D01*
X106683617Y-89141067D01*
X106769176Y-89347624D01*
X106834241Y-89445000D01*
X106769176Y-89542376D01*
X106683617Y-89748933D01*
X106640000Y-89968212D01*
X106640000Y-90191788D01*
X106683617Y-90411067D01*
X106769176Y-90617624D01*
X106893388Y-90803520D01*
X107051480Y-90961612D01*
X107237376Y-91085824D01*
X107443933Y-91171383D01*
X107663212Y-91215000D01*
X107886788Y-91215000D01*
X108106067Y-91171383D01*
X108312624Y-91085824D01*
X108410000Y-91020759D01*
X108507376Y-91085824D01*
X108713933Y-91171383D01*
X108933212Y-91215000D01*
X109156788Y-91215000D01*
X109376067Y-91171383D01*
X109582624Y-91085824D01*
X109768520Y-90961612D01*
X109926612Y-90803520D01*
X110050824Y-90617624D01*
X110136383Y-90411067D01*
X110180000Y-90191788D01*
X110180000Y-89968212D01*
X110136383Y-89748933D01*
X110050824Y-89542376D01*
X109985759Y-89445000D01*
X110050824Y-89347624D01*
X110136383Y-89141067D01*
X110180000Y-88921788D01*
X110180000Y-88698212D01*
X110136383Y-88478933D01*
X110052034Y-88275297D01*
X119200000Y-88275297D01*
X119200000Y-88444703D01*
X119233049Y-88610853D01*
X119297878Y-88767363D01*
X119391995Y-88908218D01*
X119511782Y-89028005D01*
X119652637Y-89122122D01*
X119809147Y-89186951D01*
X119975297Y-89220000D01*
X120144703Y-89220000D01*
X120310853Y-89186951D01*
X120467363Y-89122122D01*
X120608218Y-89028005D01*
X120728005Y-88908218D01*
X120822122Y-88767363D01*
X120886951Y-88610853D01*
X120899990Y-88545297D01*
X139740000Y-88545297D01*
X139740000Y-88714703D01*
X139773049Y-88880853D01*
X139837878Y-89037363D01*
X139931995Y-89178218D01*
X140051782Y-89298005D01*
X140192637Y-89392122D01*
X140349147Y-89456951D01*
X140515297Y-89490000D01*
X140684703Y-89490000D01*
X140850853Y-89456951D01*
X141007363Y-89392122D01*
X141148218Y-89298005D01*
X141268005Y-89178218D01*
X141362122Y-89037363D01*
X141426951Y-88880853D01*
X141460000Y-88714703D01*
X141460000Y-88545297D01*
X141426951Y-88379147D01*
X141362122Y-88222637D01*
X141268005Y-88081782D01*
X141148218Y-87961995D01*
X141007363Y-87867878D01*
X140850853Y-87803049D01*
X140684703Y-87770000D01*
X140515297Y-87770000D01*
X140349147Y-87803049D01*
X140192637Y-87867878D01*
X140051782Y-87961995D01*
X139931995Y-88081782D01*
X139837878Y-88222637D01*
X139773049Y-88379147D01*
X139740000Y-88545297D01*
X120899990Y-88545297D01*
X120920000Y-88444703D01*
X120920000Y-88275297D01*
X120886951Y-88109147D01*
X120822122Y-87952637D01*
X120728005Y-87811782D01*
X120608218Y-87691995D01*
X120467363Y-87597878D01*
X120310853Y-87533049D01*
X120144703Y-87500000D01*
X119975297Y-87500000D01*
X119809147Y-87533049D01*
X119652637Y-87597878D01*
X119511782Y-87691995D01*
X119391995Y-87811782D01*
X119297878Y-87952637D01*
X119233049Y-88109147D01*
X119200000Y-88275297D01*
X110052034Y-88275297D01*
X110050824Y-88272376D01*
X109985759Y-88175000D01*
X110050824Y-88077624D01*
X110136383Y-87871067D01*
X110180000Y-87651788D01*
X110180000Y-87428212D01*
X110175442Y-87405297D01*
X128460000Y-87405297D01*
X128460000Y-87574703D01*
X128493049Y-87740853D01*
X128557878Y-87897363D01*
X128651995Y-88038218D01*
X128771782Y-88158005D01*
X128912637Y-88252122D01*
X129069147Y-88316951D01*
X129235297Y-88350000D01*
X129404703Y-88350000D01*
X129570853Y-88316951D01*
X129727363Y-88252122D01*
X129868218Y-88158005D01*
X129988005Y-88038218D01*
X130082122Y-87897363D01*
X130146951Y-87740853D01*
X130180000Y-87574703D01*
X130180000Y-87405297D01*
X130146951Y-87239147D01*
X130082122Y-87082637D01*
X129988005Y-86941782D01*
X129868218Y-86821995D01*
X129727363Y-86727878D01*
X129570853Y-86663049D01*
X129404703Y-86630000D01*
X129235297Y-86630000D01*
X129069147Y-86663049D01*
X128912637Y-86727878D01*
X128771782Y-86821995D01*
X128651995Y-86941782D01*
X128557878Y-87082637D01*
X128493049Y-87239147D01*
X128460000Y-87405297D01*
X110175442Y-87405297D01*
X110136383Y-87208933D01*
X110050824Y-87002376D01*
X109985759Y-86905000D01*
X110050824Y-86807624D01*
X110136383Y-86601067D01*
X110180000Y-86381788D01*
X110180000Y-86158212D01*
X110136383Y-85938933D01*
X110050824Y-85732376D01*
X109985759Y-85635000D01*
X110018969Y-85585297D01*
X113650000Y-85585297D01*
X113650000Y-85754703D01*
X113683049Y-85920853D01*
X113747878Y-86077363D01*
X113841995Y-86218218D01*
X113961782Y-86338005D01*
X114102637Y-86432122D01*
X114259147Y-86496951D01*
X114425297Y-86530000D01*
X114594703Y-86530000D01*
X114760853Y-86496951D01*
X114917363Y-86432122D01*
X115058218Y-86338005D01*
X115178005Y-86218218D01*
X115272122Y-86077363D01*
X115336951Y-85920853D01*
X115370000Y-85754703D01*
X115370000Y-85585297D01*
X115336951Y-85419147D01*
X115272122Y-85262637D01*
X115178005Y-85121782D01*
X115058218Y-85001995D01*
X114917363Y-84907878D01*
X114760853Y-84843049D01*
X114594703Y-84810000D01*
X114425297Y-84810000D01*
X114259147Y-84843049D01*
X114102637Y-84907878D01*
X113961782Y-85001995D01*
X113841995Y-85121782D01*
X113747878Y-85262637D01*
X113683049Y-85419147D01*
X113650000Y-85585297D01*
X110018969Y-85585297D01*
X110050824Y-85537624D01*
X110136383Y-85331067D01*
X110180000Y-85111788D01*
X110180000Y-84888212D01*
X110136383Y-84668933D01*
X110050824Y-84462376D01*
X109926612Y-84276480D01*
X109768520Y-84118388D01*
X109582624Y-83994176D01*
X109376067Y-83908617D01*
X109156788Y-83865000D01*
X108933212Y-83865000D01*
X108713933Y-83908617D01*
X108602226Y-83954888D01*
X108519180Y-83910498D01*
X108399482Y-83874188D01*
X108275000Y-83861928D01*
X107275000Y-83861928D01*
X107150518Y-83874188D01*
X107030820Y-83910498D01*
X106920506Y-83969463D01*
X106823815Y-84048815D01*
X106744463Y-84145506D01*
X106685498Y-84255820D01*
X106649188Y-84375518D01*
X106636928Y-84500000D01*
X102406951Y-84500000D01*
X102348005Y-84411782D01*
X102228218Y-84291995D01*
X102087363Y-84197878D01*
X101930853Y-84133049D01*
X101764703Y-84100000D01*
X101595297Y-84100000D01*
X101429147Y-84133049D01*
X101272637Y-84197878D01*
X101131782Y-84291995D01*
X101011995Y-84411782D01*
X100917878Y-84552637D01*
X100853049Y-84709147D01*
X100820000Y-84875297D01*
X100660000Y-84875297D01*
X100660000Y-82825297D01*
X102170000Y-82825297D01*
X102170000Y-82994703D01*
X102203049Y-83160853D01*
X102267878Y-83317363D01*
X102361995Y-83458218D01*
X102481782Y-83578005D01*
X102622637Y-83672122D01*
X102779147Y-83736951D01*
X102945297Y-83770000D01*
X103114703Y-83770000D01*
X103280853Y-83736951D01*
X103437363Y-83672122D01*
X103578218Y-83578005D01*
X103698005Y-83458218D01*
X103792122Y-83317363D01*
X103856951Y-83160853D01*
X103890000Y-82994703D01*
X103890000Y-82825297D01*
X103876077Y-82755297D01*
X112950000Y-82755297D01*
X112950000Y-82924703D01*
X112983049Y-83090853D01*
X113047878Y-83247363D01*
X113141995Y-83388218D01*
X113261782Y-83508005D01*
X113402637Y-83602122D01*
X113559147Y-83666951D01*
X113725297Y-83700000D01*
X113894703Y-83700000D01*
X114060853Y-83666951D01*
X114217363Y-83602122D01*
X114358218Y-83508005D01*
X114478005Y-83388218D01*
X114572122Y-83247363D01*
X114636951Y-83090853D01*
X114670000Y-82924703D01*
X114670000Y-82755297D01*
X114636951Y-82589147D01*
X114572122Y-82432637D01*
X114478005Y-82291782D01*
X114358218Y-82171995D01*
X114217363Y-82077878D01*
X114060853Y-82013049D01*
X113894703Y-81980000D01*
X113725297Y-81980000D01*
X113559147Y-82013049D01*
X113402637Y-82077878D01*
X113261782Y-82171995D01*
X113141995Y-82291782D01*
X113047878Y-82432637D01*
X112983049Y-82589147D01*
X112950000Y-82755297D01*
X103876077Y-82755297D01*
X103856951Y-82659147D01*
X103792122Y-82502637D01*
X103698005Y-82361782D01*
X103578218Y-82241995D01*
X103437363Y-82147878D01*
X103280853Y-82083049D01*
X103114703Y-82050000D01*
X102945297Y-82050000D01*
X102779147Y-82083049D01*
X102622637Y-82147878D01*
X102481782Y-82241995D01*
X102361995Y-82361782D01*
X102267878Y-82502637D01*
X102203049Y-82659147D01*
X102170000Y-82825297D01*
X100660000Y-82825297D01*
X100660000Y-80965297D01*
X121670000Y-80965297D01*
X121670000Y-81134703D01*
X121703049Y-81300853D01*
X121767878Y-81457363D01*
X121861995Y-81598218D01*
X121981782Y-81718005D01*
X122122637Y-81812122D01*
X122279147Y-81876951D01*
X122445297Y-81910000D01*
X122614703Y-81910000D01*
X122780853Y-81876951D01*
X122937363Y-81812122D01*
X123078218Y-81718005D01*
X123198005Y-81598218D01*
X123292122Y-81457363D01*
X123356951Y-81300853D01*
X123390000Y-81134703D01*
X123390000Y-80965297D01*
X123356951Y-80799147D01*
X123292122Y-80642637D01*
X123198005Y-80501782D01*
X123078218Y-80381995D01*
X122937363Y-80287878D01*
X122780853Y-80223049D01*
X122614703Y-80190000D01*
X122445297Y-80190000D01*
X122279147Y-80223049D01*
X122122637Y-80287878D01*
X121981782Y-80381995D01*
X121861995Y-80501782D01*
X121767878Y-80642637D01*
X121703049Y-80799147D01*
X121670000Y-80965297D01*
X100660000Y-80965297D01*
X100660000Y-78875000D01*
X101509509Y-78875000D01*
X101531423Y-79097499D01*
X101596324Y-79311447D01*
X101701716Y-79508623D01*
X101843551Y-79681449D01*
X102016377Y-79823284D01*
X102213553Y-79928676D01*
X102427501Y-79993577D01*
X102594248Y-80010000D01*
X103505752Y-80010000D01*
X103672499Y-79993577D01*
X103886447Y-79928676D01*
X104083623Y-79823284D01*
X104256449Y-79681449D01*
X104398284Y-79508623D01*
X104503676Y-79311447D01*
X104568577Y-79097499D01*
X104590491Y-78875000D01*
X104568577Y-78652501D01*
X104503676Y-78438553D01*
X104398284Y-78241377D01*
X104256449Y-78068551D01*
X104083623Y-77926716D01*
X103886447Y-77821324D01*
X103672499Y-77756423D01*
X103505752Y-77740000D01*
X102594248Y-77740000D01*
X102427501Y-77756423D01*
X102213553Y-77821324D01*
X102016377Y-77926716D01*
X101843551Y-78068551D01*
X101701716Y-78241377D01*
X101596324Y-78438553D01*
X101531423Y-78652501D01*
X101509509Y-78875000D01*
X100660000Y-78875000D01*
X100660000Y-77398061D01*
X104765000Y-77398061D01*
X104765000Y-77601939D01*
X104804774Y-77801898D01*
X104882795Y-77990256D01*
X104996063Y-78159774D01*
X105140226Y-78303937D01*
X105266136Y-78388067D01*
X105231423Y-78502501D01*
X105209509Y-78725000D01*
X105231423Y-78947499D01*
X105296324Y-79161447D01*
X105401716Y-79358623D01*
X105543551Y-79531449D01*
X105716377Y-79673284D01*
X105913553Y-79778676D01*
X106127501Y-79843577D01*
X106294248Y-79860000D01*
X107405752Y-79860000D01*
X107572499Y-79843577D01*
X107786447Y-79778676D01*
X107983623Y-79673284D01*
X108139575Y-79545297D01*
X114820000Y-79545297D01*
X114820000Y-79714703D01*
X114853049Y-79880853D01*
X114917878Y-80037363D01*
X115011995Y-80178218D01*
X115131782Y-80298005D01*
X115272637Y-80392122D01*
X115429147Y-80456951D01*
X115595297Y-80490000D01*
X115764703Y-80490000D01*
X115930853Y-80456951D01*
X116087363Y-80392122D01*
X116228218Y-80298005D01*
X116348005Y-80178218D01*
X116442122Y-80037363D01*
X116506951Y-79880853D01*
X116540000Y-79714703D01*
X116540000Y-79545297D01*
X116506951Y-79379147D01*
X116442122Y-79222637D01*
X116383763Y-79135297D01*
X138180000Y-79135297D01*
X138180000Y-79304703D01*
X138213049Y-79470853D01*
X138277878Y-79627363D01*
X138371995Y-79768218D01*
X138491782Y-79888005D01*
X138632637Y-79982122D01*
X138789147Y-80046951D01*
X138955297Y-80080000D01*
X139124703Y-80080000D01*
X139290853Y-80046951D01*
X139447363Y-79982122D01*
X139588218Y-79888005D01*
X139708005Y-79768218D01*
X139716163Y-79756009D01*
X139839147Y-79806951D01*
X140005297Y-79840000D01*
X140174703Y-79840000D01*
X140340853Y-79806951D01*
X140497363Y-79742122D01*
X140638218Y-79648005D01*
X140758005Y-79528218D01*
X140852122Y-79387363D01*
X140916951Y-79230853D01*
X140950000Y-79064703D01*
X140950000Y-78895297D01*
X140916951Y-78729147D01*
X140852122Y-78572637D01*
X140758005Y-78431782D01*
X140638218Y-78311995D01*
X140497363Y-78217878D01*
X140340853Y-78153049D01*
X140174703Y-78120000D01*
X140005297Y-78120000D01*
X139839147Y-78153049D01*
X139682637Y-78217878D01*
X139541782Y-78311995D01*
X139421995Y-78431782D01*
X139413837Y-78443991D01*
X139290853Y-78393049D01*
X139124703Y-78360000D01*
X138955297Y-78360000D01*
X138789147Y-78393049D01*
X138632637Y-78457878D01*
X138491782Y-78551995D01*
X138371995Y-78671782D01*
X138277878Y-78812637D01*
X138213049Y-78969147D01*
X138180000Y-79135297D01*
X116383763Y-79135297D01*
X116348005Y-79081782D01*
X116228218Y-78961995D01*
X116087363Y-78867878D01*
X115930853Y-78803049D01*
X115764703Y-78770000D01*
X115595297Y-78770000D01*
X115429147Y-78803049D01*
X115272637Y-78867878D01*
X115131782Y-78961995D01*
X115011995Y-79081782D01*
X114917878Y-79222637D01*
X114853049Y-79379147D01*
X114820000Y-79545297D01*
X108139575Y-79545297D01*
X108156449Y-79531449D01*
X108298284Y-79358623D01*
X108403676Y-79161447D01*
X108468577Y-78947499D01*
X108490491Y-78725000D01*
X108468577Y-78502501D01*
X108403676Y-78288553D01*
X108298284Y-78091377D01*
X108156449Y-77918551D01*
X107983623Y-77776716D01*
X107786447Y-77671324D01*
X107572499Y-77606423D01*
X107405752Y-77590000D01*
X106835000Y-77590000D01*
X106835000Y-77398061D01*
X106795226Y-77198102D01*
X106717205Y-77009744D01*
X106687507Y-76965297D01*
X108380000Y-76965297D01*
X108380000Y-77134703D01*
X108413049Y-77300853D01*
X108477878Y-77457363D01*
X108571995Y-77598218D01*
X108691782Y-77718005D01*
X108832637Y-77812122D01*
X108989147Y-77876951D01*
X109155297Y-77910000D01*
X109324703Y-77910000D01*
X109490853Y-77876951D01*
X109647363Y-77812122D01*
X109788218Y-77718005D01*
X109908005Y-77598218D01*
X110002122Y-77457363D01*
X110066951Y-77300853D01*
X110100000Y-77134703D01*
X110100000Y-76965297D01*
X110066951Y-76799147D01*
X110002122Y-76642637D01*
X109923718Y-76525297D01*
X112750000Y-76525297D01*
X112750000Y-76694703D01*
X112783049Y-76860853D01*
X112847878Y-77017363D01*
X112941995Y-77158218D01*
X113061782Y-77278005D01*
X113202637Y-77372122D01*
X113359147Y-77436951D01*
X113525297Y-77470000D01*
X113694703Y-77470000D01*
X113860853Y-77436951D01*
X114017363Y-77372122D01*
X114158218Y-77278005D01*
X114170926Y-77265297D01*
X134100000Y-77265297D01*
X134100000Y-77434703D01*
X134133049Y-77600853D01*
X134197878Y-77757363D01*
X134291995Y-77898218D01*
X134411782Y-78018005D01*
X134552637Y-78112122D01*
X134709147Y-78176951D01*
X134875297Y-78210000D01*
X135044703Y-78210000D01*
X135210853Y-78176951D01*
X135367363Y-78112122D01*
X135508218Y-78018005D01*
X135628005Y-77898218D01*
X135722122Y-77757363D01*
X135786951Y-77600853D01*
X135820000Y-77434703D01*
X135820000Y-77265297D01*
X135786951Y-77099147D01*
X135722122Y-76942637D01*
X135628005Y-76801782D01*
X135508218Y-76681995D01*
X135367363Y-76587878D01*
X135210853Y-76523049D01*
X135044703Y-76490000D01*
X134875297Y-76490000D01*
X134709147Y-76523049D01*
X134552637Y-76587878D01*
X134411782Y-76681995D01*
X134291995Y-76801782D01*
X134197878Y-76942637D01*
X134133049Y-77099147D01*
X134100000Y-77265297D01*
X114170926Y-77265297D01*
X114278005Y-77158218D01*
X114372122Y-77017363D01*
X114436951Y-76860853D01*
X114470000Y-76694703D01*
X114470000Y-76525297D01*
X114436951Y-76359147D01*
X114372122Y-76202637D01*
X114278005Y-76061782D01*
X114158218Y-75941995D01*
X114017363Y-75847878D01*
X113860853Y-75783049D01*
X113694703Y-75750000D01*
X113525297Y-75750000D01*
X113359147Y-75783049D01*
X113202637Y-75847878D01*
X113061782Y-75941995D01*
X112941995Y-76061782D01*
X112847878Y-76202637D01*
X112783049Y-76359147D01*
X112750000Y-76525297D01*
X109923718Y-76525297D01*
X109908005Y-76501782D01*
X109788218Y-76381995D01*
X109647363Y-76287878D01*
X109490853Y-76223049D01*
X109324703Y-76190000D01*
X109155297Y-76190000D01*
X108989147Y-76223049D01*
X108832637Y-76287878D01*
X108691782Y-76381995D01*
X108571995Y-76501782D01*
X108477878Y-76642637D01*
X108413049Y-76799147D01*
X108380000Y-76965297D01*
X106687507Y-76965297D01*
X106603937Y-76840226D01*
X106459774Y-76696063D01*
X106290256Y-76582795D01*
X106101898Y-76504774D01*
X105901939Y-76465000D01*
X105698061Y-76465000D01*
X105498102Y-76504774D01*
X105309744Y-76582795D01*
X105140226Y-76696063D01*
X104996063Y-76840226D01*
X104882795Y-77009744D01*
X104804774Y-77198102D01*
X104765000Y-77398061D01*
X100660000Y-77398061D01*
X100660000Y-74765297D01*
X111590000Y-74765297D01*
X111590000Y-74934703D01*
X111623049Y-75100853D01*
X111687878Y-75257363D01*
X111781995Y-75398218D01*
X111901782Y-75518005D01*
X112042637Y-75612122D01*
X112199147Y-75676951D01*
X112365297Y-75710000D01*
X112534703Y-75710000D01*
X112700853Y-75676951D01*
X112857363Y-75612122D01*
X112998218Y-75518005D01*
X113118005Y-75398218D01*
X113212122Y-75257363D01*
X113276951Y-75100853D01*
X113310000Y-74934703D01*
X113310000Y-74765297D01*
X113276951Y-74599147D01*
X113212122Y-74442637D01*
X113118005Y-74301782D01*
X112998218Y-74181995D01*
X112857363Y-74087878D01*
X112700853Y-74023049D01*
X112534703Y-73990000D01*
X112365297Y-73990000D01*
X112199147Y-74023049D01*
X112042637Y-74087878D01*
X111901782Y-74181995D01*
X111781995Y-74301782D01*
X111687878Y-74442637D01*
X111623049Y-74599147D01*
X111590000Y-74765297D01*
X100660000Y-74765297D01*
X100660000Y-72398061D01*
X104765000Y-72398061D01*
X104765000Y-72601939D01*
X104804774Y-72801898D01*
X104882795Y-72990256D01*
X104996063Y-73159774D01*
X105140226Y-73303937D01*
X105309744Y-73417205D01*
X105498102Y-73495226D01*
X105698061Y-73535000D01*
X105901939Y-73535000D01*
X106101898Y-73495226D01*
X106290256Y-73417205D01*
X106459774Y-73303937D01*
X106603937Y-73159774D01*
X106717205Y-72990256D01*
X106795226Y-72801898D01*
X106835000Y-72601939D01*
X106835000Y-72410000D01*
X107405752Y-72410000D01*
X107572499Y-72393577D01*
X107786447Y-72328676D01*
X107905021Y-72265297D01*
X110170000Y-72265297D01*
X110170000Y-72434703D01*
X110203049Y-72600853D01*
X110267878Y-72757363D01*
X110361995Y-72898218D01*
X110481782Y-73018005D01*
X110622637Y-73112122D01*
X110779147Y-73176951D01*
X110945297Y-73210000D01*
X111114703Y-73210000D01*
X111280853Y-73176951D01*
X111437363Y-73112122D01*
X111578218Y-73018005D01*
X111698005Y-72898218D01*
X111792122Y-72757363D01*
X111856951Y-72600853D01*
X111871979Y-72525297D01*
X114040000Y-72525297D01*
X114040000Y-72694703D01*
X114073049Y-72860853D01*
X114137878Y-73017363D01*
X114231995Y-73158218D01*
X114351782Y-73278005D01*
X114492637Y-73372122D01*
X114649147Y-73436951D01*
X114815297Y-73470000D01*
X114984703Y-73470000D01*
X115150853Y-73436951D01*
X115307363Y-73372122D01*
X115448218Y-73278005D01*
X115568005Y-73158218D01*
X115662122Y-73017363D01*
X115726951Y-72860853D01*
X115760000Y-72694703D01*
X115760000Y-72525297D01*
X115726951Y-72359147D01*
X115662122Y-72202637D01*
X115568005Y-72061782D01*
X115448218Y-71941995D01*
X115307363Y-71847878D01*
X115276990Y-71835297D01*
X122710000Y-71835297D01*
X122710000Y-72004703D01*
X122743049Y-72170853D01*
X122807878Y-72327363D01*
X122901995Y-72468218D01*
X123021782Y-72588005D01*
X123162637Y-72682122D01*
X123319147Y-72746951D01*
X123485297Y-72780000D01*
X123654703Y-72780000D01*
X123820853Y-72746951D01*
X123977363Y-72682122D01*
X124118218Y-72588005D01*
X124238005Y-72468218D01*
X124300093Y-72375297D01*
X136410000Y-72375297D01*
X136410000Y-72544703D01*
X136443049Y-72710853D01*
X136507878Y-72867363D01*
X136601995Y-73008218D01*
X136721782Y-73128005D01*
X136862637Y-73222122D01*
X137019147Y-73286951D01*
X137135906Y-73310176D01*
X137167878Y-73387363D01*
X137261995Y-73528218D01*
X137381782Y-73648005D01*
X137522637Y-73742122D01*
X137679147Y-73806951D01*
X137845297Y-73840000D01*
X137854828Y-73840000D01*
X137857878Y-73847363D01*
X137951995Y-73988218D01*
X138071782Y-74108005D01*
X138212637Y-74202122D01*
X138369147Y-74266951D01*
X138482791Y-74289556D01*
X138483049Y-74290853D01*
X138547878Y-74447363D01*
X138641995Y-74588218D01*
X138761782Y-74708005D01*
X138902637Y-74802122D01*
X139059147Y-74866951D01*
X139225297Y-74900000D01*
X139394703Y-74900000D01*
X139560853Y-74866951D01*
X139717363Y-74802122D01*
X139858218Y-74708005D01*
X139978005Y-74588218D01*
X140072122Y-74447363D01*
X140136951Y-74290853D01*
X140170000Y-74124703D01*
X140170000Y-73955297D01*
X140136951Y-73789147D01*
X140072122Y-73632637D01*
X139978005Y-73491782D01*
X139858218Y-73371995D01*
X139717363Y-73277878D01*
X139560853Y-73213049D01*
X139447209Y-73190444D01*
X139446951Y-73189147D01*
X139382122Y-73032637D01*
X139288005Y-72891782D01*
X139168218Y-72771995D01*
X139027363Y-72677878D01*
X138870853Y-72613049D01*
X138704703Y-72580000D01*
X138695172Y-72580000D01*
X138692122Y-72572637D01*
X138598005Y-72431782D01*
X138478218Y-72311995D01*
X138337363Y-72217878D01*
X138180853Y-72153049D01*
X138064094Y-72129824D01*
X138032122Y-72052637D01*
X137938005Y-71911782D01*
X137818218Y-71791995D01*
X137677363Y-71697878D01*
X137520853Y-71633049D01*
X137354703Y-71600000D01*
X137185297Y-71600000D01*
X137019147Y-71633049D01*
X136862637Y-71697878D01*
X136721782Y-71791995D01*
X136601995Y-71911782D01*
X136507878Y-72052637D01*
X136443049Y-72209147D01*
X136410000Y-72375297D01*
X124300093Y-72375297D01*
X124332122Y-72327363D01*
X124396951Y-72170853D01*
X124430000Y-72004703D01*
X124430000Y-71835297D01*
X124396951Y-71669147D01*
X124332122Y-71512637D01*
X124238005Y-71371782D01*
X124118218Y-71251995D01*
X123977363Y-71157878D01*
X123820853Y-71093049D01*
X123654703Y-71060000D01*
X123485297Y-71060000D01*
X123319147Y-71093049D01*
X123162637Y-71157878D01*
X123021782Y-71251995D01*
X122901995Y-71371782D01*
X122807878Y-71512637D01*
X122743049Y-71669147D01*
X122710000Y-71835297D01*
X115276990Y-71835297D01*
X115150853Y-71783049D01*
X114984703Y-71750000D01*
X114815297Y-71750000D01*
X114649147Y-71783049D01*
X114492637Y-71847878D01*
X114351782Y-71941995D01*
X114231995Y-72061782D01*
X114137878Y-72202637D01*
X114073049Y-72359147D01*
X114040000Y-72525297D01*
X111871979Y-72525297D01*
X111890000Y-72434703D01*
X111890000Y-72265297D01*
X111856951Y-72099147D01*
X111792122Y-71942637D01*
X111698005Y-71801782D01*
X111578218Y-71681995D01*
X111437363Y-71587878D01*
X111280853Y-71523049D01*
X111114703Y-71490000D01*
X110945297Y-71490000D01*
X110779147Y-71523049D01*
X110622637Y-71587878D01*
X110481782Y-71681995D01*
X110361995Y-71801782D01*
X110267878Y-71942637D01*
X110203049Y-72099147D01*
X110170000Y-72265297D01*
X107905021Y-72265297D01*
X107983623Y-72223284D01*
X108156449Y-72081449D01*
X108298284Y-71908623D01*
X108403676Y-71711447D01*
X108468577Y-71497499D01*
X108490491Y-71275000D01*
X108468577Y-71052501D01*
X108403676Y-70838553D01*
X108298284Y-70641377D01*
X108156449Y-70468551D01*
X107983623Y-70326716D01*
X107786447Y-70221324D01*
X107572499Y-70156423D01*
X107405752Y-70140000D01*
X106294248Y-70140000D01*
X106127501Y-70156423D01*
X105913553Y-70221324D01*
X105716377Y-70326716D01*
X105543551Y-70468551D01*
X105401716Y-70641377D01*
X105296324Y-70838553D01*
X105231423Y-71052501D01*
X105209509Y-71275000D01*
X105231423Y-71497499D01*
X105266136Y-71611933D01*
X105140226Y-71696063D01*
X104996063Y-71840226D01*
X104882795Y-72009744D01*
X104804774Y-72198102D01*
X104765000Y-72398061D01*
X100660000Y-72398061D01*
X100660000Y-71125000D01*
X101509509Y-71125000D01*
X101531423Y-71347499D01*
X101596324Y-71561447D01*
X101701716Y-71758623D01*
X101843551Y-71931449D01*
X102016377Y-72073284D01*
X102213553Y-72178676D01*
X102427501Y-72243577D01*
X102594248Y-72260000D01*
X103505752Y-72260000D01*
X103672499Y-72243577D01*
X103886447Y-72178676D01*
X104083623Y-72073284D01*
X104256449Y-71931449D01*
X104398284Y-71758623D01*
X104503676Y-71561447D01*
X104568577Y-71347499D01*
X104590491Y-71125000D01*
X104568577Y-70902501D01*
X104503676Y-70688553D01*
X104398284Y-70491377D01*
X104256449Y-70318551D01*
X104083623Y-70176716D01*
X103886447Y-70071324D01*
X103672499Y-70006423D01*
X103505752Y-69990000D01*
X102594248Y-69990000D01*
X102427501Y-70006423D01*
X102213553Y-70071324D01*
X102016377Y-70176716D01*
X101843551Y-70318551D01*
X101701716Y-70491377D01*
X101596324Y-70688553D01*
X101531423Y-70902501D01*
X101509509Y-71125000D01*
X100660000Y-71125000D01*
X100660000Y-69825297D01*
X116740000Y-69825297D01*
X116740000Y-69994703D01*
X116773049Y-70160853D01*
X116837878Y-70317363D01*
X116931995Y-70458218D01*
X117051782Y-70578005D01*
X117192637Y-70672122D01*
X117349147Y-70736951D01*
X117515297Y-70770000D01*
X117684703Y-70770000D01*
X117850853Y-70736951D01*
X118007363Y-70672122D01*
X118148218Y-70578005D01*
X118268005Y-70458218D01*
X118362122Y-70317363D01*
X118426951Y-70160853D01*
X118460000Y-69994703D01*
X118460000Y-69825297D01*
X118426951Y-69659147D01*
X118362122Y-69502637D01*
X118268005Y-69361782D01*
X118251520Y-69345297D01*
X122110000Y-69345297D01*
X122110000Y-69514703D01*
X122143049Y-69680853D01*
X122207878Y-69837363D01*
X122301995Y-69978218D01*
X122421782Y-70098005D01*
X122562637Y-70192122D01*
X122719147Y-70256951D01*
X122885297Y-70290000D01*
X123054703Y-70290000D01*
X123220853Y-70256951D01*
X123377363Y-70192122D01*
X123518218Y-70098005D01*
X123638005Y-69978218D01*
X123732122Y-69837363D01*
X123796951Y-69680853D01*
X123830000Y-69514703D01*
X123830000Y-69345297D01*
X123796951Y-69179147D01*
X123732122Y-69022637D01*
X123638005Y-68881782D01*
X123518218Y-68761995D01*
X123377363Y-68667878D01*
X123220853Y-68603049D01*
X123054703Y-68570000D01*
X122885297Y-68570000D01*
X122719147Y-68603049D01*
X122562637Y-68667878D01*
X122421782Y-68761995D01*
X122301995Y-68881782D01*
X122207878Y-69022637D01*
X122143049Y-69179147D01*
X122110000Y-69345297D01*
X118251520Y-69345297D01*
X118148218Y-69241995D01*
X118007363Y-69147878D01*
X117850853Y-69083049D01*
X117684703Y-69050000D01*
X117515297Y-69050000D01*
X117349147Y-69083049D01*
X117192637Y-69147878D01*
X117051782Y-69241995D01*
X116931995Y-69361782D01*
X116837878Y-69502637D01*
X116773049Y-69659147D01*
X116740000Y-69825297D01*
X100660000Y-69825297D01*
X100660000Y-67945297D01*
X125600000Y-67945297D01*
X125600000Y-68114703D01*
X125633049Y-68280853D01*
X125697878Y-68437363D01*
X125791995Y-68578218D01*
X125911782Y-68698005D01*
X126052637Y-68792122D01*
X126209147Y-68856951D01*
X126375297Y-68890000D01*
X126544703Y-68890000D01*
X126710853Y-68856951D01*
X126867363Y-68792122D01*
X127008218Y-68698005D01*
X127128005Y-68578218D01*
X127222122Y-68437363D01*
X127286951Y-68280853D01*
X127320000Y-68114703D01*
X127320000Y-67945297D01*
X127286951Y-67779147D01*
X127222122Y-67622637D01*
X127128005Y-67481782D01*
X127008218Y-67361995D01*
X126867363Y-67267878D01*
X126710853Y-67203049D01*
X126544703Y-67170000D01*
X126375297Y-67170000D01*
X126209147Y-67203049D01*
X126052637Y-67267878D01*
X125911782Y-67361995D01*
X125791995Y-67481782D01*
X125697878Y-67622637D01*
X125633049Y-67779147D01*
X125600000Y-67945297D01*
X100660000Y-67945297D01*
X100660000Y-66515297D01*
X122710000Y-66515297D01*
X122710000Y-66684703D01*
X122743049Y-66850853D01*
X122807878Y-67007363D01*
X122901995Y-67148218D01*
X123021782Y-67268005D01*
X123162637Y-67362122D01*
X123319147Y-67426951D01*
X123485297Y-67460000D01*
X123654703Y-67460000D01*
X123820853Y-67426951D01*
X123977363Y-67362122D01*
X124118218Y-67268005D01*
X124238005Y-67148218D01*
X124332122Y-67007363D01*
X124378541Y-66895297D01*
X127480000Y-66895297D01*
X127480000Y-67064703D01*
X127513049Y-67230853D01*
X127577878Y-67387363D01*
X127671995Y-67528218D01*
X127791782Y-67648005D01*
X127932637Y-67742122D01*
X128089147Y-67806951D01*
X128255297Y-67840000D01*
X128424703Y-67840000D01*
X128590853Y-67806951D01*
X128747363Y-67742122D01*
X128888218Y-67648005D01*
X129008005Y-67528218D01*
X129102122Y-67387363D01*
X129166951Y-67230853D01*
X129200000Y-67064703D01*
X129200000Y-66895297D01*
X129166951Y-66729147D01*
X129151197Y-66691115D01*
X129182637Y-66712122D01*
X129339147Y-66776951D01*
X129505297Y-66810000D01*
X129674703Y-66810000D01*
X129840853Y-66776951D01*
X129997363Y-66712122D01*
X130138218Y-66618005D01*
X130258005Y-66498218D01*
X130352122Y-66357363D01*
X130416951Y-66200853D01*
X130450000Y-66034703D01*
X130450000Y-65865297D01*
X130416951Y-65699147D01*
X130352122Y-65542637D01*
X130258005Y-65401782D01*
X130138218Y-65281995D01*
X129997363Y-65187878D01*
X129840853Y-65123049D01*
X129674703Y-65090000D01*
X129505297Y-65090000D01*
X129339147Y-65123049D01*
X129182637Y-65187878D01*
X129041782Y-65281995D01*
X128921995Y-65401782D01*
X128827878Y-65542637D01*
X128763049Y-65699147D01*
X128730000Y-65865297D01*
X128730000Y-66034703D01*
X128763049Y-66200853D01*
X128778803Y-66238885D01*
X128747363Y-66217878D01*
X128590853Y-66153049D01*
X128424703Y-66120000D01*
X128255297Y-66120000D01*
X128089147Y-66153049D01*
X127932637Y-66217878D01*
X127791782Y-66311995D01*
X127671995Y-66431782D01*
X127577878Y-66572637D01*
X127513049Y-66729147D01*
X127480000Y-66895297D01*
X124378541Y-66895297D01*
X124396951Y-66850853D01*
X124430000Y-66684703D01*
X124430000Y-66515297D01*
X124396951Y-66349147D01*
X124332122Y-66192637D01*
X124238005Y-66051782D01*
X124118218Y-65931995D01*
X123977363Y-65837878D01*
X123820853Y-65773049D01*
X123654703Y-65740000D01*
X123485297Y-65740000D01*
X123319147Y-65773049D01*
X123162637Y-65837878D01*
X123021782Y-65931995D01*
X122901995Y-66051782D01*
X122807878Y-66192637D01*
X122743049Y-66349147D01*
X122710000Y-66515297D01*
X100660000Y-66515297D01*
X100660000Y-64835297D01*
X125330000Y-64835297D01*
X125330000Y-65004703D01*
X125363049Y-65170853D01*
X125427878Y-65327363D01*
X125521995Y-65468218D01*
X125641782Y-65588005D01*
X125782637Y-65682122D01*
X125939147Y-65746951D01*
X126105297Y-65780000D01*
X126274703Y-65780000D01*
X126440853Y-65746951D01*
X126597363Y-65682122D01*
X126738218Y-65588005D01*
X126858005Y-65468218D01*
X126952122Y-65327363D01*
X127016951Y-65170853D01*
X127050000Y-65004703D01*
X127050000Y-64835297D01*
X127016951Y-64669147D01*
X126952122Y-64512637D01*
X126858005Y-64371782D01*
X126738218Y-64251995D01*
X126597363Y-64157878D01*
X126440853Y-64093049D01*
X126274703Y-64060000D01*
X126105297Y-64060000D01*
X125939147Y-64093049D01*
X125782637Y-64157878D01*
X125641782Y-64251995D01*
X125521995Y-64371782D01*
X125427878Y-64512637D01*
X125363049Y-64669147D01*
X125330000Y-64835297D01*
X100660000Y-64835297D01*
X100660000Y-63595297D01*
X122970000Y-63595297D01*
X122970000Y-63764703D01*
X123003049Y-63930853D01*
X123067878Y-64087363D01*
X123161995Y-64228218D01*
X123281782Y-64348005D01*
X123422637Y-64442122D01*
X123579147Y-64506951D01*
X123745297Y-64540000D01*
X123914703Y-64540000D01*
X124080853Y-64506951D01*
X124237363Y-64442122D01*
X124378218Y-64348005D01*
X124498005Y-64228218D01*
X124592122Y-64087363D01*
X124656951Y-63930853D01*
X124690000Y-63764703D01*
X124690000Y-63595297D01*
X124656951Y-63429147D01*
X124592122Y-63272637D01*
X124498005Y-63131782D01*
X124378218Y-63011995D01*
X124237363Y-62917878D01*
X124080853Y-62853049D01*
X123914703Y-62820000D01*
X123745297Y-62820000D01*
X123579147Y-62853049D01*
X123422637Y-62917878D01*
X123281782Y-63011995D01*
X123161995Y-63131782D01*
X123067878Y-63272637D01*
X123003049Y-63429147D01*
X122970000Y-63595297D01*
X100660000Y-63595297D01*
X100660000Y-61445297D01*
X118810000Y-61445297D01*
X118810000Y-61614703D01*
X118843049Y-61780853D01*
X118907878Y-61937363D01*
X119001995Y-62078218D01*
X119121782Y-62198005D01*
X119262637Y-62292122D01*
X119419147Y-62356951D01*
X119585297Y-62390000D01*
X119754703Y-62390000D01*
X119920853Y-62356951D01*
X120077363Y-62292122D01*
X120162406Y-62235297D01*
X139570000Y-62235297D01*
X139570000Y-62404703D01*
X139603049Y-62570853D01*
X139667878Y-62727363D01*
X139761995Y-62868218D01*
X139881782Y-62988005D01*
X140022637Y-63082122D01*
X140179147Y-63146951D01*
X140345297Y-63180000D01*
X140514703Y-63180000D01*
X140680853Y-63146951D01*
X140837363Y-63082122D01*
X140978218Y-62988005D01*
X141098005Y-62868218D01*
X141192122Y-62727363D01*
X141256951Y-62570853D01*
X141290000Y-62404703D01*
X141290000Y-62235297D01*
X141256951Y-62069147D01*
X141192122Y-61912637D01*
X141098005Y-61771782D01*
X140978218Y-61651995D01*
X140837363Y-61557878D01*
X140680853Y-61493049D01*
X140514703Y-61460000D01*
X140345297Y-61460000D01*
X140179147Y-61493049D01*
X140022637Y-61557878D01*
X139881782Y-61651995D01*
X139761995Y-61771782D01*
X139667878Y-61912637D01*
X139603049Y-62069147D01*
X139570000Y-62235297D01*
X120162406Y-62235297D01*
X120218218Y-62198005D01*
X120338005Y-62078218D01*
X120432122Y-61937363D01*
X120496951Y-61780853D01*
X120530000Y-61614703D01*
X120530000Y-61445297D01*
X120496951Y-61279147D01*
X120432122Y-61122637D01*
X120338005Y-60981782D01*
X120218218Y-60861995D01*
X120077363Y-60767878D01*
X119920853Y-60703049D01*
X119754703Y-60670000D01*
X119585297Y-60670000D01*
X119419147Y-60703049D01*
X119262637Y-60767878D01*
X119121782Y-60861995D01*
X119001995Y-60981782D01*
X118907878Y-61122637D01*
X118843049Y-61279147D01*
X118810000Y-61445297D01*
X100660000Y-61445297D01*
X100660000Y-60245297D01*
X137260000Y-60245297D01*
X137260000Y-60414703D01*
X137293049Y-60580853D01*
X137357878Y-60737363D01*
X137451995Y-60878218D01*
X137571782Y-60998005D01*
X137712637Y-61092122D01*
X137869147Y-61156951D01*
X138035297Y-61190000D01*
X138204703Y-61190000D01*
X138370853Y-61156951D01*
X138527363Y-61092122D01*
X138668218Y-60998005D01*
X138788005Y-60878218D01*
X138882122Y-60737363D01*
X138946951Y-60580853D01*
X138980000Y-60414703D01*
X138980000Y-60245297D01*
X138946951Y-60079147D01*
X138882122Y-59922637D01*
X138788005Y-59781782D01*
X138668218Y-59661995D01*
X138527363Y-59567878D01*
X138370853Y-59503049D01*
X138204703Y-59470000D01*
X138035297Y-59470000D01*
X137869147Y-59503049D01*
X137712637Y-59567878D01*
X137571782Y-59661995D01*
X137451995Y-59781782D01*
X137357878Y-59922637D01*
X137293049Y-60079147D01*
X137260000Y-60245297D01*
X100660000Y-60245297D01*
X100660000Y-58355297D01*
X109540000Y-58355297D01*
X109540000Y-58524703D01*
X109573049Y-58690853D01*
X109637878Y-58847363D01*
X109731995Y-58988218D01*
X109851782Y-59108005D01*
X109992637Y-59202122D01*
X110149147Y-59266951D01*
X110315297Y-59300000D01*
X110484703Y-59300000D01*
X110650853Y-59266951D01*
X110807363Y-59202122D01*
X110948218Y-59108005D01*
X111068005Y-58988218D01*
X111162122Y-58847363D01*
X111226951Y-58690853D01*
X111260000Y-58524703D01*
X111260000Y-58355297D01*
X111252044Y-58315297D01*
X135530000Y-58315297D01*
X135530000Y-58484703D01*
X135563049Y-58650853D01*
X135627878Y-58807363D01*
X135721995Y-58948218D01*
X135841782Y-59068005D01*
X135982637Y-59162122D01*
X136139147Y-59226951D01*
X136305297Y-59260000D01*
X136474703Y-59260000D01*
X136640853Y-59226951D01*
X136797363Y-59162122D01*
X136938218Y-59068005D01*
X137058005Y-58948218D01*
X137152122Y-58807363D01*
X137216951Y-58650853D01*
X137250000Y-58484703D01*
X137250000Y-58315297D01*
X137216951Y-58149147D01*
X137152122Y-57992637D01*
X137058005Y-57851782D01*
X136938218Y-57731995D01*
X136797363Y-57637878D01*
X136640853Y-57573049D01*
X136474703Y-57540000D01*
X136305297Y-57540000D01*
X136139147Y-57573049D01*
X135982637Y-57637878D01*
X135841782Y-57731995D01*
X135721995Y-57851782D01*
X135627878Y-57992637D01*
X135563049Y-58149147D01*
X135530000Y-58315297D01*
X111252044Y-58315297D01*
X111226951Y-58189147D01*
X111162122Y-58032637D01*
X111068005Y-57891782D01*
X110948218Y-57771995D01*
X110807363Y-57677878D01*
X110650853Y-57613049D01*
X110484703Y-57580000D01*
X110315297Y-57580000D01*
X110149147Y-57613049D01*
X109992637Y-57677878D01*
X109851782Y-57771995D01*
X109731995Y-57891782D01*
X109637878Y-58032637D01*
X109573049Y-58189147D01*
X109540000Y-58355297D01*
X100660000Y-58355297D01*
X100660000Y-53032279D01*
X100684748Y-52779872D01*
X100765000Y-52779872D01*
X100765000Y-53220128D01*
X100850890Y-53651925D01*
X101019369Y-54058669D01*
X101263962Y-54424729D01*
X101575271Y-54736038D01*
X101941331Y-54980631D01*
X102348075Y-55149110D01*
X102779872Y-55235000D01*
X103220128Y-55235000D01*
X103651925Y-55149110D01*
X103878409Y-55055297D01*
X107970000Y-55055297D01*
X107970000Y-55224703D01*
X108003049Y-55390853D01*
X108067878Y-55547363D01*
X108161995Y-55688218D01*
X108281782Y-55808005D01*
X108422637Y-55902122D01*
X108579147Y-55966951D01*
X108745297Y-56000000D01*
X108914703Y-56000000D01*
X109062722Y-55970557D01*
X109007878Y-56052637D01*
X108943049Y-56209147D01*
X108910000Y-56375297D01*
X108910000Y-56544703D01*
X108943049Y-56710853D01*
X109007878Y-56867363D01*
X109101995Y-57008218D01*
X109221782Y-57128005D01*
X109362637Y-57222122D01*
X109519147Y-57286951D01*
X109685297Y-57320000D01*
X109854703Y-57320000D01*
X110020853Y-57286951D01*
X110177363Y-57222122D01*
X110318218Y-57128005D01*
X110438005Y-57008218D01*
X110532122Y-56867363D01*
X110596951Y-56710853D01*
X110630000Y-56544703D01*
X110630000Y-56375297D01*
X110596951Y-56209147D01*
X110532122Y-56052637D01*
X110438005Y-55911782D01*
X110318218Y-55791995D01*
X110177363Y-55697878D01*
X110020853Y-55633049D01*
X109854703Y-55600000D01*
X109685297Y-55600000D01*
X109537278Y-55629443D01*
X109592122Y-55547363D01*
X109599314Y-55530000D01*
X111801928Y-55530000D01*
X111814188Y-55654482D01*
X111850498Y-55774180D01*
X111909463Y-55884494D01*
X111988815Y-55981185D01*
X112085506Y-56060537D01*
X112195820Y-56119502D01*
X112315518Y-56155812D01*
X112440000Y-56168072D01*
X113004250Y-56165000D01*
X113163000Y-56006250D01*
X113163000Y-54807000D01*
X111963750Y-54807000D01*
X111805000Y-54965750D01*
X111801928Y-55530000D01*
X109599314Y-55530000D01*
X109656951Y-55390853D01*
X109690000Y-55224703D01*
X109690000Y-55055297D01*
X109656951Y-54889147D01*
X109592122Y-54732637D01*
X109498005Y-54591782D01*
X109378218Y-54471995D01*
X109237363Y-54377878D01*
X109080853Y-54313049D01*
X108914703Y-54280000D01*
X108745297Y-54280000D01*
X108579147Y-54313049D01*
X108422637Y-54377878D01*
X108281782Y-54471995D01*
X108161995Y-54591782D01*
X108067878Y-54732637D01*
X108003049Y-54889147D01*
X107970000Y-55055297D01*
X103878409Y-55055297D01*
X104058669Y-54980631D01*
X104424729Y-54736038D01*
X104736038Y-54424729D01*
X104980631Y-54058669D01*
X105075348Y-53830000D01*
X111801928Y-53830000D01*
X111805000Y-54394250D01*
X111963750Y-54553000D01*
X113163000Y-54553000D01*
X113163000Y-52267000D01*
X111969186Y-52267000D01*
X111848519Y-52496891D01*
X111945843Y-52771252D01*
X112094822Y-53021355D01*
X112271626Y-53217502D01*
X112195820Y-53240498D01*
X112085506Y-53299463D01*
X111988815Y-53378815D01*
X111909463Y-53475506D01*
X111850498Y-53585820D01*
X111814188Y-53705518D01*
X111801928Y-53830000D01*
X105075348Y-53830000D01*
X105149110Y-53651925D01*
X105235000Y-53220128D01*
X105235000Y-52779872D01*
X105149110Y-52348075D01*
X104980631Y-51941331D01*
X104736038Y-51575271D01*
X104424729Y-51263962D01*
X104058669Y-51019369D01*
X103651925Y-50850890D01*
X103220128Y-50765000D01*
X102779872Y-50765000D01*
X102348075Y-50850890D01*
X101941331Y-51019369D01*
X101575271Y-51263962D01*
X101263962Y-51575271D01*
X101019369Y-51941331D01*
X100850890Y-52348075D01*
X100765000Y-52779872D01*
X100684748Y-52779872D01*
X100707670Y-52546107D01*
X100839489Y-52109502D01*
X101053600Y-51706815D01*
X101341848Y-51353388D01*
X101693261Y-51062673D01*
X102094439Y-50845758D01*
X102530113Y-50710894D01*
X103014344Y-50660000D01*
X113162998Y-50660000D01*
X113162998Y-50819844D01*
%TA.AperFunction,Conductor*%
D18*
G36*
X113162998Y-50819844D02*
G01*
X112933110Y-50698524D01*
X112785901Y-50743175D01*
X112523080Y-50868359D01*
X112289731Y-51042412D01*
X112094822Y-51258645D01*
X111945843Y-51508748D01*
X111848519Y-51783109D01*
X111969186Y-52013000D01*
X113163000Y-52013000D01*
X113163000Y-51993000D01*
X113417000Y-51993000D01*
X113417000Y-52013000D01*
X113437000Y-52013000D01*
X113437000Y-52267000D01*
X113417000Y-52267000D01*
X113417000Y-54553000D01*
X113437000Y-54553000D01*
X113437000Y-54807000D01*
X113417000Y-54807000D01*
X113417000Y-56006250D01*
X113575750Y-56165000D01*
X114085999Y-56167778D01*
X113971995Y-56281782D01*
X113877878Y-56422637D01*
X113813049Y-56579147D01*
X113780000Y-56745297D01*
X113780000Y-56914703D01*
X113813049Y-57080853D01*
X113877878Y-57237363D01*
X113971995Y-57378218D01*
X114091782Y-57498005D01*
X114232637Y-57592122D01*
X114389147Y-57656951D01*
X114555297Y-57690000D01*
X114724703Y-57690000D01*
X114890853Y-57656951D01*
X115047363Y-57592122D01*
X115188218Y-57498005D01*
X115308005Y-57378218D01*
X115402122Y-57237363D01*
X115466951Y-57080853D01*
X115500000Y-56914703D01*
X115500000Y-56745297D01*
X115466951Y-56579147D01*
X115402122Y-56422637D01*
X115308005Y-56281782D01*
X115188218Y-56161995D01*
X115047363Y-56067878D01*
X114890853Y-56003049D01*
X114724703Y-55970000D01*
X114600364Y-55970000D01*
X114670537Y-55884494D01*
X114729502Y-55774180D01*
X114751513Y-55701620D01*
X114883368Y-55833475D01*
X115126589Y-55995990D01*
X115396842Y-56107932D01*
X115683740Y-56165000D01*
X115976260Y-56165000D01*
X116263158Y-56107932D01*
X116533411Y-55995990D01*
X116776632Y-55833475D01*
X116983475Y-55626632D01*
X117100000Y-55452240D01*
X117216525Y-55626632D01*
X117423368Y-55833475D01*
X117666589Y-55995990D01*
X117936842Y-56107932D01*
X118223740Y-56165000D01*
X118516260Y-56165000D01*
X118803158Y-56107932D01*
X119073411Y-55995990D01*
X119316632Y-55833475D01*
X119523475Y-55626632D01*
X119640000Y-55452240D01*
X119756525Y-55626632D01*
X119963368Y-55833475D01*
X120206589Y-55995990D01*
X120476842Y-56107932D01*
X120763740Y-56165000D01*
X121056260Y-56165000D01*
X121343158Y-56107932D01*
X121613411Y-55995990D01*
X121856632Y-55833475D01*
X122063475Y-55626632D01*
X122180000Y-55452240D01*
X122296525Y-55626632D01*
X122503368Y-55833475D01*
X122746589Y-55995990D01*
X123016842Y-56107932D01*
X123303740Y-56165000D01*
X123596260Y-56165000D01*
X123883158Y-56107932D01*
X124153411Y-55995990D01*
X124396632Y-55833475D01*
X124603475Y-55626632D01*
X124720000Y-55452240D01*
X124836525Y-55626632D01*
X125043368Y-55833475D01*
X125286589Y-55995990D01*
X125556842Y-56107932D01*
X125843740Y-56165000D01*
X126136260Y-56165000D01*
X126423158Y-56107932D01*
X126693411Y-55995990D01*
X126936632Y-55833475D01*
X127143475Y-55626632D01*
X127260000Y-55452240D01*
X127376525Y-55626632D01*
X127583368Y-55833475D01*
X127826589Y-55995990D01*
X128096842Y-56107932D01*
X128383740Y-56165000D01*
X128676260Y-56165000D01*
X128963158Y-56107932D01*
X129233411Y-55995990D01*
X129476632Y-55833475D01*
X129683475Y-55626632D01*
X129800000Y-55452240D01*
X129916525Y-55626632D01*
X130123368Y-55833475D01*
X130366589Y-55995990D01*
X130636842Y-56107932D01*
X130923740Y-56165000D01*
X131216260Y-56165000D01*
X131503158Y-56107932D01*
X131773411Y-55995990D01*
X132016632Y-55833475D01*
X132223475Y-55626632D01*
X132340000Y-55452240D01*
X132456525Y-55626632D01*
X132663368Y-55833475D01*
X132906589Y-55995990D01*
X133176842Y-56107932D01*
X133463740Y-56165000D01*
X133756260Y-56165000D01*
X134043158Y-56107932D01*
X134313411Y-55995990D01*
X134556632Y-55833475D01*
X134763475Y-55626632D01*
X134880000Y-55452240D01*
X134996525Y-55626632D01*
X135203368Y-55833475D01*
X135446589Y-55995990D01*
X135716842Y-56107932D01*
X136003740Y-56165000D01*
X136296260Y-56165000D01*
X136583158Y-56107932D01*
X136853411Y-55995990D01*
X137096632Y-55833475D01*
X137303475Y-55626632D01*
X137465990Y-55383411D01*
X137577932Y-55113158D01*
X137635000Y-54826260D01*
X137635000Y-54533740D01*
X137577932Y-54246842D01*
X137465990Y-53976589D01*
X137303475Y-53733368D01*
X137096632Y-53526525D01*
X136922240Y-53410000D01*
X137096632Y-53293475D01*
X137303475Y-53086632D01*
X137465990Y-52843411D01*
X137492308Y-52779872D01*
X144765000Y-52779872D01*
X144765000Y-53220128D01*
X144850890Y-53651925D01*
X145019369Y-54058669D01*
X145263962Y-54424729D01*
X145575271Y-54736038D01*
X145941331Y-54980631D01*
X146348075Y-55149110D01*
X146779872Y-55235000D01*
X147220128Y-55235000D01*
X147651925Y-55149110D01*
X148058669Y-54980631D01*
X148424729Y-54736038D01*
X148736038Y-54424729D01*
X148980631Y-54058669D01*
X149149110Y-53651925D01*
X149235000Y-53220128D01*
X149235000Y-52779872D01*
X149149110Y-52348075D01*
X148980631Y-51941331D01*
X148736038Y-51575271D01*
X148424729Y-51263962D01*
X148058669Y-51019369D01*
X147651925Y-50850890D01*
X147220128Y-50765000D01*
X146779872Y-50765000D01*
X146348075Y-50850890D01*
X145941331Y-51019369D01*
X145575271Y-51263962D01*
X145263962Y-51575271D01*
X145019369Y-51941331D01*
X144850890Y-52348075D01*
X144765000Y-52779872D01*
X137492308Y-52779872D01*
X137577932Y-52573158D01*
X137635000Y-52286260D01*
X137635000Y-51993740D01*
X137577932Y-51706842D01*
X137465990Y-51436589D01*
X137303475Y-51193368D01*
X137096632Y-50986525D01*
X136853411Y-50824010D01*
X136583158Y-50712068D01*
X136321397Y-50660000D01*
X146967721Y-50660000D01*
X147453893Y-50707670D01*
X147890498Y-50839489D01*
X148293185Y-51053600D01*
X148646612Y-51341848D01*
X148937327Y-51693261D01*
X149154242Y-52094439D01*
X149289106Y-52530113D01*
X149340000Y-53014344D01*
X149340000Y-60152146D01*
X142112047Y-60152146D01*
X142087688Y-60154504D01*
X142063840Y-60161651D01*
X142041844Y-60173314D01*
X142022546Y-60189043D01*
X142006687Y-60208235D01*
X141994878Y-60230152D01*
X141987571Y-60253952D01*
X141985048Y-60278721D01*
X141885048Y-90128721D01*
X141887536Y-90154168D01*
X141894810Y-90177978D01*
X141906589Y-90199911D01*
X141922421Y-90219125D01*
X141941698Y-90234881D01*
X141963677Y-90246574D01*
X141987516Y-90253754D01*
X142012297Y-90256146D01*
X149340001Y-90241721D01*
X149340001Y-96967711D01*
X149292330Y-97453894D01*
X149160512Y-97890497D01*
X148946399Y-98293186D01*
X148658150Y-98646613D01*
X148306739Y-98937327D01*
X147905564Y-99154240D01*
X147469886Y-99289106D01*
X146985664Y-99340000D01*
X140416223Y-99340000D01*
X140518005Y-99238218D01*
X140612122Y-99097363D01*
X140676951Y-98940853D01*
X140710000Y-98774703D01*
X140710000Y-98605297D01*
X140676951Y-98439147D01*
X140612122Y-98282637D01*
X140518005Y-98141782D01*
X140398218Y-98021995D01*
X140257363Y-97927878D01*
X140100853Y-97863049D01*
X139934703Y-97830000D01*
X139765297Y-97830000D01*
X139599147Y-97863049D01*
X139442637Y-97927878D01*
X139301782Y-98021995D01*
X139181995Y-98141782D01*
X139087878Y-98282637D01*
X139023049Y-98439147D01*
X138990000Y-98605297D01*
X138990000Y-98774703D01*
X139023049Y-98940853D01*
X139087878Y-99097363D01*
X139181995Y-99238218D01*
X139283777Y-99340000D01*
X136321397Y-99340000D01*
X136583158Y-99287932D01*
X136853411Y-99175990D01*
X137096632Y-99013475D01*
X137303475Y-98806632D01*
X137465990Y-98563411D01*
X137577932Y-98293158D01*
X137635000Y-98006260D01*
X137635000Y-97713740D01*
X137577932Y-97426842D01*
X137465990Y-97156589D01*
X137303475Y-96913368D01*
X137096632Y-96706525D01*
X136922240Y-96590000D01*
X137096632Y-96473475D01*
X137303475Y-96266632D01*
X137324412Y-96235297D01*
X138930000Y-96235297D01*
X138930000Y-96404703D01*
X138963049Y-96570853D01*
X139027878Y-96727363D01*
X139121995Y-96868218D01*
X139241782Y-96988005D01*
X139382637Y-97082122D01*
X139539147Y-97146951D01*
X139705297Y-97180000D01*
X139874703Y-97180000D01*
X140040853Y-97146951D01*
X140197363Y-97082122D01*
X140338218Y-96988005D01*
X140458005Y-96868218D01*
X140517036Y-96779872D01*
X144765000Y-96779872D01*
X144765000Y-97220128D01*
X144850890Y-97651925D01*
X145019369Y-98058669D01*
X145263962Y-98424729D01*
X145575271Y-98736038D01*
X145941331Y-98980631D01*
X146348075Y-99149110D01*
X146779872Y-99235000D01*
X147220128Y-99235000D01*
X147651925Y-99149110D01*
X148058669Y-98980631D01*
X148424729Y-98736038D01*
X148736038Y-98424729D01*
X148980631Y-98058669D01*
X149149110Y-97651925D01*
X149235000Y-97220128D01*
X149235000Y-96779872D01*
X149149110Y-96348075D01*
X148980631Y-95941331D01*
X148736038Y-95575271D01*
X148424729Y-95263962D01*
X148058669Y-95019369D01*
X147651925Y-94850890D01*
X147220128Y-94765000D01*
X146779872Y-94765000D01*
X146348075Y-94850890D01*
X145941331Y-95019369D01*
X145575271Y-95263962D01*
X145263962Y-95575271D01*
X145019369Y-95941331D01*
X144850890Y-96348075D01*
X144765000Y-96779872D01*
X140517036Y-96779872D01*
X140552122Y-96727363D01*
X140616951Y-96570853D01*
X140650000Y-96404703D01*
X140650000Y-96235297D01*
X140616951Y-96069147D01*
X140552122Y-95912637D01*
X140458005Y-95771782D01*
X140338218Y-95651995D01*
X140197363Y-95557878D01*
X140040853Y-95493049D01*
X139874703Y-95460000D01*
X139705297Y-95460000D01*
X139539147Y-95493049D01*
X139382637Y-95557878D01*
X139241782Y-95651995D01*
X139121995Y-95771782D01*
X139027878Y-95912637D01*
X138963049Y-96069147D01*
X138930000Y-96235297D01*
X137324412Y-96235297D01*
X137465990Y-96023411D01*
X137577932Y-95753158D01*
X137635000Y-95466260D01*
X137635000Y-95173740D01*
X137577932Y-94886842D01*
X137465990Y-94616589D01*
X137303475Y-94373368D01*
X137096632Y-94166525D01*
X136853411Y-94004010D01*
X136583158Y-93892068D01*
X136296260Y-93835000D01*
X136003740Y-93835000D01*
X135716842Y-93892068D01*
X135446589Y-94004010D01*
X135203368Y-94166525D01*
X134996525Y-94373368D01*
X134880000Y-94547760D01*
X134763475Y-94373368D01*
X134556632Y-94166525D01*
X134313411Y-94004010D01*
X134043158Y-93892068D01*
X133756260Y-93835000D01*
X133463740Y-93835000D01*
X133176842Y-93892068D01*
X132906589Y-94004010D01*
X132663368Y-94166525D01*
X132456525Y-94373368D01*
X132340000Y-94547760D01*
X132223475Y-94373368D01*
X132016632Y-94166525D01*
X131773411Y-94004010D01*
X131503158Y-93892068D01*
X131216260Y-93835000D01*
X130923740Y-93835000D01*
X130636842Y-93892068D01*
X130366589Y-94004010D01*
X130123368Y-94166525D01*
X129916525Y-94373368D01*
X129800000Y-94547760D01*
X129683475Y-94373368D01*
X129476632Y-94166525D01*
X129233411Y-94004010D01*
X128963158Y-93892068D01*
X128676260Y-93835000D01*
X128383740Y-93835000D01*
X128096842Y-93892068D01*
X127826589Y-94004010D01*
X127583368Y-94166525D01*
X127376525Y-94373368D01*
X127260000Y-94547760D01*
X127143475Y-94373368D01*
X126936632Y-94166525D01*
X126693411Y-94004010D01*
X126423158Y-93892068D01*
X126136260Y-93835000D01*
X125843740Y-93835000D01*
X125556842Y-93892068D01*
X125286589Y-94004010D01*
X125043368Y-94166525D01*
X124836525Y-94373368D01*
X124720000Y-94547760D01*
X124603475Y-94373368D01*
X124396632Y-94166525D01*
X124153411Y-94004010D01*
X123883158Y-93892068D01*
X123596260Y-93835000D01*
X123303740Y-93835000D01*
X123016842Y-93892068D01*
X122746589Y-94004010D01*
X122503368Y-94166525D01*
X122296525Y-94373368D01*
X122180000Y-94547760D01*
X122063475Y-94373368D01*
X121856632Y-94166525D01*
X121613411Y-94004010D01*
X121343158Y-93892068D01*
X121056260Y-93835000D01*
X120763740Y-93835000D01*
X120476842Y-93892068D01*
X120206589Y-94004010D01*
X119963368Y-94166525D01*
X119756525Y-94373368D01*
X119640000Y-94547760D01*
X119523475Y-94373368D01*
X119316632Y-94166525D01*
X119073411Y-94004010D01*
X118803158Y-93892068D01*
X118516260Y-93835000D01*
X118223740Y-93835000D01*
X117936842Y-93892068D01*
X117666589Y-94004010D01*
X117423368Y-94166525D01*
X117216525Y-94373368D01*
X117100000Y-94547760D01*
X116983475Y-94373368D01*
X116776632Y-94166525D01*
X116533411Y-94004010D01*
X116263158Y-93892068D01*
X115976260Y-93835000D01*
X115683740Y-93835000D01*
X115396842Y-93892068D01*
X115126589Y-94004010D01*
X114883368Y-94166525D01*
X114676525Y-94373368D01*
X114560000Y-94547760D01*
X114443475Y-94373368D01*
X114236632Y-94166525D01*
X113993411Y-94004010D01*
X113723158Y-93892068D01*
X113436260Y-93835000D01*
X113143740Y-93835000D01*
X112856842Y-93892068D01*
X112586589Y-94004010D01*
X112343368Y-94166525D01*
X112136525Y-94373368D01*
X111974010Y-94616589D01*
X111862068Y-94886842D01*
X111805000Y-95173740D01*
X111805000Y-95466260D01*
X111862068Y-95753158D01*
X111974010Y-96023411D01*
X112136525Y-96266632D01*
X112268380Y-96398487D01*
X112195820Y-96420498D01*
X112085506Y-96479463D01*
X111988815Y-96558815D01*
X111909463Y-96655506D01*
X111850498Y-96765820D01*
X111814188Y-96885518D01*
X111801928Y-97010000D01*
X111805000Y-97574250D01*
X111963750Y-97733000D01*
X113163000Y-97733000D01*
X113163000Y-97713000D01*
X113417000Y-97713000D01*
X113417000Y-97733000D01*
X113437000Y-97733000D01*
X113437000Y-97987000D01*
X113417000Y-97987000D01*
X113417000Y-98007000D01*
X113163000Y-98007000D01*
X113163000Y-97987000D01*
X111963750Y-97987000D01*
X111805000Y-98145750D01*
X111801928Y-98710000D01*
X111814188Y-98834482D01*
X111850498Y-98954180D01*
X111909463Y-99064494D01*
X111988815Y-99161185D01*
X112085506Y-99240537D01*
X112195820Y-99299502D01*
X112315518Y-99335812D01*
X112358041Y-99340000D01*
X103032279Y-99340000D01*
X102546106Y-99292330D01*
X102109503Y-99160512D01*
X101706814Y-98946399D01*
X101353387Y-98658150D01*
X101062673Y-98306739D01*
X100845760Y-97905564D01*
X100710894Y-97469886D01*
X100660000Y-96985664D01*
X100660000Y-96779872D01*
X100765000Y-96779872D01*
X100765000Y-97220128D01*
X100850890Y-97651925D01*
X101019369Y-98058669D01*
X101263962Y-98424729D01*
X101575271Y-98736038D01*
X101941331Y-98980631D01*
X102348075Y-99149110D01*
X102779872Y-99235000D01*
X103220128Y-99235000D01*
X103651925Y-99149110D01*
X104058669Y-98980631D01*
X104424729Y-98736038D01*
X104736038Y-98424729D01*
X104980631Y-98058669D01*
X105073154Y-97835297D01*
X107170000Y-97835297D01*
X107170000Y-98004703D01*
X107203049Y-98170853D01*
X107267878Y-98327363D01*
X107361995Y-98468218D01*
X107481782Y-98588005D01*
X107622637Y-98682122D01*
X107779147Y-98746951D01*
X107945297Y-98780000D01*
X108114703Y-98780000D01*
X108280853Y-98746951D01*
X108437363Y-98682122D01*
X108578218Y-98588005D01*
X108698005Y-98468218D01*
X108792122Y-98327363D01*
X108856951Y-98170853D01*
X108890000Y-98004703D01*
X108890000Y-97835297D01*
X108856951Y-97669147D01*
X108792122Y-97512637D01*
X108698005Y-97371782D01*
X108578218Y-97251995D01*
X108437363Y-97157878D01*
X108280853Y-97093049D01*
X108114703Y-97060000D01*
X107945297Y-97060000D01*
X107779147Y-97093049D01*
X107622637Y-97157878D01*
X107481782Y-97251995D01*
X107361995Y-97371782D01*
X107267878Y-97512637D01*
X107203049Y-97669147D01*
X107170000Y-97835297D01*
X105073154Y-97835297D01*
X105149110Y-97651925D01*
X105235000Y-97220128D01*
X105235000Y-96779872D01*
X105149110Y-96348075D01*
X104980631Y-95941331D01*
X104742738Y-95585297D01*
X107430000Y-95585297D01*
X107430000Y-95754703D01*
X107463049Y-95920853D01*
X107527878Y-96077363D01*
X107621995Y-96218218D01*
X107741782Y-96338005D01*
X107882637Y-96432122D01*
X108039147Y-96496951D01*
X108205297Y-96530000D01*
X108374703Y-96530000D01*
X108540853Y-96496951D01*
X108697363Y-96432122D01*
X108838218Y-96338005D01*
X108958005Y-96218218D01*
X109052122Y-96077363D01*
X109116951Y-95920853D01*
X109150000Y-95754703D01*
X109150000Y-95585297D01*
X109116951Y-95419147D01*
X109052122Y-95262637D01*
X108958005Y-95121782D01*
X108838218Y-95001995D01*
X108697363Y-94907878D01*
X108540853Y-94843049D01*
X108374703Y-94810000D01*
X108205297Y-94810000D01*
X108039147Y-94843049D01*
X107882637Y-94907878D01*
X107741782Y-95001995D01*
X107621995Y-95121782D01*
X107527878Y-95262637D01*
X107463049Y-95419147D01*
X107430000Y-95585297D01*
X104742738Y-95585297D01*
X104736038Y-95575271D01*
X104424729Y-95263962D01*
X104058669Y-95019369D01*
X103651925Y-94850890D01*
X103220128Y-94765000D01*
X102779872Y-94765000D01*
X102348075Y-94850890D01*
X101941331Y-95019369D01*
X101575271Y-95263962D01*
X101263962Y-95575271D01*
X101019369Y-95941331D01*
X100850890Y-96348075D01*
X100765000Y-96779872D01*
X100660000Y-96779872D01*
X100660000Y-90585297D01*
X102880000Y-90585297D01*
X102880000Y-90754703D01*
X102913049Y-90920853D01*
X102977878Y-91077363D01*
X103071995Y-91218218D01*
X103191782Y-91338005D01*
X103332637Y-91432122D01*
X103489147Y-91496951D01*
X103655297Y-91530000D01*
X103824703Y-91530000D01*
X103990853Y-91496951D01*
X104147363Y-91432122D01*
X104288218Y-91338005D01*
X104408005Y-91218218D01*
X104502122Y-91077363D01*
X104566951Y-90920853D01*
X104600000Y-90754703D01*
X104600000Y-90585297D01*
X104566951Y-90419147D01*
X104502122Y-90262637D01*
X104408005Y-90121782D01*
X104288218Y-90001995D01*
X104147363Y-89907878D01*
X103990853Y-89843049D01*
X103824703Y-89810000D01*
X103655297Y-89810000D01*
X103489147Y-89843049D01*
X103332637Y-89907878D01*
X103191782Y-90001995D01*
X103071995Y-90121782D01*
X102977878Y-90262637D01*
X102913049Y-90419147D01*
X102880000Y-90585297D01*
X100660000Y-90585297D01*
X100660000Y-87315297D01*
X101530000Y-87315297D01*
X101530000Y-87484703D01*
X101563049Y-87650853D01*
X101627878Y-87807363D01*
X101721995Y-87948218D01*
X101841782Y-88068005D01*
X101982637Y-88162122D01*
X102139147Y-88226951D01*
X102305297Y-88260000D01*
X102474703Y-88260000D01*
X102640853Y-88226951D01*
X102797363Y-88162122D01*
X102938218Y-88068005D01*
X103058005Y-87948218D01*
X103152122Y-87807363D01*
X103216951Y-87650853D01*
X103250000Y-87484703D01*
X103250000Y-87315297D01*
X103216951Y-87149147D01*
X103152122Y-86992637D01*
X103058005Y-86851782D01*
X102938218Y-86731995D01*
X102797363Y-86637878D01*
X102640853Y-86573049D01*
X102474703Y-86540000D01*
X102305297Y-86540000D01*
X102139147Y-86573049D01*
X101982637Y-86637878D01*
X101841782Y-86731995D01*
X101721995Y-86851782D01*
X101627878Y-86992637D01*
X101563049Y-87149147D01*
X101530000Y-87315297D01*
X100660000Y-87315297D01*
X100660000Y-85965297D01*
X103580000Y-85965297D01*
X103580000Y-86134703D01*
X103613049Y-86300853D01*
X103677878Y-86457363D01*
X103771995Y-86598218D01*
X103891782Y-86718005D01*
X104032637Y-86812122D01*
X104189147Y-86876951D01*
X104355297Y-86910000D01*
X104524703Y-86910000D01*
X104690853Y-86876951D01*
X104847363Y-86812122D01*
X104988218Y-86718005D01*
X105108005Y-86598218D01*
X105202122Y-86457363D01*
X105266951Y-86300853D01*
X105300000Y-86134703D01*
X105300000Y-85965297D01*
X105266951Y-85799147D01*
X105202122Y-85642637D01*
X105108005Y-85501782D01*
X104988218Y-85381995D01*
X104847363Y-85287878D01*
X104690853Y-85223049D01*
X104524703Y-85190000D01*
X104355297Y-85190000D01*
X104189147Y-85223049D01*
X104032637Y-85287878D01*
X103891782Y-85381995D01*
X103771995Y-85501782D01*
X103677878Y-85642637D01*
X103613049Y-85799147D01*
X103580000Y-85965297D01*
X100660000Y-85965297D01*
X100660000Y-84875297D01*
X100820000Y-84875297D01*
X100820000Y-85044703D01*
X100853049Y-85210853D01*
X100917878Y-85367363D01*
X101011995Y-85508218D01*
X101131782Y-85628005D01*
X101272637Y-85722122D01*
X101429147Y-85786951D01*
X101595297Y-85820000D01*
X101764703Y-85820000D01*
X101930853Y-85786951D01*
X102087363Y-85722122D01*
X102228218Y-85628005D01*
X102348005Y-85508218D01*
X102442122Y-85367363D01*
X102506951Y-85210853D01*
X102540000Y-85044703D01*
X102540000Y-84875297D01*
X102506951Y-84709147D01*
X102442122Y-84552637D01*
X102406951Y-84500000D01*
X106636928Y-84500000D01*
X106636928Y-85500000D01*
X106649188Y-85624482D01*
X106685498Y-85744180D01*
X106733070Y-85833180D01*
X106697554Y-85913136D01*
X106680881Y-85968126D01*
X106807046Y-86143000D01*
X107648000Y-86143000D01*
X107648000Y-86138072D01*
X107902000Y-86138072D01*
X107902000Y-86143000D01*
X107913026Y-86143000D01*
X107910000Y-86158212D01*
X107910000Y-86381788D01*
X107913026Y-86397000D01*
X107902000Y-86397000D01*
X107902000Y-86408026D01*
X107886788Y-86405000D01*
X107663212Y-86405000D01*
X107648000Y-86408026D01*
X107648000Y-86397000D01*
X106807046Y-86397000D01*
X106680881Y-86571874D01*
X106697554Y-86626864D01*
X106787877Y-86830206D01*
X106837353Y-86900342D01*
X106769176Y-87002376D01*
X106683617Y-87208933D01*
X106640000Y-87428212D01*
X106640000Y-87651788D01*
X106683617Y-87871067D01*
X106769176Y-88077624D01*
X106834241Y-88175000D01*
X106769176Y-88272376D01*
X106683617Y-88478933D01*
X106640000Y-88698212D01*
X106640000Y-88921788D01*
X106683617Y-89141067D01*
X106769176Y-89347624D01*
X106834241Y-89445000D01*
X106769176Y-89542376D01*
X106683617Y-89748933D01*
X106640000Y-89968212D01*
X106640000Y-90191788D01*
X106683617Y-90411067D01*
X106769176Y-90617624D01*
X106893388Y-90803520D01*
X107051480Y-90961612D01*
X107237376Y-91085824D01*
X107443933Y-91171383D01*
X107663212Y-91215000D01*
X107886788Y-91215000D01*
X108106067Y-91171383D01*
X108312624Y-91085824D01*
X108410000Y-91020759D01*
X108507376Y-91085824D01*
X108713933Y-91171383D01*
X108933212Y-91215000D01*
X109156788Y-91215000D01*
X109376067Y-91171383D01*
X109582624Y-91085824D01*
X109768520Y-90961612D01*
X109926612Y-90803520D01*
X110050824Y-90617624D01*
X110136383Y-90411067D01*
X110180000Y-90191788D01*
X110180000Y-89968212D01*
X110136383Y-89748933D01*
X110050824Y-89542376D01*
X109985759Y-89445000D01*
X110050824Y-89347624D01*
X110136383Y-89141067D01*
X110180000Y-88921788D01*
X110180000Y-88698212D01*
X110136383Y-88478933D01*
X110052034Y-88275297D01*
X119200000Y-88275297D01*
X119200000Y-88444703D01*
X119233049Y-88610853D01*
X119297878Y-88767363D01*
X119391995Y-88908218D01*
X119511782Y-89028005D01*
X119652637Y-89122122D01*
X119809147Y-89186951D01*
X119975297Y-89220000D01*
X120144703Y-89220000D01*
X120310853Y-89186951D01*
X120467363Y-89122122D01*
X120608218Y-89028005D01*
X120728005Y-88908218D01*
X120822122Y-88767363D01*
X120886951Y-88610853D01*
X120899990Y-88545297D01*
X139740000Y-88545297D01*
X139740000Y-88714703D01*
X139773049Y-88880853D01*
X139837878Y-89037363D01*
X139931995Y-89178218D01*
X140051782Y-89298005D01*
X140192637Y-89392122D01*
X140349147Y-89456951D01*
X140515297Y-89490000D01*
X140684703Y-89490000D01*
X140850853Y-89456951D01*
X141007363Y-89392122D01*
X141148218Y-89298005D01*
X141268005Y-89178218D01*
X141362122Y-89037363D01*
X141426951Y-88880853D01*
X141460000Y-88714703D01*
X141460000Y-88545297D01*
X141426951Y-88379147D01*
X141362122Y-88222637D01*
X141268005Y-88081782D01*
X141148218Y-87961995D01*
X141007363Y-87867878D01*
X140850853Y-87803049D01*
X140684703Y-87770000D01*
X140515297Y-87770000D01*
X140349147Y-87803049D01*
X140192637Y-87867878D01*
X140051782Y-87961995D01*
X139931995Y-88081782D01*
X139837878Y-88222637D01*
X139773049Y-88379147D01*
X139740000Y-88545297D01*
X120899990Y-88545297D01*
X120920000Y-88444703D01*
X120920000Y-88275297D01*
X120886951Y-88109147D01*
X120822122Y-87952637D01*
X120728005Y-87811782D01*
X120608218Y-87691995D01*
X120467363Y-87597878D01*
X120310853Y-87533049D01*
X120144703Y-87500000D01*
X119975297Y-87500000D01*
X119809147Y-87533049D01*
X119652637Y-87597878D01*
X119511782Y-87691995D01*
X119391995Y-87811782D01*
X119297878Y-87952637D01*
X119233049Y-88109147D01*
X119200000Y-88275297D01*
X110052034Y-88275297D01*
X110050824Y-88272376D01*
X109985759Y-88175000D01*
X110050824Y-88077624D01*
X110136383Y-87871067D01*
X110180000Y-87651788D01*
X110180000Y-87428212D01*
X110175442Y-87405297D01*
X128460000Y-87405297D01*
X128460000Y-87574703D01*
X128493049Y-87740853D01*
X128557878Y-87897363D01*
X128651995Y-88038218D01*
X128771782Y-88158005D01*
X128912637Y-88252122D01*
X129069147Y-88316951D01*
X129235297Y-88350000D01*
X129404703Y-88350000D01*
X129570853Y-88316951D01*
X129727363Y-88252122D01*
X129868218Y-88158005D01*
X129988005Y-88038218D01*
X130082122Y-87897363D01*
X130146951Y-87740853D01*
X130180000Y-87574703D01*
X130180000Y-87405297D01*
X130146951Y-87239147D01*
X130082122Y-87082637D01*
X129988005Y-86941782D01*
X129868218Y-86821995D01*
X129727363Y-86727878D01*
X129570853Y-86663049D01*
X129404703Y-86630000D01*
X129235297Y-86630000D01*
X129069147Y-86663049D01*
X128912637Y-86727878D01*
X128771782Y-86821995D01*
X128651995Y-86941782D01*
X128557878Y-87082637D01*
X128493049Y-87239147D01*
X128460000Y-87405297D01*
X110175442Y-87405297D01*
X110136383Y-87208933D01*
X110050824Y-87002376D01*
X109985759Y-86905000D01*
X110050824Y-86807624D01*
X110136383Y-86601067D01*
X110180000Y-86381788D01*
X110180000Y-86158212D01*
X110136383Y-85938933D01*
X110050824Y-85732376D01*
X109985759Y-85635000D01*
X110018969Y-85585297D01*
X113650000Y-85585297D01*
X113650000Y-85754703D01*
X113683049Y-85920853D01*
X113747878Y-86077363D01*
X113841995Y-86218218D01*
X113961782Y-86338005D01*
X114102637Y-86432122D01*
X114259147Y-86496951D01*
X114425297Y-86530000D01*
X114594703Y-86530000D01*
X114760853Y-86496951D01*
X114917363Y-86432122D01*
X115058218Y-86338005D01*
X115178005Y-86218218D01*
X115272122Y-86077363D01*
X115336951Y-85920853D01*
X115370000Y-85754703D01*
X115370000Y-85585297D01*
X115336951Y-85419147D01*
X115272122Y-85262637D01*
X115178005Y-85121782D01*
X115058218Y-85001995D01*
X114917363Y-84907878D01*
X114760853Y-84843049D01*
X114594703Y-84810000D01*
X114425297Y-84810000D01*
X114259147Y-84843049D01*
X114102637Y-84907878D01*
X113961782Y-85001995D01*
X113841995Y-85121782D01*
X113747878Y-85262637D01*
X113683049Y-85419147D01*
X113650000Y-85585297D01*
X110018969Y-85585297D01*
X110050824Y-85537624D01*
X110136383Y-85331067D01*
X110180000Y-85111788D01*
X110180000Y-84888212D01*
X110136383Y-84668933D01*
X110050824Y-84462376D01*
X109926612Y-84276480D01*
X109768520Y-84118388D01*
X109582624Y-83994176D01*
X109376067Y-83908617D01*
X109156788Y-83865000D01*
X108933212Y-83865000D01*
X108713933Y-83908617D01*
X108602226Y-83954888D01*
X108519180Y-83910498D01*
X108399482Y-83874188D01*
X108275000Y-83861928D01*
X107275000Y-83861928D01*
X107150518Y-83874188D01*
X107030820Y-83910498D01*
X106920506Y-83969463D01*
X106823815Y-84048815D01*
X106744463Y-84145506D01*
X106685498Y-84255820D01*
X106649188Y-84375518D01*
X106636928Y-84500000D01*
X102406951Y-84500000D01*
X102348005Y-84411782D01*
X102228218Y-84291995D01*
X102087363Y-84197878D01*
X101930853Y-84133049D01*
X101764703Y-84100000D01*
X101595297Y-84100000D01*
X101429147Y-84133049D01*
X101272637Y-84197878D01*
X101131782Y-84291995D01*
X101011995Y-84411782D01*
X100917878Y-84552637D01*
X100853049Y-84709147D01*
X100820000Y-84875297D01*
X100660000Y-84875297D01*
X100660000Y-82825297D01*
X102170000Y-82825297D01*
X102170000Y-82994703D01*
X102203049Y-83160853D01*
X102267878Y-83317363D01*
X102361995Y-83458218D01*
X102481782Y-83578005D01*
X102622637Y-83672122D01*
X102779147Y-83736951D01*
X102945297Y-83770000D01*
X103114703Y-83770000D01*
X103280853Y-83736951D01*
X103437363Y-83672122D01*
X103578218Y-83578005D01*
X103698005Y-83458218D01*
X103792122Y-83317363D01*
X103856951Y-83160853D01*
X103890000Y-82994703D01*
X103890000Y-82825297D01*
X103876077Y-82755297D01*
X112950000Y-82755297D01*
X112950000Y-82924703D01*
X112983049Y-83090853D01*
X113047878Y-83247363D01*
X113141995Y-83388218D01*
X113261782Y-83508005D01*
X113402637Y-83602122D01*
X113559147Y-83666951D01*
X113725297Y-83700000D01*
X113894703Y-83700000D01*
X114060853Y-83666951D01*
X114217363Y-83602122D01*
X114358218Y-83508005D01*
X114478005Y-83388218D01*
X114572122Y-83247363D01*
X114636951Y-83090853D01*
X114670000Y-82924703D01*
X114670000Y-82755297D01*
X114636951Y-82589147D01*
X114572122Y-82432637D01*
X114478005Y-82291782D01*
X114358218Y-82171995D01*
X114217363Y-82077878D01*
X114060853Y-82013049D01*
X113894703Y-81980000D01*
X113725297Y-81980000D01*
X113559147Y-82013049D01*
X113402637Y-82077878D01*
X113261782Y-82171995D01*
X113141995Y-82291782D01*
X113047878Y-82432637D01*
X112983049Y-82589147D01*
X112950000Y-82755297D01*
X103876077Y-82755297D01*
X103856951Y-82659147D01*
X103792122Y-82502637D01*
X103698005Y-82361782D01*
X103578218Y-82241995D01*
X103437363Y-82147878D01*
X103280853Y-82083049D01*
X103114703Y-82050000D01*
X102945297Y-82050000D01*
X102779147Y-82083049D01*
X102622637Y-82147878D01*
X102481782Y-82241995D01*
X102361995Y-82361782D01*
X102267878Y-82502637D01*
X102203049Y-82659147D01*
X102170000Y-82825297D01*
X100660000Y-82825297D01*
X100660000Y-80965297D01*
X121670000Y-80965297D01*
X121670000Y-81134703D01*
X121703049Y-81300853D01*
X121767878Y-81457363D01*
X121861995Y-81598218D01*
X121981782Y-81718005D01*
X122122637Y-81812122D01*
X122279147Y-81876951D01*
X122445297Y-81910000D01*
X122614703Y-81910000D01*
X122780853Y-81876951D01*
X122937363Y-81812122D01*
X123078218Y-81718005D01*
X123198005Y-81598218D01*
X123292122Y-81457363D01*
X123356951Y-81300853D01*
X123390000Y-81134703D01*
X123390000Y-80965297D01*
X123356951Y-80799147D01*
X123292122Y-80642637D01*
X123198005Y-80501782D01*
X123078218Y-80381995D01*
X122937363Y-80287878D01*
X122780853Y-80223049D01*
X122614703Y-80190000D01*
X122445297Y-80190000D01*
X122279147Y-80223049D01*
X122122637Y-80287878D01*
X121981782Y-80381995D01*
X121861995Y-80501782D01*
X121767878Y-80642637D01*
X121703049Y-80799147D01*
X121670000Y-80965297D01*
X100660000Y-80965297D01*
X100660000Y-78875000D01*
X101509509Y-78875000D01*
X101531423Y-79097499D01*
X101596324Y-79311447D01*
X101701716Y-79508623D01*
X101843551Y-79681449D01*
X102016377Y-79823284D01*
X102213553Y-79928676D01*
X102427501Y-79993577D01*
X102594248Y-80010000D01*
X103505752Y-80010000D01*
X103672499Y-79993577D01*
X103886447Y-79928676D01*
X104083623Y-79823284D01*
X104256449Y-79681449D01*
X104398284Y-79508623D01*
X104503676Y-79311447D01*
X104568577Y-79097499D01*
X104590491Y-78875000D01*
X104568577Y-78652501D01*
X104503676Y-78438553D01*
X104398284Y-78241377D01*
X104256449Y-78068551D01*
X104083623Y-77926716D01*
X103886447Y-77821324D01*
X103672499Y-77756423D01*
X103505752Y-77740000D01*
X102594248Y-77740000D01*
X102427501Y-77756423D01*
X102213553Y-77821324D01*
X102016377Y-77926716D01*
X101843551Y-78068551D01*
X101701716Y-78241377D01*
X101596324Y-78438553D01*
X101531423Y-78652501D01*
X101509509Y-78875000D01*
X100660000Y-78875000D01*
X100660000Y-77398061D01*
X104765000Y-77398061D01*
X104765000Y-77601939D01*
X104804774Y-77801898D01*
X104882795Y-77990256D01*
X104996063Y-78159774D01*
X105140226Y-78303937D01*
X105266136Y-78388067D01*
X105231423Y-78502501D01*
X105209509Y-78725000D01*
X105231423Y-78947499D01*
X105296324Y-79161447D01*
X105401716Y-79358623D01*
X105543551Y-79531449D01*
X105716377Y-79673284D01*
X105913553Y-79778676D01*
X106127501Y-79843577D01*
X106294248Y-79860000D01*
X107405752Y-79860000D01*
X107572499Y-79843577D01*
X107786447Y-79778676D01*
X107983623Y-79673284D01*
X108139575Y-79545297D01*
X114820000Y-79545297D01*
X114820000Y-79714703D01*
X114853049Y-79880853D01*
X114917878Y-80037363D01*
X115011995Y-80178218D01*
X115131782Y-80298005D01*
X115272637Y-80392122D01*
X115429147Y-80456951D01*
X115595297Y-80490000D01*
X115764703Y-80490000D01*
X115930853Y-80456951D01*
X116087363Y-80392122D01*
X116228218Y-80298005D01*
X116348005Y-80178218D01*
X116442122Y-80037363D01*
X116506951Y-79880853D01*
X116540000Y-79714703D01*
X116540000Y-79545297D01*
X116506951Y-79379147D01*
X116442122Y-79222637D01*
X116383763Y-79135297D01*
X138180000Y-79135297D01*
X138180000Y-79304703D01*
X138213049Y-79470853D01*
X138277878Y-79627363D01*
X138371995Y-79768218D01*
X138491782Y-79888005D01*
X138632637Y-79982122D01*
X138789147Y-80046951D01*
X138955297Y-80080000D01*
X139124703Y-80080000D01*
X139290853Y-80046951D01*
X139447363Y-79982122D01*
X139588218Y-79888005D01*
X139708005Y-79768218D01*
X139716163Y-79756009D01*
X139839147Y-79806951D01*
X140005297Y-79840000D01*
X140174703Y-79840000D01*
X140340853Y-79806951D01*
X140497363Y-79742122D01*
X140638218Y-79648005D01*
X140758005Y-79528218D01*
X140852122Y-79387363D01*
X140916951Y-79230853D01*
X140950000Y-79064703D01*
X140950000Y-78895297D01*
X140916951Y-78729147D01*
X140852122Y-78572637D01*
X140758005Y-78431782D01*
X140638218Y-78311995D01*
X140497363Y-78217878D01*
X140340853Y-78153049D01*
X140174703Y-78120000D01*
X140005297Y-78120000D01*
X139839147Y-78153049D01*
X139682637Y-78217878D01*
X139541782Y-78311995D01*
X139421995Y-78431782D01*
X139413837Y-78443991D01*
X139290853Y-78393049D01*
X139124703Y-78360000D01*
X138955297Y-78360000D01*
X138789147Y-78393049D01*
X138632637Y-78457878D01*
X138491782Y-78551995D01*
X138371995Y-78671782D01*
X138277878Y-78812637D01*
X138213049Y-78969147D01*
X138180000Y-79135297D01*
X116383763Y-79135297D01*
X116348005Y-79081782D01*
X116228218Y-78961995D01*
X116087363Y-78867878D01*
X115930853Y-78803049D01*
X115764703Y-78770000D01*
X115595297Y-78770000D01*
X115429147Y-78803049D01*
X115272637Y-78867878D01*
X115131782Y-78961995D01*
X115011995Y-79081782D01*
X114917878Y-79222637D01*
X114853049Y-79379147D01*
X114820000Y-79545297D01*
X108139575Y-79545297D01*
X108156449Y-79531449D01*
X108298284Y-79358623D01*
X108403676Y-79161447D01*
X108468577Y-78947499D01*
X108490491Y-78725000D01*
X108468577Y-78502501D01*
X108403676Y-78288553D01*
X108298284Y-78091377D01*
X108156449Y-77918551D01*
X107983623Y-77776716D01*
X107786447Y-77671324D01*
X107572499Y-77606423D01*
X107405752Y-77590000D01*
X106835000Y-77590000D01*
X106835000Y-77398061D01*
X106795226Y-77198102D01*
X106717205Y-77009744D01*
X106687507Y-76965297D01*
X108380000Y-76965297D01*
X108380000Y-77134703D01*
X108413049Y-77300853D01*
X108477878Y-77457363D01*
X108571995Y-77598218D01*
X108691782Y-77718005D01*
X108832637Y-77812122D01*
X108989147Y-77876951D01*
X109155297Y-77910000D01*
X109324703Y-77910000D01*
X109490853Y-77876951D01*
X109647363Y-77812122D01*
X109788218Y-77718005D01*
X109908005Y-77598218D01*
X110002122Y-77457363D01*
X110066951Y-77300853D01*
X110100000Y-77134703D01*
X110100000Y-76965297D01*
X110066951Y-76799147D01*
X110002122Y-76642637D01*
X109923718Y-76525297D01*
X112750000Y-76525297D01*
X112750000Y-76694703D01*
X112783049Y-76860853D01*
X112847878Y-77017363D01*
X112941995Y-77158218D01*
X113061782Y-77278005D01*
X113202637Y-77372122D01*
X113359147Y-77436951D01*
X113525297Y-77470000D01*
X113694703Y-77470000D01*
X113860853Y-77436951D01*
X114017363Y-77372122D01*
X114158218Y-77278005D01*
X114170926Y-77265297D01*
X134100000Y-77265297D01*
X134100000Y-77434703D01*
X134133049Y-77600853D01*
X134197878Y-77757363D01*
X134291995Y-77898218D01*
X134411782Y-78018005D01*
X134552637Y-78112122D01*
X134709147Y-78176951D01*
X134875297Y-78210000D01*
X135044703Y-78210000D01*
X135210853Y-78176951D01*
X135367363Y-78112122D01*
X135508218Y-78018005D01*
X135628005Y-77898218D01*
X135722122Y-77757363D01*
X135786951Y-77600853D01*
X135820000Y-77434703D01*
X135820000Y-77265297D01*
X135786951Y-77099147D01*
X135722122Y-76942637D01*
X135628005Y-76801782D01*
X135508218Y-76681995D01*
X135367363Y-76587878D01*
X135210853Y-76523049D01*
X135044703Y-76490000D01*
X134875297Y-76490000D01*
X134709147Y-76523049D01*
X134552637Y-76587878D01*
X134411782Y-76681995D01*
X134291995Y-76801782D01*
X134197878Y-76942637D01*
X134133049Y-77099147D01*
X134100000Y-77265297D01*
X114170926Y-77265297D01*
X114278005Y-77158218D01*
X114372122Y-77017363D01*
X114436951Y-76860853D01*
X114470000Y-76694703D01*
X114470000Y-76525297D01*
X114436951Y-76359147D01*
X114372122Y-76202637D01*
X114278005Y-76061782D01*
X114158218Y-75941995D01*
X114017363Y-75847878D01*
X113860853Y-75783049D01*
X113694703Y-75750000D01*
X113525297Y-75750000D01*
X113359147Y-75783049D01*
X113202637Y-75847878D01*
X113061782Y-75941995D01*
X112941995Y-76061782D01*
X112847878Y-76202637D01*
X112783049Y-76359147D01*
X112750000Y-76525297D01*
X109923718Y-76525297D01*
X109908005Y-76501782D01*
X109788218Y-76381995D01*
X109647363Y-76287878D01*
X109490853Y-76223049D01*
X109324703Y-76190000D01*
X109155297Y-76190000D01*
X108989147Y-76223049D01*
X108832637Y-76287878D01*
X108691782Y-76381995D01*
X108571995Y-76501782D01*
X108477878Y-76642637D01*
X108413049Y-76799147D01*
X108380000Y-76965297D01*
X106687507Y-76965297D01*
X106603937Y-76840226D01*
X106459774Y-76696063D01*
X106290256Y-76582795D01*
X106101898Y-76504774D01*
X105901939Y-76465000D01*
X105698061Y-76465000D01*
X105498102Y-76504774D01*
X105309744Y-76582795D01*
X105140226Y-76696063D01*
X104996063Y-76840226D01*
X104882795Y-77009744D01*
X104804774Y-77198102D01*
X104765000Y-77398061D01*
X100660000Y-77398061D01*
X100660000Y-74765297D01*
X111590000Y-74765297D01*
X111590000Y-74934703D01*
X111623049Y-75100853D01*
X111687878Y-75257363D01*
X111781995Y-75398218D01*
X111901782Y-75518005D01*
X112042637Y-75612122D01*
X112199147Y-75676951D01*
X112365297Y-75710000D01*
X112534703Y-75710000D01*
X112700853Y-75676951D01*
X112857363Y-75612122D01*
X112998218Y-75518005D01*
X113118005Y-75398218D01*
X113212122Y-75257363D01*
X113276951Y-75100853D01*
X113310000Y-74934703D01*
X113310000Y-74765297D01*
X113276951Y-74599147D01*
X113212122Y-74442637D01*
X113118005Y-74301782D01*
X112998218Y-74181995D01*
X112857363Y-74087878D01*
X112700853Y-74023049D01*
X112534703Y-73990000D01*
X112365297Y-73990000D01*
X112199147Y-74023049D01*
X112042637Y-74087878D01*
X111901782Y-74181995D01*
X111781995Y-74301782D01*
X111687878Y-74442637D01*
X111623049Y-74599147D01*
X111590000Y-74765297D01*
X100660000Y-74765297D01*
X100660000Y-72398061D01*
X104765000Y-72398061D01*
X104765000Y-72601939D01*
X104804774Y-72801898D01*
X104882795Y-72990256D01*
X104996063Y-73159774D01*
X105140226Y-73303937D01*
X105309744Y-73417205D01*
X105498102Y-73495226D01*
X105698061Y-73535000D01*
X105901939Y-73535000D01*
X106101898Y-73495226D01*
X106290256Y-73417205D01*
X106459774Y-73303937D01*
X106603937Y-73159774D01*
X106717205Y-72990256D01*
X106795226Y-72801898D01*
X106835000Y-72601939D01*
X106835000Y-72410000D01*
X107405752Y-72410000D01*
X107572499Y-72393577D01*
X107786447Y-72328676D01*
X107905021Y-72265297D01*
X110170000Y-72265297D01*
X110170000Y-72434703D01*
X110203049Y-72600853D01*
X110267878Y-72757363D01*
X110361995Y-72898218D01*
X110481782Y-73018005D01*
X110622637Y-73112122D01*
X110779147Y-73176951D01*
X110945297Y-73210000D01*
X111114703Y-73210000D01*
X111280853Y-73176951D01*
X111437363Y-73112122D01*
X111578218Y-73018005D01*
X111698005Y-72898218D01*
X111792122Y-72757363D01*
X111856951Y-72600853D01*
X111871979Y-72525297D01*
X114040000Y-72525297D01*
X114040000Y-72694703D01*
X114073049Y-72860853D01*
X114137878Y-73017363D01*
X114231995Y-73158218D01*
X114351782Y-73278005D01*
X114492637Y-73372122D01*
X114649147Y-73436951D01*
X114815297Y-73470000D01*
X114984703Y-73470000D01*
X115150853Y-73436951D01*
X115307363Y-73372122D01*
X115448218Y-73278005D01*
X115568005Y-73158218D01*
X115662122Y-73017363D01*
X115726951Y-72860853D01*
X115760000Y-72694703D01*
X115760000Y-72525297D01*
X115726951Y-72359147D01*
X115662122Y-72202637D01*
X115568005Y-72061782D01*
X115448218Y-71941995D01*
X115307363Y-71847878D01*
X115276990Y-71835297D01*
X122710000Y-71835297D01*
X122710000Y-72004703D01*
X122743049Y-72170853D01*
X122807878Y-72327363D01*
X122901995Y-72468218D01*
X123021782Y-72588005D01*
X123162637Y-72682122D01*
X123319147Y-72746951D01*
X123485297Y-72780000D01*
X123654703Y-72780000D01*
X123820853Y-72746951D01*
X123977363Y-72682122D01*
X124118218Y-72588005D01*
X124238005Y-72468218D01*
X124300093Y-72375297D01*
X136410000Y-72375297D01*
X136410000Y-72544703D01*
X136443049Y-72710853D01*
X136507878Y-72867363D01*
X136601995Y-73008218D01*
X136721782Y-73128005D01*
X136862637Y-73222122D01*
X137019147Y-73286951D01*
X137135906Y-73310176D01*
X137167878Y-73387363D01*
X137261995Y-73528218D01*
X137381782Y-73648005D01*
X137522637Y-73742122D01*
X137679147Y-73806951D01*
X137845297Y-73840000D01*
X137854828Y-73840000D01*
X137857878Y-73847363D01*
X137951995Y-73988218D01*
X138071782Y-74108005D01*
X138212637Y-74202122D01*
X138369147Y-74266951D01*
X138482791Y-74289556D01*
X138483049Y-74290853D01*
X138547878Y-74447363D01*
X138641995Y-74588218D01*
X138761782Y-74708005D01*
X138902637Y-74802122D01*
X139059147Y-74866951D01*
X139225297Y-74900000D01*
X139394703Y-74900000D01*
X139560853Y-74866951D01*
X139717363Y-74802122D01*
X139858218Y-74708005D01*
X139978005Y-74588218D01*
X140072122Y-74447363D01*
X140136951Y-74290853D01*
X140170000Y-74124703D01*
X140170000Y-73955297D01*
X140136951Y-73789147D01*
X140072122Y-73632637D01*
X139978005Y-73491782D01*
X139858218Y-73371995D01*
X139717363Y-73277878D01*
X139560853Y-73213049D01*
X139447209Y-73190444D01*
X139446951Y-73189147D01*
X139382122Y-73032637D01*
X139288005Y-72891782D01*
X139168218Y-72771995D01*
X139027363Y-72677878D01*
X138870853Y-72613049D01*
X138704703Y-72580000D01*
X138695172Y-72580000D01*
X138692122Y-72572637D01*
X138598005Y-72431782D01*
X138478218Y-72311995D01*
X138337363Y-72217878D01*
X138180853Y-72153049D01*
X138064094Y-72129824D01*
X138032122Y-72052637D01*
X137938005Y-71911782D01*
X137818218Y-71791995D01*
X137677363Y-71697878D01*
X137520853Y-71633049D01*
X137354703Y-71600000D01*
X137185297Y-71600000D01*
X137019147Y-71633049D01*
X136862637Y-71697878D01*
X136721782Y-71791995D01*
X136601995Y-71911782D01*
X136507878Y-72052637D01*
X136443049Y-72209147D01*
X136410000Y-72375297D01*
X124300093Y-72375297D01*
X124332122Y-72327363D01*
X124396951Y-72170853D01*
X124430000Y-72004703D01*
X124430000Y-71835297D01*
X124396951Y-71669147D01*
X124332122Y-71512637D01*
X124238005Y-71371782D01*
X124118218Y-71251995D01*
X123977363Y-71157878D01*
X123820853Y-71093049D01*
X123654703Y-71060000D01*
X123485297Y-71060000D01*
X123319147Y-71093049D01*
X123162637Y-71157878D01*
X123021782Y-71251995D01*
X122901995Y-71371782D01*
X122807878Y-71512637D01*
X122743049Y-71669147D01*
X122710000Y-71835297D01*
X115276990Y-71835297D01*
X115150853Y-71783049D01*
X114984703Y-71750000D01*
X114815297Y-71750000D01*
X114649147Y-71783049D01*
X114492637Y-71847878D01*
X114351782Y-71941995D01*
X114231995Y-72061782D01*
X114137878Y-72202637D01*
X114073049Y-72359147D01*
X114040000Y-72525297D01*
X111871979Y-72525297D01*
X111890000Y-72434703D01*
X111890000Y-72265297D01*
X111856951Y-72099147D01*
X111792122Y-71942637D01*
X111698005Y-71801782D01*
X111578218Y-71681995D01*
X111437363Y-71587878D01*
X111280853Y-71523049D01*
X111114703Y-71490000D01*
X110945297Y-71490000D01*
X110779147Y-71523049D01*
X110622637Y-71587878D01*
X110481782Y-71681995D01*
X110361995Y-71801782D01*
X110267878Y-71942637D01*
X110203049Y-72099147D01*
X110170000Y-72265297D01*
X107905021Y-72265297D01*
X107983623Y-72223284D01*
X108156449Y-72081449D01*
X108298284Y-71908623D01*
X108403676Y-71711447D01*
X108468577Y-71497499D01*
X108490491Y-71275000D01*
X108468577Y-71052501D01*
X108403676Y-70838553D01*
X108298284Y-70641377D01*
X108156449Y-70468551D01*
X107983623Y-70326716D01*
X107786447Y-70221324D01*
X107572499Y-70156423D01*
X107405752Y-70140000D01*
X106294248Y-70140000D01*
X106127501Y-70156423D01*
X105913553Y-70221324D01*
X105716377Y-70326716D01*
X105543551Y-70468551D01*
X105401716Y-70641377D01*
X105296324Y-70838553D01*
X105231423Y-71052501D01*
X105209509Y-71275000D01*
X105231423Y-71497499D01*
X105266136Y-71611933D01*
X105140226Y-71696063D01*
X104996063Y-71840226D01*
X104882795Y-72009744D01*
X104804774Y-72198102D01*
X104765000Y-72398061D01*
X100660000Y-72398061D01*
X100660000Y-71125000D01*
X101509509Y-71125000D01*
X101531423Y-71347499D01*
X101596324Y-71561447D01*
X101701716Y-71758623D01*
X101843551Y-71931449D01*
X102016377Y-72073284D01*
X102213553Y-72178676D01*
X102427501Y-72243577D01*
X102594248Y-72260000D01*
X103505752Y-72260000D01*
X103672499Y-72243577D01*
X103886447Y-72178676D01*
X104083623Y-72073284D01*
X104256449Y-71931449D01*
X104398284Y-71758623D01*
X104503676Y-71561447D01*
X104568577Y-71347499D01*
X104590491Y-71125000D01*
X104568577Y-70902501D01*
X104503676Y-70688553D01*
X104398284Y-70491377D01*
X104256449Y-70318551D01*
X104083623Y-70176716D01*
X103886447Y-70071324D01*
X103672499Y-70006423D01*
X103505752Y-69990000D01*
X102594248Y-69990000D01*
X102427501Y-70006423D01*
X102213553Y-70071324D01*
X102016377Y-70176716D01*
X101843551Y-70318551D01*
X101701716Y-70491377D01*
X101596324Y-70688553D01*
X101531423Y-70902501D01*
X101509509Y-71125000D01*
X100660000Y-71125000D01*
X100660000Y-69825297D01*
X116740000Y-69825297D01*
X116740000Y-69994703D01*
X116773049Y-70160853D01*
X116837878Y-70317363D01*
X116931995Y-70458218D01*
X117051782Y-70578005D01*
X117192637Y-70672122D01*
X117349147Y-70736951D01*
X117515297Y-70770000D01*
X117684703Y-70770000D01*
X117850853Y-70736951D01*
X118007363Y-70672122D01*
X118148218Y-70578005D01*
X118268005Y-70458218D01*
X118362122Y-70317363D01*
X118426951Y-70160853D01*
X118460000Y-69994703D01*
X118460000Y-69825297D01*
X118426951Y-69659147D01*
X118362122Y-69502637D01*
X118268005Y-69361782D01*
X118251520Y-69345297D01*
X122110000Y-69345297D01*
X122110000Y-69514703D01*
X122143049Y-69680853D01*
X122207878Y-69837363D01*
X122301995Y-69978218D01*
X122421782Y-70098005D01*
X122562637Y-70192122D01*
X122719147Y-70256951D01*
X122885297Y-70290000D01*
X123054703Y-70290000D01*
X123220853Y-70256951D01*
X123377363Y-70192122D01*
X123518218Y-70098005D01*
X123638005Y-69978218D01*
X123732122Y-69837363D01*
X123796951Y-69680853D01*
X123830000Y-69514703D01*
X123830000Y-69345297D01*
X123796951Y-69179147D01*
X123732122Y-69022637D01*
X123638005Y-68881782D01*
X123518218Y-68761995D01*
X123377363Y-68667878D01*
X123220853Y-68603049D01*
X123054703Y-68570000D01*
X122885297Y-68570000D01*
X122719147Y-68603049D01*
X122562637Y-68667878D01*
X122421782Y-68761995D01*
X122301995Y-68881782D01*
X122207878Y-69022637D01*
X122143049Y-69179147D01*
X122110000Y-69345297D01*
X118251520Y-69345297D01*
X118148218Y-69241995D01*
X118007363Y-69147878D01*
X117850853Y-69083049D01*
X117684703Y-69050000D01*
X117515297Y-69050000D01*
X117349147Y-69083049D01*
X117192637Y-69147878D01*
X117051782Y-69241995D01*
X116931995Y-69361782D01*
X116837878Y-69502637D01*
X116773049Y-69659147D01*
X116740000Y-69825297D01*
X100660000Y-69825297D01*
X100660000Y-67945297D01*
X125600000Y-67945297D01*
X125600000Y-68114703D01*
X125633049Y-68280853D01*
X125697878Y-68437363D01*
X125791995Y-68578218D01*
X125911782Y-68698005D01*
X126052637Y-68792122D01*
X126209147Y-68856951D01*
X126375297Y-68890000D01*
X126544703Y-68890000D01*
X126710853Y-68856951D01*
X126867363Y-68792122D01*
X127008218Y-68698005D01*
X127128005Y-68578218D01*
X127222122Y-68437363D01*
X127286951Y-68280853D01*
X127320000Y-68114703D01*
X127320000Y-67945297D01*
X127286951Y-67779147D01*
X127222122Y-67622637D01*
X127128005Y-67481782D01*
X127008218Y-67361995D01*
X126867363Y-67267878D01*
X126710853Y-67203049D01*
X126544703Y-67170000D01*
X126375297Y-67170000D01*
X126209147Y-67203049D01*
X126052637Y-67267878D01*
X125911782Y-67361995D01*
X125791995Y-67481782D01*
X125697878Y-67622637D01*
X125633049Y-67779147D01*
X125600000Y-67945297D01*
X100660000Y-67945297D01*
X100660000Y-66515297D01*
X122710000Y-66515297D01*
X122710000Y-66684703D01*
X122743049Y-66850853D01*
X122807878Y-67007363D01*
X122901995Y-67148218D01*
X123021782Y-67268005D01*
X123162637Y-67362122D01*
X123319147Y-67426951D01*
X123485297Y-67460000D01*
X123654703Y-67460000D01*
X123820853Y-67426951D01*
X123977363Y-67362122D01*
X124118218Y-67268005D01*
X124238005Y-67148218D01*
X124332122Y-67007363D01*
X124378541Y-66895297D01*
X127480000Y-66895297D01*
X127480000Y-67064703D01*
X127513049Y-67230853D01*
X127577878Y-67387363D01*
X127671995Y-67528218D01*
X127791782Y-67648005D01*
X127932637Y-67742122D01*
X128089147Y-67806951D01*
X128255297Y-67840000D01*
X128424703Y-67840000D01*
X128590853Y-67806951D01*
X128747363Y-67742122D01*
X128888218Y-67648005D01*
X129008005Y-67528218D01*
X129102122Y-67387363D01*
X129166951Y-67230853D01*
X129200000Y-67064703D01*
X129200000Y-66895297D01*
X129166951Y-66729147D01*
X129151197Y-66691115D01*
X129182637Y-66712122D01*
X129339147Y-66776951D01*
X129505297Y-66810000D01*
X129674703Y-66810000D01*
X129840853Y-66776951D01*
X129997363Y-66712122D01*
X130138218Y-66618005D01*
X130258005Y-66498218D01*
X130352122Y-66357363D01*
X130416951Y-66200853D01*
X130450000Y-66034703D01*
X130450000Y-65865297D01*
X130416951Y-65699147D01*
X130352122Y-65542637D01*
X130258005Y-65401782D01*
X130138218Y-65281995D01*
X129997363Y-65187878D01*
X129840853Y-65123049D01*
X129674703Y-65090000D01*
X129505297Y-65090000D01*
X129339147Y-65123049D01*
X129182637Y-65187878D01*
X129041782Y-65281995D01*
X128921995Y-65401782D01*
X128827878Y-65542637D01*
X128763049Y-65699147D01*
X128730000Y-65865297D01*
X128730000Y-66034703D01*
X128763049Y-66200853D01*
X128778803Y-66238885D01*
X128747363Y-66217878D01*
X128590853Y-66153049D01*
X128424703Y-66120000D01*
X128255297Y-66120000D01*
X128089147Y-66153049D01*
X127932637Y-66217878D01*
X127791782Y-66311995D01*
X127671995Y-66431782D01*
X127577878Y-66572637D01*
X127513049Y-66729147D01*
X127480000Y-66895297D01*
X124378541Y-66895297D01*
X124396951Y-66850853D01*
X124430000Y-66684703D01*
X124430000Y-66515297D01*
X124396951Y-66349147D01*
X124332122Y-66192637D01*
X124238005Y-66051782D01*
X124118218Y-65931995D01*
X123977363Y-65837878D01*
X123820853Y-65773049D01*
X123654703Y-65740000D01*
X123485297Y-65740000D01*
X123319147Y-65773049D01*
X123162637Y-65837878D01*
X123021782Y-65931995D01*
X122901995Y-66051782D01*
X122807878Y-66192637D01*
X122743049Y-66349147D01*
X122710000Y-66515297D01*
X100660000Y-66515297D01*
X100660000Y-64835297D01*
X125330000Y-64835297D01*
X125330000Y-65004703D01*
X125363049Y-65170853D01*
X125427878Y-65327363D01*
X125521995Y-65468218D01*
X125641782Y-65588005D01*
X125782637Y-65682122D01*
X125939147Y-65746951D01*
X126105297Y-65780000D01*
X126274703Y-65780000D01*
X126440853Y-65746951D01*
X126597363Y-65682122D01*
X126738218Y-65588005D01*
X126858005Y-65468218D01*
X126952122Y-65327363D01*
X127016951Y-65170853D01*
X127050000Y-65004703D01*
X127050000Y-64835297D01*
X127016951Y-64669147D01*
X126952122Y-64512637D01*
X126858005Y-64371782D01*
X126738218Y-64251995D01*
X126597363Y-64157878D01*
X126440853Y-64093049D01*
X126274703Y-64060000D01*
X126105297Y-64060000D01*
X125939147Y-64093049D01*
X125782637Y-64157878D01*
X125641782Y-64251995D01*
X125521995Y-64371782D01*
X125427878Y-64512637D01*
X125363049Y-64669147D01*
X125330000Y-64835297D01*
X100660000Y-64835297D01*
X100660000Y-63595297D01*
X122970000Y-63595297D01*
X122970000Y-63764703D01*
X123003049Y-63930853D01*
X123067878Y-64087363D01*
X123161995Y-64228218D01*
X123281782Y-64348005D01*
X123422637Y-64442122D01*
X123579147Y-64506951D01*
X123745297Y-64540000D01*
X123914703Y-64540000D01*
X124080853Y-64506951D01*
X124237363Y-64442122D01*
X124378218Y-64348005D01*
X124498005Y-64228218D01*
X124592122Y-64087363D01*
X124656951Y-63930853D01*
X124690000Y-63764703D01*
X124690000Y-63595297D01*
X124656951Y-63429147D01*
X124592122Y-63272637D01*
X124498005Y-63131782D01*
X124378218Y-63011995D01*
X124237363Y-62917878D01*
X124080853Y-62853049D01*
X123914703Y-62820000D01*
X123745297Y-62820000D01*
X123579147Y-62853049D01*
X123422637Y-62917878D01*
X123281782Y-63011995D01*
X123161995Y-63131782D01*
X123067878Y-63272637D01*
X123003049Y-63429147D01*
X122970000Y-63595297D01*
X100660000Y-63595297D01*
X100660000Y-61445297D01*
X118810000Y-61445297D01*
X118810000Y-61614703D01*
X118843049Y-61780853D01*
X118907878Y-61937363D01*
X119001995Y-62078218D01*
X119121782Y-62198005D01*
X119262637Y-62292122D01*
X119419147Y-62356951D01*
X119585297Y-62390000D01*
X119754703Y-62390000D01*
X119920853Y-62356951D01*
X120077363Y-62292122D01*
X120162406Y-62235297D01*
X139570000Y-62235297D01*
X139570000Y-62404703D01*
X139603049Y-62570853D01*
X139667878Y-62727363D01*
X139761995Y-62868218D01*
X139881782Y-62988005D01*
X140022637Y-63082122D01*
X140179147Y-63146951D01*
X140345297Y-63180000D01*
X140514703Y-63180000D01*
X140680853Y-63146951D01*
X140837363Y-63082122D01*
X140978218Y-62988005D01*
X141098005Y-62868218D01*
X141192122Y-62727363D01*
X141256951Y-62570853D01*
X141290000Y-62404703D01*
X141290000Y-62235297D01*
X141256951Y-62069147D01*
X141192122Y-61912637D01*
X141098005Y-61771782D01*
X140978218Y-61651995D01*
X140837363Y-61557878D01*
X140680853Y-61493049D01*
X140514703Y-61460000D01*
X140345297Y-61460000D01*
X140179147Y-61493049D01*
X140022637Y-61557878D01*
X139881782Y-61651995D01*
X139761995Y-61771782D01*
X139667878Y-61912637D01*
X139603049Y-62069147D01*
X139570000Y-62235297D01*
X120162406Y-62235297D01*
X120218218Y-62198005D01*
X120338005Y-62078218D01*
X120432122Y-61937363D01*
X120496951Y-61780853D01*
X120530000Y-61614703D01*
X120530000Y-61445297D01*
X120496951Y-61279147D01*
X120432122Y-61122637D01*
X120338005Y-60981782D01*
X120218218Y-60861995D01*
X120077363Y-60767878D01*
X119920853Y-60703049D01*
X119754703Y-60670000D01*
X119585297Y-60670000D01*
X119419147Y-60703049D01*
X119262637Y-60767878D01*
X119121782Y-60861995D01*
X119001995Y-60981782D01*
X118907878Y-61122637D01*
X118843049Y-61279147D01*
X118810000Y-61445297D01*
X100660000Y-61445297D01*
X100660000Y-60245297D01*
X137260000Y-60245297D01*
X137260000Y-60414703D01*
X137293049Y-60580853D01*
X137357878Y-60737363D01*
X137451995Y-60878218D01*
X137571782Y-60998005D01*
X137712637Y-61092122D01*
X137869147Y-61156951D01*
X138035297Y-61190000D01*
X138204703Y-61190000D01*
X138370853Y-61156951D01*
X138527363Y-61092122D01*
X138668218Y-60998005D01*
X138788005Y-60878218D01*
X138882122Y-60737363D01*
X138946951Y-60580853D01*
X138980000Y-60414703D01*
X138980000Y-60245297D01*
X138946951Y-60079147D01*
X138882122Y-59922637D01*
X138788005Y-59781782D01*
X138668218Y-59661995D01*
X138527363Y-59567878D01*
X138370853Y-59503049D01*
X138204703Y-59470000D01*
X138035297Y-59470000D01*
X137869147Y-59503049D01*
X137712637Y-59567878D01*
X137571782Y-59661995D01*
X137451995Y-59781782D01*
X137357878Y-59922637D01*
X137293049Y-60079147D01*
X137260000Y-60245297D01*
X100660000Y-60245297D01*
X100660000Y-58355297D01*
X109540000Y-58355297D01*
X109540000Y-58524703D01*
X109573049Y-58690853D01*
X109637878Y-58847363D01*
X109731995Y-58988218D01*
X109851782Y-59108005D01*
X109992637Y-59202122D01*
X110149147Y-59266951D01*
X110315297Y-59300000D01*
X110484703Y-59300000D01*
X110650853Y-59266951D01*
X110807363Y-59202122D01*
X110948218Y-59108005D01*
X111068005Y-58988218D01*
X111162122Y-58847363D01*
X111226951Y-58690853D01*
X111260000Y-58524703D01*
X111260000Y-58355297D01*
X111252044Y-58315297D01*
X135530000Y-58315297D01*
X135530000Y-58484703D01*
X135563049Y-58650853D01*
X135627878Y-58807363D01*
X135721995Y-58948218D01*
X135841782Y-59068005D01*
X135982637Y-59162122D01*
X136139147Y-59226951D01*
X136305297Y-59260000D01*
X136474703Y-59260000D01*
X136640853Y-59226951D01*
X136797363Y-59162122D01*
X136938218Y-59068005D01*
X137058005Y-58948218D01*
X137152122Y-58807363D01*
X137216951Y-58650853D01*
X137250000Y-58484703D01*
X137250000Y-58315297D01*
X137216951Y-58149147D01*
X137152122Y-57992637D01*
X137058005Y-57851782D01*
X136938218Y-57731995D01*
X136797363Y-57637878D01*
X136640853Y-57573049D01*
X136474703Y-57540000D01*
X136305297Y-57540000D01*
X136139147Y-57573049D01*
X135982637Y-57637878D01*
X135841782Y-57731995D01*
X135721995Y-57851782D01*
X135627878Y-57992637D01*
X135563049Y-58149147D01*
X135530000Y-58315297D01*
X111252044Y-58315297D01*
X111226951Y-58189147D01*
X111162122Y-58032637D01*
X111068005Y-57891782D01*
X110948218Y-57771995D01*
X110807363Y-57677878D01*
X110650853Y-57613049D01*
X110484703Y-57580000D01*
X110315297Y-57580000D01*
X110149147Y-57613049D01*
X109992637Y-57677878D01*
X109851782Y-57771995D01*
X109731995Y-57891782D01*
X109637878Y-58032637D01*
X109573049Y-58189147D01*
X109540000Y-58355297D01*
X100660000Y-58355297D01*
X100660000Y-53032279D01*
X100684748Y-52779872D01*
X100765000Y-52779872D01*
X100765000Y-53220128D01*
X100850890Y-53651925D01*
X101019369Y-54058669D01*
X101263962Y-54424729D01*
X101575271Y-54736038D01*
X101941331Y-54980631D01*
X102348075Y-55149110D01*
X102779872Y-55235000D01*
X103220128Y-55235000D01*
X103651925Y-55149110D01*
X103878409Y-55055297D01*
X107970000Y-55055297D01*
X107970000Y-55224703D01*
X108003049Y-55390853D01*
X108067878Y-55547363D01*
X108161995Y-55688218D01*
X108281782Y-55808005D01*
X108422637Y-55902122D01*
X108579147Y-55966951D01*
X108745297Y-56000000D01*
X108914703Y-56000000D01*
X109062722Y-55970557D01*
X109007878Y-56052637D01*
X108943049Y-56209147D01*
X108910000Y-56375297D01*
X108910000Y-56544703D01*
X108943049Y-56710853D01*
X109007878Y-56867363D01*
X109101995Y-57008218D01*
X109221782Y-57128005D01*
X109362637Y-57222122D01*
X109519147Y-57286951D01*
X109685297Y-57320000D01*
X109854703Y-57320000D01*
X110020853Y-57286951D01*
X110177363Y-57222122D01*
X110318218Y-57128005D01*
X110438005Y-57008218D01*
X110532122Y-56867363D01*
X110596951Y-56710853D01*
X110630000Y-56544703D01*
X110630000Y-56375297D01*
X110596951Y-56209147D01*
X110532122Y-56052637D01*
X110438005Y-55911782D01*
X110318218Y-55791995D01*
X110177363Y-55697878D01*
X110020853Y-55633049D01*
X109854703Y-55600000D01*
X109685297Y-55600000D01*
X109537278Y-55629443D01*
X109592122Y-55547363D01*
X109599314Y-55530000D01*
X111801928Y-55530000D01*
X111814188Y-55654482D01*
X111850498Y-55774180D01*
X111909463Y-55884494D01*
X111988815Y-55981185D01*
X112085506Y-56060537D01*
X112195820Y-56119502D01*
X112315518Y-56155812D01*
X112440000Y-56168072D01*
X113004250Y-56165000D01*
X113163000Y-56006250D01*
X113163000Y-54807000D01*
X111963750Y-54807000D01*
X111805000Y-54965750D01*
X111801928Y-55530000D01*
X109599314Y-55530000D01*
X109656951Y-55390853D01*
X109690000Y-55224703D01*
X109690000Y-55055297D01*
X109656951Y-54889147D01*
X109592122Y-54732637D01*
X109498005Y-54591782D01*
X109378218Y-54471995D01*
X109237363Y-54377878D01*
X109080853Y-54313049D01*
X108914703Y-54280000D01*
X108745297Y-54280000D01*
X108579147Y-54313049D01*
X108422637Y-54377878D01*
X108281782Y-54471995D01*
X108161995Y-54591782D01*
X108067878Y-54732637D01*
X108003049Y-54889147D01*
X107970000Y-55055297D01*
X103878409Y-55055297D01*
X104058669Y-54980631D01*
X104424729Y-54736038D01*
X104736038Y-54424729D01*
X104980631Y-54058669D01*
X105075348Y-53830000D01*
X111801928Y-53830000D01*
X111805000Y-54394250D01*
X111963750Y-54553000D01*
X113163000Y-54553000D01*
X113163000Y-52267000D01*
X111969186Y-52267000D01*
X111848519Y-52496891D01*
X111945843Y-52771252D01*
X112094822Y-53021355D01*
X112271626Y-53217502D01*
X112195820Y-53240498D01*
X112085506Y-53299463D01*
X111988815Y-53378815D01*
X111909463Y-53475506D01*
X111850498Y-53585820D01*
X111814188Y-53705518D01*
X111801928Y-53830000D01*
X105075348Y-53830000D01*
X105149110Y-53651925D01*
X105235000Y-53220128D01*
X105235000Y-52779872D01*
X105149110Y-52348075D01*
X104980631Y-51941331D01*
X104736038Y-51575271D01*
X104424729Y-51263962D01*
X104058669Y-51019369D01*
X103651925Y-50850890D01*
X103220128Y-50765000D01*
X102779872Y-50765000D01*
X102348075Y-50850890D01*
X101941331Y-51019369D01*
X101575271Y-51263962D01*
X101263962Y-51575271D01*
X101019369Y-51941331D01*
X100850890Y-52348075D01*
X100765000Y-52779872D01*
X100684748Y-52779872D01*
X100707670Y-52546107D01*
X100839489Y-52109502D01*
X101053600Y-51706815D01*
X101341848Y-51353388D01*
X101693261Y-51062673D01*
X102094439Y-50845758D01*
X102530113Y-50710894D01*
X103014344Y-50660000D01*
X113162998Y-50660000D01*
X113162998Y-50819844D01*
G37*
%TD.AperFunction*%
%TD*%
M02*
