%TF.GenerationSoftware,KiCad,Pcbnew,(5.1.12-1-10_14)*%
%TF.CreationDate,2022-01-30T11:35:25+08:00*%
%TF.ProjectId,bl600-sa-devboard,626c3630-302d-4736-912d-646576626f61,rev?*%
%TF.SameCoordinates,Original*%
%TF.FileFunction,Soldermask,Top*%
%TF.FilePolarity,Negative*%
%FSLAX46Y46*%
G04 Gerber Fmt 4.6, Leading zero omitted, Abs format (unit mm)*
G04 Created by KiCad (PCBNEW (5.1.12-1-10_14)) date 2022-01-30 11:35:25*
%MOMM*%
%LPD*%
G01*
G04 APERTURE LIST*
%ADD10R,1.700000X0.500000*%
%ADD11R,0.499872X1.700022*%
%ADD12R,1.699997X0.899998*%
%ADD13R,2.000000X1.500000*%
%ADD14R,2.000000X3.800000*%
%ADD15O,1.700000X1.700000*%
%ADD16R,1.700000X1.700000*%
%ADD17C,0.800000*%
%ADD18O,1.800000X1.000000*%
%ADD19O,2.000000X1.000000*%
%ADD20R,1.300000X0.450000*%
%ADD21C,3.200000*%
%ADD22O,1.000000X1.000000*%
%ADD23R,1.000000X1.000000*%
G04 APERTURE END LIST*
%TO.C,C3*%
G36*
G01*
X114170002Y-67900000D02*
X111969998Y-67900000D01*
G75*
G02*
X111720000Y-67650002I0J249998D01*
G01*
X111720000Y-66824998D01*
G75*
G02*
X111969998Y-66575000I249998J0D01*
G01*
X114170002Y-66575000D01*
G75*
G02*
X114420000Y-66824998I0J-249998D01*
G01*
X114420000Y-67650002D01*
G75*
G02*
X114170002Y-67900000I-249998J0D01*
G01*
G37*
G36*
G01*
X114170002Y-71025000D02*
X111969998Y-71025000D01*
G75*
G02*
X111720000Y-70775002I0J249998D01*
G01*
X111720000Y-69949998D01*
G75*
G02*
X111969998Y-69700000I249998J0D01*
G01*
X114170002Y-69700000D01*
G75*
G02*
X114420000Y-69949998I0J-249998D01*
G01*
X114420000Y-70775002D01*
G75*
G02*
X114170002Y-71025000I-249998J0D01*
G01*
G37*
%TD*%
%TO.C,C2*%
G36*
G01*
X103950000Y-58039998D02*
X103950000Y-60240002D01*
G75*
G02*
X103700002Y-60490000I-249998J0D01*
G01*
X102874998Y-60490000D01*
G75*
G02*
X102625000Y-60240002I0J249998D01*
G01*
X102625000Y-58039998D01*
G75*
G02*
X102874998Y-57790000I249998J0D01*
G01*
X103700002Y-57790000D01*
G75*
G02*
X103950000Y-58039998I0J-249998D01*
G01*
G37*
G36*
G01*
X107075000Y-58039998D02*
X107075000Y-60240002D01*
G75*
G02*
X106825002Y-60490000I-249998J0D01*
G01*
X105999998Y-60490000D01*
G75*
G02*
X105750000Y-60240002I0J249998D01*
G01*
X105750000Y-58039998D01*
G75*
G02*
X105999998Y-57790000I249998J0D01*
G01*
X106825002Y-57790000D01*
G75*
G02*
X107075000Y-58039998I0J-249998D01*
G01*
G37*
%TD*%
D10*
%TO.C,MOD1*%
X130500146Y-79400042D03*
X130500146Y-78599942D03*
X130500146Y-77800096D03*
X130500146Y-76999996D03*
X130500146Y-76199896D03*
X130500146Y-75400050D03*
X130500146Y-74599950D03*
X130500146Y-73800104D03*
X130500146Y-73000004D03*
X130500146Y-72199904D03*
X130500146Y-71400058D03*
D11*
X144999990Y-81249924D03*
X144199890Y-81249924D03*
X143400044Y-81249924D03*
X142599944Y-81249924D03*
X141800098Y-81249924D03*
X140999998Y-81249924D03*
X140199898Y-81249924D03*
X139400052Y-81249924D03*
X138599952Y-81249924D03*
X137800106Y-81249924D03*
X137000006Y-81249924D03*
X136199906Y-81249924D03*
X135400060Y-81249924D03*
X134599960Y-81249924D03*
X133800114Y-81249924D03*
X133000014Y-81249924D03*
X133000014Y-68750076D03*
X133800114Y-68750076D03*
X134599960Y-68750076D03*
X135400060Y-68750076D03*
X136199906Y-68750076D03*
X137000006Y-68750076D03*
X137800106Y-68750076D03*
X138599952Y-68750076D03*
X139400052Y-68750076D03*
X140199898Y-68750076D03*
X140999998Y-68750076D03*
X141800098Y-68750076D03*
X142599944Y-68750076D03*
X143400044Y-68750076D03*
X144199890Y-68750076D03*
D10*
X130500146Y-70599958D03*
D11*
X144999990Y-68750076D03*
%TD*%
%TO.C,C1*%
G36*
G01*
X124085000Y-69737500D02*
X125035000Y-69737500D01*
G75*
G02*
X125285000Y-69987500I0J-250000D01*
G01*
X125285000Y-70662500D01*
G75*
G02*
X125035000Y-70912500I-250000J0D01*
G01*
X124085000Y-70912500D01*
G75*
G02*
X123835000Y-70662500I0J250000D01*
G01*
X123835000Y-69987500D01*
G75*
G02*
X124085000Y-69737500I250000J0D01*
G01*
G37*
G36*
G01*
X124085000Y-67662500D02*
X125035000Y-67662500D01*
G75*
G02*
X125285000Y-67912500I0J-250000D01*
G01*
X125285000Y-68587500D01*
G75*
G02*
X125035000Y-68837500I-250000J0D01*
G01*
X124085000Y-68837500D01*
G75*
G02*
X123835000Y-68587500I0J250000D01*
G01*
X123835000Y-67912500D01*
G75*
G02*
X124085000Y-67662500I250000J0D01*
G01*
G37*
%TD*%
D12*
%TO.C,SW3*%
X120000000Y-62700030D03*
X120000000Y-67299970D03*
%TD*%
%TO.C,SW2*%
X120000000Y-87299970D03*
X120000000Y-82700030D03*
%TD*%
%TO.C,SW1*%
X120000000Y-77299970D03*
X120000000Y-72700030D03*
%TD*%
%TO.C,R4*%
G36*
G01*
X142015000Y-55005000D02*
X141465000Y-55005000D01*
G75*
G02*
X141265000Y-54805000I0J200000D01*
G01*
X141265000Y-54405000D01*
G75*
G02*
X141465000Y-54205000I200000J0D01*
G01*
X142015000Y-54205000D01*
G75*
G02*
X142215000Y-54405000I0J-200000D01*
G01*
X142215000Y-54805000D01*
G75*
G02*
X142015000Y-55005000I-200000J0D01*
G01*
G37*
G36*
G01*
X142015000Y-56655000D02*
X141465000Y-56655000D01*
G75*
G02*
X141265000Y-56455000I0J200000D01*
G01*
X141265000Y-56055000D01*
G75*
G02*
X141465000Y-55855000I200000J0D01*
G01*
X142015000Y-55855000D01*
G75*
G02*
X142215000Y-56055000I0J-200000D01*
G01*
X142215000Y-56455000D01*
G75*
G02*
X142015000Y-56655000I-200000J0D01*
G01*
G37*
%TD*%
%TO.C,R3*%
G36*
G01*
X141925000Y-95615000D02*
X142475000Y-95615000D01*
G75*
G02*
X142675000Y-95815000I0J-200000D01*
G01*
X142675000Y-96215000D01*
G75*
G02*
X142475000Y-96415000I-200000J0D01*
G01*
X141925000Y-96415000D01*
G75*
G02*
X141725000Y-96215000I0J200000D01*
G01*
X141725000Y-95815000D01*
G75*
G02*
X141925000Y-95615000I200000J0D01*
G01*
G37*
G36*
G01*
X141925000Y-93965000D02*
X142475000Y-93965000D01*
G75*
G02*
X142675000Y-94165000I0J-200000D01*
G01*
X142675000Y-94565000D01*
G75*
G02*
X142475000Y-94765000I-200000J0D01*
G01*
X141925000Y-94765000D01*
G75*
G02*
X141725000Y-94565000I0J200000D01*
G01*
X141725000Y-94165000D01*
G75*
G02*
X141925000Y-93965000I200000J0D01*
G01*
G37*
%TD*%
%TO.C,R2*%
G36*
G01*
X115305000Y-57755000D02*
X115305000Y-58305000D01*
G75*
G02*
X115105000Y-58505000I-200000J0D01*
G01*
X114705000Y-58505000D01*
G75*
G02*
X114505000Y-58305000I0J200000D01*
G01*
X114505000Y-57755000D01*
G75*
G02*
X114705000Y-57555000I200000J0D01*
G01*
X115105000Y-57555000D01*
G75*
G02*
X115305000Y-57755000I0J-200000D01*
G01*
G37*
G36*
G01*
X116955000Y-57755000D02*
X116955000Y-58305000D01*
G75*
G02*
X116755000Y-58505000I-200000J0D01*
G01*
X116355000Y-58505000D01*
G75*
G02*
X116155000Y-58305000I0J200000D01*
G01*
X116155000Y-57755000D01*
G75*
G02*
X116355000Y-57555000I200000J0D01*
G01*
X116755000Y-57555000D01*
G75*
G02*
X116955000Y-57755000I0J-200000D01*
G01*
G37*
%TD*%
%TO.C,D3*%
G36*
G01*
X140430000Y-58092500D02*
X140430000Y-58567500D01*
G75*
G02*
X140192500Y-58805000I-237500J0D01*
G01*
X139617500Y-58805000D01*
G75*
G02*
X139380000Y-58567500I0J237500D01*
G01*
X139380000Y-58092500D01*
G75*
G02*
X139617500Y-57855000I237500J0D01*
G01*
X140192500Y-57855000D01*
G75*
G02*
X140430000Y-58092500I0J-237500D01*
G01*
G37*
G36*
G01*
X142180000Y-58092500D02*
X142180000Y-58567500D01*
G75*
G02*
X141942500Y-58805000I-237500J0D01*
G01*
X141367500Y-58805000D01*
G75*
G02*
X141130000Y-58567500I0J237500D01*
G01*
X141130000Y-58092500D01*
G75*
G02*
X141367500Y-57855000I237500J0D01*
G01*
X141942500Y-57855000D01*
G75*
G02*
X142180000Y-58092500I0J-237500D01*
G01*
G37*
%TD*%
%TO.C,D2*%
G36*
G01*
X140880000Y-91362500D02*
X140880000Y-91837500D01*
G75*
G02*
X140642500Y-92075000I-237500J0D01*
G01*
X140067500Y-92075000D01*
G75*
G02*
X139830000Y-91837500I0J237500D01*
G01*
X139830000Y-91362500D01*
G75*
G02*
X140067500Y-91125000I237500J0D01*
G01*
X140642500Y-91125000D01*
G75*
G02*
X140880000Y-91362500I0J-237500D01*
G01*
G37*
G36*
G01*
X142630000Y-91362500D02*
X142630000Y-91837500D01*
G75*
G02*
X142392500Y-92075000I-237500J0D01*
G01*
X141817500Y-92075000D01*
G75*
G02*
X141580000Y-91837500I0J237500D01*
G01*
X141580000Y-91362500D01*
G75*
G02*
X141817500Y-91125000I237500J0D01*
G01*
X142392500Y-91125000D01*
G75*
G02*
X142630000Y-91362500I0J-237500D01*
G01*
G37*
%TD*%
%TO.C,D1*%
G36*
G01*
X116400000Y-59722500D02*
X116400000Y-60197500D01*
G75*
G02*
X116162500Y-60435000I-237500J0D01*
G01*
X115587500Y-60435000D01*
G75*
G02*
X115350000Y-60197500I0J237500D01*
G01*
X115350000Y-59722500D01*
G75*
G02*
X115587500Y-59485000I237500J0D01*
G01*
X116162500Y-59485000D01*
G75*
G02*
X116400000Y-59722500I0J-237500D01*
G01*
G37*
G36*
G01*
X118150000Y-59722500D02*
X118150000Y-60197500D01*
G75*
G02*
X117912500Y-60435000I-237500J0D01*
G01*
X117337500Y-60435000D01*
G75*
G02*
X117100000Y-60197500I0J237500D01*
G01*
X117100000Y-59722500D01*
G75*
G02*
X117337500Y-59485000I237500J0D01*
G01*
X117912500Y-59485000D01*
G75*
G02*
X118150000Y-59722500I0J-237500D01*
G01*
G37*
%TD*%
D13*
%TO.C,U2*%
X102470000Y-62680000D03*
X102470000Y-67280000D03*
X102470000Y-64980000D03*
D14*
X108770000Y-64980000D03*
%TD*%
%TO.C,R1*%
G36*
G01*
X140515000Y-86395000D02*
X141065000Y-86395000D01*
G75*
G02*
X141265000Y-86595000I0J-200000D01*
G01*
X141265000Y-86995000D01*
G75*
G02*
X141065000Y-87195000I-200000J0D01*
G01*
X140515000Y-87195000D01*
G75*
G02*
X140315000Y-86995000I0J200000D01*
G01*
X140315000Y-86595000D01*
G75*
G02*
X140515000Y-86395000I200000J0D01*
G01*
G37*
G36*
G01*
X140515000Y-84745000D02*
X141065000Y-84745000D01*
G75*
G02*
X141265000Y-84945000I0J-200000D01*
G01*
X141265000Y-85345000D01*
G75*
G02*
X141065000Y-85545000I-200000J0D01*
G01*
X140515000Y-85545000D01*
G75*
G02*
X140315000Y-85345000I0J200000D01*
G01*
X140315000Y-84945000D01*
G75*
G02*
X140515000Y-84745000I200000J0D01*
G01*
G37*
%TD*%
D15*
%TO.C,J3*%
X136150000Y-52140000D03*
X136150000Y-54680000D03*
X133610000Y-52140000D03*
X133610000Y-54680000D03*
X131070000Y-52140000D03*
X131070000Y-54680000D03*
X128530000Y-52140000D03*
X128530000Y-54680000D03*
X125990000Y-52140000D03*
X125990000Y-54680000D03*
X123450000Y-52140000D03*
X123450000Y-54680000D03*
X120910000Y-52140000D03*
X120910000Y-54680000D03*
X118370000Y-52140000D03*
X118370000Y-54680000D03*
X115830000Y-52140000D03*
X115830000Y-54680000D03*
X113290000Y-52140000D03*
D16*
X113290000Y-54680000D03*
%TD*%
D15*
%TO.C,J2*%
X136150000Y-95320000D03*
X136150000Y-97860000D03*
X133610000Y-95320000D03*
X133610000Y-97860000D03*
X131070000Y-95320000D03*
X131070000Y-97860000D03*
X128530000Y-95320000D03*
X128530000Y-97860000D03*
X125990000Y-95320000D03*
X125990000Y-97860000D03*
X123450000Y-95320000D03*
X123450000Y-97860000D03*
X120910000Y-95320000D03*
X120910000Y-97860000D03*
X118370000Y-95320000D03*
X118370000Y-97860000D03*
X115830000Y-95320000D03*
X115830000Y-97860000D03*
X113290000Y-95320000D03*
D16*
X113290000Y-97860000D03*
%TD*%
D17*
%TO.C,J1*%
X105800000Y-77500000D03*
X105800000Y-72500000D03*
D18*
X103050000Y-78875000D03*
X103050000Y-71125000D03*
D19*
X106850000Y-78725000D03*
X106850000Y-71275000D03*
D20*
X106900000Y-76300000D03*
X106900000Y-75650000D03*
X106900000Y-75000000D03*
X106900000Y-74350000D03*
X106900000Y-73700000D03*
%TD*%
D21*
%TO.C,H4*%
X147000000Y-97000000D03*
%TD*%
%TO.C,H3*%
X103000000Y-97000000D03*
%TD*%
%TO.C,H2*%
X147000000Y-53000000D03*
%TD*%
%TO.C,H1*%
X103000000Y-53000000D03*
%TD*%
D22*
%TO.C,CON1*%
X107775000Y-90080000D03*
X109045000Y-90080000D03*
X107775000Y-88810000D03*
X109045000Y-88810000D03*
X107775000Y-87540000D03*
X109045000Y-87540000D03*
X107775000Y-86270000D03*
X109045000Y-86270000D03*
X109045000Y-85000000D03*
D23*
X107775000Y-85000000D03*
%TD*%
M02*
