%TF.GenerationSoftware,KiCad,Pcbnew,(5.1.12-1-10_14)*%
%TF.CreationDate,2022-01-30T11:35:25+08:00*%
%TF.ProjectId,bl600-sa-devboard,626c3630-302d-4736-912d-646576626f61,rev?*%
%TF.SameCoordinates,Original*%
%TF.FileFunction,Copper,L4,Bot*%
%TF.FilePolarity,Positive*%
%FSLAX46Y46*%
G04 Gerber Fmt 4.6, Leading zero omitted, Abs format (unit mm)*
G04 Created by KiCad (PCBNEW (5.1.12-1-10_14)) date 2022-01-30 11:35:25*
%MOMM*%
%LPD*%
G01*
G04 APERTURE LIST*
%TA.AperFunction,ComponentPad*%
%ADD10O,1.700000X1.700000*%
%TD*%
%TA.AperFunction,ComponentPad*%
%ADD11R,1.700000X1.700000*%
%TD*%
%TA.AperFunction,ComponentPad*%
%ADD12O,1.800000X1.000000*%
%TD*%
%TA.AperFunction,ComponentPad*%
%ADD13O,2.000000X1.000000*%
%TD*%
%TA.AperFunction,ComponentPad*%
%ADD14O,1.000000X1.000000*%
%TD*%
%TA.AperFunction,ComponentPad*%
%ADD15R,1.000000X1.000000*%
%TD*%
%TA.AperFunction,ViaPad*%
%ADD16C,0.450000*%
%TD*%
%TA.AperFunction,Conductor*%
%ADD17C,0.300000*%
%TD*%
%TA.AperFunction,Conductor*%
%ADD18C,0.200000*%
%TD*%
%TA.AperFunction,Conductor*%
%ADD19C,0.450000*%
%TD*%
G04 APERTURE END LIST*
D10*
%TO.P,J3,20*%
%TO.N,GND*%
X136150000Y-52140000D03*
%TO.P,J3,19*%
X136150000Y-54680000D03*
%TO.P,J3,18*%
X133610000Y-52140000D03*
%TO.P,J3,17*%
X133610000Y-54680000D03*
%TO.P,J3,16*%
%TO.N,IO_17*%
X131070000Y-52140000D03*
%TO.P,J3,15*%
%TO.N,IO_18*%
X131070000Y-54680000D03*
%TO.P,J3,14*%
%TO.N,IO_19*%
X128530000Y-52140000D03*
%TO.P,J3,13*%
%TO.N,IO_20*%
X128530000Y-54680000D03*
%TO.P,J3,12*%
%TO.N,IO_21*%
X125990000Y-52140000D03*
%TO.P,J3,11*%
%TO.N,IO_22*%
X125990000Y-54680000D03*
%TO.P,J3,10*%
%TO.N,IO_23*%
X123450000Y-52140000D03*
%TO.P,J3,9*%
%TO.N,IO_24*%
X123450000Y-54680000D03*
%TO.P,J3,8*%
%TO.N,IO_25*%
X120910000Y-52140000D03*
%TO.P,J3,7*%
%TO.N,IO_26*%
X120910000Y-54680000D03*
%TO.P,J3,6*%
%TO.N,IO_27*%
X118370000Y-52140000D03*
%TO.P,J3,5*%
%TO.N,IO_28*%
X118370000Y-54680000D03*
%TO.P,J3,4*%
%TO.N,IO_29*%
X115830000Y-52140000D03*
%TO.P,J3,3*%
%TO.N,IO_30*%
X115830000Y-54680000D03*
%TO.P,J3,2*%
%TO.N,+3V3*%
X113290000Y-52140000D03*
D11*
%TO.P,J3,1*%
X113290000Y-54680000D03*
%TD*%
D10*
%TO.P,J2,20*%
%TO.N,GND*%
X136150000Y-95320000D03*
%TO.P,J2,19*%
X136150000Y-97860000D03*
%TO.P,J2,18*%
%TO.N,IO_16*%
X133610000Y-95320000D03*
%TO.P,J2,17*%
%TO.N,IO_15*%
X133610000Y-97860000D03*
%TO.P,J2,16*%
%TO.N,IO_14*%
X131070000Y-95320000D03*
%TO.P,J2,15*%
%TO.N,IO_13*%
X131070000Y-97860000D03*
%TO.P,J2,14*%
%TO.N,IO_12*%
X128530000Y-95320000D03*
%TO.P,J2,13*%
%TO.N,IO_11*%
X128530000Y-97860000D03*
%TO.P,J2,12*%
%TO.N,IO_10*%
X125990000Y-95320000D03*
%TO.P,J2,11*%
%TO.N,IO_9*%
X125990000Y-97860000D03*
%TO.P,J2,10*%
%TO.N,IO_8*%
X123450000Y-95320000D03*
%TO.P,J2,9*%
%TO.N,IO_7*%
X123450000Y-97860000D03*
%TO.P,J2,8*%
%TO.N,IO_6*%
X120910000Y-95320000D03*
%TO.P,J2,7*%
%TO.N,IO_5*%
X120910000Y-97860000D03*
%TO.P,J2,6*%
%TO.N,IO_4*%
X118370000Y-95320000D03*
%TO.P,J2,5*%
%TO.N,IO_3*%
X118370000Y-97860000D03*
%TO.P,J2,4*%
%TO.N,IO_2*%
X115830000Y-95320000D03*
%TO.P,J2,3*%
%TO.N,IO_1*%
X115830000Y-97860000D03*
%TO.P,J2,2*%
%TO.N,IO_0*%
X113290000Y-95320000D03*
D11*
%TO.P,J2,1*%
%TO.N,+3V3*%
X113290000Y-97860000D03*
%TD*%
D12*
%TO.P,J1,0*%
%TO.N,Net-(J1-Pad0)*%
X103050000Y-78875000D03*
X103050000Y-71125000D03*
D13*
X106850000Y-78725000D03*
X106850000Y-71275000D03*
%TD*%
D14*
%TO.P,CON1,9*%
%TO.N,GND*%
X107775000Y-90080000D03*
%TO.P,CON1,10*%
%TO.N,IO_4*%
X109045000Y-90080000D03*
%TO.P,CON1,7*%
%TO.N,SWCLK*%
X107775000Y-88810000D03*
%TO.P,CON1,8*%
%TO.N,IO_5*%
X109045000Y-88810000D03*
%TO.P,CON1,5*%
%TO.N,SWDIO*%
X107775000Y-87540000D03*
%TO.P,CON1,6*%
%TO.N,GND*%
X109045000Y-87540000D03*
%TO.P,CON1,3*%
%TO.N,+3V3*%
X107775000Y-86270000D03*
%TO.P,CON1,4*%
%TO.N,N/C*%
X109045000Y-86270000D03*
%TO.P,CON1,2*%
X109045000Y-85000000D03*
D15*
%TO.P,CON1,1*%
X107775000Y-85000000D03*
%TD*%
D16*
%TO.N,GND*%
X140600000Y-88630000D03*
X109240000Y-77050000D03*
X134960000Y-77350000D03*
X129320000Y-87490000D03*
X108830000Y-55140000D03*
X109770000Y-56460000D03*
X110400000Y-58440000D03*
X114640000Y-56830000D03*
X123830000Y-63680000D03*
X126190000Y-64920000D03*
X122970000Y-69430000D03*
X123570000Y-66600000D03*
X126460000Y-68030000D03*
X123570000Y-71920000D03*
X129590000Y-65950000D03*
X128340000Y-66980000D03*
X117600000Y-69910000D03*
X112450000Y-74850000D03*
X113610000Y-76610000D03*
X114900000Y-72610000D03*
X111030000Y-72350000D03*
X114510000Y-85670000D03*
X113810000Y-82840000D03*
X103030000Y-82910000D03*
X102390000Y-87400000D03*
X103740000Y-90670000D03*
X104440000Y-86050000D03*
X101680000Y-84960000D03*
X140430000Y-62320000D03*
X136390000Y-58400000D03*
X138120000Y-60330000D03*
X139790000Y-96320000D03*
X139850000Y-98690000D03*
X108290000Y-95670000D03*
X108030000Y-97920000D03*
X122530000Y-81050000D03*
%TO.N,+3V3*%
X110470000Y-64870000D03*
X110280000Y-66720000D03*
X110470000Y-62930000D03*
X132260000Y-77510000D03*
X122990000Y-67900000D03*
%TO.N,SWCLK*%
X140090000Y-78980000D03*
%TO.N,SWDIO*%
X139040000Y-79220000D03*
X115680000Y-79630000D03*
%TO.N,IO_16*%
X120060000Y-88360000D03*
%TO.N,IO_17*%
X139310000Y-74040000D03*
X119670000Y-61530000D03*
%TO.N,IO_18*%
X138620000Y-73440000D03*
%TO.N,IO_19*%
X137930000Y-72980000D03*
%TO.N,IO_20*%
X137270000Y-72460000D03*
%TD*%
D17*
%TO.N,SWCLK*%
X106424989Y-84012889D02*
X111792879Y-78644999D01*
X139754999Y-78644999D02*
X140090000Y-78980000D01*
X106424989Y-87459989D02*
X106424989Y-84012889D01*
X111792879Y-78644999D02*
X139754999Y-78644999D01*
X107775000Y-88810000D02*
X106424989Y-87459989D01*
%TO.N,SWDIO*%
X106924999Y-84219999D02*
X111924998Y-79220000D01*
X106924999Y-86689999D02*
X106924999Y-84219999D01*
X107775000Y-87540000D02*
X106924999Y-86689999D01*
D18*
X115380000Y-79330000D02*
X115380000Y-79220000D01*
X115680000Y-79630000D02*
X115380000Y-79330000D01*
D17*
X115380000Y-79220000D02*
X139040000Y-79220000D01*
X111924998Y-79220000D02*
X115380000Y-79220000D01*
%TO.N,Net-(J1-Pad0)*%
X106700000Y-78875000D02*
X106850000Y-78725000D01*
X103050000Y-78875000D02*
X106700000Y-78875000D01*
X106700000Y-71125000D02*
X106850000Y-71275000D01*
X103050000Y-71125000D02*
X106700000Y-71125000D01*
D19*
X103050000Y-78875000D02*
X103050000Y-71125000D01*
D17*
%TO.N,IO_4*%
X113130000Y-90080000D02*
X118370000Y-95320000D01*
X109045000Y-90080000D02*
X113130000Y-90080000D01*
%TO.N,IO_5*%
X119709999Y-96659999D02*
X120910000Y-97860000D01*
X119709999Y-94883997D02*
X119709999Y-96659999D01*
X113636002Y-88810000D02*
X119709999Y-94883997D01*
X109045000Y-88810000D02*
X113636002Y-88810000D01*
D18*
%TO.N,IO_16*%
X126650000Y-88360000D02*
X120060000Y-88360000D01*
X133610000Y-95320000D02*
X126650000Y-88360000D01*
D17*
%TO.N,IO_17*%
X139310000Y-74040000D02*
X139310000Y-65430000D01*
X132270001Y-58390001D02*
X132270001Y-53600001D01*
X139310000Y-65430000D02*
X132270001Y-58390001D01*
X131070000Y-52400000D02*
X131070000Y-52140000D01*
X132270001Y-53600001D02*
X131070000Y-52400000D01*
D18*
X120842002Y-61530000D02*
X119670000Y-61530000D01*
X129919999Y-50989999D02*
X127977999Y-50989999D01*
X127140001Y-55232001D02*
X120842002Y-61530000D01*
X127977999Y-50989999D02*
X127140001Y-51827997D01*
X127140001Y-51827997D02*
X127140001Y-55232001D01*
X131070000Y-52140000D02*
X129919999Y-50989999D01*
D17*
%TO.N,IO_18*%
X138620000Y-73440000D02*
X138620000Y-66300000D01*
X131070000Y-58750000D02*
X131070000Y-54680000D01*
X138620000Y-66300000D02*
X131070000Y-58750000D01*
%TO.N,IO_19*%
X137930000Y-72980000D02*
X137930000Y-66630000D01*
X129730001Y-53340001D02*
X128530000Y-52140000D01*
X129730001Y-58430001D02*
X129730001Y-53340001D01*
X137930000Y-66630000D02*
X129730001Y-58430001D01*
%TO.N,IO_20*%
X137270000Y-72460000D02*
X137270000Y-67910000D01*
X128530000Y-59170000D02*
X128530000Y-54680000D01*
X137270000Y-67910000D02*
X128530000Y-59170000D01*
%TD*%
M02*
